<svg width="115" height="104" viewBox="0 0 115 104" fill="none" xmlns="http://www.w3.org/2000/svg">
<path d="M21.0681 54.08C21.1148 54.2667 21.1381 54.43 21.1381 54.57C21.1381 54.7567 21.1381 54.8967 21.1381 54.99C21.1381 55.4567 21.0214 55.7833 20.7881 55.97C20.6014 56.1567 20.2048 56.25 19.5981 56.25C19.0381 56.25 18.6648 56.1567 18.4781 55.97C18.1981 55.69 17.8248 54.9667 17.3581 53.8C16.8914 52.6333 16.4014 51.2567 15.8881 49.67C15.3748 48.0833 14.8614 46.38 14.3481 44.56C13.8814 42.74 13.4614 41.0133 13.0881 39.38C12.5748 39.6133 11.8748 39.87 10.9881 40.15C10.1014 40.3833 9.19142 40.6167 8.25809 40.85C7.18475 41.0833 6.06475 41.34 4.89809 41.62C4.47809 43.6267 4.15142 45.3533 3.91809 46.8C3.73142 48.2 3.54475 49.3667 3.35809 50.3C3.21809 51.1867 3.00809 51.84 2.72809 52.26C2.49475 52.7267 2.09809 52.96 1.53809 52.96C1.16475 52.96 0.838086 52.75 0.558086 52.33C0.278086 51.91 0.138086 51.28 0.138086 50.44C0.138086 50.02 0.254753 49.04 0.488086 47.5C0.72142 45.96 0.978086 44.2567 1.25809 42.39C1.53809 40.4767 1.81809 38.5867 2.09809 36.72C2.37809 34.8533 2.56475 33.3833 2.65809 32.31C2.70475 31.75 2.84475 30.84 3.07809 29.58C3.35809 28.32 3.63809 27.0367 3.91809 25.73C4.19809 24.3767 4.47809 23.1633 4.75809 22.09C5.03809 21.0167 5.22475 20.41 5.31809 20.27C6.06475 18.5433 6.53142 16.77 6.71809 14.95C6.95142 13.13 7.11475 11.4733 7.20809 9.98C7.34809 8.44 7.55809 7.20333 7.83809 6.27C8.11809 5.29 8.70142 4.8 9.58809 4.8C9.82142 4.8 10.0548 4.98667 10.2881 5.36C10.5681 5.73333 10.8248 6.17666 11.0581 6.69C11.2914 7.20333 11.4781 7.71666 11.6181 8.23C11.7581 8.69667 11.8514 9.07 11.8981 9.35C11.9448 9.63 11.9914 10.19 12.0381 11.03C12.1314 11.87 12.2014 12.8033 12.2481 13.83C12.3414 14.81 12.4114 15.79 12.4581 16.77C12.5514 17.7033 12.6214 18.4267 12.6681 18.94C12.8081 20.48 13.0181 22.2067 13.2981 24.12C13.6248 26.0333 13.9514 27.83 14.2781 29.51C14.6048 31.19 14.9081 32.6133 15.1881 33.78C15.4681 34.9 15.6781 35.46 15.8181 35.46C16.0048 35.46 16.2381 35.4133 16.5181 35.32C16.8448 35.2267 17.1481 35.18 17.4281 35.18C17.8014 35.18 17.9881 35.3667 17.9881 35.74C17.9881 36.1133 17.8948 36.4167 17.7081 36.65C17.5214 36.8833 17.3114 37.0933 17.0781 37.28C16.8914 37.4667 16.7048 37.63 16.5181 37.77C16.3781 37.91 16.3081 38.0733 16.3081 38.26C16.3081 38.6333 16.5181 39.59 16.9381 41.13L18.0581 45.26C18.1514 45.6333 18.3614 46.2633 18.6881 47.15C19.0148 48.0367 19.3414 48.97 19.6681 49.95C20.0414 50.8833 20.3681 51.7467 20.6481 52.54C20.9281 53.38 21.0681 53.8933 21.0681 54.08ZM5.52809 38.05C5.80809 38.05 6.32142 37.98 7.06809 37.84C7.81475 37.6533 8.58475 37.4433 9.37809 37.21C10.1714 36.9767 10.8714 36.7433 11.4781 36.51C12.0848 36.2767 12.3881 36.09 12.3881 35.95C12.3881 35.81 12.2948 35.46 12.1081 34.9C11.9681 34.2933 11.7814 33.5467 11.5481 32.66C11.3614 31.7267 11.1514 30.6767 10.9181 29.51C10.6848 28.3433 10.4748 27.1067 10.2881 25.8C10.1948 24.96 10.0781 23.8167 9.93809 22.37C9.79809 20.9233 9.65809 19.5 9.51809 18.1C9.37809 16.6533 9.26142 15.4167 9.16809 14.39C9.07475 13.3633 9.02809 12.85 9.02809 12.85C9.02809 12.85 8.95809 13.2 8.81809 13.9C8.67809 14.5533 8.51475 15.3 8.32809 16.14C8.18809 16.9333 8.04809 17.7033 7.90809 18.45C7.81475 19.15 7.76809 19.5467 7.76809 19.64V21.6C7.76809 21.6933 7.69809 22.1133 7.55809 22.86C7.46475 23.56 7.32475 24.47 7.13809 25.59C6.95142 26.6633 6.74142 27.8533 6.50809 29.16C6.32142 30.42 6.13475 31.6333 5.94809 32.8C5.76142 33.9667 5.59809 35.0167 5.45809 35.95C5.36475 36.8367 5.31809 37.4433 5.31809 37.77C5.31809 37.9567 5.38809 38.05 5.52809 38.05ZM44.1856 37.07C44.1856 39.17 43.9289 41.0133 43.4156 42.6C42.9489 44.1867 42.3656 45.5167 41.6656 46.59C40.9656 47.6167 40.2423 48.3867 39.4956 48.9C38.7956 49.4133 38.2123 49.67 37.7456 49.67C37.0923 49.67 36.4623 49.39 35.8556 48.83C35.2489 48.2233 34.9456 47.6633 34.9456 47.15C34.9456 46.4033 35.2489 46.03 35.8556 46.03C36.0889 46.03 36.3223 46.1233 36.5556 46.31C36.7889 46.45 36.9989 46.5667 37.1856 46.66C37.9789 46.0067 38.7256 44.9333 39.4256 43.44C40.1723 41.9467 40.5456 39.8233 40.5456 37.07C40.5456 35.95 40.4289 34.9467 40.1956 34.06C39.9623 33.1733 39.6823 32.4267 39.3556 31.82C39.0756 31.2133 38.7723 30.7467 38.4456 30.42C38.1189 30.0933 37.8856 29.93 37.7456 29.93C37.2789 29.93 36.8123 30.3967 36.3456 31.33C35.9256 32.2633 35.5523 33.3367 35.2256 34.55C34.8989 35.7167 34.6189 36.8833 34.3856 38.05C34.1989 39.17 34.1056 39.94 34.1056 40.36C34.1523 40.64 34.1989 40.8967 34.2456 41.13C34.2923 41.3633 34.3389 41.5967 34.3856 41.83C34.4323 42.0633 34.4556 42.2967 34.4556 42.53C34.4556 43.4167 34.1523 44.21 33.5456 44.91C32.9389 45.61 32.3556 45.96 31.7956 45.96C31.5156 45.96 31.2823 45.7733 31.0956 45.4C30.9556 44.98 30.8389 44.4667 30.7456 43.86C30.6523 43.2533 30.5589 42.6233 30.4656 41.97C30.4189 41.3167 30.3489 40.7333 30.2556 40.22C29.8823 39.38 29.3923 38.05 28.7856 36.23C28.1789 34.41 27.5256 32.4733 26.8256 30.42C26.1723 28.32 25.5423 26.29 24.9356 24.33C24.3756 22.37 23.9556 20.8067 23.6756 19.64C23.0223 17.12 22.5323 14.9267 22.2056 13.06C21.8323 11.1467 21.5523 9.49 21.3656 8.09C21.1323 6.64333 20.9923 5.40666 20.9456 4.38C20.8989 3.35333 20.8756 2.49 20.8756 1.79C20.8756 1.37 21.0623 1.04333 21.4356 0.809999C21.7623 0.576664 22.0656 0.459996 22.3456 0.459996C22.7656 0.459996 23.0689 0.553329 23.2556 0.739996C23.4423 0.879997 23.5823 1.20666 23.6756 1.72C23.7223 2.23333 23.7923 2.98 23.8856 3.96C23.9323 4.94 24.0489 6.24666 24.2356 7.88C24.3289 8.67333 24.4923 9.77 24.7256 11.17C25.0056 12.57 25.3556 14.1333 25.7756 15.86C26.1956 17.5867 26.6389 19.4067 27.1056 21.32C27.6189 23.1867 28.1323 24.9833 28.6456 26.71C29.2056 28.4367 29.7423 30.0233 30.2556 31.47C30.8156 32.9167 31.3289 34.06 31.7956 34.9C32.2156 33.22 32.7289 31.7033 33.3356 30.35C33.8489 29.23 34.4789 28.2033 35.2256 27.27C35.9723 26.29 36.8823 25.8 37.9556 25.8C38.3756 25.8 38.9356 25.9867 39.6356 26.36C40.3356 26.7333 41.0123 27.3633 41.6656 28.25C42.3656 29.1367 42.9489 30.3033 43.4156 31.75C43.9289 33.1967 44.1856 34.97 44.1856 37.07ZM63.2294 35.88C63.2294 36.9067 63.0894 37.8867 62.8094 38.82C62.5294 39.7533 62.1561 40.57 61.6894 41.27C61.2227 41.97 60.6627 42.53 60.0094 42.95C59.4027 43.3233 58.7261 43.51 57.9794 43.51C56.6727 43.51 55.6461 43.1367 54.8994 42.39C54.1527 41.6433 53.5694 40.78 53.1494 39.8C52.7761 38.82 52.5194 37.84 52.3794 36.86C52.2861 35.8333 52.2394 35.0633 52.2394 34.55C52.2394 33.71 52.3561 32.7767 52.5894 31.75C52.8694 30.6767 53.2194 29.6967 53.6394 28.81C54.1061 27.9233 54.6194 27.1767 55.1794 26.57C55.7394 25.9633 56.3227 25.66 56.9294 25.66C57.0694 25.66 57.2794 25.7067 57.5594 25.8C57.8861 25.8933 58.2127 26.0333 58.5394 26.22C58.8661 26.4067 59.1461 26.64 59.3794 26.92C59.6594 27.2 59.8461 27.5267 59.9394 27.9C60.4527 27.9467 60.9661 28.1333 61.4794 28.46C61.9927 28.7867 62.2727 29.0433 62.3194 29.23C62.6927 30.4433 62.9261 31.6567 63.0194 32.87C63.1594 34.0833 63.2294 35.0867 63.2294 35.88ZM60.0794 34.62C60.0794 33.92 60.0094 33.1967 59.8694 32.45C59.7294 31.6567 59.4494 30.8633 59.0294 30.07C58.9361 30.1167 58.8194 30.14 58.6794 30.14C58.4927 30.14 58.3294 30.1167 58.1894 30.07C58.0961 30.0233 58.0027 30 57.9094 30C57.3494 30 56.9061 30.1633 56.5794 30.49C56.2527 30.77 55.9961 31.1667 55.8094 31.68C55.6694 32.1467 55.5761 32.66 55.5294 33.22C55.4827 33.78 55.4594 34.3167 55.4594 34.83C55.4594 35.3433 55.4827 35.9267 55.5294 36.58C55.5761 37.1867 55.6694 37.77 55.8094 38.33C55.9961 38.89 56.2294 39.38 56.5094 39.8C56.7894 40.1733 57.1627 40.36 57.6294 40.36C58.0961 40.36 58.4927 40.1267 58.8194 39.66C59.1461 39.1467 59.4027 38.5633 59.5894 37.91C59.7761 37.2567 59.8927 36.6267 59.9394 36.02C60.0327 35.3667 60.0794 34.9 60.0794 34.62ZM93.3486 39.38C93.3486 39.8 93.0686 40.2433 92.5086 40.71C91.9486 41.1767 91.2952 41.62 90.5486 42.04C89.8019 42.4133 89.0319 42.74 88.2386 43.02C87.4919 43.3 86.9319 43.44 86.5586 43.44C86.1386 43.44 85.6719 43.3233 85.1586 43.09C84.6919 42.8567 84.2252 42.5767 83.7586 42.25C83.3386 41.9233 82.9652 41.62 82.6386 41.34C82.3119 41.06 82.1019 40.8733 82.0086 40.78C81.8686 40.92 81.6586 41.2 81.3786 41.62C81.0986 42.04 80.7486 42.5067 80.3286 43.02C79.9552 43.4867 79.5352 43.9067 79.0686 44.28C78.6486 44.6533 78.2052 44.84 77.7386 44.84C76.5252 44.84 75.4752 44.1867 74.5886 42.88C73.7019 41.5733 72.9552 40.08 72.3486 38.4C71.7886 36.72 71.3452 35.11 71.0186 33.57C70.7386 31.9833 70.5986 30.91 70.5986 30.35C70.5986 30.0233 70.7619 29.7667 71.0886 29.58C71.4619 29.3467 71.7419 29.23 71.9286 29.23C72.5819 29.23 73.0252 29.4633 73.2586 29.93C73.4919 30.35 73.6086 30.8167 73.6086 31.33C73.6086 31.75 73.7252 32.4967 73.9586 33.57C74.2386 34.6433 74.5652 35.74 74.9386 36.86C75.3119 37.98 75.7086 38.9833 76.1286 39.87C76.5486 40.71 76.9219 41.13 77.2486 41.13C77.8552 41.13 78.3686 40.7567 78.7886 40.01C79.2552 39.2167 79.6286 38.33 79.9086 37.35C80.1886 36.3233 80.3986 35.3667 80.5386 34.48C80.6786 33.5467 80.7486 32.94 80.7486 32.66C80.7486 32.6133 80.7486 32.4733 80.7486 32.24C80.7952 31.96 80.8419 31.68 80.8886 31.4C80.9352 31.12 80.9586 30.8633 80.9586 30.63C81.0052 30.3967 81.0286 30.2333 81.0286 30.14C81.0286 29.8133 80.9586 29.6033 80.8186 29.51C80.6786 29.37 80.6086 29.1133 80.6086 28.74C80.6086 28.46 80.7486 28.2033 81.0286 27.97C81.3086 27.69 81.9152 27.55 82.8486 27.55C83.2219 27.55 83.5019 27.6667 83.6886 27.9C83.9219 28.0867 84.0852 28.32 84.1786 28.6C84.2719 28.88 84.3186 29.16 84.3186 29.44C84.3652 29.6733 84.3886 29.8367 84.3886 29.93C84.3886 29.9767 84.3652 30.3033 84.3186 30.91C84.2719 31.5167 84.2252 32.1933 84.1786 32.94C84.1786 33.64 84.1552 34.3167 84.1086 34.97C84.0619 35.6233 84.0386 36.02 84.0386 36.16C84.0386 36.3 84.1086 36.58 84.2486 37C84.3886 37.42 84.5519 37.8633 84.7386 38.33C84.9719 38.75 85.2286 39.1467 85.5086 39.52C85.7886 39.8467 86.0919 40.01 86.4186 40.01C86.9786 40.01 87.4919 39.94 87.9586 39.8C88.4719 39.6133 88.9386 39.4267 89.3586 39.24C89.8252 39.0067 90.2452 38.82 90.6186 38.68C90.9919 38.4933 91.3419 38.4 91.6686 38.4C92.0886 38.4 92.4619 38.4933 92.7886 38.68C93.1619 38.8667 93.3486 39.1 93.3486 39.38ZM114.708 19.36C114.102 20.06 113.238 20.76 112.118 21.46C110.998 22.1133 109.878 22.72 108.758 23.28C107.638 23.84 106.658 24.33 105.818 24.75C104.978 25.1233 104.558 25.38 104.558 25.52C104.558 25.66 104.652 26.08 104.838 26.78C105.025 27.48 105.235 28.32 105.468 29.3C105.748 30.2333 106.028 31.2133 106.308 32.24C106.588 33.2667 106.822 34.1767 107.008 34.97C107.102 35.4367 107.218 36.0433 107.358 36.79C107.498 37.5367 107.615 38.2833 107.708 39.03C107.848 39.7767 107.965 40.4533 108.058 41.06C108.152 41.62 108.198 41.9233 108.198 41.97C108.198 42.67 108.082 43.3933 107.848 44.14C107.615 44.8867 107.242 45.26 106.728 45.26C106.448 45.26 106.192 45.1433 105.958 44.91C105.725 44.6767 105.515 44.42 105.328 44.14C105.142 43.8133 105.002 43.51 104.908 43.23C104.815 42.95 104.768 42.74 104.768 42.6C104.768 42.5067 104.768 42.3667 104.768 42.18C104.815 41.9933 104.838 41.7833 104.838 41.55C104.838 40.6633 104.698 39.38 104.418 37.7C104.325 37.1867 104.138 36.3933 103.858 35.32C103.578 34.2467 103.298 33.15 103.018 32.03C102.692 30.7233 102.318 29.3 101.898 27.76C101.712 27.1067 101.595 26.78 101.548 26.78C101.222 26.78 100.662 26.99 99.8684 27.41C99.1217 27.7833 98.2584 28.2733 97.2784 28.88C96.2984 29.44 95.2717 30.07 94.1984 30.77C93.1251 31.4233 92.1217 32.0533 91.1884 32.66C90.2551 33.22 89.4617 33.71 88.8084 34.13C88.1084 34.5033 87.6884 34.69 87.5484 34.69C86.9417 34.69 86.4517 34.48 86.0784 34.06C85.7051 33.64 85.5184 33.1733 85.5184 32.66C85.5184 32.38 85.9151 31.9833 86.7084 31.47C87.4551 30.91 88.4117 30.3033 89.5784 29.65C90.6984 28.9967 91.9351 28.32 93.2884 27.62C94.5951 26.92 95.8084 26.29 96.9284 25.73C98.0951 25.17 99.0517 24.7033 99.7984 24.33C100.592 23.9567 100.988 23.77 100.988 23.77C100.568 21.6233 100.218 19.71 99.9384 18.03C99.7051 16.5833 99.4717 15.2533 99.2384 14.04C99.0517 12.8267 98.9584 12.1733 98.9584 12.08C98.9584 11.4733 99.0751 11.03 99.3084 10.75C99.5884 10.4233 99.8917 10.26 100.218 10.26C100.732 10.26 101.058 10.61 101.198 11.31C101.712 13.83 102.178 16.07 102.598 18.03C103.065 19.99 103.508 21.5767 103.928 22.79C104.348 22.6967 105.072 22.44 106.098 22.02C107.125 21.5533 108.198 21.0633 109.318 20.55C110.438 20.0367 111.442 19.5933 112.328 19.22C113.262 18.8 113.798 18.59 113.938 18.59C114.218 18.59 114.382 18.6833 114.428 18.87C114.522 19.0567 114.615 19.22 114.708 19.36ZM62.1835 99.78C62.2769 100.06 62.3702 100.317 62.4635 100.55C62.5569 100.783 62.6269 101.04 62.6735 101.32C62.7668 101.6 62.8135 101.857 62.8135 102.09C62.8135 102.417 62.6968 102.673 62.4635 102.86C62.2302 103.093 61.9502 103.28 61.6235 103.42C61.3435 103.56 61.0635 103.653 60.7835 103.7C60.5035 103.747 60.3402 103.77 60.2935 103.77C60.0135 103.77 59.5002 102.907 58.7535 101.18C58.0069 99.5 57.1902 97.12 56.3035 94.04C55.4635 90.96 54.6002 87.2967 53.7135 83.05C52.8269 78.8033 52.1035 74.1367 51.5435 69.05C51.4502 70.1233 51.2635 71.3833 50.9835 72.83C50.7502 74.23 50.3768 75.56 49.8635 76.82C49.3502 78.08 48.6735 79.1533 47.8335 80.04C47.0402 80.88 46.0135 81.3 44.7535 81.3C43.8668 81.3 42.8635 80.8333 41.7435 79.9C40.6235 78.9667 39.5268 77.87 38.4535 76.61C37.4268 75.3033 36.4702 73.9967 35.5835 72.69C34.7435 71.3367 34.1135 70.24 33.6935 69.4C33.8802 71.4533 34.1835 73.9267 34.6035 76.82C35.0702 79.7133 35.7702 82.77 36.7035 85.99C36.7968 86.3167 36.8902 86.5733 36.9835 86.76C37.1235 86.9 37.2402 87.0633 37.3335 87.25C37.4735 87.4367 37.5668 87.6467 37.6135 87.88C37.7068 88.0667 37.7535 88.37 37.7535 88.79C37.7535 89.3967 37.5202 89.84 37.0535 90.12C36.5868 90.4 36.1435 90.54 35.7235 90.54C35.4902 90.54 35.1868 90.19 34.8135 89.49C34.4402 88.7433 34.0435 87.7867 33.6235 86.62C33.2035 85.4533 32.7835 84.17 32.3635 82.77C31.9435 81.3233 31.5468 79.9 31.1735 78.5C30.8468 77.1 30.5668 75.7933 30.3335 74.58C30.1002 73.32 29.9835 72.3167 29.9835 71.57C29.9835 70.3567 30.0302 69.5167 30.1235 69.05C30.2635 68.5833 30.4502 68.2333 30.6835 68V63.73C30.6835 63.0767 30.8468 62.5867 31.1735 62.26C31.5468 61.8867 32.0135 61.7 32.5735 61.7C33.0402 61.7 33.5768 62.0967 34.1835 62.89C34.7902 63.6833 35.4435 64.6867 36.1435 65.9C36.8902 67.1133 37.6602 68.42 38.4535 69.82C39.2468 71.22 40.0168 72.5267 40.7635 73.74C41.5568 74.9533 42.3035 75.9567 43.0035 76.75C43.7502 77.5433 44.4502 77.94 45.1035 77.94C45.7102 77.94 46.2935 77.38 46.8535 76.26C47.4135 75.0933 47.9268 73.5767 48.3935 71.71C48.9068 69.8433 49.3502 67.72 49.7235 65.34C50.0968 62.96 50.4002 60.5333 50.6335 58.06C50.6335 57.78 50.6102 57.4767 50.5635 57.15C50.5169 56.7767 50.4935 56.38 50.4935 55.96C50.4935 55.4 50.6102 54.7933 50.8435 54.14C51.1235 53.4867 51.6368 53.16 52.3835 53.16C52.8035 53.16 53.1302 53.2767 53.3635 53.51C53.6435 53.7433 53.8302 54.0467 53.9235 54.42C54.0169 54.7467 54.0635 55.0967 54.0635 55.47C54.1102 55.7967 54.1335 56.0767 54.1335 56.31C54.1335 56.6833 54.0868 57.3133 53.9935 58.2C53.9469 59.04 53.9235 60.3467 53.9235 62.12C53.9235 63.66 54.0402 65.4567 54.2735 67.51C54.5069 69.5167 54.8102 71.6633 55.1835 73.95C55.6035 76.19 56.0702 78.5233 56.5835 80.95C57.1435 83.33 57.7269 85.6633 58.3335 87.95C58.9869 90.2367 59.6169 92.4067 60.2235 94.46C60.8768 96.4667 61.5302 98.24 62.1835 99.78ZM84.0022 88.65C84.0489 88.7433 84.0722 88.8833 84.0722 89.07C84.0722 89.35 83.8622 89.77 83.4422 90.33C83.3022 90.5167 82.9989 90.82 82.5322 91.24C82.0655 91.66 81.4355 92.08 80.6422 92.5C79.8489 92.92 78.8689 93.2933 77.7022 93.62C76.5822 93.9467 75.2522 94.11 73.7122 94.11C72.6389 94.11 71.5889 93.8767 70.5622 93.41C69.5355 92.8967 68.6255 92.1733 67.8322 91.24C67.0389 90.26 66.3855 89.07 65.8722 87.67C65.3589 86.2233 65.1022 84.5433 65.1022 82.63C65.1022 80.81 65.3355 79.1067 65.8022 77.52C66.2689 75.9333 66.8522 74.5333 67.5522 73.32C68.2989 72.1067 69.1155 71.15 70.0022 70.45C70.8889 69.75 71.7522 69.4 72.5922 69.4C73.3389 69.4 74.0855 69.5633 74.8322 69.89C75.6255 70.17 76.3255 70.5433 76.9322 71.01C77.5855 71.4767 78.0989 72.0133 78.4722 72.62C78.8455 73.18 79.0322 73.7633 79.0322 74.37C79.0322 75.07 78.7055 75.7933 78.0522 76.54C77.4455 77.2867 76.6989 77.9867 75.8122 78.64C74.9255 79.2467 74.0389 79.76 73.1522 80.18C72.2655 80.5533 71.5655 80.74 71.0522 80.74C70.7722 80.74 70.5155 80.6233 70.2822 80.39C70.0955 80.11 70.0022 79.7833 70.0022 79.41C70.0022 78.7567 70.2822 78.2433 70.8422 77.87C71.4489 77.4967 72.1022 77.17 72.8022 76.89C73.5022 76.5633 74.1322 76.19 74.6922 75.77C75.2989 75.35 75.6022 74.7667 75.6022 74.02C75.6022 73.9267 75.4855 73.6933 75.2522 73.32C75.0189 72.9467 74.3889 72.76 73.3622 72.76C72.8955 72.76 72.3589 73.04 71.7522 73.6C71.1455 74.1133 70.5622 74.8367 70.0022 75.77C69.4422 76.6567 68.9755 77.73 68.6022 78.99C68.2289 80.2033 68.0422 81.5333 68.0422 82.98C68.0422 84.1933 68.2522 85.29 68.6722 86.27C69.1389 87.25 69.7222 88.09 70.4222 88.79C71.1222 89.4433 71.9389 89.9567 72.8722 90.33C73.8055 90.7033 74.7622 90.89 75.7422 90.89C76.4422 90.89 77.1889 90.75 77.9822 90.47C78.8222 90.1433 79.5922 89.8167 80.2922 89.49C81.0389 89.1167 81.6689 88.79 82.1822 88.51C82.7422 88.1833 83.0922 88.02 83.2322 88.02C83.3722 88.02 83.5122 88.09 83.6522 88.23C83.8389 88.37 83.9555 88.51 84.0022 88.65Z" fill="black"/>
</svg>
