<?xml version="1.0" encoding="UTF-8" standalone="no"?>
<!DOCTYPE svg PUBLIC "-//W3C//DTD SVG 1.1//EN" "http://www.w3.org/Graphics/SVG/1.1/DTD/svg11.dtd">
<svg width="100%" height="100%" viewBox="0 0 187 235" version="1.1" xmlns="http://www.w3.org/2000/svg" xmlns:xlink="http://www.w3.org/1999/xlink" xml:space="preserve" xmlns:serif="http://www.serif.com/" style="fill-rule:evenodd;clip-rule:evenodd;stroke-linejoin:round;stroke-miterlimit:2;">
    <g transform="matrix(0.879497,-0.173301,0.173301,0.879497,-7.9925,30.1389)">
        <path d="M69.661,192.166C69.745,192.421 69.831,192.655 69.917,192.869C70.001,193.081 70.065,193.317 70.109,193.572C70.193,193.828 70.236,194.062 70.236,194.276C70.236,194.574 70.129,194.808 69.917,194.979C69.703,195.191 69.448,195.363 69.15,195.49C68.894,195.618 68.638,195.703 68.382,195.746C68.127,195.788 67.977,195.81 67.935,195.81C67.679,195.81 67.21,195.021 66.528,193.444C65.845,191.91 65.1,189.736 64.29,186.923C63.523,184.11 62.734,180.763 61.925,176.885C61.114,173.005 60.454,168.743 59.943,164.098C59.857,165.077 59.687,166.228 59.431,167.55C59.218,168.829 58.876,170.044 58.408,171.195C57.939,172.345 57.321,173.325 56.554,174.136C55.829,174.903 54.892,175.287 53.741,175.287C52.93,175.287 52.015,174.859 50.992,174.008C49.967,173.155 48.966,172.154 47.987,171.003C47.048,169.809 46.175,168.615 45.364,167.422C44.597,166.186 44.021,165.185 43.638,164.417C43.809,166.292 44.085,168.552 44.469,171.195C44.896,173.836 45.535,176.629 46.387,179.57C46.473,179.868 46.558,180.102 46.643,180.274C46.771,180.401 46.878,180.55 46.962,180.721C47.09,180.891 47.176,181.083 47.218,181.297C47.304,181.467 47.346,181.744 47.346,182.128C47.346,182.681 47.134,183.087 46.707,183.343C46.281,183.598 45.876,183.726 45.492,183.726C45.28,183.726 45.002,183.406 44.661,182.767C44.321,182.084 43.957,181.211 43.574,180.146C43.19,179.079 42.807,177.908 42.423,176.629C42.039,175.307 41.677,174.008 41.336,172.729C41.038,171.45 40.782,170.256 40.569,169.149C40.357,167.998 40.249,167.081 40.249,166.399C40.249,165.291 40.293,164.524 40.377,164.098C40.505,163.671 40.676,163.351 40.888,163.139L40.888,159.239C40.888,158.641 41.038,158.194 41.336,157.896C41.677,157.554 42.103,157.384 42.615,157.384C43.042,157.384 43.532,157.746 44.085,158.471C44.64,159.195 45.236,160.112 45.876,161.221C46.558,162.328 47.262,163.522 47.987,164.801C48.71,166.08 49.414,167.273 50.097,168.381C50.82,169.489 51.503,170.406 52.143,171.131C52.824,171.854 53.463,172.218 54.061,172.218C54.614,172.218 55.148,171.706 55.659,170.683C56.171,169.617 56.639,168.232 57.066,166.527C57.534,164.821 57.939,162.883 58.28,160.709C58.621,158.535 58.898,156.318 59.112,154.06C59.112,153.804 59.09,153.527 59.048,153.229C59.004,152.887 58.984,152.525 58.984,152.142C58.984,151.63 59.09,151.075 59.303,150.479C59.559,149.882 60.027,149.584 60.71,149.584C61.094,149.584 61.392,149.69 61.605,149.904C61.861,150.117 62.031,150.394 62.117,150.735C62.201,151.033 62.244,151.353 62.244,151.694C62.287,151.992 62.308,152.248 62.308,152.461C62.308,152.801 62.265,153.377 62.181,154.188C62.137,154.955 62.117,156.148 62.117,157.768C62.117,159.175 62.223,160.815 62.436,162.691C62.649,164.524 62.926,166.484 63.267,168.573C63.651,170.619 64.077,172.75 64.546,174.967C65.058,177.141 65.59,179.271 66.145,181.361C66.74,183.449 67.316,185.431 67.871,187.307C68.467,189.139 69.064,190.759 69.661,192.166ZM132.894,191.654C132.894,191.952 132.788,192.272 132.574,192.613C132.362,192.953 132.063,193.125 131.679,193.125C131.467,193.125 131.232,193.061 130.976,192.933C129.441,192.208 127.651,191.611 125.605,191.143C123.559,190.716 121.449,190.332 119.276,189.992C117.145,189.65 115.056,189.267 113.01,188.841C110.964,188.457 109.174,187.946 107.639,187.307C107.895,187.86 108.151,188.308 108.406,188.649C108.662,188.989 108.876,189.289 109.046,189.544C109.259,189.8 109.429,190.034 109.557,190.248C109.685,190.503 109.749,190.823 109.749,191.207C109.749,191.547 109.621,191.803 109.365,191.974C109.11,192.144 108.854,192.23 108.598,192.23C108.087,192.23 107.533,191.91 106.936,191.271C106.382,190.631 105.807,189.821 105.21,188.841C104.614,187.86 104.017,186.773 103.419,185.58C102.866,184.344 102.354,183.151 101.885,182C101.417,180.849 101.012,179.804 100.67,178.867C100.33,177.886 100.095,177.141 99.967,176.629L97.154,165.376C97.154,165.249 97.175,165.077 97.218,164.865C97.303,164.651 97.473,164.438 97.729,164.226C97.559,163.884 97.473,163.522 97.473,163.139C97.473,161.944 98.156,160.857 99.519,159.878C100.884,158.855 102.524,158.002 104.442,157.32C106.404,156.595 108.45,156.042 110.58,155.658C112.712,155.275 114.524,155.083 116.015,155.083C116.442,155.083 117.081,155.125 117.933,155.211C118.786,155.253 119.617,155.402 120.426,155.658C121.279,155.914 122.004,156.318 122.6,156.873C123.24,157.384 123.559,158.108 123.559,159.047C123.559,159.942 123.091,160.965 122.153,162.116C121.258,163.267 120.128,164.481 118.764,165.76C117.401,167.039 115.93,168.36 114.352,169.724C112.776,171.045 111.305,172.388 109.941,173.752C108.578,175.073 107.427,176.373 106.488,177.652C105.593,178.887 105.146,180.038 105.146,181.105C105.146,181.914 105.487,182.639 106.169,183.279C106.894,183.874 107.789,184.408 108.854,184.877C109.92,185.345 111.071,185.75 112.307,186.092C113.585,186.432 114.78,186.709 115.887,186.923C117.038,187.135 118.019,187.307 118.828,187.434C119.681,187.519 120.192,187.562 120.362,187.562C120.917,187.562 121.876,187.626 123.24,187.754C124.604,187.882 125.989,188.116 127.395,188.457C128.846,188.755 130.124,189.161 131.232,189.672C132.34,190.184 132.894,190.844 132.894,191.654ZM149.052,166.335C149.01,166.292 148.968,166.228 148.924,166.144C148.754,165.972 148.562,165.888 148.349,165.888C147.198,165.888 145.578,166.335 143.489,167.231C141.444,168.126 138.78,169.361 135.497,170.939L134.411,171.45C134.538,170.384 134.816,169.255 135.242,168.062C135.711,166.867 136.223,165.717 136.776,164.609C137.331,163.501 137.905,162.52 138.502,161.668C139.1,160.773 139.611,160.09 140.037,159.622C141.146,158.983 142.339,158.407 143.617,157.896C144.938,157.341 146.197,156.957 147.39,156.745C147.731,156.659 148.115,156.553 148.54,156.425C148.968,156.254 149.18,155.998 149.18,155.658C149.18,155.359 149.074,155.083 148.86,154.827C148.69,154.571 148.413,154.443 148.029,154.443C147.689,154.443 147.241,154.507 146.686,154.635C146.175,154.763 145.621,154.911 145.024,155.083C144.428,155.253 143.853,155.402 143.298,155.53C142.786,155.658 142.36,155.722 142.019,155.722C141.849,155.722 141.721,155.7 141.635,155.658C141.593,155.572 141.487,155.53 141.316,155.53C140.932,155.53 140.293,155.764 139.398,156.234C138.502,156.659 137.586,157.193 136.648,157.832C135.753,158.471 134.944,159.153 134.219,159.878C133.537,160.602 133.196,161.263 133.196,161.86C133.196,162.371 133.388,162.669 133.771,162.755C134.155,162.839 134.518,162.883 134.858,162.883C134.049,164.417 133.367,165.952 132.812,167.486C132.301,168.977 131.853,170.534 131.469,172.154L130.83,172.537C130.49,172.707 130.191,172.899 129.935,173.113C129.679,173.325 129.551,173.602 129.551,173.944C129.551,174.284 129.615,174.562 129.743,174.775C129.913,174.945 130.085,175.073 130.255,175.159C130.468,175.243 130.66,175.329 130.83,175.414C131.001,175.457 131.086,175.499 131.086,175.542C131.086,175.755 131.044,176.16 130.958,176.757C130.872,177.353 130.83,177.737 130.83,177.908C130.83,181.233 131.661,183.918 133.324,185.964C134.986,188.01 137.651,189.033 141.316,189.033C141.999,189.033 142.766,188.925 143.617,188.713C144.512,188.457 145.344,188.094 146.111,187.626C146.922,187.115 147.581,186.475 148.093,185.708C148.648,184.897 148.924,183.938 148.924,182.831C148.924,182.745 148.86,182.575 148.732,182.32C148.648,182.064 148.349,181.914 147.837,181.872C147.709,182.511 147.369,183.087 146.814,183.598C146.26,184.11 145.621,184.557 144.896,184.941C144.215,185.281 143.489,185.559 142.722,185.772C141.999,185.942 141.38,186.028 140.868,186.028C139.675,186.028 138.63,185.793 137.735,185.325C136.84,184.855 136.073,184.238 135.434,183.47C134.838,182.703 134.389,181.85 134.091,180.913C133.793,179.932 133.643,178.953 133.643,177.972L133.643,176.757C133.643,176.629 133.687,176.33 133.771,175.862C133.857,175.393 133.899,175.115 133.899,175.031C135.263,174.476 136.82,173.773 138.566,172.921C140.314,172.026 141.977,171.151 143.553,170.3C145.131,169.404 146.452,168.615 147.517,167.934C148.584,167.209 149.116,166.719 149.116,166.463C149.116,166.378 149.094,166.335 149.052,166.335ZM92.402,173.56C92.402,173.219 92.36,172.771 92.274,172.218C92.062,170.512 91.614,168.829 90.931,167.167C90.292,165.461 89.504,163.948 88.566,162.627C87.671,161.305 86.691,160.24 85.625,159.43C84.602,158.577 83.643,158.152 82.748,158.152C82.492,158.152 82.258,158.172 82.044,158.216C81.832,158.258 81.618,158.28 81.405,158.28C80.766,158.28 80.234,158.194 79.806,158.024C79.423,157.852 79.147,157.768 78.975,157.768C78.677,157.768 78.23,157.896 77.633,158.152C77.079,158.364 76.504,158.641 75.906,158.983C75.353,159.281 74.863,159.6 74.436,159.942C74.052,160.282 73.86,160.559 73.86,160.773C73.86,160.985 73.924,161.157 74.052,161.285C74.224,161.412 74.308,161.54 74.308,161.668C73.712,162.989 73.243,164.545 72.901,166.335C72.603,168.082 72.454,170.192 72.454,172.665C72.454,174.37 72.753,176.096 73.349,177.844C73.988,179.549 74.841,181.105 75.906,182.511C76.973,183.874 78.188,185.005 79.551,185.9C80.915,186.752 82.364,187.179 83.898,187.179C85.561,187.179 86.925,186.731 87.99,185.836C89.099,184.897 89.972,183.79 90.612,182.511C91.295,181.189 91.763,179.804 92.018,178.355C92.317,176.905 92.466,175.648 92.466,174.583C92.466,174.242 92.445,173.9 92.402,173.56ZM89.205,171.259C89.547,172.75 89.717,173.9 89.717,174.711C89.717,175.478 89.632,176.416 89.461,177.524C89.291,178.59 88.993,179.634 88.566,180.657C88.182,181.68 87.628,182.554 86.903,183.279C86.18,183.96 85.241,184.302 84.09,184.302C82.386,184.302 80.979,183.747 79.87,182.639C78.763,181.531 77.868,180.274 77.185,178.867C76.546,177.417 76.098,176.032 75.842,174.711C75.587,173.347 75.459,172.43 75.459,171.962C75.459,170.64 75.544,169.319 75.715,167.998C75.886,166.676 76.12,165.504 76.418,164.481C76.759,163.458 77.165,162.627 77.633,161.988C78.144,161.348 78.741,161.029 79.423,161.029C79.466,161.029 79.615,161.049 79.87,161.093C80.126,161.093 80.404,161.113 80.702,161.157C81.001,161.157 81.257,161.177 81.469,161.221L81.98,161.221C83.175,161.221 84.24,161.774 85.177,162.883C86.158,163.99 86.989,165.291 87.671,166.783C88.353,168.232 88.865,169.724 89.205,171.259ZM120.554,159.111C120.554,158.811 120.406,158.556 120.107,158.343C119.809,158.088 119.403,157.896 118.892,157.768C118.424,157.597 117.891,157.491 117.294,157.448C116.74,157.363 116.186,157.32 115.631,157.32C114.78,157.32 113.757,157.448 112.562,157.704C111.369,157.96 110.154,158.28 108.918,158.663C107.725,159.047 106.616,159.43 105.593,159.814C104.57,160.198 103.825,160.517 103.355,160.773C102.46,161.285 101.587,161.86 100.734,162.499C99.882,163.095 99.455,163.692 99.455,164.29C99.455,164.374 99.519,164.46 99.647,164.545C99.775,164.63 99.839,164.779 99.839,164.993C99.839,165.249 99.967,165.908 100.223,166.975C100.478,167.998 100.778,169.169 101.118,170.491C101.459,171.77 101.821,173.049 102.205,174.328C102.632,175.606 103.015,176.629 103.355,177.396C105.103,174.923 106.979,172.771 108.982,170.939C111.028,169.063 112.904,167.422 114.608,166.016C116.314,164.566 117.721,163.309 118.828,162.244C119.979,161.135 120.554,160.09 120.554,159.111ZM88.258,122.835C88.258,123.565 87.924,124.467 87.255,125.542C86.586,126.616 85.684,127.66 84.549,128.674C83.413,129.687 82.096,130.549 80.596,131.258C79.096,131.968 77.535,132.322 75.913,132.322C75.183,132.322 74.413,132.201 73.602,131.957C72.791,131.714 72.001,131.359 71.231,130.893C70.46,130.427 69.771,129.859 69.163,129.19C68.555,128.522 68.109,127.761 67.825,126.91C67.582,127.153 67.288,127.559 66.943,128.126C66.599,128.694 66.224,129.272 65.818,129.859C65.413,130.447 64.967,130.954 64.48,131.38C63.994,131.805 63.487,132.018 62.96,132.018C62.433,132.018 61.997,131.745 61.652,131.197C61.308,130.65 61.034,130.042 60.831,129.373C60.629,128.704 60.487,128.065 60.406,127.457C60.325,126.849 60.284,126.505 60.284,126.423C60.284,125.937 60.426,125.015 60.71,123.656C60.994,122.298 61.419,120.889 61.987,119.43C62.555,117.97 63.274,116.673 64.146,115.538C65.017,114.403 66.041,113.835 67.217,113.835C67.663,113.835 67.957,114.028 68.099,114.413C68.241,114.798 68.312,115.173 68.312,115.538L68.312,117.362C68.514,117.524 68.727,117.636 68.95,117.697C69.173,117.758 69.376,117.839 69.558,117.94C69.741,118.041 69.883,118.193 69.984,118.396C70.085,118.599 70.136,118.923 70.136,119.369C70.136,119.653 70.116,119.906 70.075,120.129C70.035,120.352 70.014,120.565 70.014,120.768C70.014,121.822 70.095,122.856 70.258,123.869C70.42,124.883 70.744,125.785 71.231,126.576C71.717,127.366 72.386,128.015 73.237,128.522C74.089,129.028 75.224,129.282 76.643,129.282C78.427,129.282 79.937,128.907 81.174,128.157C82.41,127.407 83.444,126.576 84.275,125.663C85.106,124.751 85.765,123.92 86.251,123.17C86.738,122.42 87.143,122.045 87.468,122.045C87.995,122.045 88.258,122.308 88.258,122.835ZM107.232,128.005C107.232,128.248 107.151,128.491 106.989,128.734C106.827,128.978 106.634,129.201 106.411,129.403C106.188,129.606 105.945,129.778 105.681,129.92C105.418,130.062 105.185,130.133 104.982,130.133C104.293,130.133 103.411,129.981 102.337,129.677C101.262,129.373 100.401,128.897 99.752,128.248C99.063,127.559 98.455,126.738 97.928,125.785C97.401,124.832 96.813,123.423 96.164,121.558C95.718,123.342 95.201,125.106 94.613,126.849C94.025,128.592 93.083,130.194 91.785,131.653C91.704,131.735 91.583,131.775 91.421,131.775C91.137,131.775 90.833,131.633 90.508,131.349C90.184,131.066 90.022,130.782 90.022,130.498C90.022,130.214 89.991,129.555 89.931,128.522C89.87,127.488 89.799,126.332 89.718,125.055C89.637,123.778 89.566,122.481 89.505,121.163C89.444,119.845 89.414,118.761 89.414,117.91C89.414,117.504 89.434,116.967 89.475,116.298C89.515,115.629 89.637,115.051 89.839,114.565C89.88,114.484 90.032,114.322 90.296,114.078C90.559,113.835 90.853,113.713 91.177,113.713C91.461,113.713 91.623,113.896 91.664,114.261C91.704,114.626 91.725,115.031 91.725,115.477L91.725,125.086C91.725,125.288 91.755,125.572 91.816,125.937C91.877,126.302 91.968,126.565 92.09,126.728C92.536,125.755 92.951,124.609 93.336,123.292C93.721,121.974 94.096,120.717 94.461,119.521C94.826,118.325 95.191,117.312 95.556,116.48C95.921,115.649 96.286,115.234 96.651,115.234C97.056,115.234 97.38,115.315 97.624,115.477C97.867,115.639 98.07,115.964 98.232,116.45C98.434,117.626 98.597,118.67 98.718,119.582C98.84,120.494 98.992,121.315 99.174,122.045C99.357,122.775 99.62,123.454 99.965,124.082C100.309,124.711 100.786,125.288 101.394,125.815C101.962,126.342 102.6,126.728 103.31,126.971C104.019,127.214 104.637,127.336 105.164,127.336C105.408,127.336 105.671,127.285 105.955,127.184C106.239,127.082 106.441,127.032 106.563,127.032C106.725,127.032 106.877,127.174 107.019,127.457C107.161,127.741 107.232,127.924 107.232,128.005ZM127.605,125.694C127.605,125.896 127.513,126.089 127.331,126.271C127.148,126.454 127.037,126.646 126.996,126.849C126.996,127.295 127.088,127.721 127.27,128.126C127.453,128.532 127.544,129.018 127.544,129.586C127.544,130.113 127.382,130.376 127.057,130.376C126.652,130.376 126.358,130.427 126.175,130.528C125.993,130.63 125.679,130.721 125.233,130.802C124.99,130.802 124.726,130.579 124.442,130.133C124.28,129.93 124.138,129.687 124.017,129.403C124.017,129.363 123.905,129.444 123.682,129.647C123.459,129.849 123.094,130.082 122.587,130.346C122.081,130.609 121.391,130.853 120.52,131.076C119.648,131.299 118.543,131.41 117.205,131.41C116.07,131.41 115.077,131.157 114.226,130.65C113.374,130.143 112.675,129.484 112.128,128.674C111.58,127.863 111.175,126.94 110.911,125.907C110.648,124.873 110.516,123.829 110.516,122.775C110.516,121.802 110.627,120.879 110.85,120.008C111.073,119.136 111.388,118.366 111.793,117.697C112.198,117.028 112.705,116.491 113.313,116.085C113.922,115.68 114.631,115.477 115.442,115.477C116.212,115.477 116.982,115.72 117.753,116.207C118.523,116.693 119.212,117.22 119.82,117.788C120.429,118.356 120.925,118.872 121.31,119.339C121.696,119.805 121.888,120.038 121.888,120.038C121.32,116.876 120.814,114.018 120.368,111.463C120.165,110.369 119.972,109.284 119.79,108.21C119.608,107.135 119.435,106.173 119.273,105.321C119.111,104.47 118.979,103.75 118.878,103.162C118.776,102.574 118.726,102.22 118.726,102.098C118.685,101.855 118.645,101.419 118.604,100.791C118.564,100.162 118.523,99.503 118.483,98.814C118.442,98.125 118.401,97.497 118.361,96.929C118.32,96.361 118.28,95.997 118.239,95.834C118.118,95.429 117.966,94.922 117.783,94.314C117.601,93.706 117.51,93.361 117.51,93.28C117.51,93.077 117.611,92.824 117.814,92.52C118.016,92.216 118.28,92.064 118.604,92.064C118.847,92.064 119.07,92.084 119.273,92.125C119.476,92.165 119.658,92.287 119.82,92.49C119.983,92.692 120.135,93.007 120.277,93.432C120.418,93.858 120.55,94.456 120.672,95.226C120.712,95.632 120.834,96.402 121.037,97.537C121.239,98.672 121.442,99.909 121.645,101.247C121.848,102.585 122.05,103.862 122.253,105.078C122.456,106.294 122.598,107.186 122.679,107.754C122.881,109.294 123.155,110.967 123.5,112.771C123.844,114.575 124.199,116.308 124.564,117.97C124.929,119.633 125.294,121.102 125.659,122.379C126.023,123.656 126.348,124.518 126.632,124.964C126.713,125.126 126.875,125.238 127.118,125.298C127.361,125.359 127.523,125.491 127.605,125.694ZM123.104,126.91C123.064,126.788 122.81,126.271 122.344,125.359C121.878,124.447 121.29,123.454 120.581,122.379C119.871,121.305 119.081,120.342 118.209,119.491C117.337,118.639 116.496,118.214 115.685,118.214C114.996,118.214 114.438,118.741 114.013,119.795C113.587,120.849 113.374,122.065 113.374,123.444C113.374,124.984 113.83,126.221 114.743,127.153C115.655,128.086 116.678,128.552 117.814,128.552C118.787,128.552 119.8,128.39 120.854,128.065C121.908,127.741 122.658,127.356 123.104,126.91ZM66.913,120.16C66.913,119.998 66.872,119.845 66.791,119.704C66.71,119.562 66.67,119.43 66.67,119.308C66.67,119.146 66.71,119.004 66.791,118.883C66.872,118.761 66.913,118.599 66.913,118.396C66.913,118.274 66.872,118.183 66.791,118.122C66.71,118.062 66.67,117.991 66.67,117.91C66.305,117.991 65.93,118.335 65.544,118.943C65.159,119.552 64.794,120.261 64.45,121.072C64.105,121.883 63.832,122.704 63.629,123.535C63.426,124.366 63.325,125.045 63.325,125.572C63.325,125.856 63.406,126.322 63.568,126.971C63.73,127.619 63.913,128.045 64.115,128.248C64.805,126.829 65.443,125.45 66.031,124.113C66.619,122.775 66.913,121.457 66.913,120.16ZM157.366,86.807C157.557,86.502 157.652,86.216 157.652,85.95C157.652,85.227 157.157,84.636 156.167,84.179C155.178,83.722 154.035,83.36 152.74,83.094C151.483,82.789 150.246,82.58 149.027,82.466C147.81,82.351 146.953,82.294 146.457,82.294C146.305,82.294 145.848,82.257 145.086,82.18C144.363,82.066 143.487,81.914 142.459,81.723C141.47,81.532 140.403,81.286 139.26,80.981C138.157,80.676 137.129,80.315 136.176,79.895C135.224,79.476 134.425,79.001 133.777,78.467C133.168,77.896 132.863,77.249 132.863,76.525C132.863,75.574 133.263,74.546 134.063,73.441C134.901,72.299 135.929,71.137 137.147,69.957C138.366,68.738 139.68,67.539 141.088,66.359C142.498,65.14 143.811,63.96 145.029,62.817C146.248,61.675 147.257,60.59 148.056,59.562C148.895,58.534 149.313,57.62 149.313,56.82C149.313,55.982 149.027,55.335 148.456,54.878C147.924,54.382 147.276,54.021 146.514,53.793C145.791,53.564 145.049,53.431 144.287,53.393C143.526,53.316 142.955,53.279 142.573,53.279C141.241,53.279 139.622,53.45 137.718,53.793C135.815,54.136 133.987,54.63 132.235,55.278C130.521,55.887 129.056,56.649 127.837,57.563C126.619,58.438 126.009,59.409 126.009,60.476C126.009,60.818 126.086,61.142 126.238,61.447C126.009,61.636 125.857,61.827 125.781,62.018C125.743,62.207 125.724,62.36 125.724,62.475L128.237,72.527C128.351,72.984 128.561,73.65 128.865,74.526C129.17,75.364 129.532,76.297 129.95,77.325C130.369,78.353 130.826,79.419 131.321,80.524C131.855,81.59 132.388,82.561 132.92,83.437C133.454,84.313 133.968,85.036 134.462,85.607C134.996,86.178 135.491,86.464 135.948,86.464C136.176,86.464 136.404,86.387 136.633,86.235C136.861,86.083 136.976,85.855 136.976,85.55C136.976,85.207 136.919,84.922 136.804,84.693C136.69,84.502 136.538,84.293 136.347,84.065C136.195,83.837 136.005,83.57 135.776,83.265C135.548,82.96 135.319,82.561 135.091,82.066C136.462,82.637 138.061,83.094 139.889,83.437C141.716,83.817 143.583,84.16 145.486,84.465C147.428,84.77 149.313,85.112 151.141,85.493C152.968,85.912 154.568,86.444 155.939,87.092C156.167,87.206 156.377,87.264 156.567,87.264C156.91,87.264 157.177,87.112 157.366,86.807ZM111.85,52.651C112.079,52.46 112.194,52.231 112.194,51.965C112.194,51.737 112.06,51.526 111.794,51.337C111.527,51.146 111.223,51.032 110.88,50.994C110.689,50.994 110.327,51.032 109.795,51.108C109.261,51.146 108.633,51.203 107.91,51.28C107.186,51.355 106.443,51.432 105.682,51.508C104.958,51.546 104.311,51.584 103.74,51.622L97.058,52.022C96.638,52.06 96.124,52.136 95.515,52.251C94.944,52.326 94.334,52.422 93.688,52.536C93.078,52.651 92.488,52.783 91.917,52.936C91.384,53.05 90.984,53.126 90.718,53.165C90.527,53.05 90.298,52.86 90.032,52.593C89.804,52.288 89.499,52.136 89.118,52.136C88.965,52.136 88.813,52.346 88.661,52.765C88.547,53.145 88.49,53.393 88.49,53.507C88.299,53.507 88.108,53.526 87.919,53.564C87.728,53.602 87.519,53.64 87.291,53.679L86.719,53.679C85.92,53.754 84.986,53.85 83.921,53.964C82.893,54.078 81.883,54.193 80.893,54.307C79.941,54.421 79.103,54.516 78.379,54.592C77.695,54.668 77.313,54.707 77.237,54.707C76.971,54.707 76.762,54.668 76.61,54.592C76.419,54.478 76.171,54.421 75.867,54.421C75.6,54.421 75.391,54.592 75.238,54.935C75.086,55.239 75.01,55.544 75.01,55.849C75.048,56.306 75.2,56.686 75.467,56.991C75.733,57.295 76.342,57.448 77.295,57.448C77.713,57.448 78.513,57.391 79.694,57.277C80.874,57.124 82.111,56.972 83.407,56.82C84.701,56.667 85.863,56.534 86.891,56.42C87.957,56.267 88.585,56.172 88.776,56.135C89.461,58.343 90.089,60.38 90.66,62.246C90.889,63.046 91.117,63.865 91.346,64.702C91.612,65.502 91.86,66.264 92.088,66.987C92.317,67.71 92.506,68.358 92.66,68.929C92.849,69.5 93.002,69.938 93.116,70.243C93.192,70.471 93.363,70.928 93.631,71.613C93.897,72.261 94.202,73.061 94.544,74.012C94.925,74.926 95.305,75.917 95.687,76.982C96.105,78.011 96.486,79.001 96.829,79.953C97.172,80.866 97.457,81.704 97.686,82.466C97.914,83.189 98.029,83.703 98.029,84.008C98.029,84.199 98.009,84.37 97.971,84.522L97.971,85.322C97.971,85.969 98.2,86.293 98.657,86.293C99.151,86.293 99.551,85.988 99.855,85.379C100.16,84.807 100.313,84.256 100.313,83.722C100.313,83.494 100.237,83.075 100.085,82.466C99.971,81.857 99.817,81.19 99.628,80.467C99.437,79.705 99.228,78.962 98.998,78.239C98.771,77.516 98.561,76.906 98.371,76.411C98.066,75.574 97.704,74.66 97.285,73.67C96.905,72.679 96.524,71.728 96.143,70.814C95.801,69.9 95.496,69.063 95.23,68.301C94.963,67.539 94.773,66.987 94.659,66.644L91.574,55.735C91.689,55.696 91.821,55.658 91.974,55.621C92.088,55.582 92.24,55.544 92.431,55.506C92.621,55.468 92.831,55.41 93.059,55.335C93.706,55.144 94.43,54.953 95.23,54.764C96.029,54.573 96.638,54.439 97.058,54.364C97.4,54.325 97.856,54.268 98.427,54.193C99.037,54.116 99.628,54.059 100.199,54.021C100.808,53.945 101.341,53.888 101.798,53.85C102.293,53.811 102.616,53.793 102.769,53.793C103.264,53.716 103.912,53.64 104.71,53.564C105.549,53.45 106.386,53.354 107.224,53.279C108.099,53.165 108.899,53.069 109.623,52.993C110.384,52.917 110.937,52.879 111.279,52.879C111.469,52.879 111.66,52.802 111.85,52.651ZM25.9,62.76C26.509,60.895 26.814,58.723 26.814,56.249C26.814,55.41 26.699,54.611 26.471,53.85C26.243,53.088 25.938,52.422 25.556,51.851C25.176,51.28 24.699,50.823 24.128,50.48C23.596,50.137 23.025,49.966 22.415,49.966C22.034,49.966 21.406,50.061 20.531,50.252C19.692,50.404 18.741,50.632 17.674,50.937C16.608,51.203 15.503,51.565 14.361,52.022C13.219,52.44 12.172,52.917 11.22,53.45C10.306,53.982 9.545,54.573 8.935,55.221C8.326,55.867 8.021,56.534 8.021,57.22C8.021,57.524 8.174,57.886 8.478,58.305C8.783,58.723 9.069,58.933 9.335,58.933C9.411,58.933 9.488,58.876 9.563,58.762C9.64,58.648 9.697,58.552 9.735,58.476C9.963,57.752 10.611,57.049 11.677,56.363C12.743,55.639 13.923,54.992 15.218,54.421C16.513,53.85 17.77,53.393 18.988,53.05C20.245,52.708 21.177,52.536 21.787,52.536C22.244,52.536 22.625,52.669 22.93,52.936C23.234,53.202 23.481,53.545 23.672,53.964C23.901,54.345 24.053,54.782 24.128,55.278C24.243,55.773 24.301,56.229 24.301,56.649C24.301,58.209 24.186,59.58 23.958,60.761C23.767,61.941 23.444,63.103 22.986,64.245C22.53,65.349 21.939,66.491 21.216,67.672C20.492,68.815 19.635,70.148 18.645,71.671L17.674,73.156C16.874,71.708 16.151,69.671 15.503,67.044C14.857,64.417 14.532,61.37 14.532,57.905C14.532,57.638 14.457,57.391 14.304,57.163C14.152,56.934 13.886,56.82 13.504,56.82C12.858,56.82 12.458,57.277 12.305,58.191C12.191,59.066 12.133,60.151 12.133,61.447C12.133,64.531 12.553,67.292 13.39,69.729C14.228,72.165 15.18,74.355 16.246,76.297C17.351,78.239 18.416,79.99 19.446,81.552C20.474,83.113 21.177,84.579 21.558,85.95C21.634,86.141 21.749,86.235 21.902,86.235C22.205,86.235 22.548,86.083 22.93,85.778C23.348,85.512 23.557,85.227 23.557,84.922C23.557,84.351 23.348,83.665 22.93,82.866C22.548,82.066 22.091,81.247 21.558,80.409C21.025,79.572 20.492,78.753 19.96,77.953C19.426,77.116 19.026,76.374 18.759,75.726C18.836,75.726 18.893,75.745 18.932,75.783L19.103,75.783C19.749,75.783 20.169,75.44 20.359,74.755C20.588,73.727 21.045,72.661 21.73,71.556C22.453,70.414 23.176,69.138 23.901,67.729C24.662,66.282 25.329,64.626 25.9,62.76ZM77.52,75.04C77.52,76.754 77.215,78.105 76.606,79.096C75.996,80.047 75.102,80.943 73.922,81.78C73.617,81.971 73.197,82.2 72.665,82.466C72.132,82.732 71.541,82.98 70.894,83.208C70.247,83.437 69.561,83.627 68.838,83.779C68.114,83.931 67.448,84.008 66.839,84.008C65.126,84.008 63.83,83.817 62.955,83.437C62.079,83.094 61.641,82.675 61.641,82.18C61.641,81.647 61.793,81.209 62.098,80.866C62.402,80.524 62.67,80.333 62.898,80.295L63.526,80.752C63.716,80.943 63.983,81.152 64.326,81.38C64.669,81.571 65.22,81.666 65.982,81.666C66.705,81.666 67.582,81.552 68.61,81.323C69.638,81.057 70.609,80.676 71.523,80.181C72.474,79.648 73.274,79.001 73.922,78.239C74.607,77.477 74.95,76.602 74.95,75.612C74.95,74.735 74.283,73.936 72.951,73.213C71.655,72.451 69.599,71.937 66.782,71.671C65.335,71.556 63.907,71.385 62.498,71.156C61.089,70.89 59.814,70.548 58.671,70.128C57.567,69.671 56.672,69.12 55.987,68.472C55.301,67.787 54.959,66.949 54.959,65.959C54.959,65.007 55.225,64.093 55.758,63.217C56.291,62.341 56.938,61.541 57.7,60.818C58.5,60.056 59.318,59.39 60.156,58.819C60.994,58.248 61.699,57.772 62.27,57.391C62.727,57.124 63.355,56.781 64.155,56.363C64.992,55.906 65.868,55.487 66.782,55.107C67.734,54.687 68.667,54.345 69.581,54.078C70.532,53.773 71.332,53.622 71.98,53.622C72.741,53.622 73.255,53.831 73.522,54.25C73.788,54.668 73.922,55.258 73.922,56.02C73.922,56.667 73.845,57.352 73.693,58.077C73.54,58.8 73.369,59.505 73.179,60.19C72.988,60.875 72.798,61.484 72.608,62.018C72.455,62.512 72.341,62.837 72.265,62.989C72.112,63.331 71.941,63.56 71.751,63.674C71.56,63.788 71.427,63.845 71.351,63.845C71.198,63.845 71.123,63.751 71.123,63.56C71.123,63.446 71.141,63.237 71.18,62.932C71.255,62.589 71.332,62.189 71.409,61.732C71.523,61.275 71.598,60.779 71.637,60.247C71.712,59.714 71.751,59.18 71.751,58.648C71.751,57.809 71.712,57.2 71.637,56.82C71.56,56.439 71.255,56.249 70.723,56.249C70.19,56.249 69.467,56.401 68.553,56.706C67.639,56.972 66.705,57.315 65.754,57.734C64.726,58.191 63.716,58.78 62.727,59.505C61.774,60.228 60.917,60.97 60.156,61.732C59.394,62.493 58.766,63.237 58.272,63.96C57.815,64.645 57.586,65.197 57.586,65.616C57.586,66.073 57.89,66.511 58.5,66.93C59.147,67.31 59.946,67.653 60.899,67.958C61.888,68.263 62.973,68.529 64.155,68.758C65.335,68.986 66.496,69.157 67.639,69.272C68.59,69.386 69.638,69.538 70.78,69.729C71.923,69.919 72.988,70.223 73.979,70.642C74.968,71.062 75.807,71.633 76.492,72.356C77.177,73.041 77.52,73.936 77.52,75.04ZM178.255,75.04C178.255,76.754 177.952,78.105 177.342,79.096C176.733,80.047 175.838,80.943 174.657,81.78C174.353,81.971 173.934,82.2 173.4,82.466C172.868,82.732 172.278,82.98 171.63,83.208C170.983,83.437 170.298,83.627 169.574,83.779C168.85,83.931 168.184,84.008 167.574,84.008C165.861,84.008 164.567,83.817 163.691,83.437C162.815,83.094 162.377,82.675 162.377,82.18C162.377,81.647 162.53,81.209 162.834,80.866C163.139,80.524 163.405,80.333 163.633,80.295L164.262,80.752C164.452,80.943 164.719,81.152 165.061,81.38C165.404,81.571 165.957,81.666 166.718,81.666C167.442,81.666 168.317,81.552 169.345,81.323C170.373,81.057 171.344,80.676 172.258,80.181C173.211,79.648 174.01,79.001 174.657,78.239C175.342,77.477 175.685,76.602 175.685,75.612C175.685,74.735 175.019,73.936 173.686,73.213C172.392,72.451 170.336,71.937 167.517,71.671C166.071,71.556 164.643,71.385 163.234,71.156C161.825,70.89 160.549,70.548 159.407,70.128C158.303,69.671 157.408,69.12 156.722,68.472C156.037,67.787 155.694,66.949 155.694,65.959C155.694,65.007 155.961,64.093 156.494,63.217C157.027,62.341 157.675,61.541 158.436,60.818C159.235,60.056 160.054,59.39 160.892,58.819C161.73,58.248 162.434,57.772 163.005,57.391C163.462,57.124 164.09,56.781 164.89,56.363C165.728,55.906 166.603,55.487 167.517,55.107C168.47,54.687 169.402,54.345 170.316,54.078C171.269,53.773 172.068,53.622 172.715,53.622C173.477,53.622 173.991,53.831 174.257,54.25C174.524,54.668 174.657,55.258 174.657,56.02C174.657,56.667 174.582,57.352 174.429,58.077C174.277,58.8 174.105,59.505 173.914,60.19C173.725,60.875 173.534,61.484 173.343,62.018C173.191,62.512 173.077,62.837 173.001,62.989C172.849,63.331 172.677,63.56 172.487,63.674C172.297,63.788 172.163,63.845 172.087,63.845C171.935,63.845 171.858,63.751 171.858,63.56C171.858,63.446 171.878,63.237 171.915,62.932C171.992,62.589 172.068,62.189 172.144,61.732C172.258,61.275 172.335,60.779 172.372,60.247C172.449,59.714 172.487,59.18 172.487,58.648C172.487,57.809 172.449,57.2 172.372,56.82C172.297,56.439 171.992,56.249 171.458,56.249C170.926,56.249 170.202,56.401 169.288,56.706C168.374,56.972 167.442,57.315 166.489,57.734C165.461,58.191 164.452,58.78 163.462,59.505C162.51,60.228 161.654,60.97 160.892,61.732C160.131,62.493 159.503,63.237 159.007,63.96C158.55,64.645 158.321,65.197 158.321,65.616C158.321,66.073 158.626,66.511 159.235,66.93C159.883,67.31 160.683,67.653 161.634,67.958C162.625,68.263 163.71,68.529 164.89,68.758C166.071,68.986 167.232,69.157 168.374,69.272C169.327,69.386 170.373,69.538 171.516,69.729C172.658,69.919 173.725,70.223 174.714,70.642C175.705,71.062 176.542,71.633 177.227,72.356C177.913,73.041 178.255,73.936 178.255,75.04ZM121.66,63.16C121.699,63.237 121.737,63.294 121.774,63.331C121.813,63.331 121.832,63.369 121.832,63.446C121.832,63.674 121.356,64.112 120.404,64.759C119.452,65.368 118.272,66.073 116.862,66.873C115.454,67.633 113.969,68.415 112.407,69.214C110.847,69.976 109.457,70.605 108.238,71.099C108.238,71.176 108.2,71.423 108.123,71.842C108.048,72.261 108.009,72.527 108.009,72.642L108.009,73.727C108.009,74.603 108.143,75.478 108.409,76.354C108.676,77.191 109.076,77.953 109.609,78.639C110.18,79.324 110.865,79.876 111.665,80.295C112.464,80.714 113.398,80.924 114.463,80.924C114.92,80.924 115.473,80.847 116.12,80.695C116.805,80.504 117.453,80.258 118.062,79.953C118.71,79.61 119.281,79.21 119.775,78.753C120.271,78.296 120.575,77.782 120.689,77.211C121.146,77.249 121.413,77.382 121.489,77.611C121.603,77.839 121.66,77.991 121.66,78.068C121.66,79.058 121.413,79.915 120.918,80.638C120.461,81.323 119.871,81.895 119.147,82.351C118.462,82.771 117.719,83.094 116.92,83.322C116.159,83.513 115.473,83.608 114.863,83.608C111.589,83.608 109.209,82.694 107.724,80.866C106.239,79.039 105.496,76.64 105.496,73.67C105.496,73.518 105.535,73.175 105.61,72.642C105.687,72.108 105.725,71.747 105.725,71.556C105.725,71.519 105.649,71.48 105.496,71.442C105.344,71.366 105.173,71.29 104.982,71.214C104.83,71.137 104.678,71.023 104.525,70.871C104.411,70.68 104.354,70.433 104.354,70.128C104.354,69.823 104.468,69.577 104.696,69.386C104.925,69.195 105.192,69.024 105.496,68.872L106.067,68.529C106.41,67.082 106.81,65.693 107.267,64.36C107.762,62.989 108.371,61.618 109.094,60.247C108.791,60.247 108.466,60.208 108.123,60.133C107.781,60.056 107.609,59.79 107.609,59.333C107.609,58.8 107.914,58.209 108.523,57.563C109.171,56.915 109.894,56.306 110.694,55.735C111.532,55.164 112.35,54.687 113.15,54.307C113.949,53.888 114.521,53.679 114.863,53.679C115.016,53.679 115.111,53.716 115.149,53.793C115.225,53.831 115.34,53.85 115.492,53.85C115.797,53.85 116.177,53.793 116.634,53.679C117.13,53.564 117.644,53.431 118.176,53.279C118.71,53.126 119.204,52.993 119.661,52.879C120.157,52.765 120.557,52.708 120.861,52.708C121.203,52.708 121.451,52.822 121.603,53.05C121.794,53.279 121.889,53.526 121.889,53.793C121.889,54.097 121.699,54.325 121.318,54.478C120.937,54.592 120.594,54.687 120.289,54.764C119.224,54.953 118.101,55.296 116.92,55.792C115.777,56.249 114.711,56.763 113.721,57.334C113.341,57.752 112.884,58.362 112.35,59.162C111.818,59.923 111.304,60.799 110.808,61.789C110.313,62.779 109.856,63.808 109.437,64.874C109.057,65.939 108.809,66.949 108.695,67.901L109.666,67.444C112.598,66.035 114.978,64.931 116.805,64.131C118.672,63.331 120.118,62.932 121.146,62.932C121.337,62.932 121.508,63.008 121.66,63.16ZM49.971,69.786C49.971,69.481 49.932,69.081 49.857,68.586C49.666,67.062 49.266,65.559 48.658,64.074C48.086,62.551 47.382,61.199 46.544,60.019C45.745,58.837 44.868,57.886 43.917,57.163C43.003,56.401 42.146,56.02 41.347,56.02C41.118,56.02 40.908,56.039 40.718,56.078C40.528,56.115 40.337,56.135 40.147,56.135C39.576,56.135 39.1,56.058 38.719,55.906C38.377,55.753 38.129,55.678 37.977,55.678C37.709,55.678 37.31,55.792 36.777,56.02C36.281,56.21 35.767,56.458 35.235,56.763C34.739,57.029 34.302,57.315 33.921,57.62C33.579,57.924 33.407,58.171 33.407,58.362C33.407,58.552 33.464,58.705 33.579,58.819C33.731,58.933 33.807,59.048 33.807,59.162C33.274,60.342 32.854,61.732 32.551,63.331C32.283,64.893 32.151,66.777 32.151,68.986C32.151,70.509 32.417,72.051 32.95,73.613C33.522,75.135 34.282,76.525 35.235,77.782C36.187,79.001 37.272,80.01 38.491,80.809C39.708,81.571 41.004,81.952 42.375,81.952C43.86,81.952 45.077,81.552 46.03,80.752C47.019,79.915 47.801,78.924 48.372,77.782C48.981,76.602 49.4,75.364 49.629,74.069C49.895,72.775 50.028,71.651 50.028,70.7C50.028,70.395 50.009,70.091 49.971,69.786ZM47.115,67.729C47.419,69.063 47.572,70.091 47.572,70.814C47.572,71.499 47.496,72.337 47.344,73.327C47.191,74.279 46.925,75.212 46.544,76.126C46.202,77.04 45.706,77.82 45.059,78.467C44.412,79.076 43.574,79.381 42.546,79.381C41.022,79.381 39.766,78.887 38.776,77.896C37.786,76.906 36.986,75.783 36.377,74.526C35.806,73.232 35.406,71.994 35.178,70.814C34.949,69.595 34.835,68.777 34.835,68.358C34.835,67.178 34.911,65.997 35.064,64.816C35.216,63.635 35.425,62.589 35.692,61.675C35.996,60.761 36.358,60.019 36.777,59.447C37.234,58.876 37.766,58.591 38.377,58.591C38.414,58.591 38.548,58.609 38.776,58.648C39.005,58.648 39.252,58.666 39.519,58.705C39.785,58.705 40.013,58.723 40.204,58.762L40.661,58.762C41.727,58.762 42.679,59.257 43.517,60.247C44.392,61.238 45.135,62.398 45.745,63.731C46.353,65.026 46.81,66.359 47.115,67.729ZM146.229,56.192C146.496,56.381 146.628,56.61 146.628,56.877C146.628,57.752 146.114,58.686 145.086,59.676C144.097,60.627 142.84,61.752 141.317,63.046C139.794,64.302 138.118,65.768 136.29,67.444C134.501,69.081 132.826,71.005 131.264,73.213C130.96,72.527 130.617,71.613 130.236,70.471C129.893,69.329 129.57,68.186 129.265,67.044C128.961,65.864 128.694,64.816 128.465,63.903C128.237,62.951 128.122,62.36 128.122,62.132C128.122,61.941 128.065,61.809 127.951,61.732C127.837,61.656 127.78,61.58 127.78,61.504C127.78,60.97 128.161,60.437 128.922,59.904C129.684,59.333 130.464,58.819 131.264,58.362C131.683,58.134 132.349,57.848 133.263,57.505C134.177,57.163 135.167,56.82 136.233,56.477C137.338,56.135 138.423,55.849 139.489,55.621C140.556,55.392 141.47,55.278 142.23,55.278C142.726,55.278 143.221,55.316 143.715,55.392C144.249,55.43 144.725,55.525 145.143,55.678C145.6,55.792 145.962,55.963 146.229,56.192Z" style="fill:rgb(0,200,255);"/>
    </g>
</svg>
