<?xml version="1.0" encoding="UTF-8" standalone="no"?>
<!DOCTYPE svg PUBLIC "-//W3C//DTD SVG 1.1//EN" "http://www.w3.org/Graphics/SVG/1.1/DTD/svg11.dtd">
<svg width="100%" height="100%" viewBox="0 0 147 120" version="1.1" xmlns="http://www.w3.org/2000/svg" xmlns:xlink="http://www.w3.org/1999/xlink" xml:space="preserve" xmlns:serif="http://www.serif.com/" style="fill-rule:evenodd;clip-rule:evenodd;stroke-linejoin:round;stroke-miterlimit:2;">
    <g transform="matrix(1,0,0,1,0,8.5)">
        <path d="M139.235,88.226C140.465,88.037 141.474,87.752 142.26,87.372C142.231,87.216 142.212,87.039 142.2,86.843C142.229,86.664 142.123,86.522 141.88,86.418C141.759,86.366 141.215,86.348 140.25,86.364C139.344,86.357 138.309,86.367 137.147,86.394C135.986,86.422 134.873,86.446 133.811,86.468C132.764,86.45 132.043,86.402 131.644,86.327C131.732,85.119 131.939,83.579 132.265,81.708C132.631,79.853 133.062,77.739 133.556,75.365C133.696,74.706 133.543,74.281 133.099,74.09C132.815,73.968 132.492,73.997 132.127,74.175C131.821,74.331 131.555,74.672 131.329,75.197C131.294,75.278 131.131,75.879 130.841,76.999C130.591,78.137 130.298,79.377 129.961,80.717C129.577,82.276 129.168,84.064 128.732,86.08L127.493,86.122C126.706,86.167 125.704,86.215 124.485,86.266C123.306,86.333 122.02,86.427 120.627,86.547C119.194,86.649 117.871,86.774 116.657,86.923C115.403,87.054 114.348,87.223 113.492,87.43C112.614,87.579 112.123,87.775 112.018,88.018C111.827,88.462 111.815,88.936 111.982,89.439C112.149,89.942 112.495,90.307 113.021,90.533C113.142,90.585 113.576,90.58 114.321,90.517C115.043,90.397 115.913,90.268 116.931,90.13C117.965,89.953 119.068,89.781 120.241,89.614C121.433,89.408 122.557,89.245 123.615,89.125C124.689,88.964 125.619,88.862 126.405,88.816C127.249,88.748 127.813,88.775 128.096,88.896C128.136,88.914 128.116,89.24 128.033,89.876C127.823,91.366 127.616,92.738 127.413,93.992C127.238,95.067 127.072,96.121 126.915,97.155C126.758,98.189 126.624,98.946 126.513,99.425C126.13,100.985 125.773,102.149 125.443,102.917C125.356,103.119 125.257,103.292 125.147,103.437L124.991,103.801C124.939,103.922 124.901,104.121 124.878,104.398C124.854,104.675 124.862,104.991 124.903,105.343C124.96,105.656 125.046,105.956 125.161,106.245C125.276,106.534 125.455,106.731 125.698,106.835C126.143,107.026 126.604,106.842 127.085,106.282C127.566,105.723 127.936,105.139 128.197,104.533C128.214,104.492 128.287,104.213 128.415,103.692C128.56,103.132 128.711,102.502 128.868,101.803C129.065,101.122 129.243,100.431 129.399,99.732C129.556,99.033 129.681,98.465 129.774,98.025C129.908,97.269 130.045,96.393 130.185,95.4C130.324,94.406 130.447,93.453 130.553,92.54C130.715,91.604 130.847,90.798 130.945,90.122C131.045,89.446 131.12,89.048 131.173,88.926C131.224,88.805 131.684,88.739 132.551,88.729L135.646,88.551C136.824,88.483 138.02,88.375 139.235,88.226ZM112.858,99.66C112.864,99.759 112.832,99.888 112.762,100.05C112.658,100.293 112.319,100.578 111.747,100.907C111.556,101.016 111.18,101.166 110.619,101.356C110.059,101.546 109.356,101.675 108.513,101.744C107.669,101.812 106.681,101.77 105.549,101.618C104.457,101.484 103.243,101.13 101.91,100.556C100.98,100.156 100.157,99.563 99.442,98.776C98.744,97.949 98.225,96.984 97.885,95.879C97.563,94.735 97.44,93.461 97.517,92.057C97.612,90.612 98.015,89.061 98.728,87.404C99.406,85.827 100.243,84.438 101.238,83.238C102.234,82.037 103.261,81.042 104.32,80.251C105.418,79.478 106.481,78.954 107.511,78.678C108.54,78.402 109.418,78.42 110.146,78.733C110.793,79.012 111.378,79.431 111.903,79.992C112.486,80.531 112.954,81.115 113.305,81.745C113.697,82.393 113.943,83.049 114.039,83.714C114.154,84.338 114.099,84.913 113.873,85.438C113.612,86.045 113.059,86.549 112.216,86.953C111.412,87.374 110.504,87.702 109.492,87.937C108.499,88.133 107.539,88.247 106.615,88.281C105.707,88.274 105.032,88.174 104.587,87.983C104.345,87.879 104.165,87.682 104.05,87.393C103.993,87.081 104.033,86.763 104.173,86.44C104.416,85.874 104.85,85.533 105.474,85.419C106.138,85.321 106.826,85.282 107.537,85.3C108.265,85.278 108.95,85.189 109.592,85.034C110.273,84.896 110.753,84.504 111.032,83.857C111.067,83.776 111.052,83.531 110.989,83.12C110.926,82.71 110.451,82.313 109.56,81.931C109.157,81.757 108.588,81.8 107.853,82.059C107.136,82.277 106.362,82.687 105.529,83.287C104.713,83.846 103.909,84.602 103.116,85.554C102.341,86.466 101.684,87.549 101.145,88.802C100.693,89.853 100.466,90.882 100.465,91.887C100.504,92.91 100.696,93.855 101.042,94.722C101.405,95.549 101.921,96.298 102.59,96.969C103.26,97.64 104.019,98.158 104.868,98.523C105.474,98.784 106.173,98.941 106.964,98.994C107.814,99.024 108.603,99.028 109.331,99.006C110.117,98.96 110.784,98.912 111.333,98.861C111.94,98.787 112.304,98.775 112.426,98.828C112.546,98.88 112.642,98.993 112.711,99.166C112.821,99.357 112.869,99.522 112.858,99.66ZM88.615,95.557C88.927,95.5 89.153,95.309 89.292,94.986L91.196,83.877C91.463,82.363 91.719,80.988 91.964,79.752C92.248,78.533 92.527,77.384 92.8,76.303C93.131,75.2 93.442,74.088 93.732,72.967C94.063,71.864 94.425,70.631 94.82,69.268C95.099,68.286 95.458,67.171 95.899,65.924C96.357,64.636 96.729,63.382 97.013,62.163C97.339,60.962 97.504,59.907 97.511,59C97.559,58.11 97.3,57.544 96.734,57.3C96.289,57.109 95.884,57.27 95.519,57.784C95.155,58.298 94.894,58.737 94.738,59.101C93.543,62.659 92.562,65.662 91.797,68.111C91.088,70.537 90.523,72.521 90.099,74.064C89.715,75.623 89.437,76.773 89.262,77.512C89.128,78.269 89.027,78.728 88.957,78.89C88.922,78.971 88.809,79.401 88.617,80.181L88.05,83.171C87.841,84.326 87.628,85.6 87.413,86.992C87.215,88.344 87.071,89.624 86.983,90.831C86.895,92.039 86.885,93.064 86.953,93.908C87.062,94.769 87.298,95.278 87.662,95.435C87.985,95.574 88.303,95.615 88.615,95.557ZM80.627,85.655C80.488,85.978 80.343,86.203 80.193,86.33C80.06,86.417 79.814,86.431 79.456,86.372C79.04,86.337 78.514,86.279 77.879,86.197C77.301,86.092 76.654,85.982 75.938,85.865C75.239,85.708 74.52,85.543 73.78,85.368C73.099,85.171 72.475,84.951 71.909,84.707C71.222,84.412 70.471,84.041 69.657,83.595C68.883,83.166 68.147,82.706 67.448,82.214C66.767,81.682 66.147,81.175 65.587,80.695C65.085,80.192 64.762,79.717 64.618,79.272C64.455,80.208 64.272,81.135 64.068,82.054C63.865,82.972 63.621,83.873 63.337,84.757C63.25,84.959 63.111,85.115 62.92,85.225C62.787,85.311 62.498,85.259 62.053,85.067C61.851,84.981 61.667,84.853 61.499,84.685C61.39,84.495 61.344,84.211 61.362,83.836C61.346,82.871 61.364,81.993 61.417,81.201C61.487,80.369 61.578,79.546 61.689,78.731C61.84,77.934 61.989,77.087 62.134,76.192C62.28,75.297 62.42,74.303 62.554,73.211C62.787,71.443 63.044,69.565 63.324,67.578C63.621,65.55 63.915,63.641 64.207,61.85C64.515,60.019 64.818,58.424 65.114,57.067C65.428,55.669 65.698,54.707 65.924,54.181L66.341,53.211C66.556,52.824 66.781,52.466 67.019,52.137C67.314,51.785 67.594,51.523 67.86,51.35C68.184,51.154 68.508,51.125 68.831,51.264C69.033,51.351 69.096,51.761 69.02,52.495C69.002,53.206 68.909,53.98 68.74,54.818C68.629,55.632 68.487,56.409 68.312,57.149C68.196,57.865 68.129,58.243 68.112,58.284C67.891,59.243 67.647,60.312 67.379,61.49C67.17,62.645 66.952,63.821 66.725,65.017C66.498,66.213 66.309,67.377 66.157,68.509C66.023,69.601 65.969,70.56 65.997,71.386C66.212,71 66.605,70.474 67.178,69.81C67.751,69.147 68.431,68.457 69.218,67.742C70.004,67.026 70.84,66.308 71.725,65.587C72.668,64.842 73.567,64.199 74.423,63.657C75.32,63.133 76.135,62.741 76.869,62.482C77.644,62.24 78.274,62.223 78.759,62.432C79.527,62.762 80.009,63.089 80.205,63.413C80.441,63.754 80.499,64.067 80.377,64.35C80.273,64.592 79.721,64.929 78.72,65.361C77.737,65.753 76.569,66.353 75.216,67.16C73.881,67.927 72.53,68.951 71.165,70.232C69.817,71.472 68.734,73.043 67.917,74.943C67.621,75.63 67.542,76.315 67.68,76.997C67.876,77.656 68.207,78.277 68.675,78.861C69.182,79.463 69.777,80.03 70.458,80.562C71.197,81.072 71.951,81.492 72.719,81.822C73.406,82.118 74.162,82.419 74.988,82.726C75.814,83.034 76.58,83.315 77.284,83.57C78.047,83.802 78.679,84.002 79.182,84.171C79.725,84.356 80.057,84.475 80.178,84.527C80.38,84.614 80.536,84.753 80.645,84.944C80.755,85.135 80.749,85.372 80.627,85.655ZM54.343,69.536C54.933,68.832 55.419,68.035 55.802,67.145C56.097,66.458 56.411,65.563 56.741,64.46C57.113,63.374 57.362,62.236 57.491,61.046C57.52,60.866 57.373,60.54 57.05,60.066C56.727,59.591 56.352,59.238 55.925,59.007C55.983,58.648 55.943,58.296 55.805,57.949C55.707,57.62 55.551,57.313 55.338,57.03C55.125,56.746 54.894,56.503 54.646,56.301C54.438,56.116 54.273,55.997 54.152,55.945C53.626,55.719 53.008,55.764 52.297,56.081C51.586,56.398 50.863,56.854 50.128,57.448C49.434,58.059 48.766,58.778 48.123,59.603C47.539,60.406 47.09,61.171 46.777,61.899C46.586,62.343 46.339,63.028 46.038,63.952C45.794,64.853 45.651,65.797 45.609,66.786C45.608,67.791 45.792,68.756 46.16,69.681C46.529,70.606 47.279,71.312 48.411,71.799C49.058,72.077 49.714,72.168 50.378,72.07C51.101,71.95 51.795,71.673 52.46,71.241C53.125,70.808 53.752,70.24 54.343,69.536ZM54.169,62.922C54.012,63.621 53.803,64.274 53.542,64.88C53.438,65.123 53.224,65.51 52.9,66.041C52.633,66.549 52.297,67.051 51.892,67.548C51.487,68.044 51.047,68.454 50.573,68.777C50.116,69.059 49.686,69.114 49.282,68.94C48.877,68.766 48.623,68.465 48.52,68.037C48.434,67.569 48.414,67.058 48.461,66.503C48.549,65.966 48.685,65.426 48.871,64.883C49.074,64.3 49.271,63.785 49.462,63.341C49.653,62.896 49.873,62.44 50.123,61.972C50.372,61.504 50.644,61.095 50.939,60.742C51.292,60.367 51.662,60.119 52.049,59.998C52.454,59.837 52.899,59.861 53.384,60.07C53.465,60.104 53.537,60.159 53.6,60.234C53.704,60.327 53.837,60.408 53.999,60.478C54.12,60.53 54.23,60.553 54.328,60.547C54.396,61.391 54.343,62.183 54.169,62.922ZM38.806,59.836C38.424,60.725 37.937,61.522 37.347,62.226C36.757,62.93 36.129,63.499 35.464,63.931C34.799,64.364 34.105,64.64 33.383,64.761C32.718,64.858 32.062,64.768 31.416,64.489C30.284,64.003 29.533,63.297 29.165,62.372C28.796,61.447 28.612,60.481 28.614,59.476C28.655,58.488 28.798,57.543 29.042,56.642C29.344,55.718 29.59,55.034 29.781,54.589C30.094,53.861 30.543,53.096 31.128,52.294C31.77,51.468 32.439,50.75 33.133,50.138C33.867,49.544 34.59,49.088 35.301,48.772C36.013,48.455 36.631,48.409 37.156,48.635C37.278,48.687 37.442,48.806 37.65,48.991C37.898,49.194 38.129,49.437 38.342,49.72C38.556,50.004 38.712,50.31 38.809,50.639C38.948,50.986 38.987,51.339 38.929,51.697C39.357,51.929 39.732,52.282 40.055,52.756C40.378,53.23 40.525,53.557 40.496,53.736C40.367,54.926 40.117,56.064 39.746,57.15C39.415,58.253 39.102,59.149 38.806,59.836ZM21.866,53.771C21.083,55.591 20.174,57.092 19.138,58.275C18.143,59.476 17.142,60.411 16.136,61.079C15.147,61.708 14.233,62.106 13.395,62.272C12.598,62.456 11.997,62.461 11.592,62.287C11.026,62.044 10.585,61.566 10.268,60.855C9.969,60.104 9.914,59.506 10.106,59.061C10.384,58.414 10.786,58.204 11.311,58.43C11.513,58.517 11.681,58.684 11.813,58.933C11.963,59.141 12.102,59.321 12.229,59.471C13.159,59.201 14.206,58.549 15.369,57.516C16.572,56.501 17.687,54.8 18.712,52.415C19.13,51.445 19.402,50.532 19.531,49.677C19.659,48.822 19.695,48.071 19.638,47.424C19.621,46.794 19.532,46.277 19.371,45.872C19.21,45.467 19.068,45.239 18.947,45.187C18.543,45.013 17.965,45.243 17.213,45.878C16.501,46.53 15.778,47.321 15.043,48.25C14.325,49.139 13.648,50.045 13.011,50.969C12.432,51.87 12.064,52.502 11.908,52.866C11.844,53.126 11.789,53.366 11.742,53.585L11.603,54.244C11.556,54.463 11.489,54.674 11.403,54.876C11.072,55.644 10.514,56.219 9.728,56.599C8.941,56.979 8.305,57.065 7.82,56.856C7.578,56.752 7.445,56.504 7.423,56.111C7.458,55.695 7.548,55.206 7.693,54.646C7.838,54.086 7.992,53.505 8.155,52.904C8.358,52.321 8.514,51.79 8.625,51.31C8.614,50.444 8.685,49.109 8.838,47.306C8.991,45.503 9.146,43.582 9.305,41.543C9.521,39.48 9.732,37.487 9.936,35.563C10.182,33.657 10.4,32.146 10.592,31.031C10.965,28.604 11.358,26.522 11.77,24.783C12.16,22.986 12.534,21.447 12.894,20.165C13.231,18.825 13.571,17.701 13.913,16.794C14.255,15.888 14.556,15.131 14.817,14.525C14.974,14.161 15.257,13.947 15.667,13.884C16.037,13.804 16.343,13.816 16.586,13.92C16.95,14.077 17.178,14.27 17.27,14.502C17.38,14.693 17.379,15.028 17.269,15.507C17.118,15.969 16.9,16.642 16.616,17.526C16.291,18.392 15.906,19.568 15.459,21.052C15.244,21.774 14.977,22.785 14.658,24.085C14.378,25.402 14.099,26.886 13.82,28.539C13.54,30.191 13.246,31.933 12.938,33.764C12.687,35.572 12.462,37.32 12.264,39.007C12.105,40.712 11.979,42.286 11.885,43.73C11.831,45.192 11.85,46.374 11.941,47.275C12.931,45.977 13.94,44.854 14.97,43.908C15.832,43.129 16.76,42.474 17.755,41.944C18.767,41.373 19.738,41.288 20.668,41.687C21.032,41.844 21.447,42.214 21.914,42.798C22.382,43.383 22.733,44.18 22.969,45.192C23.245,46.221 23.315,47.449 23.181,48.876C23.086,50.32 22.648,51.952 21.866,53.771ZM36.547,57.571C36.808,56.964 37.017,56.312 37.173,55.613C37.348,54.873 37.401,54.082 37.333,53.238C37.234,53.244 37.125,53.22 37.003,53.168C36.842,53.099 36.709,53.018 36.605,52.925C36.541,52.85 36.469,52.795 36.388,52.76C35.903,52.551 35.458,52.528 35.054,52.689C34.666,52.81 34.296,53.058 33.943,53.433C33.648,53.785 33.376,54.195 33.127,54.663C32.878,55.13 32.658,55.587 32.466,56.031C32.275,56.476 32.078,56.99 31.875,57.573C31.69,58.116 31.553,58.656 31.466,59.194C31.419,59.748 31.438,60.26 31.524,60.728C31.628,61.156 31.882,61.456 32.286,61.63C32.69,61.804 33.121,61.75 33.578,61.467C34.052,61.144 34.492,60.735 34.897,60.238C35.302,59.742 35.638,59.239 35.904,58.731C36.228,58.2 36.443,57.813 36.547,57.571Z"/>
    </g>
</svg>
