<svg width="112" height="37" viewBox="0 0 112 37" fill="none" xmlns="http://www.w3.org/2000/svg">
<path d="M17.1764 27.05C17.1764 28.55 16.993 29.8667 16.6264 31C16.293 32.1333 15.8764 33.0833 15.3764 33.85C14.8764 34.5833 14.3597 35.1333 13.8264 35.5C13.3264 35.8667 12.9097 36.05 12.5764 36.05C12.1097 36.05 11.6597 35.85 11.2264 35.45C10.793 35.0167 10.5764 34.6167 10.5764 34.25C10.5764 33.7167 10.793 33.45 11.2264 33.45C11.393 33.45 11.5597 33.5167 11.7264 33.65C11.893 33.75 12.043 33.8333 12.1764 33.9C12.743 33.4333 13.2764 32.6667 13.7764 31.6C14.3097 30.5333 14.5764 29.0167 14.5764 27.05C14.5764 26.25 14.493 25.5333 14.3264 24.9C14.1597 24.2667 13.9597 23.7333 13.7264 23.3C13.5264 22.8667 13.3097 22.5333 13.0764 22.3C12.843 22.0667 12.6764 21.95 12.5764 21.95C12.243 21.95 11.9097 22.2833 11.5764 22.95C11.2764 23.6167 11.0097 24.3833 10.7764 25.25C10.543 26.0833 10.343 26.9167 10.1764 27.75C10.043 28.55 9.97637 29.1 9.97637 29.4C10.0097 29.6 10.043 29.7833 10.0764 29.95C10.1097 30.1167 10.143 30.2833 10.1764 30.45C10.2097 30.6167 10.2264 30.7833 10.2264 30.95C10.2264 31.5833 10.0097 32.15 9.57637 32.65C9.14303 33.15 8.72637 33.4 8.32637 33.4C8.12637 33.4 7.9597 33.2667 7.82637 33C7.72637 32.7 7.64303 32.3333 7.57637 31.9C7.5097 31.4667 7.44303 31.0167 7.37637 30.55C7.34303 30.0833 7.29303 29.6667 7.22637 29.3C6.9597 28.7 6.6097 27.75 6.17637 26.45C5.74303 25.15 5.27637 23.7667 4.77637 22.3C4.3097 20.8 3.8597 19.35 3.42637 17.95C3.02637 16.55 2.72637 15.4333 2.52637 14.6C2.0597 12.8 1.7097 11.2333 1.47637 9.9C1.2097 8.53333 1.0097 7.35 0.876367 6.35C0.7097 5.31666 0.6097 4.43333 0.576367 3.7C0.543034 2.96667 0.526367 2.35 0.526367 1.85C0.526367 1.55 0.6597 1.31667 0.926367 1.15C1.1597 0.983331 1.37637 0.899997 1.57637 0.899997C1.87637 0.899997 2.09303 0.966664 2.22637 1.1C2.3597 1.2 2.4597 1.43333 2.52637 1.8C2.5597 2.16667 2.6097 2.7 2.67637 3.4C2.7097 4.1 2.79303 5.03333 2.92637 6.2C2.99303 6.76666 3.1097 7.55 3.27637 8.55C3.47637 9.55 3.72637 10.6667 4.02637 11.9C4.32637 13.1333 4.64303 14.4333 4.97637 15.8C5.34303 17.1333 5.7097 18.4167 6.07637 19.65C6.47637 20.8833 6.8597 22.0167 7.22637 23.05C7.62637 24.0833 7.99303 24.9 8.32637 25.5C8.62637 24.3 8.99303 23.2167 9.42637 22.25C9.79303 21.45 10.243 20.7167 10.7764 20.05C11.3097 19.35 11.9597 19 12.7264 19C13.0264 19 13.4264 19.1333 13.9264 19.4C14.4264 19.6667 14.9097 20.1167 15.3764 20.75C15.8764 21.3833 16.293 22.2167 16.6264 23.25C16.993 24.2833 17.1764 25.55 17.1764 27.05ZM30.7791 26.2C30.7791 26.9333 30.6791 27.6333 30.4791 28.3C30.2791 28.9667 30.0124 29.55 29.6791 30.05C29.3458 30.55 28.9458 30.95 28.4791 31.25C28.0458 31.5167 27.5624 31.65 27.0291 31.65C26.0958 31.65 25.3624 31.3833 24.8291 30.85C24.2958 30.3167 23.8791 29.7 23.5791 29C23.3124 28.3 23.1291 27.6 23.0291 26.9C22.9624 26.1667 22.9291 25.6167 22.9291 25.25C22.9291 24.65 23.0124 23.9833 23.1791 23.25C23.3791 22.4833 23.6291 21.7833 23.9291 21.15C24.2624 20.5167 24.6291 19.9833 25.0291 19.55C25.4291 19.1167 25.8458 18.9 26.2791 18.9C26.3791 18.9 26.5291 18.9333 26.7291 19C26.9624 19.0667 27.1958 19.1667 27.4291 19.3C27.6624 19.4333 27.8624 19.6 28.0291 19.8C28.2291 20 28.3624 20.2333 28.4291 20.5C28.7958 20.5333 29.1624 20.6667 29.5291 20.9C29.8958 21.1333 30.0958 21.3167 30.1291 21.45C30.3958 22.3167 30.5624 23.1833 30.6291 24.05C30.7291 24.9167 30.7791 25.6333 30.7791 26.2ZM28.5291 25.3C28.5291 24.8 28.4791 24.2833 28.3791 23.75C28.2791 23.1833 28.0791 22.6167 27.7791 22.05C27.7124 22.0833 27.6291 22.1 27.5291 22.1C27.3958 22.1 27.2791 22.0833 27.1791 22.05C27.1124 22.0167 27.0458 22 26.9791 22C26.5791 22 26.2624 22.1167 26.0291 22.35C25.7958 22.55 25.6124 22.8333 25.4791 23.2C25.3791 23.5333 25.3124 23.9 25.2791 24.3C25.2458 24.7 25.2291 25.0833 25.2291 25.45C25.2291 25.8167 25.2458 26.2333 25.2791 26.7C25.3124 27.1333 25.3791 27.55 25.4791 27.95C25.6124 28.35 25.7791 28.7 25.9791 29C26.1791 29.2667 26.4458 29.4 26.7791 29.4C27.1124 29.4 27.3958 29.2333 27.6291 28.9C27.8624 28.5333 28.0458 28.1167 28.1791 27.65C28.3124 27.1833 28.3958 26.7333 28.4291 26.3C28.4958 25.8333 28.5291 25.5 28.5291 25.3ZM44.7928 26.2C44.7928 26.9333 44.6928 27.6333 44.4928 28.3C44.2928 28.9667 44.0261 29.55 43.6928 30.05C43.3594 30.55 42.9594 30.95 42.4928 31.25C42.0594 31.5167 41.5761 31.65 41.0428 31.65C40.1094 31.65 39.3761 31.3833 38.8428 30.85C38.3094 30.3167 37.8928 29.7 37.5928 29C37.3261 28.3 37.1428 27.6 37.0428 26.9C36.9761 26.1667 36.9428 25.6167 36.9428 25.25C36.9428 24.65 37.0261 23.9833 37.1928 23.25C37.3928 22.4833 37.6428 21.7833 37.9428 21.15C38.2761 20.5167 38.6428 19.9833 39.0428 19.55C39.4428 19.1167 39.8594 18.9 40.2928 18.9C40.3928 18.9 40.5428 18.9333 40.7428 19C40.9761 19.0667 41.2094 19.1667 41.4428 19.3C41.6761 19.4333 41.8761 19.6 42.0428 19.8C42.2428 20 42.3761 20.2333 42.4428 20.5C42.8094 20.5333 43.1761 20.6667 43.5428 20.9C43.9094 21.1333 44.1094 21.3167 44.1428 21.45C44.4094 22.3167 44.5761 23.1833 44.6428 24.05C44.7428 24.9167 44.7928 25.6333 44.7928 26.2ZM42.5428 25.3C42.5428 24.8 42.4928 24.2833 42.3928 23.75C42.2928 23.1833 42.0928 22.6167 41.7928 22.05C41.7261 22.0833 41.6428 22.1 41.5428 22.1C41.4094 22.1 41.2928 22.0833 41.1928 22.05C41.1261 22.0167 41.0594 22 40.9928 22C40.5928 22 40.2761 22.1167 40.0428 22.35C39.8094 22.55 39.6261 22.8333 39.4928 23.2C39.3928 23.5333 39.3261 23.9 39.2928 24.3C39.2594 24.7 39.2428 25.0833 39.2428 25.45C39.2428 25.8167 39.2594 26.2333 39.2928 26.7C39.3261 27.1333 39.3928 27.55 39.4928 27.95C39.6261 28.35 39.7928 28.7 39.9928 29C40.1928 29.2667 40.4594 29.4 40.7928 29.4C41.1261 29.4 41.4094 29.2333 41.6428 28.9C41.8761 28.5333 42.0594 28.1167 42.1928 27.65C42.3261 27.1833 42.4094 26.7333 42.4428 26.3C42.5094 25.8333 42.5428 25.5 42.5428 25.3ZM67.6064 31.65C67.6064 31.9167 67.5731 32.1167 67.5064 32.25C67.4398 32.35 67.2731 32.4333 67.0064 32.5C66.7064 32.6 66.3231 32.7167 65.8564 32.85C65.4231 32.95 64.9398 33.0667 64.4064 33.2C63.8731 33.3 63.3231 33.4 62.7564 33.5C62.2231 33.5667 61.7231 33.6 61.2564 33.6C60.6898 33.6 60.0564 33.5667 59.3564 33.5C58.6898 33.4333 58.0398 33.3333 57.4064 33.2C56.7731 33.0333 56.1898 32.8667 55.6564 32.7C55.1564 32.5 54.7898 32.2667 54.5564 32C54.7231 32.7 54.8731 33.4 55.0064 34.1C55.1398 34.8 55.2398 35.5 55.3064 36.2C55.3064 36.3667 55.2564 36.5167 55.1564 36.65C55.0898 36.75 54.8731 36.8 54.5064 36.8C54.3398 36.8 54.1731 36.7667 54.0064 36.7C53.8731 36.6 53.7564 36.4167 53.6564 36.15C53.3564 35.4833 53.1064 34.8667 52.9064 34.3C52.7064 33.7 52.5231 33.1 52.3564 32.5C52.2231 31.9 52.0731 31.2667 51.9064 30.6C51.7398 29.9333 51.5398 29.2 51.3064 28.4C50.9398 27.1 50.5564 25.7167 50.1564 24.25C49.7564 22.75 49.3898 21.3333 49.0564 20C48.7231 18.6333 48.4564 17.4333 48.2564 16.4C48.0564 15.3333 47.9564 14.5833 47.9564 14.15C47.9564 13.95 47.9564 13.6833 47.9564 13.35C47.9898 13.0167 48.0398 12.7 48.1064 12.4C48.2064 12.0667 48.3231 11.8 48.4564 11.6C48.6231 11.3667 48.8398 11.25 49.1064 11.25C49.2731 11.25 49.4398 11.5167 49.6064 12.05C49.8064 12.55 49.9731 13.1167 50.1064 13.75C50.2731 14.35 50.4064 14.9333 50.5064 15.5C50.6398 16.0333 50.7064 16.3167 50.7064 16.35C50.8398 17.0833 50.9898 17.9 51.1564 18.8C51.3564 19.6667 51.5564 20.55 51.7564 21.45C51.9564 22.35 52.1731 23.2167 52.4064 24.05C52.6398 24.85 52.8898 25.5333 53.1564 26.1C53.1898 25.7667 53.3064 25.2833 53.5064 24.65C53.7064 24.0167 53.9731 23.3333 54.3064 22.6C54.6398 21.8667 55.0064 21.1167 55.4064 20.35C55.8398 19.55 56.2731 18.8333 56.7064 18.2C57.1731 17.5667 57.6231 17.05 58.0564 16.65C58.5231 16.25 58.9564 16.05 59.3564 16.05C59.9898 16.05 60.4231 16.1333 60.6564 16.3C60.9231 16.4667 61.0564 16.6667 61.0564 16.9C61.0564 17.1 60.7731 17.5 60.2064 18.1C59.6398 18.6667 59.0064 19.4333 58.3064 20.4C57.6064 21.3333 56.9731 22.45 56.4064 23.75C55.8398 25.0167 55.5564 26.4333 55.5564 28C55.5564 28.5667 55.7064 29.0667 56.0064 29.5C56.3398 29.9 56.7564 30.2333 57.2564 30.5C57.7898 30.7667 58.3731 30.9833 59.0064 31.15C59.6731 31.2833 60.3231 31.35 60.9564 31.35C61.5231 31.35 62.1398 31.3333 62.8064 31.3C63.4731 31.2667 64.0898 31.2333 64.6564 31.2C65.2564 31.1333 65.7564 31.0833 66.1564 31.05C66.5898 31.0167 66.8564 31 66.9564 31C67.1231 31 67.2731 31.05 67.4064 31.15C67.5398 31.25 67.6064 31.4167 67.6064 31.65ZM76.4283 35.55C76.4283 35.8167 76.3283 36.0167 76.1283 36.15C75.9283 36.2833 75.695 36.35 75.4283 36.35C75.1283 36.35 74.8117 36.0667 74.4783 35.5C74.1783 34.9333 73.8783 34.2167 73.5783 33.35C73.2783 32.4833 72.995 31.55 72.7283 30.55C72.4617 29.5167 72.2283 28.5667 72.0283 27.7C71.8283 26.8 71.6617 26.05 71.5283 25.45C71.4283 24.85 71.3783 24.5167 71.3783 24.45C71.3783 24.3167 71.3117 23.9667 71.1783 23.4C71.0783 22.8333 70.9283 21.95 70.7283 20.75C70.5617 19.55 70.3617 18 70.1283 16.1C69.9283 14.1667 69.7117 11.7833 69.4783 8.95C69.4783 8.65 69.5283 8.26666 69.6283 7.8C69.7283 7.33333 69.9617 7.1 70.3283 7.1C70.795 7.1 71.145 7.41666 71.3783 8.05C71.645 8.68333 71.845 9.46667 71.9783 10.4C72.145 11.3333 72.2617 12.3167 72.3283 13.35C72.395 14.35 72.4783 15.2333 72.5783 16C72.7117 17.0667 72.8283 18.0333 72.9283 18.9C73.0617 19.7667 73.1783 20.6333 73.2783 21.5C73.4117 22.3333 73.5617 23.2167 73.7283 24.15C73.9283 25.0833 74.1617 26.1167 74.4283 27.25L76.4283 35.55ZM94.2252 31.75C94.2585 31.8167 94.2752 31.9167 94.2752 32.05C94.2752 32.25 94.1252 32.55 93.8252 32.95C93.7252 33.0833 93.5085 33.3 93.1752 33.6C92.8419 33.9 92.3919 34.2 91.8252 34.5C91.2585 34.8 90.5585 35.0667 89.7252 35.3C88.9252 35.5333 87.9752 35.65 86.8752 35.65C86.1085 35.65 85.3585 35.4833 84.6252 35.15C83.8919 34.7833 83.2419 34.2667 82.6752 33.6C82.1085 32.9 81.6419 32.05 81.2752 31.05C80.9085 30.0167 80.7252 28.8167 80.7252 27.45C80.7252 26.15 80.8919 24.9333 81.2252 23.8C81.5585 22.6667 81.9752 21.6667 82.4752 20.8C83.0085 19.9333 83.5919 19.25 84.2252 18.75C84.8585 18.25 85.4752 18 86.0752 18C86.6085 18 87.1419 18.1167 87.6752 18.35C88.2419 18.55 88.7419 18.8167 89.1752 19.15C89.6419 19.4833 90.0085 19.8667 90.2752 20.3C90.5419 20.7 90.6752 21.1167 90.6752 21.55C90.6752 22.05 90.4419 22.5667 89.9752 23.1C89.5419 23.6333 89.0085 24.1333 88.3752 24.6C87.7419 25.0333 87.1085 25.4 86.4752 25.7C85.8419 25.9667 85.3419 26.1 84.9752 26.1C84.7752 26.1 84.5919 26.0167 84.4252 25.85C84.2919 25.65 84.2252 25.4167 84.2252 25.15C84.2252 24.6833 84.4252 24.3167 84.8252 24.05C85.2585 23.7833 85.7252 23.55 86.2252 23.35C86.7252 23.1167 87.1752 22.85 87.5752 22.55C88.0085 22.25 88.2252 21.8333 88.2252 21.3C88.2252 21.2333 88.1419 21.0667 87.9752 20.8C87.8085 20.5333 87.3585 20.4 86.6252 20.4C86.2919 20.4 85.9085 20.6 85.4752 21C85.0419 21.3667 84.6252 21.8833 84.2252 22.55C83.8252 23.1833 83.4919 23.95 83.2252 24.85C82.9585 25.7167 82.8252 26.6667 82.8252 27.7C82.8252 28.5667 82.9752 29.35 83.2752 30.05C83.6085 30.75 84.0252 31.35 84.5252 31.85C85.0252 32.3167 85.6085 32.6833 86.2752 32.95C86.9419 33.2167 87.6252 33.35 88.3252 33.35C88.8252 33.35 89.3585 33.25 89.9252 33.05C90.5252 32.8167 91.0752 32.5833 91.5752 32.35C92.1085 32.0833 92.5585 31.85 92.9252 31.65C93.3252 31.4167 93.5752 31.3 93.6752 31.3C93.7752 31.3 93.8752 31.35 93.9752 31.45C94.1085 31.55 94.1919 31.65 94.2252 31.75ZM111.007 14.4C110.574 14.9 109.957 15.4 109.157 15.9C108.357 16.3667 107.557 16.8 106.757 17.2C105.957 17.6 105.257 17.95 104.657 18.25C104.057 18.5167 103.757 18.7 103.757 18.8C103.757 18.9 103.824 19.2 103.957 19.7C104.09 20.2 104.24 20.8 104.407 21.5C104.607 22.1667 104.807 22.8667 105.007 23.6C105.207 24.3333 105.374 24.9833 105.507 25.55C105.574 25.8833 105.657 26.3167 105.757 26.85C105.857 27.3833 105.94 27.9167 106.007 28.45C106.107 28.9833 106.19 29.4667 106.257 29.9C106.324 30.3 106.357 30.5167 106.357 30.55C106.357 31.05 106.274 31.5667 106.107 32.1C105.94 32.6333 105.674 32.9 105.307 32.9C105.107 32.9 104.924 32.8167 104.757 32.65C104.59 32.4833 104.44 32.3 104.307 32.1C104.174 31.8667 104.074 31.65 104.007 31.45C103.94 31.25 103.907 31.1 103.907 31C103.907 30.9333 103.907 30.8333 103.907 30.7C103.94 30.5667 103.957 30.4167 103.957 30.25C103.957 29.6167 103.857 28.7 103.657 27.5C103.59 27.1333 103.457 26.5667 103.257 25.8C103.057 25.0333 102.857 24.25 102.657 23.45C102.424 22.5167 102.157 21.5 101.857 20.4C101.724 19.9333 101.64 19.7 101.607 19.7C101.374 19.7 100.974 19.85 100.407 20.15C99.8735 20.4167 99.2568 20.7667 98.5568 21.2C97.8568 21.6 97.1235 22.05 96.3568 22.55C95.5902 23.0167 94.8735 23.4667 94.2068 23.9C93.5402 24.3 92.9735 24.65 92.5068 24.95C92.0068 25.2167 91.7068 25.35 91.6068 25.35C91.1735 25.35 90.8235 25.2 90.5568 24.9C90.2902 24.6 90.1568 24.2667 90.1568 23.9C90.1568 23.7 90.4402 23.4167 91.0068 23.05C91.5402 22.65 92.2235 22.2167 93.0568 21.75C93.8568 21.2833 94.7402 20.8 95.7068 20.3C96.6402 19.8 97.5068 19.35 98.3068 18.95C99.1402 18.55 99.8235 18.2167 100.357 17.95C100.924 17.6833 101.207 17.55 101.207 17.55C100.907 16.0167 100.657 14.65 100.457 13.45C100.29 12.4167 100.124 11.4667 99.9568 10.6C99.8235 9.73333 99.7568 9.26667 99.7568 9.2C99.7568 8.76667 99.8402 8.45 100.007 8.25C100.207 8.01667 100.424 7.9 100.657 7.9C101.024 7.9 101.257 8.15 101.357 8.65C101.724 10.45 102.057 12.05 102.357 13.45C102.69 14.85 103.007 15.9833 103.307 16.85C103.607 16.7833 104.124 16.6 104.857 16.3C105.59 15.9667 106.357 15.6167 107.157 15.25C107.957 14.8833 108.674 14.5667 109.307 14.3C109.974 14 110.357 13.85 110.457 13.85C110.657 13.85 110.774 13.9167 110.807 14.05C110.874 14.1833 110.94 14.3 111.007 14.4Z" fill="black"/>
</svg>
