<?xml version="1.0" encoding="UTF-8" standalone="no"?>
<!DOCTYPE svg PUBLIC "-//W3C//DTD SVG 1.1//EN" "http://www.w3.org/Graphics/SVG/1.1/DTD/svg11.dtd">
<svg width="100%" height="100%" viewBox="0 0 158 138" version="1.1" xmlns="http://www.w3.org/2000/svg" xmlns:xlink="http://www.w3.org/1999/xlink" xml:space="preserve" xmlns:serif="http://www.serif.com/" style="fill-rule:evenodd;clip-rule:evenodd;stroke-linejoin:round;stroke-miterlimit:2;">
    <path d="M101.019,123.68C101.16,123.516 101.268,123.249 101.345,122.878C101.411,122.554 101.357,122.302 101.181,122.121C101.005,121.94 100.79,121.823 100.533,121.77C100.38,121.738 99.966,121.678 99.292,121.586C98.669,121.506 97.887,121.417 96.948,121.319C96.069,121.186 95.113,121.037 94.081,120.872C93.049,120.707 92.097,120.535 91.228,120.356C90.257,120.155 89.279,119.856 88.294,119.46C87.37,119.029 86.538,118.543 85.796,118.004C85.105,117.476 84.562,116.881 84.165,116.22C83.829,115.523 83.742,114.781 83.904,113.995C84.353,111.82 85.194,109.943 86.426,108.364C87.668,106.74 88.96,105.39 90.301,104.316C91.652,103.196 92.843,102.332 93.875,101.725C94.917,101.072 95.466,100.607 95.523,100.328C95.59,100.004 95.443,99.684 95.082,99.369C94.771,99.064 94.131,98.81 93.159,98.61C92.546,98.484 91.823,98.624 90.992,99.031C90.213,99.449 89.374,100.024 88.477,100.755C87.631,101.497 86.76,102.354 85.867,103.328C85.034,104.266 84.256,105.19 83.534,106.103C82.813,107.015 82.208,107.879 81.719,108.696C81.231,109.511 80.914,110.145 80.767,110.598C80.52,109.727 80.332,108.698 80.204,107.514C80.085,106.284 80.001,105.012 79.952,103.699C79.903,102.386 79.85,101.097 79.791,99.83C79.793,98.528 79.797,97.347 79.803,96.287C79.812,96.241 79.791,95.826 79.74,95.043C79.749,94.225 79.711,93.373 79.627,92.488C79.604,91.566 79.512,90.726 79.348,89.969C79.245,89.176 79.065,88.753 78.81,88.7C78.401,88.616 78.034,88.71 77.713,88.98C77.45,89.215 77.195,89.549 76.947,89.979C76.758,90.376 76.59,90.799 76.444,91.251L76.214,92.361C76.09,92.964 76.028,94.036 76.03,95.58C76.041,97.078 76.105,98.828 76.225,100.831C76.355,102.787 76.511,104.87 76.695,107.079C76.888,109.242 77.08,111.284 77.269,113.204C77.398,114.388 77.495,115.47 77.559,116.448C77.624,117.426 77.673,118.353 77.706,119.228C77.789,120.114 77.899,121.005 78.033,121.901C78.178,122.751 78.384,123.687 78.654,124.707C78.731,125.109 78.857,125.4 79.033,125.581C79.27,125.726 79.515,125.826 79.772,125.879C80.333,125.994 80.68,125.993 80.811,125.876C81.003,125.723 81.123,125.53 81.171,125.299C81.269,124.306 81.316,123.302 81.312,122.288C81.309,121.275 81.279,120.255 81.224,119.231C81.505,119.675 82.001,120.115 82.711,120.551C83.481,120.951 84.328,121.367 85.252,121.799C86.185,122.185 87.154,122.53 88.158,122.834C89.213,123.148 90.174,123.395 91.044,123.574C91.76,123.722 92.537,123.834 93.374,123.91C94.271,123.952 95.144,123.986 95.991,124.017C96.848,124.001 97.623,123.992 98.316,123.99C99.07,123.953 99.691,123.912 100.181,123.869C100.609,123.86 100.888,123.797 101.019,123.68ZM67.907,108.087C67.697,109.105 67.343,110.046 66.846,110.907C66.347,111.769 65.771,112.495 65.116,113.083C64.462,113.671 63.733,114.1 62.932,114.369C62.191,114.601 61.41,114.634 60.592,114.464C59.16,114.17 58.112,113.566 57.446,112.658C56.781,111.748 56.319,110.76 56.06,109.694C55.85,108.637 55.77,107.608 55.818,106.604C55.925,105.565 56.032,104.791 56.137,104.282C56.309,103.449 56.628,102.55 57.093,101.585C57.62,100.583 58.204,99.691 58.846,98.907C59.539,98.133 60.254,97.51 60.992,97.035C61.73,96.56 62.432,96.391 63.096,96.528C63.25,96.56 63.47,96.653 63.757,96.809C64.097,96.976 64.426,97.189 64.746,97.448C65.065,97.706 65.324,98.001 65.523,98.332C65.772,98.673 65.91,99.039 65.936,99.43C66.489,99.593 67.013,99.894 67.509,100.334C68.004,100.774 68.258,101.092 68.272,101.288C68.433,102.575 68.439,103.831 68.294,105.055C68.198,106.29 68.069,107.3 67.907,108.087ZM25.297,100.52C24.866,102.602 24.208,104.371 23.321,105.829C22.484,107.297 21.573,108.484 20.586,109.389C19.609,110.249 18.659,110.848 17.735,111.188C16.863,111.539 16.171,111.661 15.661,111.556C14.945,111.408 14.312,110.988 13.761,110.296C13.221,109.557 13.003,108.933 13.108,108.424C13.26,107.684 13.67,107.382 14.334,107.519C14.59,107.572 14.826,107.718 15.044,107.956C15.271,108.147 15.477,108.31 15.662,108.445C16.666,107.977 17.703,107.081 18.777,105.759C19.9,104.447 20.744,102.426 21.308,99.696C21.537,98.586 21.614,97.565 21.54,96.633C21.466,95.7 21.313,94.897 21.079,94.221C20.896,93.556 20.659,93.025 20.369,92.627C20.077,92.229 19.855,92.015 19.701,91.983C19.19,91.878 18.583,92.234 17.881,93.054C17.229,93.885 16.6,94.865 15.994,95.994C15.398,97.077 14.851,98.17 14.357,99.274C13.923,100.343 13.663,101.084 13.577,101.502C13.572,101.79 13.57,102.055 13.574,102.297L13.583,103.022C13.587,103.264 13.565,103.501 13.517,103.732C13.336,104.611 12.84,105.329 12.032,105.886C11.224,106.443 10.513,106.658 9.899,106.531C9.593,106.468 9.375,106.23 9.247,105.817C9.18,105.369 9.157,104.835 9.179,104.211C9.201,103.589 9.228,102.943 9.259,102.274C9.342,101.615 9.384,101.022 9.387,100.492C9.15,99.574 8.885,98.145 8.593,96.202C8.301,94.261 7.981,92.193 7.635,89.998C7.349,87.768 7.074,85.613 6.81,83.532C6.598,81.462 6.458,79.817 6.39,78.597C6.19,75.95 6.102,73.665 6.126,71.739C6.109,69.758 6.141,68.052 6.223,66.622C6.263,65.134 6.363,63.877 6.522,62.848C6.681,61.82 6.832,60.958 6.976,60.264C7.062,59.848 7.334,59.566 7.79,59.419C8.196,59.261 8.552,59.214 8.859,59.278C9.319,59.373 9.633,59.534 9.799,59.761C9.975,59.943 10.061,60.298 10.058,60.828C10.004,61.347 9.928,62.104 9.83,63.097C9.681,64.079 9.541,65.401 9.411,67.063C9.351,67.871 9.305,68.995 9.274,70.436C9.294,71.888 9.358,73.517 9.465,75.324C9.572,77.13 9.685,79.035 9.804,81.039C9.985,83.005 10.18,84.903 10.389,86.731C10.649,88.57 10.912,90.265 11.178,91.815C11.496,93.377 11.825,94.627 12.164,95.565C12.968,93.994 13.841,92.606 14.783,91.402C15.575,90.407 16.475,89.531 17.485,88.775C18.503,87.972 19.601,87.693 20.777,87.936C21.237,88.03 21.813,88.342 22.503,88.87C23.194,89.399 23.806,90.177 24.341,91.204C24.926,92.242 25.327,93.53 25.542,95.07C25.808,96.621 25.727,98.438 25.297,100.52ZM64.713,106.125C64.857,105.431 64.928,104.698 64.928,103.926C64.937,103.108 64.792,102.257 64.495,101.375C64.383,101.401 64.25,101.398 64.097,101.366C63.892,101.324 63.718,101.264 63.573,101.186C63.481,101.118 63.384,101.074 63.281,101.053C62.668,100.926 62.148,100.988 61.723,101.238C61.308,101.442 60.946,101.777 60.636,102.244C60.387,102.675 60.18,103.163 60.014,103.707C59.848,104.252 59.713,104.779 59.608,105.288C59.502,105.797 59.409,106.381 59.326,107.039C59.254,107.651 59.236,108.25 59.275,108.837C59.365,109.435 59.52,109.973 59.741,110.453C59.972,110.887 60.343,111.157 60.853,111.263C61.365,111.368 61.848,111.226 62.301,110.838C62.764,110.402 63.165,109.882 63.503,109.277C63.841,108.671 64.098,108.072 64.274,107.482C64.51,106.855 64.656,106.402 64.713,106.125ZM45.347,106.469C45.844,105.606 46.199,104.666 46.409,103.648C46.57,102.861 46.7,101.851 46.795,100.616C46.94,99.392 46.934,98.136 46.773,96.849C46.76,96.653 46.506,96.335 46.01,95.895C45.514,95.455 44.99,95.154 44.437,94.991C44.411,94.6 44.273,94.234 44.024,93.893C43.825,93.563 43.567,93.268 43.247,93.009C42.927,92.75 42.598,92.537 42.259,92.371C41.971,92.215 41.751,92.121 41.598,92.09C40.933,91.952 40.231,92.121 39.493,92.596C38.755,93.071 38.04,93.695 37.347,94.469C36.706,95.252 36.122,96.145 35.595,97.146C35.129,98.111 34.81,99.01 34.638,99.843C34.533,100.352 34.427,101.126 34.319,102.166C34.272,103.169 34.352,104.199 34.561,105.255C34.82,106.321 35.282,107.309 35.948,108.219C36.613,109.128 37.661,109.73 39.093,110.026C39.911,110.195 40.692,110.163 41.433,109.93C42.234,109.661 42.963,109.233 43.617,108.645C44.272,108.056 44.849,107.33 45.347,106.469ZM43.429,99.487C43.429,100.259 43.358,100.992 43.214,101.687C43.158,101.964 43.011,102.416 42.775,103.042C42.6,103.634 42.342,104.232 42.004,104.838C41.666,105.444 41.265,105.964 40.803,106.398C40.349,106.788 39.866,106.929 39.355,106.823C38.844,106.717 38.473,106.449 38.242,106.015C38.022,105.535 37.866,104.997 37.776,104.399C37.738,103.811 37.755,103.212 37.827,102.6C37.91,101.942 38.004,101.358 38.109,100.849C38.215,100.341 38.349,99.814 38.515,99.269C38.681,98.724 38.889,98.236 39.138,97.805C39.447,97.338 39.809,97.003 40.224,96.8C40.649,96.549 41.169,96.487 41.783,96.615C41.885,96.636 41.982,96.68 42.075,96.748C42.219,96.826 42.393,96.885 42.598,96.928C42.751,96.959 42.884,96.962 42.996,96.937C43.293,97.819 43.438,98.669 43.429,99.487ZM151.018,85.58C151.321,85.402 151.497,85.196 151.545,84.965C151.49,84.713 151.315,84.532 151.017,84.422C150.73,84.266 150.554,84.084 150.49,83.878C150.236,83.296 150.028,82.239 149.865,80.71C149.709,79.135 149.598,77.35 149.529,75.359C149.461,73.366 149.407,71.305 149.367,69.173C149.388,67.006 149.452,65.018 149.559,63.207C149.591,62.537 149.622,61.483 149.653,60.042C149.683,58.601 149.729,57.09 149.788,55.511C149.848,53.931 149.884,52.467 149.895,51.118C149.907,49.77 149.936,48.86 149.98,48.386C150.008,47.475 149.968,46.767 149.859,46.262C149.811,45.721 149.707,45.315 149.55,45.041C149.394,44.768 149.193,44.581 148.946,44.482C148.701,44.383 148.424,44.302 148.117,44.239C147.708,44.154 147.337,44.27 147.006,44.587C146.683,44.859 146.498,45.111 146.45,45.342C146.43,45.434 146.452,45.849 146.513,46.585C146.625,47.332 146.711,47.952 146.769,48.446C146.781,48.642 146.746,49.069 146.664,49.728C146.581,50.386 146.484,51.114 146.373,51.911C146.262,52.708 146.155,53.482 146.054,54.234C145.961,54.938 145.912,55.434 145.906,55.722C145.877,55.861 145.843,56.288 145.801,57.004C145.821,57.683 145.833,58.53 145.837,59.544C145.841,60.557 145.816,61.711 145.763,63.002C145.769,64.257 145.772,65.537 145.77,66.839C145.731,69.87 145.696,73.265 145.667,77.022L145.057,76.099C144.712,75.449 144.223,74.721 143.59,73.915C142.956,73.109 142.211,72.327 141.354,71.572C140.497,70.816 139.582,70.337 138.611,70.137C137.589,69.926 136.646,69.972 135.783,70.277C134.921,70.581 134.152,71.074 133.478,71.755C132.814,72.39 132.224,73.185 131.706,74.139C131.251,75.058 130.908,76.073 130.678,77.183C130.43,78.386 130.335,79.621 130.393,80.887C130.513,82.118 130.809,83.264 131.282,84.327C131.808,85.401 132.545,86.349 133.495,87.173C134.453,87.949 135.649,88.486 137.081,88.781C138.768,89.13 140.173,89.299 141.295,89.29C142.477,89.244 143.404,89.146 144.075,88.995C144.807,88.809 145.324,88.626 145.628,88.447C145.982,88.279 146.155,88.218 146.145,88.264C146.232,88.62 146.353,88.935 146.51,89.209C146.763,89.792 147.043,90.114 147.35,90.178C147.932,90.201 148.333,90.188 148.558,90.138C148.842,90.052 149.24,90.061 149.751,90.167C150.16,90.251 150.427,89.993 150.552,89.392C150.685,88.743 150.672,88.162 150.511,87.647C150.402,87.142 150.4,86.634 150.505,86.125C150.605,85.905 150.775,85.723 151.018,85.58ZM144.943,83.24C145.346,84.385 145.559,85.032 145.583,85.181C144.915,85.574 143.878,85.818 142.471,85.914C141.065,86.01 139.749,85.931 138.522,85.677C137.09,85.381 135.896,84.581 134.939,83.273C134.034,81.977 133.763,80.449 134.126,78.69C134.451,77.118 134.993,75.782 135.752,74.685C136.564,73.598 137.404,73.144 138.273,73.323C139.296,73.534 140.243,74.237 141.117,75.431C142.041,76.634 142.809,77.95 143.421,79.379C144.093,80.773 144.601,82.06 144.943,83.24ZM125.337,82.304C125.28,82.581 125.12,82.839 124.858,83.074C124.596,83.309 124.288,83.511 123.933,83.679C123.631,83.857 123.28,84.003 122.884,84.113C122.549,84.189 122.253,84.2 121.998,84.147C121.128,83.968 120.037,83.574 118.722,82.965C117.47,82.32 116.51,81.543 115.845,80.634C115.138,79.668 114.562,78.584 114.117,77.382C113.681,76.134 113.275,74.362 112.896,72.064C111.913,73.984 110.833,75.86 109.654,77.691C108.528,79.533 106.975,81.118 104.994,82.445C104.872,82.518 104.709,82.532 104.505,82.49C104.147,82.416 103.797,82.175 103.455,81.766C103.113,81.358 102.975,80.991 103.042,80.668C103.109,80.344 103.21,79.593 103.347,78.415C103.545,77.202 103.74,75.867 103.934,74.411L104.544,69.906C104.808,68.368 105.041,67.113 105.241,66.142C105.337,65.68 105.486,65.083 105.69,64.353C105.904,63.577 106.196,62.938 106.566,62.435C106.637,62.353 106.853,62.205 107.218,61.991C107.633,61.787 108.045,61.728 108.455,61.812C108.812,61.886 108.974,62.137 108.939,62.563C108.904,62.99 108.834,63.459 108.729,63.967L106.465,74.934C106.417,75.165 106.375,75.494 106.341,75.921C106.357,76.359 106.423,76.686 106.538,76.903C107.33,75.909 108.109,74.719 108.875,73.333C109.702,71.912 110.483,70.577 111.221,69.331C111.968,68.037 112.667,66.976 113.318,66.145C113.979,65.268 114.54,64.878 114.999,64.972C115.511,65.078 115.901,65.256 116.17,65.503C116.438,65.752 116.618,66.175 116.708,66.772C116.686,68.167 116.642,69.412 116.576,70.509C116.519,71.558 116.507,72.521 116.54,73.396C116.624,74.281 116.793,75.137 117.05,75.962C117.367,76.751 117.847,77.525 118.489,78.285C119.081,79.034 119.783,79.638 120.595,80.094C121.458,80.563 122.222,80.865 122.887,81.002C123.193,81.066 123.535,81.088 123.913,81.07C124.3,81.004 124.569,80.988 124.723,81.019C124.928,81.062 125.073,81.26 125.159,81.616C125.297,81.982 125.357,82.211 125.337,82.304ZM100.651,74.312C101.778,73.243 102.428,72.292 102.599,71.458C102.724,70.857 102.454,70.488 101.789,70.35C101.379,70.265 100.777,70.6 99.982,71.352C99.197,72.058 98.157,72.833 96.863,73.675C95.631,74.482 94.131,75.161 92.363,75.713C90.658,76.23 88.68,76.256 86.43,75.79C84.64,75.421 83.266,74.848 82.306,74.071C81.357,73.247 80.666,72.333 80.233,71.327C79.811,70.275 79.617,69.149 79.651,67.951C79.685,66.751 79.827,65.55 80.075,64.347C80.122,64.116 80.196,63.89 80.295,63.669C80.404,63.402 80.491,63.107 80.558,62.782C80.663,62.273 80.663,61.888 80.557,61.625C80.503,61.372 80.357,61.173 80.12,61.028C79.944,60.846 79.708,60.702 79.41,60.592C79.174,60.447 78.947,60.255 78.73,60.017L79.16,57.935C79.246,57.518 79.229,57.081 79.111,56.622C79.053,56.128 78.743,55.822 78.18,55.706C76.697,55.4 75.259,55.779 73.867,56.842C72.526,57.916 71.325,59.212 70.265,60.73C69.205,62.247 68.333,63.756 67.651,65.256C66.978,66.709 66.584,67.713 66.469,68.269C66.45,68.361 66.42,68.765 66.379,69.48C66.338,70.195 66.364,70.972 66.457,71.812C66.56,72.605 66.749,73.368 67.025,74.1C67.361,74.797 67.861,75.213 68.526,75.351C69.191,75.488 69.878,75.388 70.587,75.052C71.306,74.671 71.987,74.208 72.633,73.666C73.287,73.077 73.886,72.502 74.429,71.938C75.023,71.385 75.502,71.001 75.866,70.787C76.023,71.833 76.404,72.828 77.009,73.773C77.623,74.672 78.359,75.499 79.216,76.255C80.082,76.965 80.998,77.564 81.964,78.053C82.929,78.541 83.873,78.881 84.793,79.071C86.838,79.493 88.888,79.507 90.942,79.111C93.007,78.668 94.874,78.017 96.545,77.156C98.215,76.294 99.584,75.347 100.651,74.312ZM76.253,62.328C76.327,62.488 76.344,62.661 76.306,62.846C76,64.326 75.307,65.751 74.225,67.119C73.193,68.499 72.076,69.909 70.871,71.348C70.664,71.064 70.534,70.531 70.482,69.748C70.431,68.965 70.438,68.412 70.505,68.088C70.629,67.487 70.915,66.75 71.362,65.877C71.818,64.958 72.347,64.078 72.946,63.237C73.597,62.406 74.225,61.692 74.829,61.093C75.483,60.504 76.05,60.211 76.529,60.214C76.51,60.307 76.543,60.41 76.626,60.524C76.718,60.591 76.75,60.694 76.722,60.833C76.674,61.064 76.584,61.239 76.453,61.356C76.323,61.474 76.238,61.625 76.2,61.81C76.171,61.95 76.189,62.122 76.253,62.328ZM61.386,55.929C61.32,56.253 61.109,56.5 60.754,56.667C60.409,56.789 60.018,56.878 59.58,56.931C59.142,56.986 58.709,57.017 58.281,57.025C57.862,56.987 57.525,56.941 57.27,56.889C56.503,56.73 56.001,56.579 55.764,56.433C55.528,56.288 55.332,56.199 55.179,56.167C53.9,55.903 52.859,55.785 52.053,55.812C51.249,55.839 50.572,56.012 50.026,56.334C49.531,56.666 49.14,57.141 48.853,57.756C48.627,58.336 48.422,59.067 48.241,59.945C47.935,61.426 47.743,62.616 47.663,63.517C47.635,64.428 47.615,65.172 47.602,65.748C47.642,66.335 47.679,66.801 47.714,67.146C47.811,67.455 47.83,67.748 47.772,68.027C47.696,68.397 47.385,68.743 46.838,69.064C46.343,69.396 45.916,69.525 45.559,69.451C44.945,69.324 44.482,68.723 44.172,67.645C43.922,66.532 43.757,65.267 43.676,63.852C43.656,62.401 43.682,60.982 43.754,59.599C43.826,58.214 43.934,57.175 44.078,56.481C44.24,55.694 44.47,54.97 44.767,54.308C45.072,53.599 45.406,53.017 45.767,52.56C46.137,52.058 46.509,51.676 46.883,51.415C47.257,51.155 47.597,51.057 47.904,51.119C48.159,51.172 48.345,51.307 48.46,51.524C48.585,51.695 48.675,51.906 48.729,52.158L48.922,52.777C49.046,52.947 49.211,53.054 49.415,53.097C49.875,53.191 50.66,53.136 51.769,52.931C52.877,52.726 54.173,52.776 55.656,53.082C57.037,53.367 58.05,53.625 58.696,53.855C59.402,54.049 60.064,54.33 60.681,54.698C60.824,54.776 60.979,54.929 61.146,55.157C61.374,55.347 61.454,55.606 61.386,55.929ZM34.627,58.075C34.196,60.157 33.538,61.928 32.651,63.384C31.815,64.852 30.903,66.039 29.916,66.945C28.939,67.804 27.989,68.405 27.065,68.745C26.193,69.095 25.501,69.218 24.991,69.112C24.275,68.964 23.642,68.544 23.092,67.851C22.551,67.112 22.333,66.489 22.438,65.98C22.59,65.239 23,64.938 23.665,65.075C23.92,65.128 24.156,65.273 24.374,65.511C24.601,65.703 24.808,65.866 24.993,66C25.996,65.532 27.033,64.637 28.107,63.315C29.23,62.003 30.074,59.982 30.638,57.252C30.867,56.141 30.944,55.12 30.87,54.188C30.796,53.256 30.643,52.453 30.409,51.777C30.227,51.113 29.99,50.581 29.699,50.183C29.407,49.786 29.185,49.571 29.032,49.539C28.52,49.433 27.913,49.791 27.211,50.611C26.559,51.441 25.93,52.42 25.324,53.549C24.728,54.632 24.181,55.726 23.687,56.83C23.253,57.898 22.993,58.641 22.907,59.057C22.902,59.345 22.9,59.61 22.904,59.852L22.913,60.579C22.917,60.82 22.895,61.056 22.847,61.288C22.666,62.167 22.17,62.885 21.362,63.442C20.554,63.999 19.843,64.214 19.23,64.087C18.923,64.024 18.705,63.786 18.577,63.374C18.51,62.926 18.487,62.39 18.509,61.768C18.531,61.145 18.558,60.499 18.589,59.83C18.672,59.172 18.714,58.577 18.717,58.047C18.48,57.13 18.216,55.7 17.923,53.758C17.631,51.817 17.312,49.748 16.965,47.554C16.679,45.324 16.404,43.169 16.14,41.088C15.928,39.018 15.788,37.373 15.72,36.152C15.52,33.506 15.432,31.22 15.456,29.296C15.439,27.314 15.471,25.608 15.554,24.177C15.594,22.691 15.693,21.432 15.852,20.404C16.011,19.375 16.163,18.515 16.306,17.82C16.392,17.404 16.664,17.122 17.12,16.975C17.526,16.818 17.883,16.77 18.189,16.834C18.65,16.929 18.963,17.09 19.129,17.318C19.305,17.498 19.391,17.854 19.389,18.384C19.335,18.904 19.258,19.66 19.16,20.653C19.011,21.635 18.871,22.957 18.741,24.619C18.681,25.426 18.635,26.551 18.604,27.992C18.624,29.443 18.688,31.073 18.795,32.88C18.902,34.687 19.015,36.592 19.135,38.594C19.315,40.562 19.51,42.459 19.719,44.288C19.979,46.126 20.242,47.821 20.508,49.371C20.826,50.932 21.155,52.182 21.494,53.121C22.299,51.55 23.171,50.163 24.113,48.958C24.905,47.964 25.805,47.088 26.815,46.331C27.833,45.529 28.931,45.248 30.107,45.491C30.567,45.587 31.143,45.898 31.833,46.427C32.524,46.955 33.137,47.733 33.67,48.76C34.256,49.797 34.657,51.087 34.872,52.626C35.138,54.177 35.057,55.993 34.627,58.075Z"/>
</svg>
