<svg width="94" height="72" viewBox="0 0 94 72" fill="none" xmlns="http://www.w3.org/2000/svg">
<path d="M17.233 27.05C17.233 28.55 17.0497 29.8667 16.683 31C16.3497 32.1333 15.933 33.0833 15.433 33.85C14.933 34.5833 14.4163 35.1333 13.883 35.5C13.383 35.8667 12.9663 36.05 12.633 36.05C12.1663 36.05 11.7163 35.85 11.283 35.45C10.8497 35.0167 10.633 34.6167 10.633 34.25C10.633 33.7167 10.8497 33.45 11.283 33.45C11.4497 33.45 11.6163 33.5167 11.783 33.65C11.9497 33.75 12.0997 33.8333 12.233 33.9C12.7997 33.4333 13.333 32.6667 13.833 31.6C14.3663 30.5333 14.633 29.0167 14.633 27.05C14.633 26.25 14.5497 25.5333 14.383 24.9C14.2163 24.2667 14.0163 23.7333 13.783 23.3C13.583 22.8667 13.3663 22.5333 13.133 22.3C12.8997 22.0667 12.733 21.95 12.633 21.95C12.2997 21.95 11.9663 22.2833 11.633 22.95C11.333 23.6167 11.0663 24.3833 10.833 25.25C10.5997 26.0833 10.3997 26.9167 10.233 27.75C10.0997 28.55 10.033 29.1 10.033 29.4C10.0663 29.6 10.0997 29.7833 10.133 29.95C10.1663 30.1167 10.1997 30.2833 10.233 30.45C10.2663 30.6167 10.283 30.7833 10.283 30.95C10.283 31.5833 10.0663 32.15 9.63301 32.65C9.19967 33.15 8.78301 33.4 8.38301 33.4C8.18301 33.4 8.01634 33.2667 7.88301 33C7.78301 32.7 7.69967 32.3333 7.63301 31.9C7.56634 31.4667 7.49967 31.0167 7.43301 30.55C7.39967 30.0833 7.34967 29.6667 7.28301 29.3C7.01634 28.7 6.66634 27.75 6.23301 26.45C5.79967 25.15 5.33301 23.7667 4.83301 22.3C4.36634 20.8 3.91634 19.35 3.48301 17.95C3.08301 16.55 2.78301 15.4333 2.58301 14.6C2.11634 12.8 1.76634 11.2333 1.53301 9.9C1.26634 8.53333 1.06634 7.35 0.933008 6.35C0.766341 5.31666 0.666341 4.43333 0.633008 3.7C0.599674 2.96667 0.583008 2.35 0.583008 1.85C0.583008 1.55 0.716341 1.31667 0.983008 1.15C1.21634 0.983331 1.43301 0.899997 1.63301 0.899997C1.93301 0.899997 2.14967 0.966664 2.28301 1.1C2.41634 1.2 2.51634 1.43333 2.58301 1.8C2.61634 2.16667 2.66634 2.7 2.73301 3.4C2.76634 4.1 2.84967 5.03333 2.98301 6.2C3.04967 6.76666 3.16634 7.55 3.33301 8.55C3.53301 9.55 3.78301 10.6667 4.08301 11.9C4.38301 13.1333 4.69967 14.4333 5.03301 15.8C5.39967 17.1333 5.76634 18.4167 6.13301 19.65C6.53301 20.8833 6.91634 22.0167 7.28301 23.05C7.68301 24.0833 8.04967 24.9 8.38301 25.5C8.68301 24.3 9.04967 23.2167 9.48301 22.25C9.84967 21.45 10.2997 20.7167 10.833 20.05C11.3663 19.35 12.0163 19 12.783 19C13.083 19 13.483 19.1333 13.983 19.4C14.483 19.6667 14.9663 20.1167 15.433 20.75C15.933 21.3833 16.3497 22.2167 16.683 23.25C17.0497 24.2833 17.233 25.55 17.233 27.05ZM33.6857 21.75C33.6857 21.9833 33.5857 22.1833 33.3857 22.35C33.1857 22.4833 32.9524 22.6 32.6857 22.7C32.4191 22.8 32.1524 22.8833 31.8857 22.95C31.6191 22.9833 31.4024 23 31.2357 23C30.7357 23 30.4024 22.9667 30.2357 22.9C30.0691 22.8333 29.9357 22.8 29.8357 22.8C29.0024 22.8 28.3357 22.8667 27.8357 23C27.3357 23.1333 26.9357 23.35 26.6357 23.65C26.3691 23.95 26.1857 24.3333 26.0857 24.8C26.0191 25.2333 25.9857 25.7667 25.9857 26.4C25.9857 27.4667 26.0191 28.3167 26.0857 28.95C26.1857 29.5833 26.2691 30.1 26.3357 30.5C26.4357 30.9 26.5191 31.2167 26.5857 31.45C26.6857 31.65 26.7357 31.85 26.7357 32.05C26.7357 32.3167 26.5857 32.6 26.2857 32.9C26.0191 33.2 25.7691 33.35 25.5357 33.35C25.1357 33.35 24.7691 33 24.4357 32.3C24.1357 31.5667 23.8691 30.7167 23.6357 29.75C23.4357 28.75 23.2691 27.7667 23.1357 26.8C23.0024 25.8333 22.9357 25.1 22.9357 24.6C22.9357 24.0333 22.9857 23.5 23.0857 23C23.1857 22.4667 23.3191 22.0167 23.4857 21.65C23.6524 21.25 23.8357 20.9333 24.0357 20.7C24.2357 20.4667 24.4357 20.35 24.6357 20.35C24.8024 20.35 24.9357 20.4167 25.0357 20.55C25.1357 20.65 25.2191 20.7833 25.2857 20.95C25.3524 21.0833 25.4191 21.2167 25.4857 21.35C25.5857 21.45 25.7024 21.5 25.8357 21.5C26.1357 21.5 26.6191 21.35 27.2857 21.05C27.9524 20.75 28.7691 20.6 29.7357 20.6C30.6357 20.6 31.3024 20.6333 31.7357 20.7C32.2024 20.7333 32.6524 20.8333 33.0857 21C33.1857 21.0333 33.3024 21.1167 33.4357 21.25C33.6024 21.35 33.6857 21.5167 33.6857 21.75ZM61.4561 26.6C61.4561 27.2 61.1727 27.95 60.6061 28.85C60.0727 29.7167 59.3394 30.5667 58.4061 31.4C57.4727 32.2333 56.3894 32.95 55.1561 33.55C53.9227 34.1167 52.6394 34.4 51.3061 34.4C50.7061 34.4 50.0727 34.3 49.4061 34.1C48.7394 33.9 48.0894 33.6167 47.4561 33.25C46.8227 32.85 46.2561 32.3833 45.7561 31.85C45.2561 31.2833 44.8894 30.65 44.6561 29.95C44.4561 30.15 44.2061 30.4833 43.9061 30.95C43.6394 31.4167 43.3394 31.9 43.0061 32.4C42.6727 32.8667 42.3061 33.2833 41.9061 33.65C41.5061 33.9833 41.0894 34.15 40.6561 34.15C40.2227 34.15 39.8561 33.9333 39.5561 33.5C39.2894 33.0333 39.0727 32.5333 38.9061 32C38.7394 31.4333 38.6227 30.9 38.5561 30.4C38.4894 29.9 38.4561 29.6167 38.4561 29.55C38.4561 29.15 38.5727 28.4 38.8061 27.3C39.0394 26.1667 39.3894 25 39.8561 23.8C40.3227 22.6 40.9061 21.5333 41.6061 20.6C42.3394 19.6667 43.1894 19.2 44.1561 19.2C44.5227 19.2 44.7561 19.3667 44.8561 19.7C44.9894 20 45.0561 20.3 45.0561 20.6V22.1C45.2227 22.2333 45.3894 22.3333 45.5561 22.4C45.7561 22.4333 45.9227 22.5 46.0561 22.6C46.2227 22.6667 46.3394 22.7833 46.4061 22.95C46.5061 23.1167 46.5561 23.3833 46.5561 23.75C46.5561 23.9833 46.5394 24.2 46.5061 24.4C46.4727 24.5667 46.4561 24.7333 46.4561 24.9C46.4561 25.7667 46.5227 26.6167 46.6561 27.45C46.7894 28.2833 47.0561 29.0333 47.4561 29.7C47.8561 30.3333 48.4061 30.8667 49.1061 31.3C49.8061 31.7 50.7394 31.9 51.9061 31.9C53.3727 31.9 54.6061 31.6 55.6061 31C56.6394 30.3667 57.4894 29.6833 58.1561 28.95C58.8561 28.1833 59.4061 27.5 59.8061 26.9C60.2061 26.2667 60.5394 25.95 60.8061 25.95C61.2394 25.95 61.4561 26.1667 61.4561 26.6ZM43.9061 24.4C43.9061 24.2667 43.8727 24.15 43.8061 24.05C43.7394 23.9167 43.7061 23.8 43.7061 23.7C43.7061 23.5667 43.7394 23.45 43.8061 23.35C43.8727 23.25 43.9061 23.1167 43.9061 22.95C43.9061 22.85 43.8727 22.7833 43.8061 22.75C43.7394 22.6833 43.7061 22.6167 43.7061 22.55C43.4061 22.6167 43.0894 22.9 42.7561 23.4C42.4561 23.9 42.1561 24.4833 41.8561 25.15C41.5894 25.8167 41.3727 26.5 41.2061 27.2C41.0394 27.8667 40.9561 28.4167 40.9561 28.85C40.9561 29.0833 41.0227 29.4667 41.1561 30C41.2894 30.5333 41.4394 30.8833 41.6061 31.05C42.1727 29.8833 42.6894 28.75 43.1561 27.65C43.6561 26.55 43.9061 25.4667 43.9061 24.4ZM77.0713 30.85C77.0713 31.05 77.0046 31.25 76.8713 31.45C76.738 31.65 76.5713 31.8333 76.3713 32C76.2046 32.1667 76.0046 32.3167 75.7713 32.45C75.5713 32.55 75.388 32.6 75.2213 32.6C74.6546 32.6 73.9213 32.4833 73.0213 32.25C72.1546 31.9833 71.4546 31.5833 70.9213 31.05C70.3546 30.4833 69.8546 29.8167 69.4213 29.05C68.988 28.25 68.5046 27.0833 67.9713 25.55C67.6046 27.0167 67.1713 28.4667 66.6713 29.9C66.2046 31.3333 65.438 32.65 64.3713 33.85C64.3046 33.9167 64.2046 33.95 64.0713 33.95C63.838 33.95 63.588 33.8333 63.3213 33.6C63.0546 33.3667 62.9213 33.1333 62.9213 32.9C62.9213 32.6667 62.888 32.1333 62.8213 31.3C62.788 30.4333 62.738 29.4833 62.6713 28.45C62.6046 27.3833 62.538 26.3167 62.4713 25.25C62.438 24.15 62.4213 23.25 62.4213 22.55C62.4213 22.2167 62.438 21.7833 62.4713 21.25C62.5046 20.6833 62.6046 20.2 62.7713 19.8C62.8046 19.7333 62.9213 19.6 63.1213 19.4C63.3546 19.2 63.6046 19.1 63.8713 19.1C64.1046 19.1 64.238 19.25 64.2713 19.55C64.3046 19.85 64.3213 20.1833 64.3213 20.55V28.45C64.3213 28.6167 64.338 28.85 64.3713 29.15C64.438 29.45 64.5213 29.6667 64.6213 29.8C64.988 29 65.3213 28.0667 65.6213 27C65.9546 25.9 66.2713 24.8667 66.5713 23.9C66.8713 22.9 67.1713 22.0667 67.4713 21.4C67.7713 20.7 68.0713 20.35 68.3713 20.35C68.7046 20.35 68.9713 20.4167 69.1713 20.55C69.3713 20.6833 69.538 20.95 69.6713 21.35C69.838 22.3167 69.9713 23.1833 70.0713 23.95C70.1713 24.6833 70.288 25.35 70.4213 25.95C70.588 26.55 70.8046 27.1167 71.0713 27.65C71.3713 28.15 71.7713 28.6167 72.2713 29.05C72.738 29.4833 73.2546 29.8 73.8213 30C74.4213 30.2 74.938 30.3 75.3713 30.3C75.5713 30.3 75.788 30.2667 76.0213 30.2C76.2546 30.1 76.4213 30.05 76.5213 30.05C76.6546 30.05 76.7713 30.1667 76.8713 30.4C77.0046 30.6333 77.0713 30.7833 77.0713 30.85ZM93.7994 28.95C93.7994 29.1167 93.7161 29.2833 93.5494 29.45C93.4161 29.5833 93.3327 29.7333 93.2994 29.9C93.2994 30.2667 93.3661 30.6167 93.4994 30.95C93.6661 31.2833 93.7494 31.6833 93.7494 32.15C93.7494 32.5833 93.6161 32.8 93.3494 32.8C93.0161 32.8 92.7661 32.85 92.5994 32.95C92.4661 33.0167 92.2161 33.0833 91.8494 33.15C91.6494 33.15 91.4327 32.9667 91.1994 32.6C91.0661 32.4333 90.9494 32.2333 90.8494 32C90.8494 31.9667 90.7494 32.0333 90.5494 32.2C90.3827 32.3667 90.0827 32.5667 89.6494 32.8C89.2494 33 88.6827 33.2 87.9494 33.4C87.2494 33.5667 86.3494 33.65 85.2494 33.65C84.3161 33.65 83.4994 33.45 82.7994 33.05C82.0994 32.6167 81.5161 32.0667 81.0494 31.4C80.6161 30.7333 80.2827 29.9833 80.0494 29.15C79.8494 28.2833 79.7494 27.4167 79.7494 26.55C79.7494 25.75 79.8327 25 79.9994 24.3C80.1994 23.5667 80.4661 22.9333 80.7994 22.4C81.1327 21.8333 81.5494 21.3833 82.0494 21.05C82.5494 20.7167 83.1327 20.55 83.7994 20.55C84.4327 20.55 85.0661 20.75 85.6994 21.15C86.3327 21.55 86.8994 21.9833 87.3994 22.45C87.8994 22.9167 88.2994 23.35 88.5994 23.75C88.9327 24.1167 89.0994 24.3 89.0994 24.3C88.6327 21.7 88.2161 19.35 87.8494 17.25C87.6827 16.35 87.5161 15.4667 87.3494 14.6C87.2161 13.7 87.0827 12.9 86.9494 12.2C86.8161 11.5 86.6994 10.9167 86.5994 10.45C86.5327 9.95 86.4994 9.65 86.4994 9.55C86.4661 9.35 86.4327 9 86.3994 8.5C86.3661 7.96666 86.3327 7.41667 86.2994 6.85C86.2661 6.28333 86.2327 5.76667 86.1994 5.3C86.1661 4.83333 86.1327 4.53333 86.0994 4.4C85.9994 4.06666 85.8661 3.65 85.6994 3.15C85.5661 2.65 85.4994 2.36667 85.4994 2.3C85.4994 2.13333 85.5827 1.93333 85.7494 1.7C85.9161 1.43333 86.1327 1.3 86.3994 1.3C86.5994 1.3 86.7827 1.31666 86.9494 1.35C87.1161 1.38333 87.2661 1.48333 87.3994 1.65C87.5327 1.81667 87.6494 2.08333 87.7494 2.45C87.8827 2.78333 87.9994 3.26666 88.0994 3.9C88.1327 4.23333 88.2327 4.86667 88.3994 5.8C88.5661 6.73333 88.7327 7.75 88.8994 8.85C89.0661 9.95 89.2327 11 89.3994 12C89.5661 13 89.6827 13.7333 89.7494 14.2C89.9161 15.4667 90.1327 16.85 90.3994 18.35C90.6994 19.8167 90.9994 21.2333 91.2994 22.6C91.5994 23.9667 91.8994 25.1833 92.1994 26.25C92.4994 27.2833 92.7661 27.9833 92.9994 28.35C93.0661 28.4833 93.1994 28.5833 93.3994 28.65C93.5994 28.6833 93.7327 28.7833 93.7994 28.95ZM90.0994 29.95C90.0661 29.85 89.8494 29.4333 89.4494 28.7C89.0827 27.9333 88.5994 27.1167 87.9994 26.25C87.4327 25.35 86.7827 24.55 86.0494 23.85C85.3494 23.15 84.6661 22.8 83.9994 22.8C83.4327 22.8 82.9661 23.2333 82.5994 24.1C82.2661 24.9667 82.0994 25.9667 82.0994 27.1C82.0994 28.3667 82.4661 29.3833 83.1994 30.15C83.9661 30.9167 84.8161 31.3 85.7494 31.3C86.5494 31.3 87.3827 31.1667 88.2494 30.9C89.1161 30.6333 89.7327 30.3167 90.0994 29.95ZM31.149 62.05C31.149 63.55 30.9657 64.8667 30.599 66C30.2657 67.1333 29.849 68.0833 29.349 68.85C28.849 69.5833 28.3324 70.1333 27.799 70.5C27.299 70.8667 26.8824 71.05 26.549 71.05C26.0824 71.05 25.6324 70.85 25.199 70.45C24.7657 70.0167 24.549 69.6167 24.549 69.25C24.549 68.7167 24.7657 68.45 25.199 68.45C25.3657 68.45 25.5324 68.5167 25.699 68.65C25.8657 68.75 26.0157 68.8333 26.149 68.9C26.7157 68.4333 27.249 67.6667 27.749 66.6C28.2824 65.5333 28.549 64.0167 28.549 62.05C28.549 61.25 28.4657 60.5333 28.299 59.9C28.1324 59.2667 27.9324 58.7333 27.699 58.3C27.499 57.8667 27.2824 57.5333 27.049 57.3C26.8157 57.0667 26.649 56.95 26.549 56.95C26.2157 56.95 25.8824 57.2833 25.549 57.95C25.249 58.6167 24.9824 59.3833 24.749 60.25C24.5157 61.0833 24.3157 61.9167 24.149 62.75C24.0157 63.55 23.949 64.1 23.949 64.4C23.9824 64.6 24.0157 64.7833 24.049 64.95C24.0824 65.1167 24.1157 65.2833 24.149 65.45C24.1824 65.6167 24.199 65.7833 24.199 65.95C24.199 66.5833 23.9824 67.15 23.549 67.65C23.1157 68.15 22.699 68.4 22.299 68.4C22.099 68.4 21.9324 68.2667 21.799 68C21.699 67.7 21.6157 67.3333 21.549 66.9C21.4824 66.4667 21.4157 66.0167 21.349 65.55C21.3157 65.0833 21.2657 64.6667 21.199 64.3C20.9324 63.7 20.5824 62.75 20.149 61.45C19.7157 60.15 19.249 58.7667 18.749 57.3C18.2824 55.8 17.8324 54.35 17.399 52.95C16.999 51.55 16.699 50.4333 16.499 49.6C16.0324 47.8 15.6824 46.2333 15.449 44.9C15.1824 43.5333 14.9824 42.35 14.849 41.35C14.6824 40.3167 14.5824 39.4333 14.549 38.7C14.5157 37.9667 14.499 37.35 14.499 36.85C14.499 36.55 14.6324 36.3167 14.899 36.15C15.1324 35.9833 15.349 35.9 15.549 35.9C15.849 35.9 16.0657 35.9667 16.199 36.1C16.3324 36.2 16.4324 36.4333 16.499 36.8C16.5324 37.1667 16.5824 37.7 16.649 38.4C16.6824 39.1 16.7657 40.0333 16.899 41.2C16.9657 41.7667 17.0824 42.55 17.249 43.55C17.449 44.55 17.699 45.6667 17.999 46.9C18.299 48.1333 18.6157 49.4333 18.949 50.8C19.3157 52.1333 19.6824 53.4167 20.049 54.65C20.449 55.8833 20.8324 57.0167 21.199 58.05C21.599 59.0833 21.9657 59.9 22.299 60.5C22.599 59.3 22.9657 58.2167 23.399 57.25C23.7657 56.45 24.2157 55.7167 24.749 55.05C25.2824 54.35 25.9324 54 26.699 54C26.999 54 27.399 54.1333 27.899 54.4C28.399 54.6667 28.8824 55.1167 29.349 55.75C29.849 56.3833 30.2657 57.2167 30.599 58.25C30.9657 59.2833 31.149 60.55 31.149 62.05ZM44.7518 61.2C44.7518 61.9333 44.6518 62.6333 44.4518 63.3C44.2518 63.9667 43.9851 64.55 43.6518 65.05C43.3184 65.55 42.9184 65.95 42.4518 66.25C42.0184 66.5167 41.5351 66.65 41.0018 66.65C40.0684 66.65 39.3351 66.3833 38.8018 65.85C38.2684 65.3167 37.8518 64.7 37.5518 64C37.2851 63.3 37.1018 62.6 37.0018 61.9C36.9351 61.1667 36.9018 60.6167 36.9018 60.25C36.9018 59.65 36.9851 58.9833 37.1518 58.25C37.3518 57.4833 37.6018 56.7833 37.9018 56.15C38.2351 55.5167 38.6018 54.9833 39.0018 54.55C39.4018 54.1167 39.8184 53.9 40.2518 53.9C40.3518 53.9 40.5018 53.9333 40.7018 54C40.9351 54.0667 41.1684 54.1667 41.4018 54.3C41.6351 54.4333 41.8351 54.6 42.0018 54.8C42.2018 55 42.3351 55.2333 42.4018 55.5C42.7684 55.5333 43.1351 55.6667 43.5018 55.9C43.8684 56.1333 44.0684 56.3167 44.1018 56.45C44.3684 57.3167 44.5351 58.1833 44.6018 59.05C44.7018 59.9167 44.7518 60.6333 44.7518 61.2ZM42.5018 60.3C42.5018 59.8 42.4518 59.2833 42.3518 58.75C42.2518 58.1833 42.0518 57.6167 41.7518 57.05C41.6851 57.0833 41.6018 57.1 41.5018 57.1C41.3684 57.1 41.2518 57.0833 41.1518 57.05C41.0851 57.0167 41.0184 57 40.9518 57C40.5518 57 40.2351 57.1167 40.0018 57.35C39.7684 57.55 39.5851 57.8333 39.4518 58.2C39.3518 58.5333 39.2851 58.9 39.2518 59.3C39.2184 59.7 39.2018 60.0833 39.2018 60.45C39.2018 60.8167 39.2184 61.2333 39.2518 61.7C39.2851 62.1333 39.3518 62.55 39.4518 62.95C39.5851 63.35 39.7518 63.7 39.9518 64C40.1518 64.2667 40.4184 64.4 40.7518 64.4C41.0851 64.4 41.3684 64.2333 41.6018 63.9C41.8351 63.5333 42.0184 63.1167 42.1518 62.65C42.2851 62.1833 42.3684 61.7333 42.4018 61.3C42.4684 60.8333 42.5018 60.5 42.5018 60.3ZM58.7654 61.2C58.7654 61.9333 58.6654 62.6333 58.4654 63.3C58.2654 63.9667 57.9988 64.55 57.6654 65.05C57.3321 65.55 56.9321 65.95 56.4654 66.25C56.0321 66.5167 55.5488 66.65 55.0154 66.65C54.0821 66.65 53.3488 66.3833 52.8154 65.85C52.2821 65.3167 51.8654 64.7 51.5654 64C51.2988 63.3 51.1154 62.6 51.0154 61.9C50.9488 61.1667 50.9154 60.6167 50.9154 60.25C50.9154 59.65 50.9988 58.9833 51.1654 58.25C51.3654 57.4833 51.6154 56.7833 51.9154 56.15C52.2488 55.5167 52.6154 54.9833 53.0154 54.55C53.4154 54.1167 53.8321 53.9 54.2654 53.9C54.3654 53.9 54.5154 53.9333 54.7154 54C54.9488 54.0667 55.1821 54.1667 55.4154 54.3C55.6488 54.4333 55.8488 54.6 56.0154 54.8C56.2154 55 56.3488 55.2333 56.4154 55.5C56.7821 55.5333 57.1488 55.6667 57.5154 55.9C57.8821 56.1333 58.0821 56.3167 58.1154 56.45C58.3821 57.3167 58.5488 58.1833 58.6154 59.05C58.7154 59.9167 58.7654 60.6333 58.7654 61.2ZM56.5154 60.3C56.5154 59.8 56.4654 59.2833 56.3654 58.75C56.2654 58.1833 56.0654 57.6167 55.7654 57.05C55.6988 57.0833 55.6154 57.1 55.5154 57.1C55.3821 57.1 55.2654 57.0833 55.1654 57.05C55.0988 57.0167 55.0321 57 54.9654 57C54.5654 57 54.2488 57.1167 54.0154 57.35C53.7821 57.55 53.5988 57.8333 53.4654 58.2C53.3654 58.5333 53.2988 58.9 53.2654 59.3C53.2321 59.7 53.2154 60.0833 53.2154 60.45C53.2154 60.8167 53.2321 61.2333 53.2654 61.7C53.2988 62.1333 53.3654 62.55 53.4654 62.95C53.5988 63.35 53.7654 63.7 53.9654 64C54.1654 64.2667 54.4321 64.4 54.7654 64.4C55.0988 64.4 55.3821 64.2333 55.6154 63.9C55.8488 63.5333 56.0321 63.1167 56.1654 62.65C56.2988 62.1833 56.3821 61.7333 56.4154 61.3C56.4821 60.8333 56.5154 60.5 56.5154 60.3ZM81.5791 66.65C81.5791 66.9167 81.5458 67.1167 81.4791 67.25C81.4124 67.35 81.2458 67.4333 80.9791 67.5C80.6791 67.6 80.2958 67.7167 79.8291 67.85C79.3958 67.95 78.9124 68.0667 78.3791 68.2C77.8458 68.3 77.2958 68.4 76.7291 68.5C76.1958 68.5667 75.6958 68.6 75.2291 68.6C74.6624 68.6 74.0291 68.5667 73.3291 68.5C72.6624 68.4333 72.0124 68.3333 71.3791 68.2C70.7458 68.0333 70.1624 67.8667 69.6291 67.7C69.1291 67.5 68.7624 67.2667 68.5291 67C68.6958 67.7 68.8458 68.4 68.9791 69.1C69.1124 69.8 69.2124 70.5 69.2791 71.2C69.2791 71.3667 69.2291 71.5167 69.1291 71.65C69.0624 71.75 68.8458 71.8 68.4791 71.8C68.3124 71.8 68.1458 71.7667 67.9791 71.7C67.8458 71.6 67.7291 71.4167 67.6291 71.15C67.3291 70.4833 67.0791 69.8667 66.8791 69.3C66.6791 68.7 66.4958 68.1 66.3291 67.5C66.1958 66.9 66.0458 66.2667 65.8791 65.6C65.7124 64.9333 65.5124 64.2 65.2791 63.4C64.9124 62.1 64.5291 60.7167 64.1291 59.25C63.7291 57.75 63.3624 56.3333 63.0291 55C62.6958 53.6333 62.4291 52.4333 62.2291 51.4C62.0291 50.3333 61.9291 49.5833 61.9291 49.15C61.9291 48.95 61.9291 48.6833 61.9291 48.35C61.9624 48.0167 62.0124 47.7 62.0791 47.4C62.1791 47.0667 62.2958 46.8 62.4291 46.6C62.5958 46.3667 62.8124 46.25 63.0791 46.25C63.2458 46.25 63.4124 46.5167 63.5791 47.05C63.7791 47.55 63.9458 48.1167 64.0791 48.75C64.2458 49.35 64.3791 49.9333 64.4791 50.5C64.6124 51.0333 64.6791 51.3167 64.6791 51.35C64.8124 52.0833 64.9624 52.9 65.1291 53.8C65.3291 54.6667 65.5291 55.55 65.7291 56.45C65.9291 57.35 66.1458 58.2167 66.3791 59.05C66.6124 59.85 66.8624 60.5333 67.1291 61.1C67.1624 60.7667 67.2791 60.2833 67.4791 59.65C67.6791 59.0167 67.9458 58.3333 68.2791 57.6C68.6124 56.8667 68.9791 56.1167 69.3791 55.35C69.8124 54.55 70.2458 53.8333 70.6791 53.2C71.1458 52.5667 71.5958 52.05 72.0291 51.65C72.4958 51.25 72.9291 51.05 73.3291 51.05C73.9624 51.05 74.3958 51.1333 74.6291 51.3C74.8958 51.4667 75.0291 51.6667 75.0291 51.9C75.0291 52.1 74.7458 52.5 74.1791 53.1C73.6124 53.6667 72.9791 54.4333 72.2791 55.4C71.5791 56.3333 70.9458 57.45 70.3791 58.75C69.8124 60.0167 69.5291 61.4333 69.5291 63C69.5291 63.5667 69.6791 64.0667 69.9791 64.5C70.3124 64.9 70.7291 65.2333 71.2291 65.5C71.7624 65.7667 72.3458 65.9833 72.9791 66.15C73.6458 66.2833 74.2958 66.35 74.9291 66.35C75.4958 66.35 76.1124 66.3333 76.7791 66.3C77.4458 66.2667 78.0624 66.2333 78.6291 66.2C79.2291 66.1333 79.7291 66.0833 80.1291 66.05C80.5624 66.0167 80.8291 66 80.9291 66C81.0958 66 81.2458 66.05 81.3791 66.15C81.5124 66.25 81.5791 66.4167 81.5791 66.65Z" fill="black"/>
</svg>
