<?xml version="1.0" encoding="UTF-8" standalone="no"?>
<!DOCTYPE svg PUBLIC "-//W3C//DTD SVG 1.1//EN" "http://www.w3.org/Graphics/SVG/1.1/DTD/svg11.dtd">
<svg width="100%" height="100%" viewBox="0 0 180 118" version="1.1" xmlns="http://www.w3.org/2000/svg" xmlns:xlink="http://www.w3.org/1999/xlink" xml:space="preserve" xmlns:serif="http://www.serif.com/" style="fill-rule:evenodd;clip-rule:evenodd;stroke-linejoin:round;stroke-miterlimit:2;">
    <path d="M61.585,103.875C61.588,103.469 61.545,103.095 61.454,102.752C61.3,102.167 61.034,101.924 60.656,102.024C60.45,102.078 60.2,102.457 59.907,103.159C59.614,103.861 59.202,104.668 58.67,105.581C58.138,106.494 57.433,107.378 56.555,108.234C55.712,109.081 54.637,109.677 53.331,110.021C52.608,110.212 51.836,110.139 51.012,109.805C50.214,109.427 49.697,108.79 49.461,107.896C49.226,107.002 49.143,105.921 49.213,104.652C49.309,103.34 49.62,102.008 50.146,100.655C50.405,99.963 50.678,99.394 50.966,98.95C51.244,98.472 51.494,98.094 51.715,97.816C51.926,97.503 52.079,97.242 52.171,97.033C52.288,96.782 52.311,96.518 52.238,96.243C52.193,96.072 52.01,95.936 51.69,95.836C51.404,95.728 51.106,95.714 50.797,95.796C50.659,95.832 50.446,95.999 50.156,96.295C49.901,96.583 49.63,96.949 49.342,97.392C49.045,97.801 48.745,98.267 48.441,98.788C48.162,99.266 47.952,99.725 47.811,100.168C47.47,101.104 47.2,102.314 47.003,103.801C46.806,105.286 46.925,106.855 47.36,108.505C47.623,109.503 47.999,110.304 48.49,110.911C49.015,111.507 49.599,111.979 50.242,112.324C50.875,112.635 51.511,112.817 52.15,112.869C52.824,112.913 53.452,112.857 54.037,112.703C55,112.45 55.929,111.929 56.825,111.142C57.746,110.311 58.533,109.459 59.186,108.589C59.874,107.709 60.416,106.904 60.812,106.175C61.233,105.402 61.465,104.955 61.507,104.833C61.546,104.566 61.572,104.246 61.585,103.875ZM89.736,93.867C89.899,94.486 89.811,95.337 89.471,96.419C89.156,97.458 88.631,98.534 87.894,99.648C87.158,100.761 86.235,101.795 85.126,102.749C84.008,103.668 82.761,104.309 81.385,104.672C80.766,104.834 80.086,104.903 79.344,104.878C78.602,104.853 77.854,104.737 77.101,104.532C76.339,104.291 75.628,103.964 74.967,103.549C74.297,103.101 73.747,102.547 73.316,101.888C73.164,102.149 72.997,102.561 72.814,103.124C72.666,103.678 72.488,104.257 72.28,104.864C72.062,105.436 71.797,105.966 71.485,106.452C71.162,106.904 70.778,107.19 70.331,107.308C69.884,107.426 69.447,107.302 69.019,106.936C68.618,106.527 68.258,106.07 67.941,105.566C67.615,105.026 67.35,104.508 67.145,104.01C66.941,103.513 66.829,103.23 66.811,103.16C66.703,102.748 66.619,101.943 66.561,100.744C66.494,99.511 66.538,98.213 66.693,96.848C66.848,95.484 67.16,94.225 67.629,93.072C68.132,91.91 68.882,91.197 69.879,90.934C70.257,90.835 70.543,90.943 70.737,91.26C70.956,91.533 71.106,91.825 71.188,92.134L71.595,93.681C71.803,93.774 72.003,93.832 72.193,93.855C72.408,93.835 72.598,93.859 72.763,93.926C72.953,93.949 73.105,94.038 73.219,94.191C73.367,94.336 73.491,94.598 73.591,94.976C73.655,95.217 73.696,95.445 73.716,95.66C73.727,95.841 73.755,96.018 73.8,96.19C74.036,97.083 74.336,97.942 74.7,98.766C75.064,99.589 75.543,100.291 76.136,100.869C76.721,101.414 77.433,101.815 78.273,102.071C79.104,102.294 80.121,102.247 81.325,101.93C82.838,101.531 84.029,100.887 84.897,99.996C85.791,99.061 86.482,98.126 86.971,97.188C87.484,96.207 87.866,95.352 88.116,94.625C88.356,93.863 88.614,93.445 88.889,93.373C89.336,93.255 89.619,93.42 89.736,93.867ZM71.034,96.366C70.998,96.229 70.932,96.118 70.836,96.032C70.731,95.913 70.665,95.802 70.637,95.699C70.601,95.561 70.604,95.432 70.645,95.311C70.687,95.189 70.685,95.043 70.64,94.871C70.613,94.768 70.56,94.708 70.482,94.692C70.396,94.641 70.343,94.581 70.325,94.513C70.034,94.663 69.784,95.041 69.576,95.648C69.402,96.244 69.251,96.928 69.123,97.697C69.029,98.458 68.991,99.222 69.01,99.988C69.019,100.722 69.082,101.312 69.2,101.759C69.264,101.999 69.436,102.377 69.719,102.891C70.001,103.405 70.251,103.725 70.469,103.851C70.736,102.494 70.961,101.184 71.144,99.923C71.36,98.652 71.324,97.467 71.034,96.366ZM99.223,79.564C99.913,78.831 100.413,78.147 100.724,77.514C100.628,77.429 100.527,77.326 100.423,77.207C100.352,77.078 100.214,77.041 100.007,77.096C99.905,77.123 99.549,77.382 98.943,77.872C98.362,78.32 97.709,78.841 96.984,79.437C96.258,80.032 95.562,80.602 94.896,81.145C94.221,81.654 93.738,81.983 93.447,82.133C92.902,81.321 92.267,80.238 91.543,78.884C90.853,77.522 90.074,75.962 89.207,74.204C88.968,73.716 88.659,73.521 88.281,73.621C88.04,73.684 87.848,73.864 87.705,74.159C87.588,74.41 87.588,74.759 87.706,75.207C87.724,75.275 87.919,75.739 88.292,76.596C88.7,77.445 89.13,78.38 89.583,79.401C90.115,80.584 90.744,81.926 91.471,83.426L90.702,84.07C90.225,84.49 89.61,85.02 88.859,85.659C88.143,86.289 87.371,86.988 86.544,87.758C85.683,88.536 84.903,89.275 84.205,89.974C83.472,90.682 82.884,91.314 82.443,91.872C81.958,92.404 81.743,92.773 81.797,92.98C81.897,93.358 82.125,93.666 82.482,93.903C82.838,94.14 83.24,94.199 83.687,94.081C83.79,94.054 84.063,93.835 84.507,93.424C84.907,92.988 85.396,92.473 85.975,91.879C86.545,91.251 87.162,90.592 87.826,89.902C88.481,89.178 89.115,88.515 89.729,87.912C90.333,87.274 90.874,86.746 91.352,86.326C91.855,85.862 92.227,85.599 92.467,85.535C92.502,85.526 92.651,85.745 92.916,86.19C93.524,87.243 94.075,88.219 94.57,89.119C94.993,89.89 95.413,90.643 95.827,91.38C96.242,92.116 96.534,92.665 96.702,93.025C97.234,94.208 97.587,95.127 97.759,95.78C97.804,95.952 97.828,96.111 97.829,96.258L97.911,96.568C97.938,96.671 98.013,96.816 98.136,97.005C98.26,97.193 98.422,97.389 98.623,97.594C98.814,97.764 99.019,97.912 99.236,98.038C99.453,98.165 99.666,98.201 99.872,98.147C100.25,98.048 100.453,97.699 100.479,97.104C100.506,96.509 100.452,95.953 100.316,95.437C100.307,95.403 100.214,95.189 100.036,94.794C99.85,94.365 99.633,93.889 99.384,93.366C99.171,92.834 98.94,92.307 98.692,91.784C98.444,91.261 98.24,90.836 98.08,90.51C97.789,89.962 97.44,89.337 97.035,88.635C96.629,87.933 96.233,87.265 95.845,86.632C95.483,85.955 95.165,85.376 94.892,84.897C94.618,84.417 94.468,84.126 94.441,84.023C94.414,83.92 94.673,83.649 95.22,83.211L97.101,81.557C97.817,80.927 98.525,80.263 99.223,79.564ZM171.527,79.767C171.766,79.557 171.836,79.263 171.736,78.885C171.727,78.851 171.6,78.719 171.356,78.489C171.137,78.216 170.928,78.05 170.728,77.992L170.538,78.318C170.454,78.414 170.403,78.501 170.387,78.579C170.291,78.494 170.181,78.357 170.058,78.169L169.781,77.745C169.72,77.651 169.613,77.458 169.463,77.167C169.338,76.832 169.192,76.485 169.023,76.125C168.88,75.721 168.724,75.339 168.555,74.979C168.412,74.576 168.314,74.271 168.26,74.064L168.123,73.548C168.076,73.23 168.003,72.882 167.904,72.503L167.577,71.265C167.494,70.809 167.411,70.427 167.33,70.117C167.213,69.67 166.993,69.323 166.67,69.077C166.339,68.797 165.898,68.729 165.348,68.874C164.798,69.019 164.536,69.419 164.561,70.074C164.577,70.695 164.704,71.452 164.939,72.347L165.319,73.791C165.472,74.229 165.597,74.637 165.697,75.015C165.815,75.462 165.884,75.867 165.906,76.229C165.899,76.341 165.843,76.687 165.738,77.266C165.634,77.845 165.486,78.472 165.296,79.147C165.132,79.779 164.924,80.385 164.672,80.966C164.447,81.504 164.179,81.814 163.869,81.895C163.215,82.067 162.479,81.783 161.658,81.043C160.829,80.269 160.184,79.005 159.722,77.251C159.513,76.46 159.372,75.505 159.297,74.384C159.258,73.255 159.318,72.154 159.476,71.083C159.626,69.977 159.907,69.02 160.32,68.213C160.757,67.362 161.355,66.837 162.111,66.638C162.318,66.584 162.481,66.577 162.603,66.619C162.758,66.651 162.897,66.688 163.018,66.73C163.145,66.513 163.237,66.305 163.295,66.105C163.352,65.906 163.346,65.669 163.273,65.394C163.191,65.085 162.866,64.895 162.296,64.824C161.759,64.745 161.2,64.782 160.615,64.936C159.583,65.208 158.776,65.843 158.194,66.842C157.636,67.798 157.245,68.894 157.019,70.131C156.793,71.367 156.719,72.618 156.794,73.885C156.862,75.118 157,76.13 157.208,76.92C157.579,78.33 158.043,79.532 158.599,80.525C159.189,81.51 159.824,82.317 160.506,82.947C161.186,83.576 161.886,83.999 162.605,84.214C163.323,84.429 163.992,84.455 164.611,84.292C165.195,84.138 165.641,83.874 165.947,83.499C166.277,83.081 166.526,82.629 166.692,82.144C166.884,81.616 167.037,81.079 167.151,80.534C167.29,79.946 167.478,79.4 167.713,78.897L168.728,80.45C168.755,80.553 168.533,81.034 168.061,81.894C167.589,82.754 167.093,83.804 166.573,85.044C166.054,86.284 165.636,87.626 165.318,89.07C164.999,90.515 165.008,91.873 165.343,93.145C165.398,93.352 165.558,93.751 165.824,94.342C166.099,94.969 166.512,95.559 167.063,96.112C167.613,96.666 168.317,97.105 169.175,97.432C170.067,97.747 171.15,97.739 172.422,97.403C173.248,97.186 173.937,96.802 174.49,96.251C175.044,95.701 175.468,95.075 175.76,94.372C176.054,93.67 176.221,92.909 176.262,92.089C176.303,91.269 176.23,90.498 176.039,89.776C175.849,89.054 175.642,88.41 175.42,87.843C175.197,87.277 174.94,86.719 174.648,86.171C174.391,85.614 174.068,85.018 173.681,84.385C173.328,83.743 172.909,82.989 172.423,82.124C172.168,81.713 171.9,81.324 171.62,80.957C171.339,80.589 171.221,80.418 171.264,80.444C171.2,80.203 171.289,79.977 171.527,79.767ZM131.342,82.907C131.506,83.526 131.417,84.376 131.078,85.459C130.763,86.498 130.237,87.574 129.501,88.687C128.765,89.8 127.841,90.834 126.732,91.788C125.614,92.708 124.367,93.349 122.992,93.711C122.373,93.874 121.692,93.943 120.95,93.918C120.208,93.893 119.461,93.777 118.707,93.571C117.945,93.331 117.234,93.003 116.574,92.589C115.904,92.14 115.353,91.587 114.922,90.928C114.77,91.189 114.603,91.6 114.42,92.163C114.272,92.717 114.094,93.297 113.885,93.904C113.668,94.476 113.404,95.005 113.091,95.492C112.768,95.945 112.384,96.23 111.937,96.348C111.49,96.465 111.053,96.341 110.626,95.976C110.224,95.567 109.864,95.11 109.547,94.605C109.222,94.066 108.956,93.547 108.752,93.05C108.547,92.552 108.436,92.269 108.418,92.2C108.309,91.788 108.226,90.982 108.167,89.784C108.1,88.551 108.144,87.253 108.3,85.888C108.454,84.523 108.766,83.264 109.235,82.111C109.738,80.949 110.488,80.237 111.485,79.974C111.863,79.875 112.149,79.983 112.343,80.3C112.562,80.573 112.713,80.864 112.794,81.174L113.201,82.721C113.409,82.813 113.609,82.871 113.799,82.895C114.014,82.875 114.204,82.898 114.369,82.965C114.559,82.989 114.711,83.077 114.825,83.231C114.974,83.376 115.098,83.637 115.197,84.016C115.261,84.256 115.302,84.484 115.322,84.7C115.334,84.881 115.361,85.057 115.407,85.229C115.642,86.123 115.942,86.982 116.306,87.806C116.67,88.629 117.149,89.33 117.743,89.909C118.327,90.454 119.039,90.854 119.88,91.111C120.71,91.334 121.728,91.286 122.931,90.969C124.444,90.571 125.635,89.926 126.503,89.035C127.397,88.101 128.089,87.165 128.576,86.228C129.091,85.247 129.472,84.392 129.721,83.665C129.962,82.903 130.221,82.485 130.495,82.413C130.942,82.295 131.224,82.46 131.342,82.907ZM31.193,70.806C31.491,69.845 31.523,68.918 31.287,68.024C31.206,67.714 30.986,67.367 30.627,66.984C30.269,66.6 29.76,66.275 29.101,66.007C28.433,65.705 27.594,65.521 26.584,65.456C25.609,65.382 24.45,65.522 23.109,65.875C21.734,66.238 20.313,66.777 18.847,67.495C17.372,68.177 16.05,68.949 14.879,69.809C13.733,70.625 12.817,71.473 12.129,72.353C11.433,73.199 11.179,73.982 11.37,74.704C11.388,74.773 11.471,74.88 11.619,75.025C11.768,75.17 11.934,75.31 12.116,75.445C12.265,75.59 12.443,75.709 12.651,75.801C12.825,75.902 12.964,75.939 13.067,75.912L13.428,75.817C13.337,75.473 13.478,75.032 13.851,74.492C14.249,73.909 14.725,73.343 15.279,72.792C15.823,72.207 16.386,71.691 16.967,71.244C17.582,70.788 18.057,70.497 18.392,70.372C18.437,70.544 18.474,70.755 18.503,71.005C18.523,71.22 18.556,71.414 18.601,71.586C19.217,73.924 20.012,76.381 20.984,78.956C21.948,81.497 22.9,83.857 23.842,86.036C24.793,88.249 25.623,90.145 26.333,91.723C27.043,93.301 27.448,94.279 27.547,94.658C27.574,94.761 27.58,94.851 27.564,94.929L27.618,95.135C27.699,95.445 27.867,95.732 28.12,95.996C28.383,96.294 28.703,96.394 29.082,96.294C29.357,96.222 29.558,96.077 29.684,95.86C29.811,95.643 29.872,95.387 29.869,95.094C29.908,94.826 29.888,94.538 29.806,94.228C29.768,93.944 29.717,93.682 29.654,93.441C29.636,93.372 29.551,93.192 29.401,92.901C29.294,92.635 29.144,92.343 28.95,92.027C28.791,91.701 28.641,91.409 28.499,91.152C28.393,90.886 28.335,90.736 28.325,90.702C28.039,89.895 27.679,89.015 27.244,88.063C26.844,87.102 26.436,86.18 26.019,85.297C25.628,84.37 25.277,83.525 24.965,82.762C24.645,81.964 24.425,81.341 24.308,80.894C24.262,80.722 24.422,80.422 24.788,79.995C25.153,79.568 25.617,79.023 26.178,78.36C26.782,77.723 27.437,76.999 28.143,76.188C28.839,75.343 29.458,74.481 29.999,73.603C30.531,72.691 30.929,71.758 31.193,70.806ZM170.809,84.369C171.126,84.874 171.425,85.384 171.708,85.898C171.929,86.317 172.114,86.673 172.265,86.964C172.459,87.281 172.618,87.607 172.743,87.942C172.911,88.302 173.076,88.718 173.237,89.19C173.398,89.663 173.574,90.26 173.764,90.982C174.054,92.082 173.915,93.02 173.346,93.795C172.813,94.561 172.151,95.048 171.36,95.256C170.638,95.446 169.877,95.279 169.076,94.754C168.311,94.221 167.788,93.421 167.507,92.355C167.298,91.564 167.219,90.776 167.27,89.99C167.364,89.23 167.531,88.469 167.772,87.707C168.047,86.936 168.351,86.138 168.686,85.315C169.064,84.516 169.45,83.679 169.844,82.803C170.171,83.342 170.492,83.865 170.809,84.369ZM112.641,85.406C112.604,85.269 112.538,85.158 112.442,85.072C112.337,84.953 112.271,84.842 112.243,84.739C112.208,84.601 112.211,84.472 112.252,84.35C112.293,84.229 112.291,84.082 112.246,83.911C112.219,83.807 112.166,83.748 112.089,83.731C112.001,83.681 111.95,83.621 111.931,83.552C111.64,83.703 111.39,84.081 111.182,84.687C111.009,85.285 110.857,85.968 110.73,86.737C110.636,87.497 110.597,88.261 110.615,89.029C110.625,89.762 110.688,90.352 110.806,90.799C110.87,91.039 111.043,91.417 111.325,91.931C111.608,92.445 111.857,92.765 112.074,92.892C112.342,91.534 112.568,90.224 112.75,88.963C112.967,87.692 112.93,86.507 112.641,85.406ZM141.123,90.866C141.293,90.674 141.342,90.44 141.269,90.165L136.95,82.146C136.368,81.05 135.846,80.047 135.386,79.139C134.961,78.221 134.566,77.351 134.202,76.527C133.863,75.66 133.508,74.798 133.134,73.94C132.796,73.073 132.413,72.108 131.986,71.044C131.674,70.28 131.347,69.391 131.008,68.378C130.657,67.33 130.269,66.347 129.844,65.43C129.453,64.503 129.034,63.75 128.587,63.169C128.174,62.579 127.727,62.347 127.245,62.474C126.867,62.574 126.69,62.878 126.714,63.386C126.738,63.895 126.789,64.304 126.871,64.613C127.882,67.473 128.753,69.873 129.485,71.813C130.242,73.709 130.869,75.254 131.367,76.447C131.9,77.63 132.295,78.501 132.552,79.058C132.844,79.606 133.008,79.949 133.043,80.087C133.061,80.156 133.203,80.486 133.47,81.078L134.597,83.263C135.039,84.103 135.538,85.019 136.094,86.013C136.64,86.972 137.186,87.858 137.732,88.67C138.277,89.483 138.781,90.14 139.244,90.643C139.742,91.137 140.145,91.344 140.455,91.262C140.73,91.19 140.953,91.057 141.123,90.866ZM151.981,77.029C152.181,77.785 152.267,78.534 152.242,79.276C152.217,80.019 152.101,80.693 151.893,81.299C151.685,81.906 151.381,82.427 150.981,82.863C150.607,83.256 150.144,83.525 149.594,83.67C148.631,83.923 147.802,83.848 147.107,83.442C146.412,83.037 145.815,82.514 145.315,81.874C144.849,81.224 144.47,80.552 144.176,79.857C143.909,79.118 143.724,78.56 143.626,78.182C143.462,77.563 143.367,76.853 143.339,76.051C143.338,75.205 143.405,74.415 143.543,73.681C143.715,72.937 143.948,72.287 144.243,71.731C144.537,71.175 144.909,70.839 145.355,70.721C145.459,70.694 145.623,70.687 145.846,70.702C146.106,70.707 146.373,70.747 146.651,70.821C146.927,70.895 147.179,71.013 147.405,71.174C147.666,71.326 147.867,71.53 148.008,71.787C148.396,71.722 148.81,71.76 149.252,71.901C149.693,72.042 149.949,72.177 150.02,72.305C150.531,73.127 150.938,73.976 151.242,74.851C151.581,75.718 151.828,76.444 151.981,77.029ZM149.416,76.712C149.279,76.196 149.088,75.676 148.84,75.153C148.583,74.596 148.222,74.066 147.759,73.563C147.699,73.615 147.618,73.655 147.514,73.682C147.377,73.718 147.252,73.733 147.14,73.726C147.062,73.709 146.989,73.71 146.92,73.729C146.508,73.837 146.212,74.044 146.035,74.348C145.848,74.618 145.737,74.96 145.699,75.374C145.686,75.745 145.717,76.142 145.792,76.563C145.866,76.985 145.953,77.385 146.052,77.763C146.152,78.141 146.282,78.567 146.443,79.039C146.596,79.477 146.777,79.889 146.989,80.274C147.236,80.651 147.503,80.966 147.791,81.221C148.069,81.442 148.381,81.507 148.725,81.417C149.068,81.326 149.315,81.077 149.466,80.67C149.607,80.228 149.683,79.749 149.693,79.231C149.704,78.713 149.667,78.226 149.585,77.77C149.526,77.271 149.47,76.918 149.416,76.712ZM27.158,67.843C28.108,67.96 28.628,68.191 28.719,68.535C28.9,69.222 28.781,70.026 28.361,70.945C27.967,71.822 27.448,72.712 26.804,73.617C26.15,74.488 25.466,75.312 24.752,76.088C24.062,76.822 23.518,77.406 23.118,77.843C22.913,77.345 22.677,76.727 22.409,75.989C22.166,75.207 21.936,74.403 21.719,73.578C21.51,72.787 21.324,72.009 21.159,71.243C20.994,70.478 20.873,69.811 20.797,69.242C20.951,69.128 21.259,68.974 21.723,68.778C22.186,68.582 22.934,68.349 23.965,68.077C25.134,67.769 26.198,67.691 27.158,67.843ZM45.982,63.932C46.143,63.706 46.192,63.472 46.129,63.231C46.065,62.991 45.934,62.841 45.735,62.783C45.561,62.682 45.418,62.628 45.306,62.621C44.813,62.567 44.322,62.586 43.832,62.678C43.366,62.727 42.67,62.874 41.741,63.118C40.744,63.381 39.942,63.758 39.336,64.248C38.73,64.739 38.272,65.025 37.963,65.107C37.825,65.143 37.691,65.123 37.561,65.047L37.246,64.689C37.132,64.535 37.01,64.42 36.879,64.344C36.74,64.234 36.584,64.201 36.412,64.246C36.206,64.301 36.031,64.476 35.888,64.771C35.745,65.066 35.642,65.442 35.579,65.9C35.507,66.324 35.492,66.824 35.533,67.401C35.566,67.944 35.659,68.508 35.813,69.093C35.949,69.609 36.217,70.347 36.618,71.308C37.018,72.269 37.457,73.238 37.935,74.215C38.438,75.149 38.945,75.953 39.453,76.628C39.987,77.26 40.461,77.521 40.873,77.413C41.114,77.349 41.331,77.127 41.525,76.745C41.753,76.354 41.831,76.02 41.758,75.745C41.704,75.539 41.598,75.346 41.44,75.167C41.308,74.945 41.136,74.641 40.924,74.255C40.747,73.861 40.52,73.35 40.245,72.724C40.004,72.089 39.739,71.221 39.449,70.121C39.277,69.467 39.166,68.908 39.117,68.443C39.094,67.934 39.179,67.489 39.372,67.107C39.6,66.716 39.954,66.384 40.433,66.111C40.913,65.837 41.583,65.587 42.442,65.361C42.545,65.334 42.692,65.332 42.882,65.355C43.072,65.379 43.425,65.322 43.941,65.187C44.113,65.141 44.332,65.065 44.598,64.958C44.855,64.817 45.107,64.659 45.355,64.483C45.603,64.307 45.812,64.124 45.982,63.932ZM57.997,72.185C58.06,72.425 57.926,72.682 57.593,72.953C57.294,73.216 57.059,73.37 56.887,73.415C56.543,73.505 56.175,73.363 55.782,72.989C55.389,72.614 55.012,72.162 54.652,71.632C54.292,71.102 53.975,70.597 53.701,70.117C53.419,69.603 53.216,69.252 53.093,69.064C52.899,68.747 52.653,68.371 52.354,67.935C52.055,67.498 51.761,67.08 51.472,66.678C51.216,66.267 50.992,65.903 50.798,65.587C50.604,65.27 50.503,65.094 50.494,65.06C50.367,64.579 50.335,64.109 50.398,63.651C50.496,63.184 50.682,62.914 50.958,62.842C51.267,62.76 51.657,62.915 52.128,63.306C52.598,63.697 53.088,64.23 53.597,64.904C54.131,65.536 54.653,66.263 55.164,67.084C55.666,67.871 56.124,68.633 56.538,69.37C56.944,70.072 57.275,70.702 57.532,71.259C57.815,71.773 57.97,72.082 57.997,72.185ZM76.188,66.014C76.272,65.771 76.286,65.547 76.232,65.34C76.214,65.272 76.104,65.135 75.903,64.93C75.737,64.717 75.584,64.628 75.447,64.664C75.344,64.692 75.185,64.788 74.972,64.955C74.749,65.087 74.535,65.181 74.328,65.235C73.882,65.353 73.321,65.39 72.648,65.347C72.009,65.294 71.39,65.108 70.791,64.788C70.157,64.477 69.618,64.104 69.173,63.67C68.752,63.192 68.375,62.666 68.04,62.093C67.739,61.51 67.438,60.854 67.135,60.125C66.824,59.361 66.451,58.503 66.016,57.551C65.77,57.175 65.526,56.945 65.283,56.862C65.04,56.779 64.747,56.782 64.403,56.873C64.094,56.954 63.88,57.397 63.76,58.201C63.632,58.97 63.549,59.911 63.511,61.024C63.465,62.103 63.419,63.255 63.374,64.48C63.354,65.662 63.264,66.715 63.103,67.64C62.964,67.53 62.819,67.329 62.668,67.038C62.553,66.737 62.472,66.501 62.427,66.329L60.28,58.18C60.18,57.801 60.072,57.462 59.957,57.162C59.841,56.861 59.662,56.743 59.422,56.806C59.146,56.879 58.916,57.05 58.729,57.319C58.577,57.58 58.493,57.749 58.477,57.827C58.414,58.285 58.442,58.811 58.562,59.405C58.672,59.964 58.773,60.415 58.863,60.759C59.054,61.481 59.315,62.405 59.649,63.531L60.725,66.778C61.074,67.826 61.384,68.792 61.654,69.677C61.949,70.518 62.128,71.06 62.192,71.3C62.255,71.541 62.456,71.746 62.795,71.914C63.133,72.082 63.423,72.134 63.663,72.071C63.801,72.035 63.895,71.973 63.946,71.886C64.72,70.359 65.153,68.792 65.245,67.186C65.371,65.572 65.424,63.958 65.404,62.346C66.371,63.783 67.186,64.855 67.851,65.562C68.506,66.235 69.203,66.787 69.942,67.218C70.637,67.623 71.468,67.846 72.434,67.885C73.426,67.881 74.214,67.802 74.799,67.648C74.971,67.603 75.146,67.502 75.325,67.344C75.53,67.143 75.695,66.934 75.822,66.717C75.983,66.491 76.105,66.256 76.188,66.014ZM88.09,44.069C87.778,44.703 87.278,45.386 86.589,46.119C85.89,46.818 85.183,47.483 84.466,48.113L82.585,49.767C82.039,50.205 81.779,50.475 81.806,50.579C81.833,50.682 81.984,50.973 82.257,51.453C82.531,51.932 82.848,52.51 83.21,53.187C83.598,53.821 83.995,54.488 84.4,55.19C84.806,55.893 85.154,56.518 85.446,57.066C85.605,57.392 85.809,57.816 86.057,58.339C86.305,58.862 86.536,59.39 86.75,59.922C86.998,60.445 87.215,60.921 87.402,61.35C87.579,61.744 87.672,61.959 87.681,61.993C87.817,62.509 87.872,63.065 87.845,63.66C87.818,64.256 87.615,64.603 87.237,64.703C87.031,64.757 86.819,64.721 86.602,64.594C86.384,64.468 86.18,64.319 85.988,64.149C85.787,63.945 85.625,63.748 85.502,63.56C85.379,63.372 85.303,63.226 85.276,63.123L85.195,62.814C85.193,62.667 85.169,62.508 85.124,62.336C84.952,61.683 84.6,60.764 84.067,59.581C83.899,59.22 83.607,58.672 83.193,57.935C82.778,57.199 82.359,56.445 81.935,55.674C81.441,54.775 80.889,53.799 80.281,52.745C80.017,52.3 79.867,52.082 79.833,52.091C79.592,52.155 79.22,52.418 78.717,52.881C78.24,53.302 77.698,53.83 77.094,54.467C76.481,55.07 75.847,55.734 75.191,56.458C74.527,57.148 73.91,57.807 73.34,58.435C72.761,59.029 72.272,59.544 71.872,59.98C71.429,60.391 71.156,60.61 71.052,60.637C70.605,60.755 70.204,60.695 69.847,60.458C69.49,60.221 69.262,59.914 69.162,59.535C69.108,59.329 69.323,58.96 69.808,58.428C70.25,57.87 70.837,57.237 71.57,56.529C72.268,55.831 73.048,55.092 73.91,54.313C74.736,53.544 75.508,52.844 76.225,52.214C76.976,51.575 77.59,51.046 78.068,50.626L78.836,49.982C78.11,48.482 77.481,47.14 76.948,45.956C76.495,44.936 76.065,44.001 75.658,43.152C75.285,42.294 75.089,41.831 75.071,41.762C74.953,41.315 74.953,40.966 75.071,40.714C75.214,40.419 75.406,40.24 75.646,40.177C76.024,40.077 76.333,40.271 76.572,40.76C77.44,42.517 78.218,44.077 78.908,45.44C79.632,46.794 80.267,47.877 80.812,48.689C81.103,48.539 81.587,48.209 82.262,47.701C82.927,47.157 83.623,46.588 84.349,45.992C85.075,45.397 85.728,44.875 86.309,44.428C86.915,43.937 87.27,43.679 87.373,43.651C87.579,43.597 87.718,43.634 87.788,43.763C87.893,43.882 87.994,43.984 88.09,44.069ZM110.079,57.748C110.043,57.61 109.998,57.512 109.946,57.452C109.885,57.358 109.772,57.277 109.607,57.21C109.476,57.134 109.36,57.11 109.256,57.137C109.154,57.164 108.927,57.353 108.578,57.702C108.254,58.008 107.853,58.371 107.375,58.791C106.923,59.167 106.419,59.558 105.864,59.961C105.334,60.322 104.811,60.57 104.294,60.706C103.573,60.896 102.832,60.944 102.071,60.85C101.311,60.756 100.61,60.536 99.967,60.191C99.315,59.811 98.722,59.305 98.188,58.674C97.689,58.033 97.321,57.266 97.085,56.372C96.805,55.306 96.684,54.29 96.724,53.323C96.754,52.322 96.89,51.441 97.13,50.679C97.362,49.882 97.651,49.236 97.998,48.74C98.337,48.21 98.678,47.899 99.022,47.809C99.778,47.609 100.279,47.624 100.524,47.854C100.767,48.084 100.899,48.233 100.917,48.302C101.062,48.852 100.952,49.341 100.586,49.768C100.255,50.186 99.863,50.584 99.411,50.96C98.949,51.303 98.531,51.67 98.157,52.063C97.817,52.447 97.71,52.879 97.837,53.361C97.909,53.636 98.041,53.859 98.233,54.029C98.45,54.155 98.662,54.191 98.869,54.137C99.247,54.037 99.726,53.764 100.308,53.317C100.879,52.835 101.432,52.285 101.968,51.666C102.495,51.012 102.91,50.351 103.211,49.683C103.548,49.006 103.649,48.41 103.512,47.894C103.394,47.447 103.144,47.054 102.76,46.713C102.367,46.339 101.884,46.043 101.312,45.826C100.775,45.6 100.187,45.461 99.548,45.408C98.934,45.313 98.352,45.337 97.802,45.482C97.183,45.645 96.615,46.071 96.098,46.759C95.58,47.447 95.164,48.31 94.849,49.349C94.569,50.379 94.411,51.524 94.375,52.783C94.339,54.043 94.498,55.344 94.851,56.685C95.223,58.094 95.738,59.283 96.397,60.249C97.047,61.181 97.759,61.931 98.534,62.499C99.3,63.033 100.111,63.389 100.967,63.568C101.813,63.713 102.633,63.681 103.424,63.472C104.558,63.173 105.507,62.795 106.269,62.337C107.065,61.87 107.715,61.404 108.218,60.941C108.721,60.477 109.104,60.046 109.366,59.646C109.628,59.246 109.793,58.963 109.86,58.798C110.061,58.304 110.134,57.954 110.079,57.748ZM127.426,49.758C127.471,49.93 127.43,50.125 127.304,50.342C127.202,50.516 127.157,50.693 127.168,50.874C127.267,51.252 127.431,51.596 127.66,51.903C127.922,52.202 128.117,52.592 128.243,53.073C128.361,53.52 128.283,53.78 128.007,53.852C127.664,53.943 127.419,54.062 127.275,54.211C127.155,54.316 126.915,54.453 126.555,54.621C126.349,54.675 126.075,54.545 125.736,54.23C125.552,54.095 125.378,53.92 125.212,53.706C125.202,53.672 125.117,53.768 124.956,53.994C124.83,54.211 124.574,54.499 124.19,54.858C123.832,55.173 123.303,55.533 122.6,55.939C121.923,56.301 121.017,56.631 119.883,56.93C118.92,57.184 118.023,57.2 117.192,56.977C116.352,56.72 115.601,56.311 114.938,55.751C114.311,55.181 113.763,54.498 113.295,53.701C112.854,52.862 112.515,51.995 112.28,51.101C112.062,50.275 111.944,49.479 111.926,48.712C111.933,47.901 112.036,47.175 112.235,46.534C112.425,45.859 112.733,45.282 113.158,44.802C113.583,44.322 114.139,43.992 114.827,43.81C115.48,43.638 116.188,43.673 116.95,43.913C117.712,44.154 118.414,44.447 119.057,44.792C119.7,45.138 120.23,45.476 120.648,45.807L121.313,46.239C120.126,43.683 119.057,41.372 118.108,39.306C117.692,38.422 117.28,37.557 116.872,36.708C116.49,35.816 116.135,35.027 115.808,34.341C115.48,33.655 115.2,33.085 114.971,32.631C114.766,32.133 114.65,31.832 114.623,31.729C114.534,31.532 114.405,31.18 114.235,30.673C114.055,30.132 113.871,29.574 113.683,28.998C113.495,28.423 113.32,27.899 113.159,27.426C112.998,26.954 112.881,26.654 112.81,26.525C112.618,26.209 112.366,25.815 112.059,25.344C111.785,24.865 111.64,24.591 111.621,24.522C111.576,24.35 111.608,24.121 111.716,23.835C111.815,23.515 112.002,23.318 112.278,23.246C112.484,23.191 112.678,23.159 112.858,23.148C113.04,23.137 113.222,23.199 113.405,23.335C113.588,23.471 113.78,23.714 113.983,24.065C114.211,24.373 114.463,24.84 114.739,25.466C114.863,25.801 115.139,26.427 115.564,27.344C115.989,28.262 116.437,29.265 116.909,30.355C117.38,31.444 117.837,32.482 118.28,33.469C118.724,34.455 119.044,35.18 119.239,35.643C119.755,36.904 120.355,38.273 121.038,39.747C121.746,41.179 122.44,42.559 123.121,43.887C123.802,45.215 124.442,46.389 125.042,47.408C125.632,48.392 126.096,49.042 126.437,49.357C126.543,49.476 126.707,49.543 126.931,49.558C127.146,49.538 127.311,49.605 127.426,49.758ZM51.213,53.342C51.231,53.411 51.147,53.58 50.961,53.85C50.774,54.12 50.541,54.42 50.26,54.752C50.005,55.039 49.729,55.315 49.43,55.577C49.131,55.84 48.879,55.998 48.673,56.052L48.105,56.202C47.89,56.222 47.648,56.212 47.38,56.172C47.147,56.123 46.922,56.036 46.704,55.909C46.478,55.748 46.324,55.513 46.243,55.203C46.116,54.722 46.17,54.23 46.405,53.726C46.631,53.189 47.019,52.847 47.57,52.702C47.673,52.675 47.91,52.668 48.281,52.681C48.677,52.65 49.083,52.653 49.497,52.691C49.912,52.729 50.279,52.798 50.599,52.897C50.954,52.988 51.159,53.136 51.213,53.342ZM123.88,51.795C123.819,51.701 123.482,51.33 122.871,50.683C122.283,49.991 121.563,49.28 120.708,48.549C119.879,47.775 118.991,47.126 118.045,46.603C117.132,46.071 116.333,45.896 115.645,46.077C115.06,46.231 114.696,46.805 114.553,47.799C114.445,48.783 114.545,49.86 114.853,51.029C115.197,52.336 115.852,53.285 116.816,53.877C117.816,54.459 118.797,54.624 119.76,54.37C120.585,54.153 121.409,53.789 122.23,53.278C123.052,52.768 123.602,52.273 123.88,51.795Z"/>
</svg>
