<svg width="122" height="84" viewBox="0 0 122 84" fill="none" xmlns="http://www.w3.org/2000/svg">
<path d="M22.8371 21.55C22.8371 22.4167 22.5871 23.25 22.0871 24.05C21.6204 24.85 21.0371 25.6 20.3371 26.3C19.6371 26.9667 18.8704 27.6 18.0371 28.2C17.2038 28.7667 16.4371 29.2667 15.7371 29.7C15.0704 30.1667 14.5204 30.55 14.0871 30.85C13.6538 31.15 13.4371 31.3833 13.4371 31.55C13.4371 31.9833 13.4871 32.6 13.5871 33.4C13.6871 34.1667 13.8038 35.0167 13.9371 35.95C14.1038 36.85 14.2538 37.7833 14.3871 38.75C14.5538 39.7167 14.6704 40.6 14.7371 41.4C14.7371 41.4333 14.7538 41.5833 14.7871 41.85C14.8538 42.1167 14.9204 42.4167 14.9871 42.75C15.0871 43.0833 15.1538 43.3833 15.1871 43.65C15.2538 43.95 15.2871 44.1333 15.2871 44.2C15.2871 44.4333 15.2704 44.6833 15.2371 44.95C15.2371 45.25 15.1871 45.5167 15.0871 45.75C15.0204 46.0167 14.9038 46.2333 14.7371 46.4C14.5704 46.5667 14.3538 46.65 14.0871 46.65C13.7204 46.65 13.4538 46.4833 13.2871 46.15C13.1204 45.85 13.0371 45.55 13.0371 45.25C13.0371 45.1833 13.0371 45.1167 13.0371 45.05C13.0704 44.9833 13.0871 44.9 13.0871 44.8C13.0871 44.4333 12.9538 43.45 12.6871 41.85C12.4204 40.25 12.1204 38.3333 11.7871 36.1C11.4538 33.9 11.1538 31.5333 10.8871 29C10.6204 26.4333 10.4871 24.0167 10.4871 21.75C10.4871 21.5833 10.5038 21.4 10.5371 21.2C10.5704 20.9667 10.5871 20.7667 10.5871 20.6C10.2538 20.6333 9.75378 20.7833 9.08711 21.05C8.45378 21.3167 7.82044 21.65 7.18711 22.05C6.55378 22.4167 5.98711 22.8167 5.48711 23.25C5.02044 23.65 4.78711 24.0167 4.78711 24.35H4.43711C4.33711 24.35 4.22044 24.2833 4.08711 24.15C3.92044 24.0167 3.78711 23.8667 3.68711 23.7C3.55378 23.5333 3.43711 23.3667 3.33711 23.2C3.23711 23.0333 3.18711 22.9167 3.18711 22.85C3.18711 22.15 3.60378 21.5 4.43711 20.9C5.27044 20.2667 6.30378 19.7167 7.53711 19.25C8.80378 18.75 10.1871 18.3667 11.6871 18.1C13.1871 17.8 14.6038 17.65 15.9371 17.65C17.2371 17.65 18.3204 17.8 19.1871 18.1C20.0871 18.4 20.8038 18.7667 21.3371 19.2C21.8704 19.6 22.2538 20.0167 22.4871 20.45C22.7204 20.8833 22.8371 21.25 22.8371 21.55ZM20.3871 21.4C20.3871 21.0667 19.9704 20.7333 19.1371 20.4C18.3038 20.0333 17.3204 19.85 16.1871 19.85C15.1871 19.85 14.4538 19.8833 13.9871 19.95C13.5204 20.0167 13.2038 20.0833 13.0371 20.15C12.9704 20.6833 12.9204 21.3167 12.8871 22.05C12.8538 22.7833 12.8371 23.5333 12.8371 24.3C12.8371 25.1 12.8538 25.8833 12.8871 26.65C12.9538 27.3833 13.0204 28 13.0871 28.5C13.5538 28.2 14.1871 27.8 14.9871 27.3C15.8204 26.7667 16.6371 26.1833 17.4371 25.55C18.2371 24.8833 18.9204 24.2 19.4871 23.5C20.0871 22.7667 20.3871 22.0667 20.3871 21.4ZM37.4348 20.75C37.4348 20.9833 37.3348 21.1833 37.1348 21.35C36.9348 21.4833 36.7014 21.6 36.4348 21.7C36.1681 21.8 35.9014 21.8833 35.6348 21.95C35.3681 21.9833 35.1514 22 34.9848 22C34.4848 22 34.1514 21.9667 33.9848 21.9C33.8181 21.8333 33.6848 21.8 33.5848 21.8C32.7514 21.8 32.0848 21.8667 31.5848 22C31.0848 22.1333 30.6848 22.35 30.3848 22.65C30.1181 22.95 29.9348 23.3333 29.8348 23.8C29.7681 24.2333 29.7348 24.7667 29.7348 25.4C29.7348 26.4667 29.7681 27.3167 29.8348 27.95C29.9348 28.5833 30.0181 29.1 30.0848 29.5C30.1848 29.9 30.2681 30.2167 30.3348 30.45C30.4348 30.65 30.4848 30.85 30.4848 31.05C30.4848 31.3167 30.3348 31.6 30.0348 31.9C29.7681 32.2 29.5181 32.35 29.2848 32.35C28.8848 32.35 28.5181 32 28.1848 31.3C27.8848 30.5667 27.6181 29.7167 27.3848 28.75C27.1848 27.75 27.0181 26.7667 26.8848 25.8C26.7514 24.8333 26.6848 24.1 26.6848 23.6C26.6848 23.0333 26.7348 22.5 26.8348 22C26.9348 21.4667 27.0681 21.0167 27.2348 20.65C27.4014 20.25 27.5848 19.9333 27.7848 19.7C27.9848 19.4667 28.1848 19.35 28.3848 19.35C28.5514 19.35 28.6848 19.4167 28.7848 19.55C28.8848 19.65 28.9681 19.7833 29.0348 19.95C29.1014 20.0833 29.1681 20.2167 29.2348 20.35C29.3348 20.45 29.4514 20.5 29.5848 20.5C29.8848 20.5 30.3681 20.35 31.0348 20.05C31.7014 19.75 32.5181 19.6 33.4848 19.6C34.3848 19.6 35.0514 19.6333 35.4848 19.7C35.9514 19.7333 36.4014 19.8333 36.8348 20C36.9348 20.0333 37.0514 20.1167 37.1848 20.25C37.3514 20.35 37.4348 20.5167 37.4348 20.75ZM44.4051 13C44.4051 13.0667 44.2884 13.2 44.0551 13.4C43.8217 13.6 43.5384 13.8167 43.2051 14.05C42.9051 14.25 42.5884 14.4333 42.2551 14.6C41.9217 14.7667 41.6551 14.85 41.4551 14.85C41.3217 14.85 41.1384 14.85 40.9051 14.85C40.7051 14.8167 40.4884 14.75 40.2551 14.65C40.0551 14.55 39.8717 14.4167 39.7051 14.25C39.5384 14.05 39.4551 13.8 39.4551 13.5C39.4551 13.0333 39.6217 12.6 39.9551 12.2C40.2884 11.7667 40.7217 11.55 41.2551 11.55C41.3551 11.55 41.5717 11.6 41.9051 11.7C42.2717 11.7667 42.6384 11.8667 43.0051 12C43.3717 12.1333 43.6884 12.2833 43.9551 12.45C44.2551 12.6167 44.4051 12.8 44.4051 13ZM46.0551 31.7C46.0551 31.9333 45.8717 32.1333 45.5051 32.3C45.1717 32.4667 44.9217 32.55 44.7551 32.55C44.4217 32.55 44.1217 32.3333 43.8551 31.9C43.5884 31.4667 43.3551 30.9667 43.1551 30.4C42.9551 29.8333 42.7884 29.3 42.6551 28.8C42.5217 28.2667 42.4217 27.9 42.3551 27.7C42.2551 27.3667 42.1217 26.9667 41.9551 26.5C41.7884 26.0333 41.6217 25.5833 41.4551 25.15C41.3217 24.7167 41.2051 24.3333 41.1051 24C41.0051 23.6667 40.9551 23.4833 40.9551 23.45C40.9551 22.9833 41.0384 22.55 41.2051 22.15C41.4051 21.75 41.6384 21.55 41.9051 21.55C42.2051 21.55 42.5217 21.7833 42.8551 22.25C43.1884 22.7167 43.5051 23.3167 43.8051 24.05C44.1384 24.75 44.4384 25.5333 44.7051 26.4C44.9717 27.2333 45.2051 28.0333 45.4051 28.8C45.6051 29.5333 45.7551 30.1833 45.8551 30.75C45.9884 31.2833 46.0551 31.6 46.0551 31.7ZM64.2188 29.85C64.2188 30.05 64.1521 30.25 64.0188 30.45C63.8854 30.65 63.7188 30.8333 63.5188 31C63.3521 31.1667 63.1521 31.3167 62.9188 31.45C62.7188 31.55 62.5354 31.6 62.3688 31.6C61.8021 31.6 61.0688 31.4833 60.1688 31.25C59.3021 30.9833 58.6021 30.5833 58.0688 30.05C57.5021 29.4833 57.0021 28.8167 56.5688 28.05C56.1354 27.25 55.6521 26.0833 55.1188 24.55C54.7521 26.0167 54.3187 27.4667 53.8187 28.9C53.3521 30.3333 52.5854 31.65 51.5188 32.85C51.4521 32.9167 51.3521 32.95 51.2188 32.95C50.9854 32.95 50.7354 32.8333 50.4688 32.6C50.2021 32.3667 50.0688 32.1333 50.0688 31.9C50.0688 31.6667 50.0354 31.1333 49.9688 30.3C49.9354 29.4333 49.8854 28.4833 49.8188 27.45C49.7521 26.3833 49.6854 25.3167 49.6188 24.25C49.5854 23.15 49.5688 22.25 49.5688 21.55C49.5688 21.2167 49.5854 20.7833 49.6188 20.25C49.6521 19.6833 49.7521 19.2 49.9188 18.8C49.9521 18.7333 50.0688 18.6 50.2688 18.4C50.5021 18.2 50.7521 18.1 51.0188 18.1C51.2521 18.1 51.3854 18.25 51.4188 18.55C51.4521 18.85 51.4688 19.1833 51.4688 19.55V27.45C51.4688 27.6167 51.4854 27.85 51.5188 28.15C51.5854 28.45 51.6688 28.6667 51.7688 28.8C52.1354 28 52.4688 27.0667 52.7688 26C53.1021 24.9 53.4188 23.8667 53.7188 22.9C54.0188 21.9 54.3188 21.0667 54.6188 20.4C54.9188 19.7 55.2188 19.35 55.5188 19.35C55.8521 19.35 56.1188 19.4167 56.3188 19.55C56.5188 19.6833 56.6854 19.95 56.8188 20.35C56.9854 21.3167 57.1188 22.1833 57.2188 22.95C57.3188 23.6833 57.4354 24.35 57.5688 24.95C57.7354 25.55 57.9521 26.1167 58.2188 26.65C58.5188 27.15 58.9188 27.6167 59.4188 28.05C59.8854 28.4833 60.4021 28.8 60.9688 29C61.5688 29.2 62.0854 29.3 62.5188 29.3C62.7188 29.3 62.9354 29.2667 63.1688 29.2C63.4021 29.1 63.5688 29.05 63.6688 29.05C63.8021 29.05 63.9188 29.1667 64.0188 29.4C64.1521 29.6333 64.2188 29.7833 64.2188 29.85ZM80.0469 13.4C79.6135 13.9 78.9969 14.4 78.1969 14.9C77.3969 15.3667 76.5969 15.8 75.7969 16.2C74.9969 16.6 74.2969 16.95 73.6969 17.25C73.0969 17.5167 72.7969 17.7 72.7969 17.8C72.7969 17.9 72.8635 18.2 72.9969 18.7C73.1302 19.2 73.2802 19.8 73.4469 20.5C73.6469 21.1667 73.8469 21.8667 74.0469 22.6C74.2469 23.3333 74.4135 23.9833 74.5469 24.55C74.6135 24.8833 74.6969 25.3167 74.7969 25.85C74.8969 26.3833 74.9802 26.9167 75.0469 27.45C75.1469 27.9833 75.2302 28.4667 75.2969 28.9C75.3635 29.3 75.3969 29.5167 75.3969 29.55C75.3969 30.05 75.3135 30.5667 75.1469 31.1C74.9802 31.6333 74.7135 31.9 74.3469 31.9C74.1469 31.9 73.9635 31.8167 73.7969 31.65C73.6302 31.4833 73.4802 31.3 73.3469 31.1C73.2135 30.8667 73.1135 30.65 73.0469 30.45C72.9802 30.25 72.9469 30.1 72.9469 30C72.9469 29.9333 72.9469 29.8333 72.9469 29.7C72.9802 29.5667 72.9969 29.4167 72.9969 29.25C72.9969 28.6167 72.8969 27.7 72.6969 26.5C72.6302 26.1333 72.4969 25.5667 72.2969 24.8C72.0969 24.0333 71.8969 23.25 71.6969 22.45C71.4635 21.5167 71.1969 20.5 70.8969 19.4C70.7635 18.9333 70.6802 18.7 70.6469 18.7C70.4135 18.7 70.0135 18.85 69.4469 19.15C68.9135 19.4167 68.2969 19.7667 67.5969 20.2C66.8969 20.6 66.1635 21.05 65.3969 21.55C64.6302 22.0167 63.9135 22.4667 63.2469 22.9C62.5802 23.3 62.0135 23.65 61.5469 23.95C61.0469 24.2167 60.7469 24.35 60.6469 24.35C60.2135 24.35 59.8635 24.2 59.5969 23.9C59.3302 23.6 59.1969 23.2667 59.1969 22.9C59.1969 22.7 59.4802 22.4167 60.0469 22.05C60.5802 21.65 61.2635 21.2167 62.0969 20.75C62.8969 20.2833 63.7802 19.8 64.7469 19.3C65.6802 18.8 66.5469 18.35 67.3469 17.95C68.1802 17.55 68.8635 17.2167 69.3969 16.95C69.9635 16.6833 70.2469 16.55 70.2469 16.55C69.9469 15.0167 69.6969 13.65 69.4969 12.45C69.3302 11.4167 69.1635 10.4667 68.9969 9.6C68.8635 8.73333 68.7969 8.26667 68.7969 8.2C68.7969 7.76667 68.8802 7.45 69.0469 7.25C69.2469 7.01667 69.4635 6.9 69.6969 6.9C70.0635 6.9 70.2969 7.15 70.3969 7.65C70.7635 9.45 71.0969 11.05 71.3969 12.45C71.7302 13.85 72.0469 14.9833 72.3469 15.85C72.6469 15.7833 73.1635 15.6 73.8969 15.3C74.6302 14.9667 75.3969 14.6167 76.1969 14.25C76.9969 13.8833 77.7135 13.5667 78.3469 13.3C79.0135 13 79.3969 12.85 79.4969 12.85C79.6969 12.85 79.8135 12.9167 79.8469 13.05C79.9135 13.1833 79.9802 13.3 80.0469 13.4ZM96.6637 30.75C96.697 30.8167 96.7137 30.9167 96.7137 31.05C96.7137 31.25 96.5637 31.55 96.2637 31.95C96.1637 32.0833 95.947 32.3 95.6137 32.6C95.2803 32.9 94.8303 33.2 94.2637 33.5C93.697 33.8 92.997 34.0667 92.1637 34.3C91.3637 34.5333 90.4137 34.65 89.3137 34.65C88.547 34.65 87.797 34.4833 87.0637 34.15C86.3303 33.7833 85.6803 33.2667 85.1137 32.6C84.547 31.9 84.0803 31.05 83.7137 30.05C83.347 29.0167 83.1637 27.8167 83.1637 26.45C83.1637 25.15 83.3303 23.9333 83.6637 22.8C83.997 21.6667 84.4137 20.6667 84.9137 19.8C85.447 18.9333 86.0303 18.25 86.6637 17.75C87.297 17.25 87.9137 17 88.5137 17C89.047 17 89.5803 17.1167 90.1137 17.35C90.6803 17.55 91.1803 17.8167 91.6137 18.15C92.0803 18.4833 92.447 18.8667 92.7137 19.3C92.9803 19.7 93.1137 20.1167 93.1137 20.55C93.1137 21.05 92.8803 21.5667 92.4137 22.1C91.9803 22.6333 91.447 23.1333 90.8137 23.6C90.1803 24.0333 89.547 24.4 88.9137 24.7C88.2803 24.9667 87.7803 25.1 87.4137 25.1C87.2137 25.1 87.0303 25.0167 86.8637 24.85C86.7303 24.65 86.6637 24.4167 86.6637 24.15C86.6637 23.6833 86.8637 23.3167 87.2637 23.05C87.697 22.7833 88.1637 22.55 88.6637 22.35C89.1637 22.1167 89.6137 21.85 90.0137 21.55C90.447 21.25 90.6637 20.8333 90.6637 20.3C90.6637 20.2333 90.5803 20.0667 90.4137 19.8C90.247 19.5333 89.797 19.4 89.0637 19.4C88.7303 19.4 88.347 19.6 87.9137 20C87.4803 20.3667 87.0637 20.8833 86.6637 21.55C86.2637 22.1833 85.9303 22.95 85.6637 23.85C85.397 24.7167 85.2637 25.6667 85.2637 26.7C85.2637 27.5667 85.4137 28.35 85.7137 29.05C86.047 29.75 86.4637 30.35 86.9637 30.85C87.4637 31.3167 88.047 31.6833 88.7137 31.95C89.3803 32.2167 90.0637 32.35 90.7637 32.35C91.2637 32.35 91.797 32.25 92.3637 32.05C92.9637 31.8167 93.5137 31.5833 94.0137 31.35C94.547 31.0833 94.997 30.85 95.3637 30.65C95.7637 30.4167 96.0137 30.3 96.1137 30.3C96.2137 30.3 96.3137 30.35 96.4137 30.45C96.547 30.55 96.6303 30.65 96.6637 30.75ZM114.345 27.95C114.345 28.1167 114.262 28.2833 114.095 28.45C113.962 28.5833 113.879 28.7333 113.845 28.9C113.845 29.2667 113.912 29.6167 114.045 29.95C114.212 30.2833 114.295 30.6833 114.295 31.15C114.295 31.5833 114.162 31.8 113.895 31.8C113.562 31.8 113.312 31.85 113.145 31.95C113.012 32.0167 112.762 32.0833 112.395 32.15C112.195 32.15 111.979 31.9667 111.745 31.6C111.612 31.4333 111.495 31.2333 111.395 31C111.395 30.9667 111.295 31.0333 111.095 31.2C110.929 31.3667 110.629 31.5667 110.195 31.8C109.795 32 109.229 32.2 108.495 32.4C107.795 32.5667 106.895 32.65 105.795 32.65C104.862 32.65 104.045 32.45 103.345 32.05C102.645 31.6167 102.062 31.0667 101.595 30.4C101.162 29.7333 100.829 28.9833 100.595 28.15C100.395 27.2833 100.295 26.4167 100.295 25.55C100.295 24.75 100.379 24 100.545 23.3C100.745 22.5667 101.012 21.9333 101.345 21.4C101.679 20.8333 102.095 20.3833 102.595 20.05C103.095 19.7167 103.679 19.55 104.345 19.55C104.979 19.55 105.612 19.75 106.245 20.15C106.879 20.55 107.445 20.9833 107.945 21.45C108.445 21.9167 108.845 22.35 109.145 22.75C109.479 23.1167 109.645 23.3 109.645 23.3C109.179 20.7 108.762 18.35 108.395 16.25C108.229 15.35 108.062 14.4667 107.895 13.6C107.762 12.7 107.629 11.9 107.495 11.2C107.362 10.5 107.245 9.91667 107.145 9.45C107.079 8.95 107.045 8.65 107.045 8.55C107.012 8.35 106.979 8 106.945 7.5C106.912 6.96666 106.879 6.41667 106.845 5.85C106.812 5.28333 106.779 4.76667 106.745 4.3C106.712 3.83333 106.679 3.53333 106.645 3.4C106.545 3.06666 106.412 2.65 106.245 2.15C106.112 1.65 106.045 1.36667 106.045 1.3C106.045 1.13333 106.129 0.933331 106.295 0.699998C106.462 0.433331 106.679 0.299998 106.945 0.299998C107.145 0.299998 107.329 0.316664 107.495 0.349997C107.662 0.383332 107.812 0.483333 107.945 0.649999C108.079 0.816666 108.195 1.08333 108.295 1.45C108.429 1.78333 108.545 2.26666 108.645 2.9C108.679 3.23333 108.779 3.86667 108.945 4.8C109.112 5.73333 109.279 6.75 109.445 7.85C109.612 8.95 109.779 10 109.945 11C110.112 12 110.229 12.7333 110.295 13.2C110.462 14.4667 110.679 15.85 110.945 17.35C111.245 18.8167 111.545 20.2333 111.845 21.6C112.145 22.9667 112.445 24.1833 112.745 25.25C113.045 26.2833 113.312 26.9833 113.545 27.35C113.612 27.4833 113.745 27.5833 113.945 27.65C114.145 27.6833 114.279 27.7833 114.345 27.95ZM110.645 28.95C110.612 28.85 110.395 28.4333 109.995 27.7C109.629 26.9333 109.145 26.1167 108.545 25.25C107.979 24.35 107.329 23.55 106.595 22.85C105.895 22.15 105.212 21.8 104.545 21.8C103.979 21.8 103.512 22.2333 103.145 23.1C102.812 23.9667 102.645 24.9667 102.645 26.1C102.645 27.3667 103.012 28.3833 103.745 29.15C104.512 29.9167 105.362 30.3 106.295 30.3C107.095 30.3 107.929 30.1667 108.795 29.9C109.662 29.6333 110.279 29.3167 110.645 28.95ZM14.7906 61.9C14.7906 62.2333 14.7406 62.5833 14.6406 62.95C14.5406 63.2833 14.4406 63.5667 14.3406 63.8C14.274 63.9 13.9573 64.25 13.3906 64.85C12.8573 65.4167 12.174 66.0167 11.3406 66.65C10.5406 67.2833 9.62396 67.8667 8.59063 68.4C7.59063 68.9 6.62396 69.15 5.69063 69.15C5.12396 69.15 4.54063 69.05 3.94063 68.85C3.37396 68.65 2.84063 68.3333 2.34063 67.9C1.84063 67.4333 1.42396 66.8667 1.09063 66.2C0.790625 65.5333 0.640625 64.7167 0.640625 63.75C0.640625 62.15 0.907292 60.7 1.44063 59.4C1.97396 58.1 2.50729 57.0667 3.04063 56.3C3.27396 55.9333 3.57396 55.5667 3.94063 55.2C4.34063 54.8 4.72396 54.45 5.09063 54.15C5.45729 53.8167 5.79063 53.55 6.09063 53.35C6.42396 53.15 6.65729 53.05 6.79063 53.05C7.09063 53.05 7.35729 53.1333 7.59063 53.3C7.85729 53.4667 7.99063 53.6333 7.99063 53.8C7.99063 54.0667 7.90729 54.3 7.74063 54.5C7.60729 54.6667 7.40729 54.8667 7.14063 55.1C6.87396 55.3 6.55729 55.5833 6.19063 55.95C5.82396 56.2833 5.44063 56.7333 5.04063 57.3C4.24063 58.4 3.64063 59.5333 3.24063 60.7C2.87396 61.8333 2.69063 62.8333 2.69063 63.7C2.69063 64.5667 3.00729 65.2667 3.64063 65.8C4.30729 66.3 4.99063 66.55 5.69063 66.55C6.95729 66.55 8.07396 66.2667 9.04063 65.7C10.0406 65.1333 10.8906 64.5 11.5906 63.8C12.2906 63.1 12.8573 62.4667 13.2906 61.9C13.724 61.3333 14.0406 61.05 14.2406 61.05C14.6073 61.05 14.7906 61.3333 14.7906 61.9ZM42.5488 60.6C42.5488 61.2 42.2655 61.95 41.6988 62.85C41.1655 63.7167 40.4322 64.5667 39.4988 65.4C38.5655 66.2333 37.4822 66.95 36.2488 67.55C35.0155 68.1167 33.7322 68.4 32.3988 68.4C31.7988 68.4 31.1655 68.3 30.4988 68.1C29.8322 67.9 29.1822 67.6167 28.5488 67.25C27.9155 66.85 27.3488 66.3833 26.8488 65.85C26.3488 65.2833 25.9822 64.65 25.7488 63.95C25.5488 64.15 25.2988 64.4833 24.9988 64.95C24.7322 65.4167 24.4322 65.9 24.0988 66.4C23.7655 66.8667 23.3988 67.2833 22.9988 67.65C22.5988 67.9833 22.1822 68.15 21.7488 68.15C21.3155 68.15 20.9488 67.9333 20.6488 67.5C20.3822 67.0333 20.1655 66.5333 19.9988 66C19.8322 65.4333 19.7155 64.9 19.6488 64.4C19.5822 63.9 19.5488 63.6167 19.5488 63.55C19.5488 63.15 19.6655 62.4 19.8988 61.3C20.1322 60.1667 20.4822 59 20.9488 57.8C21.4155 56.6 21.9988 55.5333 22.6988 54.6C23.4322 53.6667 24.2822 53.2 25.2488 53.2C25.6155 53.2 25.8488 53.3667 25.9488 53.7C26.0822 54 26.1488 54.3 26.1488 54.6V56.1C26.3155 56.2333 26.4822 56.3333 26.6488 56.4C26.8488 56.4333 27.0155 56.5 27.1488 56.6C27.3155 56.6667 27.4322 56.7833 27.4988 56.95C27.5988 57.1167 27.6488 57.3833 27.6488 57.75C27.6488 57.9833 27.6322 58.2 27.5988 58.4C27.5655 58.5667 27.5488 58.7333 27.5488 58.9C27.5488 59.7667 27.6155 60.6167 27.7488 61.45C27.8822 62.2833 28.1488 63.0333 28.5488 63.7C28.9488 64.3333 29.4988 64.8667 30.1988 65.3C30.8988 65.7 31.8322 65.9 32.9988 65.9C34.4655 65.9 35.6988 65.6 36.6988 65C37.7322 64.3667 38.5822 63.6833 39.2488 62.95C39.9488 62.1833 40.4988 61.5 40.8988 60.9C41.2988 60.2667 41.6322 59.95 41.8988 59.95C42.3322 59.95 42.5488 60.1667 42.5488 60.6ZM24.9988 58.4C24.9988 58.2667 24.9655 58.15 24.8988 58.05C24.8322 57.9167 24.7988 57.8 24.7988 57.7C24.7988 57.5667 24.8322 57.45 24.8988 57.35C24.9655 57.25 24.9988 57.1167 24.9988 56.95C24.9988 56.85 24.9655 56.7833 24.8988 56.75C24.8322 56.6833 24.7988 56.6167 24.7988 56.55C24.4988 56.6167 24.1822 56.9 23.8488 57.4C23.5488 57.9 23.2488 58.4833 22.9488 59.15C22.6822 59.8167 22.4655 60.5 22.2988 61.2C22.1322 61.8667 22.0488 62.4167 22.0488 62.85C22.0488 63.0833 22.1155 63.4667 22.2488 64C22.3822 64.5333 22.5322 64.8833 22.6988 65.05C23.2655 63.8833 23.7822 62.75 24.2488 61.65C24.7488 60.55 24.9988 59.4667 24.9988 58.4ZM56.4141 48.4C55.9807 48.9 55.3641 49.4 54.5641 49.9C53.7641 50.3667 52.9641 50.8 52.1641 51.2C51.3641 51.6 50.6641 51.95 50.0641 52.25C49.4641 52.5167 49.1641 52.7 49.1641 52.8C49.1641 52.9 49.2307 53.2 49.3641 53.7C49.4974 54.2 49.6474 54.8 49.8141 55.5C50.0141 56.1667 50.2141 56.8667 50.4141 57.6C50.6141 58.3333 50.7807 58.9833 50.9141 59.55C50.9807 59.8833 51.0641 60.3167 51.1641 60.85C51.2641 61.3833 51.3474 61.9167 51.4141 62.45C51.5141 62.9833 51.5974 63.4667 51.6641 63.9C51.7307 64.3 51.7641 64.5167 51.7641 64.55C51.7641 65.05 51.6807 65.5667 51.5141 66.1C51.3474 66.6333 51.0807 66.9 50.7141 66.9C50.5141 66.9 50.3307 66.8167 50.1641 66.65C49.9974 66.4833 49.8474 66.3 49.7141 66.1C49.5807 65.8667 49.4807 65.65 49.4141 65.45C49.3474 65.25 49.3141 65.1 49.3141 65C49.3141 64.9333 49.3141 64.8333 49.3141 64.7C49.3474 64.5667 49.3641 64.4167 49.3641 64.25C49.3641 63.6167 49.2641 62.7 49.0641 61.5C48.9974 61.1333 48.8641 60.5667 48.6641 59.8C48.4641 59.0333 48.2641 58.25 48.0641 57.45C47.8307 56.5167 47.5641 55.5 47.2641 54.4C47.1307 53.9333 47.0474 53.7 47.0141 53.7C46.7807 53.7 46.3807 53.85 45.8141 54.15C45.2807 54.4167 44.6641 54.7667 43.9641 55.2C43.2641 55.6 42.5307 56.05 41.7641 56.55C40.9974 57.0167 40.2807 57.4667 39.6141 57.9C38.9474 58.3 38.3807 58.65 37.9141 58.95C37.4141 59.2167 37.1141 59.35 37.0141 59.35C36.5807 59.35 36.2307 59.2 35.9641 58.9C35.6974 58.6 35.5641 58.2667 35.5641 57.9C35.5641 57.7 35.8474 57.4167 36.4141 57.05C36.9474 56.65 37.6307 56.2167 38.4641 55.75C39.2641 55.2833 40.1474 54.8 41.1141 54.3C42.0474 53.8 42.9141 53.35 43.7141 52.95C44.5474 52.55 45.2307 52.2167 45.7641 51.95C46.3307 51.6833 46.6141 51.55 46.6141 51.55C46.3141 50.0167 46.0641 48.65 45.8641 47.45C45.6974 46.4167 45.5307 45.4667 45.3641 44.6C45.2307 43.7333 45.1641 43.2667 45.1641 43.2C45.1641 42.7667 45.2474 42.45 45.4141 42.25C45.6141 42.0167 45.8307 41.9 46.0641 41.9C46.4307 41.9 46.6641 42.15 46.7641 42.65C47.1307 44.45 47.4641 46.05 47.7641 47.45C48.0974 48.85 48.4141 49.9833 48.7141 50.85C49.0141 50.7833 49.5307 50.6 50.2641 50.3C50.9974 49.9667 51.7641 49.6167 52.5641 49.25C53.3641 48.8833 54.0807 48.5667 54.7141 48.3C55.3807 48 55.7641 47.85 55.8641 47.85C56.0641 47.85 56.1807 47.9167 56.2141 48.05C56.2807 48.1833 56.3474 48.3 56.4141 48.4ZM82.8809 60.6C82.8809 61.2 82.5975 61.95 82.0309 62.85C81.4975 63.7167 80.7642 64.5667 79.8309 65.4C78.8975 66.2333 77.8142 66.95 76.5809 67.55C75.3475 68.1167 74.0642 68.4 72.7309 68.4C72.1309 68.4 71.4975 68.3 70.8309 68.1C70.1642 67.9 69.5142 67.6167 68.8809 67.25C68.2475 66.85 67.6809 66.3833 67.1809 65.85C66.6809 65.2833 66.3142 64.65 66.0809 63.95C65.8809 64.15 65.6309 64.4833 65.3309 64.95C65.0642 65.4167 64.7642 65.9 64.4309 66.4C64.0975 66.8667 63.7309 67.2833 63.3309 67.65C62.9309 67.9833 62.5142 68.15 62.0809 68.15C61.6475 68.15 61.2809 67.9333 60.9809 67.5C60.7142 67.0333 60.4975 66.5333 60.3309 66C60.1642 65.4333 60.0475 64.9 59.9809 64.4C59.9142 63.9 59.8809 63.6167 59.8809 63.55C59.8809 63.15 59.9975 62.4 60.2309 61.3C60.4642 60.1667 60.8142 59 61.2809 57.8C61.7475 56.6 62.3309 55.5333 63.0309 54.6C63.7642 53.6667 64.6142 53.2 65.5809 53.2C65.9475 53.2 66.1809 53.3667 66.2809 53.7C66.4142 54 66.4809 54.3 66.4809 54.6V56.1C66.6475 56.2333 66.8142 56.3333 66.9809 56.4C67.1809 56.4333 67.3475 56.5 67.4809 56.6C67.6475 56.6667 67.7642 56.7833 67.8309 56.95C67.9309 57.1167 67.9809 57.3833 67.9809 57.75C67.9809 57.9833 67.9642 58.2 67.9309 58.4C67.8975 58.5667 67.8809 58.7333 67.8809 58.9C67.8809 59.7667 67.9475 60.6167 68.0809 61.45C68.2142 62.2833 68.4809 63.0333 68.8809 63.7C69.2809 64.3333 69.8309 64.8667 70.5309 65.3C71.2309 65.7 72.1642 65.9 73.3309 65.9C74.7975 65.9 76.0309 65.6 77.0309 65C78.0642 64.3667 78.9142 63.6833 79.5809 62.95C80.2809 62.1833 80.8309 61.5 81.2309 60.9C81.6309 60.2667 81.9642 59.95 82.2309 59.95C82.6642 59.95 82.8809 60.1667 82.8809 60.6ZM65.3309 58.4C65.3309 58.2667 65.2975 58.15 65.2309 58.05C65.1642 57.9167 65.1309 57.8 65.1309 57.7C65.1309 57.5667 65.1642 57.45 65.2309 57.35C65.2975 57.25 65.3309 57.1167 65.3309 56.95C65.3309 56.85 65.2975 56.7833 65.2309 56.75C65.1642 56.6833 65.1309 56.6167 65.1309 56.55C64.8309 56.6167 64.5142 56.9 64.1809 57.4C63.8809 57.9 63.5809 58.4833 63.2809 59.15C63.0142 59.8167 62.7975 60.5 62.6309 61.2C62.4642 61.8667 62.3809 62.4167 62.3809 62.85C62.3809 63.0833 62.4475 63.4667 62.5809 64C62.7142 64.5333 62.8642 64.8833 63.0309 65.05C63.5975 63.8833 64.1142 62.75 64.5809 61.65C65.0809 60.55 65.3309 59.4667 65.3309 58.4ZM90.1461 69.55C90.1461 69.8167 90.0461 70.0167 89.8461 70.15C89.6461 70.2833 89.4128 70.35 89.1461 70.35C88.8461 70.35 88.5294 70.0667 88.1961 69.5C87.8961 68.9333 87.5961 68.2167 87.2961 67.35C86.9961 66.4833 86.7128 65.55 86.4461 64.55C86.1794 63.5167 85.9461 62.5667 85.7461 61.7C85.5461 60.8 85.3794 60.05 85.2461 59.45C85.1461 58.85 85.0961 58.5167 85.0961 58.45C85.0961 58.3167 85.0294 57.9667 84.8961 57.4C84.7961 56.8333 84.6461 55.95 84.4461 54.75C84.2794 53.55 84.0794 52 83.8461 50.1C83.6461 48.1667 83.4294 45.7833 83.1961 42.95C83.1961 42.65 83.2461 42.2667 83.3461 41.8C83.4461 41.3333 83.6794 41.1 84.0461 41.1C84.5128 41.1 84.8628 41.4167 85.0961 42.05C85.3628 42.6833 85.5628 43.4667 85.6961 44.4C85.8628 45.3333 85.9794 46.3167 86.0461 47.35C86.1128 48.35 86.1961 49.2333 86.2961 50C86.4294 51.0667 86.5461 52.0333 86.6461 52.9C86.7794 53.7667 86.8961 54.6333 86.9961 55.5C87.1294 56.3333 87.2794 57.2167 87.4461 58.15C87.6461 59.0833 87.8794 60.1167 88.1461 61.25L90.1461 69.55ZM102.993 60.2C102.993 60.9333 102.893 61.6333 102.693 62.3C102.493 62.9667 102.226 63.55 101.893 64.05C101.56 64.55 101.16 64.95 100.693 65.25C100.26 65.5167 99.7763 65.65 99.243 65.65C98.3096 65.65 97.5763 65.3833 97.043 64.85C96.5096 64.3167 96.093 63.7 95.793 63C95.5263 62.3 95.343 61.6 95.243 60.9C95.1763 60.1667 95.143 59.6167 95.143 59.25C95.143 58.65 95.2263 57.9833 95.393 57.25C95.593 56.4833 95.843 55.7833 96.143 55.15C96.4763 54.5167 96.843 53.9833 97.243 53.55C97.643 53.1167 98.0596 52.9 98.493 52.9C98.593 52.9 98.743 52.9333 98.943 53C99.1763 53.0667 99.4096 53.1667 99.643 53.3C99.8763 53.4333 100.076 53.6 100.243 53.8C100.443 54 100.576 54.2333 100.643 54.5C101.01 54.5333 101.376 54.6667 101.743 54.9C102.11 55.1333 102.31 55.3167 102.343 55.45C102.61 56.3167 102.776 57.1833 102.843 58.05C102.943 58.9167 102.993 59.6333 102.993 60.2ZM100.743 59.3C100.743 58.8 100.693 58.2833 100.593 57.75C100.493 57.1833 100.293 56.6167 99.993 56.05C99.9263 56.0833 99.843 56.1 99.743 56.1C99.6096 56.1 99.493 56.0833 99.393 56.05C99.3263 56.0167 99.2596 56 99.193 56C98.793 56 98.4763 56.1167 98.243 56.35C98.0096 56.55 97.8263 56.8333 97.693 57.2C97.593 57.5333 97.5263 57.9 97.493 58.3C97.4596 58.7 97.443 59.0833 97.443 59.45C97.443 59.8167 97.4596 60.2333 97.493 60.7C97.5263 61.1333 97.593 61.55 97.693 61.95C97.8263 62.35 97.993 62.7 98.193 63C98.393 63.2667 98.6596 63.4 98.993 63.4C99.3263 63.4 99.6096 63.2333 99.843 62.9C100.076 62.5333 100.26 62.1167 100.393 61.65C100.526 61.1833 100.61 60.7333 100.643 60.3C100.71 59.8333 100.743 59.5 100.743 59.3ZM120.457 66.6C120.457 66.9667 120.323 67.2167 120.057 67.35C119.79 67.4833 119.657 67.6667 119.657 67.9C119.623 67.8667 119.69 68.05 119.857 68.45C120.023 68.85 120.173 69.2667 120.307 69.7C120.54 70.6 120.74 71.3833 120.907 72.05C121.107 72.7167 121.257 73.3333 121.357 73.9C121.49 74.4667 121.59 75.0333 121.657 75.6C121.723 76.1667 121.757 76.8 121.757 77.5C121.757 78.2 121.64 78.9167 121.407 79.65C121.173 80.3833 120.84 81.0333 120.407 81.6C119.973 82.1667 119.44 82.6333 118.807 83C118.173 83.3667 117.457 83.55 116.657 83.55C115.423 83.55 114.44 83.3 113.707 82.8C113.007 82.3 112.473 81.7333 112.107 81.1C111.74 80.4667 111.507 79.8333 111.407 79.2C111.307 78.6 111.257 78.2 111.257 78C111.257 76.7667 111.573 75.5333 112.207 74.3C112.84 73.0667 113.54 71.95 114.307 70.95C115.073 69.95 115.773 69.1167 116.407 68.45C117.04 67.7833 117.357 67.4 117.357 67.3L116.807 65.65C116.473 66.05 116.173 66.5 115.907 67C115.673 67.4667 115.407 67.9167 115.107 68.35C114.84 68.75 114.507 69.1 114.107 69.4C113.74 69.6667 113.273 69.8 112.707 69.8C112.107 69.8 111.507 69.6167 110.907 69.25C110.307 68.8833 109.773 68.3333 109.307 67.6C108.84 66.8667 108.457 65.9833 108.157 64.95C107.89 63.9167 107.757 62.7167 107.757 61.35C107.757 60.5833 107.873 59.6333 108.107 58.5C108.34 57.3333 108.707 56.2167 109.207 55.15C109.707 54.0833 110.323 53.1833 111.057 52.45C111.823 51.6833 112.707 51.3 113.707 51.3C114.273 51.3 114.79 51.4 115.257 51.6C115.757 51.8 116.007 52.05 116.007 52.35C116.007 52.6167 115.957 52.8333 115.857 53C115.757 53.1667 115.623 53.3333 115.457 53.5C115.357 53.4333 115.24 53.3667 115.107 53.3C115.007 53.2333 114.857 53.2 114.657 53.2C113.923 53.2 113.257 53.5333 112.657 54.2C112.09 54.8333 111.607 55.6333 111.207 56.6C110.807 57.5333 110.49 58.5167 110.257 59.55C110.057 60.5833 109.957 61.4833 109.957 62.25C109.957 63.95 110.24 65.25 110.807 66.15C111.373 67.0167 111.973 67.45 112.607 67.45C112.907 67.45 113.223 67.2333 113.557 66.8C113.923 66.3333 114.257 65.8333 114.557 65.3C114.89 64.7333 115.173 64.2 115.407 63.7C115.64 63.2 115.773 62.9 115.807 62.8C115.873 62.4667 115.907 62.0833 115.907 61.65C115.907 61.2833 115.89 60.8833 115.857 60.45C115.857 59.9833 115.857 59.5167 115.857 59.05C115.857 58.1833 115.923 57.4667 116.057 56.9C116.19 56.3 116.523 56 117.057 56C117.59 56 117.973 56.1667 118.207 56.5C118.44 56.8 118.557 57.1667 118.557 57.6C118.557 57.9 118.54 58.2667 118.507 58.7C118.507 59.1 118.507 59.5 118.507 59.9C118.507 60.2667 118.49 60.6 118.457 60.9C118.457 61.1667 118.457 61.3333 118.457 61.4C118.457 61.6 118.473 61.9 118.507 62.3C118.573 62.6667 118.623 63.05 118.657 63.45C118.723 63.8167 118.773 64.1667 118.807 64.5C118.873 64.8 118.923 65 118.957 65.1C118.99 65.2 119.04 65.35 119.107 65.55C119.173 65.75 119.24 65.9 119.307 66C119.34 65.9333 119.407 65.8667 119.507 65.8C119.607 65.7 119.69 65.6167 119.757 65.55C119.923 65.65 120.073 65.85 120.207 66.15C120.373 66.4167 120.457 66.5667 120.457 66.6ZM118.757 72.95C118.623 72.4167 118.473 71.8833 118.307 71.35C118.14 70.8167 117.973 70.2667 117.807 69.7C117.24 70.4 116.69 71.0667 116.157 71.7C115.657 72.3667 115.19 73.0167 114.757 73.65C114.357 74.2833 114.023 74.9333 113.757 75.6C113.523 76.3 113.407 77.0333 113.407 77.8C113.407 78.8333 113.69 79.6833 114.257 80.35C114.857 81.0167 115.507 81.35 116.207 81.35C116.973 81.35 117.69 81.0667 118.357 80.5C119.057 79.9333 119.407 79.1167 119.407 78.05C119.407 77.35 119.39 76.7667 119.357 76.3C119.323 75.8333 119.273 75.4167 119.207 75.05C119.173 74.7167 119.107 74.3833 119.007 74.05C118.94 73.75 118.857 73.3833 118.757 72.95Z" fill="black"/>
</svg>
