<svg width="49" height="37" viewBox="0 0 49 37" fill="none" xmlns="http://www.w3.org/2000/svg">
<path d="M15.1 15C15.2333 15.0333 15.3 15.1333 15.3 15.3C15.3 15.5333 15.1833 15.7833 14.95 16.05C14.7167 16.2833 14.6 16.55 14.6 16.85C14.6 16.9167 14.5833 17.1667 14.55 17.6C14.55 18.0333 14.55 18.5167 14.55 19.05C14.55 19.5833 14.5333 20.0833 14.5 20.55C14.5 21.0167 14.5 21.2833 14.5 21.35V26.3C14.5 26.3333 14.4833 26.5667 14.45 27C14.4167 27.4333 14.35 27.95 14.25 28.55C14.1833 29.15 14.1 29.7833 14 30.45C13.9333 31.0833 13.85 31.6333 13.75 32.1C13.7167 32.2333 13.6167 32.3333 13.45 32.4C13.3167 32.4667 13.15 32.5333 12.95 32.6C12.7833 32.6333 12.6167 32.6667 12.45 32.7C12.2833 32.7 12.1833 32.7 12.15 32.7C11.7833 32.7 11.3833 32.4833 10.95 32.05C10.55 31.6167 10.1667 31.1333 9.8 30.6C9.43333 30.0667 9.11667 29.5667 8.85 29.1C8.58333 28.6333 8.43333 28.3667 8.4 28.3C8.26667 28.7667 8.11667 29.25 7.95 29.75C7.78333 30.2167 7.6 30.65 7.4 31.05C7.2 31.45 6.96667 31.7833 6.7 32.05C6.46667 32.3167 6.2 32.45 5.9 32.45C5.5 32.45 5.08333 32.25 4.65 31.85C4.21667 31.45 3.76667 30.9333 3.3 30.3C2.86667 29.6667 2.45 28.9667 2.05 28.2C1.65 27.4 1.3 26.6333 1 25.9C0.7 25.1667 0.45 24.4833 0.25 23.85C0.0833335 23.2167 1.41561e-07 22.7167 1.41561e-07 22.35C1.41561e-07 22.2167 0.0666668 22.05 0.2 21.85C0.333333 21.65 0.516667 21.55 0.75 21.55C1.21667 21.55 1.55 21.7 1.75 22C1.78333 22.0333 1.88333 22.3333 2.05 22.9C2.25 23.4667 2.51667 24.1333 2.85 24.9C3.18333 25.6667 3.56667 26.4667 4 27.3C4.46667 28.1 4.98333 28.7833 5.55 29.35C5.78333 28.9167 5.96667 28.4333 6.1 27.9C6.26667 27.3667 6.4 26.85 6.5 26.35C6.6 25.85 6.66667 25.4 6.7 25C6.73333 24.5667 6.75 24.2167 6.75 23.95C6.68333 23.6833 6.63333 23.4167 6.6 23.15C6.56667 22.9167 6.53333 22.6833 6.5 22.45C6.5 22.2167 6.5 22.0167 6.5 21.85C6.5 21.0167 6.83333 20.6 7.5 20.6C8 20.6 8.38333 20.7667 8.65 21.1C8.91667 21.4 9.11667 21.7667 9.25 22.2C9.38333 22.6 9.46667 23 9.5 23.4C9.56667 23.8 9.63333 24.0833 9.7 24.25C9.96667 25.0167 10.2 25.7333 10.4 26.4C10.6333 27.0667 11.0167 27.75 11.55 28.45C11.6833 28.35 11.7833 28.1833 11.85 27.95C11.95 27.6833 12.0167 27.4167 12.05 27.15C12.0833 26.8833 12.1 26.65 12.1 26.45C12.1 26.2167 12.1 26.05 12.1 25.95V16C12.1 15.8 12.1833 15.6167 12.35 15.45C12.5167 15.2833 12.7167 15.1333 12.95 15C13.1833 14.8667 13.4 14.7667 13.6 14.7C13.8333 14.6 14 14.55 14.1 14.55C14.2667 14.55 14.4167 14.6 14.55 14.7C14.7167 14.8 14.9 14.9 15.1 15ZM33.2359 31.75C33.2693 31.8167 33.2859 31.9167 33.2859 32.05C33.2859 32.25 33.1359 32.55 32.8359 32.95C32.7359 33.0833 32.5193 33.3 32.1859 33.6C31.8526 33.9 31.4026 34.2 30.8359 34.5C30.2693 34.8 29.5693 35.0667 28.7359 35.3C27.9359 35.5333 26.9859 35.65 25.8859 35.65C25.1193 35.65 24.3693 35.4833 23.6359 35.15C22.9026 34.7833 22.2526 34.2667 21.6859 33.6C21.1193 32.9 20.6526 32.05 20.2859 31.05C19.9193 30.0167 19.7359 28.8167 19.7359 27.45C19.7359 26.15 19.9026 24.9333 20.2359 23.8C20.5693 22.6667 20.9859 21.6667 21.4859 20.8C22.0193 19.9333 22.6026 19.25 23.2359 18.75C23.8693 18.25 24.4859 18 25.0859 18C25.6193 18 26.1526 18.1167 26.6859 18.35C27.2526 18.55 27.7526 18.8167 28.1859 19.15C28.6526 19.4833 29.0193 19.8667 29.2859 20.3C29.5526 20.7 29.6859 21.1167 29.6859 21.55C29.6859 22.05 29.4526 22.5667 28.9859 23.1C28.5526 23.6333 28.0193 24.1333 27.3859 24.6C26.7526 25.0333 26.1193 25.4 25.4859 25.7C24.8526 25.9667 24.3526 26.1 23.9859 26.1C23.7859 26.1 23.6026 26.0167 23.4359 25.85C23.3026 25.65 23.2359 25.4167 23.2359 25.15C23.2359 24.6833 23.4359 24.3167 23.8359 24.05C24.2693 23.7833 24.7359 23.55 25.2359 23.35C25.7359 23.1167 26.1859 22.85 26.5859 22.55C27.0193 22.25 27.2359 21.8333 27.2359 21.3C27.2359 21.2333 27.1526 21.0667 26.9859 20.8C26.8193 20.5333 26.3693 20.4 25.6359 20.4C25.3026 20.4 24.9193 20.6 24.4859 21C24.0526 21.3667 23.6359 21.8833 23.2359 22.55C22.8359 23.1833 22.5026 23.95 22.2359 24.85C21.9693 25.7167 21.8359 26.6667 21.8359 27.7C21.8359 28.5667 21.9859 29.35 22.2859 30.05C22.6193 30.75 23.0359 31.35 23.5359 31.85C24.0359 32.3167 24.6193 32.6833 25.2859 32.95C25.9526 33.2167 26.6359 33.35 27.3359 33.35C27.8359 33.35 28.3693 33.25 28.9359 33.05C29.5359 32.8167 30.0859 32.5833 30.5859 32.35C31.1193 32.0833 31.5693 31.85 31.9359 31.65C32.3359 31.4167 32.5859 31.3 32.6859 31.3C32.7859 31.3 32.8859 31.35 32.9859 31.45C33.1193 31.55 33.2026 31.65 33.2359 31.75ZM48.6676 27.05C48.6676 28.55 48.4842 29.8667 48.1176 31C47.7842 32.1333 47.3676 33.0833 46.8676 33.85C46.3676 34.5833 45.8509 35.1333 45.3176 35.5C44.8176 35.8667 44.4009 36.05 44.0676 36.05C43.6009 36.05 43.1509 35.85 42.7176 35.45C42.2842 35.0167 42.0676 34.6167 42.0676 34.25C42.0676 33.7167 42.2842 33.45 42.7176 33.45C42.8842 33.45 43.0509 33.5167 43.2176 33.65C43.3842 33.75 43.5342 33.8333 43.6676 33.9C44.2342 33.4333 44.7676 32.6667 45.2676 31.6C45.8009 30.5333 46.0676 29.0167 46.0676 27.05C46.0676 26.25 45.9842 25.5333 45.8176 24.9C45.6509 24.2667 45.4509 23.7333 45.2176 23.3C45.0176 22.8667 44.8009 22.5333 44.5676 22.3C44.3342 22.0667 44.1676 21.95 44.0676 21.95C43.7342 21.95 43.4009 22.2833 43.0676 22.95C42.7676 23.6167 42.5009 24.3833 42.2676 25.25C42.0342 26.0833 41.8342 26.9167 41.6676 27.75C41.5342 28.55 41.4676 29.1 41.4676 29.4C41.5009 29.6 41.5342 29.7833 41.5676 29.95C41.6009 30.1167 41.6342 30.2833 41.6676 30.45C41.7009 30.6167 41.7176 30.7833 41.7176 30.95C41.7176 31.5833 41.5009 32.15 41.0676 32.65C40.6342 33.15 40.2176 33.4 39.8176 33.4C39.6176 33.4 39.4509 33.2667 39.3176 33C39.2176 32.7 39.1342 32.3333 39.0676 31.9C39.0009 31.4667 38.9342 31.0167 38.8676 30.55C38.8342 30.0833 38.7842 29.6667 38.7176 29.3C38.4509 28.7 38.1009 27.75 37.6676 26.45C37.2342 25.15 36.7676 23.7667 36.2676 22.3C35.8009 20.8 35.3509 19.35 34.9176 17.95C34.5176 16.55 34.2176 15.4333 34.0176 14.6C33.5509 12.8 33.2009 11.2333 32.9676 9.9C32.7009 8.53333 32.5009 7.35 32.3676 6.35C32.2009 5.31666 32.1009 4.43333 32.0676 3.7C32.0342 2.96667 32.0176 2.35 32.0176 1.85C32.0176 1.55 32.1509 1.31667 32.4176 1.15C32.6509 0.983331 32.8676 0.899997 33.0676 0.899997C33.3676 0.899997 33.5842 0.966664 33.7176 1.1C33.8509 1.2 33.9509 1.43333 34.0176 1.8C34.0509 2.16667 34.1009 2.7 34.1676 3.4C34.2009 4.1 34.2842 5.03333 34.4176 6.2C34.4842 6.76666 34.6009 7.55 34.7676 8.55C34.9676 9.55 35.2176 10.6667 35.5176 11.9C35.8176 13.1333 36.1342 14.4333 36.4676 15.8C36.8342 17.1333 37.2009 18.4167 37.5676 19.65C37.9676 20.8833 38.3509 22.0167 38.7176 23.05C39.1176 24.0833 39.4842 24.9 39.8176 25.5C40.1176 24.3 40.4842 23.2167 40.9176 22.25C41.2842 21.45 41.7342 20.7167 42.2676 20.05C42.8009 19.35 43.4509 19 44.2176 19C44.5176 19 44.9176 19.1333 45.4176 19.4C45.9176 19.6667 46.4009 20.1167 46.8676 20.75C47.3676 21.3833 47.7842 22.2167 48.1176 23.25C48.4842 24.2833 48.6676 25.55 48.6676 27.05Z" fill="black"/>
</svg>
