<?xml version="1.0" encoding="UTF-8" standalone="no"?>
<!DOCTYPE svg PUBLIC "-//W3C//DTD SVG 1.1//EN" "http://www.w3.org/Graphics/SVG/1.1/DTD/svg11.dtd">
<svg width="100%" height="100%" viewBox="0 0 150 86" version="1.1" xmlns="http://www.w3.org/2000/svg" xmlns:xlink="http://www.w3.org/1999/xlink" xml:space="preserve" xmlns:serif="http://www.serif.com/" style="fill-rule:evenodd;clip-rule:evenodd;stroke-linejoin:round;stroke-miterlimit:2;">
    <g transform="matrix(1,0,0,1,0,-11.2626)">
        <path d="M66.228,74.81C66.835,73.27 67.205,71.459 67.336,69.379C67.468,67.298 67.324,65.524 66.906,64.059C66.534,62.596 66.029,61.404 65.391,60.481C64.799,59.562 64.168,58.895 63.498,58.481C62.827,58.068 62.284,57.848 61.868,57.821C60.804,57.754 59.872,58.183 59.071,59.107C58.273,59.985 57.584,60.963 57.005,62.041C56.32,63.344 55.716,64.815 55.195,66.453C54.785,65.592 54.348,64.427 53.883,62.958C53.465,61.492 53.033,59.887 52.586,58.141C52.185,56.398 51.789,54.585 51.397,52.703C51.054,50.778 50.729,48.947 50.421,47.21C50.112,45.473 49.863,43.902 49.673,42.497C49.53,41.095 49.437,39.998 49.394,39.206C49.311,37.576 49.277,36.274 49.292,35.3C49.261,34.323 49.238,33.579 49.224,33.067C49.164,32.553 49.045,32.22 48.869,32.07C48.696,31.873 48.401,31.762 47.985,31.735C47.708,31.718 47.4,31.814 47.062,32.025C46.677,32.233 46.472,32.545 46.445,32.961C46.402,33.655 46.371,34.512 46.353,35.532C46.335,36.552 46.396,37.786 46.537,39.235C46.634,40.634 46.808,42.293 47.058,44.212C47.265,46.082 47.614,48.286 48.103,50.824C48.308,51.998 48.626,53.573 49.058,55.55C49.537,57.53 50.034,59.581 50.55,61.703C51.115,63.782 51.642,65.741 52.129,67.583C52.616,69.424 53.019,70.773 53.336,71.629C53.396,72.143 53.429,72.725 53.435,73.376C53.486,74.029 53.539,74.659 53.594,75.266C53.648,75.873 53.732,76.389 53.844,76.814C54.006,77.196 54.225,77.395 54.503,77.413C55.058,77.448 55.658,77.137 56.303,76.482C56.948,75.826 57.298,75.059 57.353,74.18C57.368,73.949 57.359,73.716 57.328,73.482L57.233,72.78C57.201,72.546 57.171,72.288 57.142,72.008C57.169,71.592 57.309,70.835 57.564,69.737C57.868,68.595 58.219,67.457 58.615,66.321C59.015,65.139 59.452,64.099 59.927,63.2C60.448,62.305 60.939,61.871 61.402,61.901C61.54,61.909 61.761,62.086 62.065,62.43C62.368,62.774 62.639,63.256 62.879,63.874C63.164,64.496 63.395,65.253 63.571,66.146C63.747,67.04 63.8,68.041 63.73,69.151C63.557,71.879 63.054,73.96 62.221,75.393C61.434,76.829 60.627,77.846 59.8,78.443C59.621,78.339 59.42,78.211 59.198,78.057C58.978,77.858 58.753,77.751 58.522,77.736C57.92,77.698 57.597,78.049 57.55,78.789C57.518,79.298 57.783,79.871 58.347,80.51C58.913,81.103 59.519,81.42 60.167,81.461C60.629,81.49 61.223,81.272 61.949,80.808C62.721,80.346 63.486,79.628 64.244,78.654C65.005,77.635 65.666,76.353 66.228,74.81ZM21.824,49.722C22.007,49.78 22.09,49.925 22.076,50.156C22.055,50.48 21.871,50.816 21.524,51.166C21.18,51.469 20.995,51.829 20.969,52.245C20.963,52.337 20.918,52.683 20.834,53.281L20.707,55.292C20.66,56.032 20.593,56.725 20.506,57.369L20.436,58.479L20.003,65.346C20,65.392 19.956,65.714 19.872,66.313C19.788,66.911 19.65,67.622 19.459,68.445C19.314,69.272 19.142,70.143 18.945,71.059C18.798,71.932 18.634,72.688 18.454,73.326C18.396,73.508 18.249,73.638 18.012,73.716C17.821,73.797 17.584,73.875 17.301,73.95L16.598,74.045L16.182,74.019C15.673,73.986 15.137,73.651 14.574,73.012C14.057,72.376 13.568,71.672 13.106,70.9C12.644,70.128 12.248,69.406 11.919,68.735C11.59,68.065 11.405,67.682 11.365,67.586C11.139,68.222 10.889,68.879 10.614,69.558C10.342,70.191 10.049,70.776 9.737,71.314C9.424,71.851 9.072,72.293 8.678,72.64C8.331,72.989 7.95,73.151 7.533,73.124C6.978,73.089 6.418,72.775 5.852,72.183C5.286,71.59 4.707,70.834 4.115,69.914C3.569,68.998 3.052,67.99 2.565,66.891C2.08,65.747 1.661,64.652 1.309,63.609C0.957,62.565 0.67,61.595 0.448,60.699C0.273,59.806 0.201,59.105 0.233,58.596C0.245,58.411 0.352,58.186 0.554,57.92C0.757,57.654 1.02,57.532 1.344,57.552C1.991,57.593 2.44,57.83 2.691,58.264C2.735,58.313 2.847,58.738 3.029,59.539C3.257,60.342 3.568,61.291 3.963,62.383C4.359,63.476 4.82,64.62 5.349,65.814C5.926,66.964 6.583,67.958 7.319,68.793C7.681,68.213 7.978,67.558 8.209,66.83C8.487,66.105 8.717,65.4 8.9,64.715C9.082,64.03 9.214,63.411 9.296,62.859C9.38,62.261 9.434,61.777 9.457,61.407C9.388,61.031 9.342,60.657 9.319,60.284L9.242,59.304L9.294,58.472C9.367,57.316 9.866,56.767 10.791,56.825C11.484,56.869 12.002,57.134 12.342,57.62C12.686,58.059 12.931,58.585 13.078,59.198C13.228,59.765 13.309,60.327 13.32,60.885C13.378,61.446 13.445,61.844 13.523,62.082C13.826,63.169 14.087,64.183 14.306,65.126C14.571,66.071 15.043,67.052 15.722,68.07C15.916,67.943 16.069,67.721 16.182,67.403C16.344,67.042 16.46,66.678 16.529,66.31C16.599,65.943 16.642,65.621 16.66,65.344L16.704,64.65L17.575,50.847C17.593,50.569 17.724,50.322 17.97,50.106C18.216,49.889 18.506,49.699 18.842,49.534C19.177,49.369 19.487,49.25 19.77,49.175C20.102,49.056 20.338,49.002 20.477,49.01C20.708,49.025 20.912,49.108 21.088,49.258C21.31,49.411 21.556,49.566 21.824,49.722ZM45.517,74.547C45.557,74.643 45.572,74.783 45.56,74.968C45.542,75.245 45.308,75.648 44.857,76.177C44.707,76.353 44.387,76.635 43.898,77.022C43.41,77.409 42.759,77.786 41.947,78.152C41.134,78.519 40.14,78.827 38.963,79.078C37.833,79.332 36.505,79.41 34.979,79.314C33.915,79.247 32.89,78.95 31.901,78.423C30.916,77.85 30.06,77.077 29.332,76.102C28.607,75.082 28.034,73.861 27.613,72.442C27.195,70.976 27.046,69.296 27.165,67.4C27.279,65.596 27.617,63.923 28.179,62.38C28.74,60.837 29.406,59.486 30.176,58.328C30.991,57.172 31.86,56.275 32.783,55.637C33.705,54.999 34.583,54.706 35.415,54.759C36.155,54.805 36.884,55.014 37.604,55.384C38.373,55.711 39.043,56.125 39.615,56.625C40.233,57.129 40.708,57.693 41.04,58.317C41.375,58.895 41.523,59.485 41.485,60.086C41.442,60.78 41.073,61.476 40.379,62.175C39.731,62.877 38.947,63.524 38.028,64.116C37.111,64.662 36.2,65.115 35.295,65.476C34.394,65.79 33.688,65.931 33.18,65.899C32.902,65.882 32.655,65.75 32.438,65.504C32.271,65.215 32.199,64.885 32.222,64.516C32.263,63.868 32.573,63.377 33.151,63.042C33.776,62.71 34.443,62.427 35.154,62.194C35.869,61.914 36.516,61.583 37.097,61.202C37.725,60.824 38.062,60.265 38.109,59.525C38.114,59.432 38.013,59.194 37.806,58.809C37.598,58.425 36.985,58.2 35.968,58.136C35.505,58.107 34.956,58.351 34.32,58.868C33.687,59.339 33.063,60.019 32.45,60.909C31.84,61.752 31.31,62.787 30.861,64.012C30.415,65.191 30.147,66.497 30.057,67.931C29.981,69.133 30.12,70.233 30.475,71.23C30.876,72.23 31.402,73.099 32.052,73.837C32.705,74.528 33.482,75.087 34.383,75.516C35.285,75.944 36.221,76.189 37.192,76.25C37.886,76.294 38.634,76.202 39.438,75.974C40.291,75.703 41.074,75.427 41.788,75.147C42.551,74.824 43.196,74.54 43.722,74.295C44.298,74.006 44.655,73.866 44.793,73.875C44.932,73.884 45.067,73.962 45.196,74.109C45.373,74.26 45.48,74.406 45.517,74.547ZM89.104,75.419C89.055,76.205 88.734,76.881 88.141,77.447C87.597,77.97 86.896,78.413 86.037,78.777C85.228,79.097 84.33,79.342 83.344,79.512C82.359,79.682 81.422,79.808 80.535,79.892C79.65,79.929 78.86,79.948 78.163,79.951L76.915,79.872C75.897,79.808 75.122,79.596 74.587,79.238C74.053,78.879 73.812,78.283 73.864,77.451C73.882,77.174 73.919,76.944 73.977,76.762C74.038,76.533 74.231,76.43 74.554,76.45C74.693,76.459 74.921,76.519 75.239,76.632C75.56,76.699 75.813,76.738 75.998,76.75C76.183,76.762 76.762,76.775 77.736,76.79C78.759,76.762 79.832,76.69 80.953,76.575C82.121,76.463 83.154,76.273 84.053,76.005C85.001,75.693 85.493,75.26 85.528,74.705C85.534,74.613 85.066,74.305 84.124,73.781C83.231,73.214 81.874,72.293 80.051,71.017C78.629,69.999 77.647,69.008 77.104,68.045C76.565,67.036 76.346,65.722 76.448,64.104C76.512,63.087 76.773,62.267 77.23,61.646C77.733,61.028 78.366,60.557 79.129,60.234C79.939,59.914 80.834,59.715 81.813,59.638C82.842,59.517 83.912,59.491 85.022,59.562C85.114,59.567 85.389,59.631 85.845,59.753C86.348,59.877 86.87,60.073 87.41,60.339C87.953,60.559 88.423,60.844 88.819,61.194C89.263,61.501 89.474,61.839 89.451,62.209C89.445,62.301 89.344,62.434 89.147,62.608C88.997,62.784 88.72,63.115 88.318,63.6C88.183,63.545 87.933,63.459 87.569,63.344C87.251,63.231 86.863,63.113 86.407,62.992C85.999,62.827 85.566,62.706 85.107,62.631C84.65,62.509 84.283,62.44 84.005,62.422C82.803,62.346 81.817,62.516 81.048,62.932C80.282,63.301 79.86,64.11 79.781,65.359C79.743,65.96 79.939,66.53 80.37,67.068C80.846,67.608 81.44,68.133 82.15,68.642C82.864,69.105 83.622,69.594 84.426,70.109C85.278,70.581 86.058,71.094 86.766,71.65C87.473,72.205 88.04,72.798 88.464,73.428C88.938,74.015 89.151,74.679 89.104,75.419ZM100.046,53.825C100.387,53.568 100.561,53.393 100.567,53.3C100.584,53.023 100.392,52.755 99.991,52.498C99.635,52.243 99.209,52.008 98.712,51.79C98.215,51.573 97.715,51.403 97.213,51.278C96.759,51.11 96.463,51.022 96.324,51.013C95.584,50.966 94.964,51.229 94.464,51.801C93.966,52.327 93.697,52.913 93.656,53.56C93.63,53.977 93.724,54.331 93.937,54.623C94.154,54.869 94.397,55.07 94.665,55.226C94.98,55.385 95.275,55.496 95.549,55.56L96.312,55.608C96.59,55.626 96.967,55.534 97.444,55.332C97.921,55.13 98.376,54.903 98.81,54.652C99.293,54.357 99.705,54.082 100.046,53.825ZM100.403,80.171C100.926,79.972 101.198,79.71 101.218,79.387C101.227,79.248 101.162,78.803 101.024,78.051C100.935,77.256 100.784,76.342 100.57,75.307C100.36,74.226 100.106,73.095 99.81,71.916C99.516,70.69 99.168,69.577 98.767,68.577L98.761,68.561C98.806,68.541 98.852,68.521 98.899,68.499L99.003,68.453C99.676,68.077 100.493,67.641 101.453,67.145C102.416,66.602 103.449,66.041 104.554,65.46C105.661,64.834 106.718,64.274 107.724,63.78C108.733,63.24 109.619,62.809 110.382,62.486C111.195,62.119 111.763,61.946 112.087,61.966C112.133,61.969 112.228,62.3 112.372,62.959C112.692,64.512 112.973,65.945 113.215,67.261C113.422,68.388 113.631,69.492 113.841,70.573C114.052,71.654 114.187,72.452 114.247,72.967C114.42,74.649 114.478,75.929 114.423,76.808C114.408,77.039 114.372,77.246 114.314,77.428L114.288,77.844C114.279,77.983 114.312,78.194 114.387,78.477C114.462,78.76 114.582,79.07 114.746,79.405C114.914,79.694 115.106,79.962 115.322,80.207C115.539,80.453 115.786,80.585 116.063,80.602C116.572,80.635 116.965,80.288 117.243,79.563C117.521,78.837 117.682,78.128 117.726,77.434C117.729,77.388 117.701,77.085 117.644,76.524C117.59,75.917 117.516,75.239 117.424,74.49C117.378,73.745 117.31,72.998 117.218,72.249C117.125,71.5 117.048,70.892 116.985,70.424C116.849,69.626 116.675,68.709 116.462,67.675C116.248,66.64 116.032,65.651 115.813,64.709C115.643,63.723 115.488,62.878 115.347,62.172C115.205,61.467 115.139,61.045 115.148,60.906C115.157,60.768 115.589,60.539 116.445,60.222L119.45,58.949C120.595,58.464 121.742,57.933 122.893,57.356C124.047,56.732 124.946,56.093 125.591,55.437C125.507,55.293 125.425,55.125 125.344,54.934C125.31,54.746 125.154,54.644 124.876,54.626C124.737,54.617 124.193,54.792 123.241,55.15C122.339,55.464 121.317,55.841 120.176,56.279C119.034,56.718 117.939,57.136 116.893,57.534C115.849,57.886 115.116,58.095 114.694,58.162C114.354,56.933 114.014,55.333 113.674,53.362C113.381,51.393 113.058,49.144 112.707,46.615C112.612,45.913 112.311,45.546 111.802,45.514C111.478,45.493 111.168,45.636 110.87,45.942C110.621,46.205 110.478,46.637 110.44,47.238C110.434,47.331 110.485,47.984 110.594,49.198C110.75,50.415 110.898,51.747 111.039,53.195C111.211,54.878 111.438,56.795 111.72,58.949L110.506,59.429C109.742,59.753 108.765,60.155 107.574,60.637C106.429,61.122 105.188,61.67 103.849,62.282C102.464,62.891 101.197,63.484 100.046,64.062C98.952,64.586 98.035,65.084 97.293,65.553C96.977,65.166 96.663,64.962 96.35,64.942C95.98,64.919 95.639,65.176 95.326,65.714C95.06,66.254 94.906,66.848 94.866,67.495C94.863,67.541 94.916,67.8 95.026,68.271C95.135,68.742 95.263,69.284 95.41,69.897C95.604,70.513 95.795,71.152 95.986,71.814C96.176,72.476 96.326,73.042 96.436,73.514C96.511,73.797 96.617,74.314 96.756,75.066C96.897,75.771 97.081,76.526 97.309,77.329C97.537,78.133 97.817,78.847 98.149,79.472C98.481,80.096 98.878,80.423 99.34,80.452C99.572,80.467 99.926,80.373 100.403,80.171ZM147.167,81.382C147.178,81.197 147.164,81.057 147.124,80.961C147.086,80.82 146.979,80.674 146.803,80.523C146.673,80.376 146.539,80.298 146.4,80.289C146.261,80.28 145.904,80.42 145.329,80.709C144.803,80.954 144.158,81.239 143.395,81.562C142.681,81.842 141.897,82.117 141.044,82.388C140.241,82.616 139.492,82.708 138.798,82.664C137.827,82.603 136.891,82.358 135.99,81.93C135.088,81.502 134.311,80.942 133.658,80.251C133.008,79.513 132.483,78.644 132.082,77.644C131.727,76.647 131.587,75.547 131.663,74.345C131.754,72.911 132.022,71.605 132.468,70.426C132.917,69.201 133.446,68.166 134.057,67.323C134.67,66.433 135.293,65.753 135.926,65.282C136.563,64.765 137.112,64.521 137.574,64.55C138.592,64.615 139.204,64.839 139.412,65.224C139.62,65.608 139.721,65.847 139.715,65.939C139.668,66.679 139.331,67.238 138.704,67.616C138.123,67.997 137.475,68.328 136.761,68.608C136.05,68.841 135.382,69.124 134.758,69.456C134.179,69.791 133.87,70.282 133.829,70.93C133.805,71.3 133.878,71.629 134.045,71.918C134.262,72.164 134.509,72.296 134.786,72.313C135.295,72.345 136,72.204 136.902,71.89C137.807,71.529 138.718,71.076 139.634,70.53C140.554,69.938 141.337,69.291 141.985,68.589C142.679,67.89 143.048,67.194 143.092,66.5C143.13,65.899 142.981,65.31 142.647,64.731C142.315,64.107 141.839,63.543 141.221,63.04C140.649,62.539 139.979,62.126 139.21,61.798C138.491,61.428 137.761,61.219 137.021,61.173C136.189,61.12 135.312,61.413 134.389,62.051C133.467,62.689 132.598,63.586 131.782,64.742C131.013,65.9 130.347,67.251 129.785,68.794C129.224,70.337 128.886,72.01 128.772,73.814C128.652,75.71 128.802,77.391 129.22,78.856C129.641,80.276 130.214,81.496 130.939,82.516C131.666,83.491 132.523,84.265 133.508,84.837C134.496,85.364 135.522,85.661 136.586,85.728C138.112,85.824 139.44,85.746 140.57,85.492C141.746,85.241 142.741,84.933 143.553,84.566C144.366,84.2 145.016,83.823 145.505,83.436C145.994,83.049 146.313,82.767 146.464,82.591C146.915,82.063 147.149,81.659 147.167,81.382Z"/>
    </g>
</svg>
