<svg width="70" height="16" viewBox="0 0 70 16" fill="none" xmlns="http://www.w3.org/2000/svg">
<path d="M10.7707 11.6984C10.7707 11.9716 10.638 12.3129 10.3727 12.7226C10.1229 13.1171 9.7795 13.504 9.34243 13.8834C8.90536 14.2627 8.39804 14.5889 7.82048 14.862C7.24292 15.12 6.64195 15.2489 6.01756 15.2489C5.73658 15.2489 5.44 15.2034 5.1278 15.1124C4.81561 15.0213 4.51122 14.8924 4.21463 14.7255C3.91805 14.5434 3.65268 14.331 3.41853 14.0882C3.18439 13.8303 3.01268 13.542 2.90341 13.2233C2.80975 13.3144 2.69268 13.4661 2.55219 13.6785C2.42732 13.8909 2.28683 14.111 2.13073 14.3385C1.97463 14.551 1.80293 14.7406 1.61561 14.9075C1.42829 15.0593 1.23317 15.1351 1.03024 15.1351C0.827316 15.1351 0.655609 15.0365 0.515122 14.8393C0.390244 14.6268 0.28878 14.3992 0.210732 14.1565C0.132683 13.8985 0.0780488 13.6558 0.0468293 13.4282C0.0156098 13.2006 0 13.0716 0 13.0413C0 12.8592 0.0546341 12.5178 0.163902 12.0171C0.27317 11.5012 0.437073 10.9701 0.655609 10.4239C0.874146 9.87767 1.14732 9.39213 1.47512 8.96728C1.81853 8.54244 2.21658 8.33002 2.66927 8.33002C2.84097 8.33002 2.95024 8.40588 2.99707 8.55761C3.05951 8.69417 3.09073 8.83073 3.09073 8.96728V9.65007C3.16878 9.71076 3.24683 9.75628 3.32488 9.78663C3.41853 9.8018 3.49658 9.83215 3.55902 9.87767C3.63707 9.90801 3.6917 9.96112 3.72292 10.037C3.76975 10.1128 3.79317 10.2342 3.79317 10.4011C3.79317 10.5073 3.78536 10.606 3.76975 10.697C3.75414 10.7729 3.74634 10.8487 3.74634 10.9246C3.74634 11.3191 3.77756 11.706 3.84 12.0853C3.90244 12.4647 4.02731 12.8061 4.21463 13.1095C4.40195 13.3978 4.65951 13.6406 4.98731 13.8378C5.31512 14.0199 5.75219 14.111 6.29853 14.111C6.98536 14.111 7.56292 13.9744 8.03121 13.7013C8.51511 13.413 8.91316 13.1019 9.22536 12.7681C9.55316 12.4192 9.81072 12.1081 9.99804 11.835C10.1854 11.5467 10.3415 11.4026 10.4663 11.4026C10.6693 11.4026 10.7707 11.5012 10.7707 11.6984ZM2.55219 10.697C2.55219 10.6363 2.53658 10.5832 2.50536 10.5377C2.47414 10.477 2.45853 10.4239 2.45853 10.3784C2.45853 10.3177 2.47414 10.2646 2.50536 10.2191C2.53658 10.1735 2.55219 10.1128 2.55219 10.037C2.55219 9.99147 2.53658 9.96112 2.50536 9.94595C2.47414 9.9156 2.45853 9.88525 2.45853 9.85491C2.31805 9.88525 2.16975 10.0142 2.01366 10.2418C1.87317 10.4694 1.73268 10.7349 1.59219 11.0384C1.46732 11.3419 1.36585 11.6529 1.2878 11.9716C1.20975 12.275 1.17073 12.5254 1.17073 12.7226C1.17073 12.8288 1.20195 13.0033 1.26439 13.2461C1.32683 13.4889 1.39707 13.6482 1.47512 13.724C1.74049 13.193 1.98244 12.6771 2.20097 12.1764C2.43512 11.6757 2.55219 11.1826 2.55219 10.697Z" fill="white"/>
<path d="M16.6315 11.9033C16.6315 12.5861 16.5457 13.1854 16.3739 13.7013C16.2178 14.2172 16.0227 14.6496 15.7886 14.9986C15.5544 15.3324 15.3125 15.5827 15.0627 15.7496C14.8286 15.9165 14.6335 16 14.4774 16C14.2588 16 14.0481 15.909 13.8452 15.7269C13.6422 15.5296 13.5408 15.3476 13.5408 15.1807C13.5408 14.9379 13.6422 14.8165 13.8452 14.8165C13.9232 14.8165 14.0013 14.8468 14.0793 14.9075C14.1574 14.9531 14.2276 14.991 14.29 15.0213C14.5554 14.8089 14.8052 14.4599 15.0393 13.9744C15.2891 13.4889 15.4139 12.7985 15.4139 11.9033C15.4139 11.5391 15.3749 11.2129 15.2969 10.9246C15.2188 10.6363 15.1252 10.3936 15.0159 10.1963C14.9222 9.99905 14.8208 9.84732 14.7115 9.74111C14.6022 9.6349 14.5242 9.58179 14.4774 9.58179C14.3213 9.58179 14.1652 9.73352 14.0091 10.037C13.8686 10.3404 13.7437 10.6894 13.6344 11.0839C13.5252 11.4633 13.4315 11.8426 13.3535 12.2219C13.291 12.5861 13.2598 12.8364 13.2598 12.973C13.2754 13.064 13.291 13.1475 13.3066 13.2233C13.3222 13.2992 13.3379 13.3751 13.3535 13.4509C13.3691 13.5268 13.3769 13.6027 13.3769 13.6785C13.3769 13.9668 13.2754 14.2248 13.0725 14.4523C12.8696 14.6799 12.6744 14.7937 12.4871 14.7937C12.3935 14.7937 12.3154 14.733 12.253 14.6117C12.2061 14.4751 12.1671 14.3082 12.1359 14.111C12.1047 13.9137 12.0735 13.7089 12.0422 13.4964C12.0266 13.284 12.0032 13.0944 11.972 12.9275C11.8471 12.6543 11.6832 12.2219 11.4803 11.6302C11.2774 11.0384 11.0588 10.4087 10.8247 9.74111C10.6061 9.05832 10.3954 8.39829 10.1925 7.76102C10.0052 7.12376 9.86469 6.61546 9.77103 6.23613C9.55249 5.41679 9.38859 4.70365 9.27932 4.09673C9.15444 3.47463 9.06078 2.93599 8.99835 2.4808C8.9203 2.01043 8.87347 1.60835 8.85786 1.27454C8.84225 0.940731 8.83444 0.660029 8.83444 0.432434C8.83444 0.295876 8.89688 0.189665 9.02176 0.113799C9.13103 0.0379331 9.23249 0 9.32615 0C9.46664 0 9.5681 0.0303462 9.63054 0.0910386C9.69298 0.136558 9.73981 0.24277 9.77103 0.409673C9.78664 0.576577 9.81005 0.819346 9.84127 1.13798C9.85688 1.45662 9.8959 1.88146 9.95834 2.41252C9.98956 2.67046 10.0442 3.02703 10.1222 3.48222C10.2159 3.93741 10.333 4.44571 10.4735 5.00711C10.614 5.56852 10.7622 6.16027 10.9183 6.78236C11.0901 7.38928 11.2618 7.97345 11.4335 8.53485C11.6208 9.09625 11.8003 9.61214 11.972 10.0825C12.1593 10.5529 12.331 10.9246 12.4871 11.1977C12.6276 10.6515 12.7993 10.1584 13.0022 9.71835C13.174 9.3542 13.3847 9.02039 13.6344 8.71693C13.8842 8.39829 14.1886 8.23898 14.5476 8.23898C14.6881 8.23898 14.8754 8.29967 15.1096 8.42105C15.3437 8.54244 15.57 8.74727 15.7886 9.03556C16.0227 9.32385 16.2178 9.70318 16.3739 10.1735C16.5457 10.6439 16.6315 11.2205 16.6315 11.9033Z" fill="white"/>
<path d="M23.0016 11.5164C23.0016 11.8502 22.9547 12.1688 22.8611 12.4723C22.7674 12.7757 22.6425 13.0413 22.4864 13.2688C22.3303 13.4964 22.143 13.6785 21.9245 13.8151C21.7216 13.9365 21.4952 13.9972 21.2455 13.9972C20.8084 13.9972 20.465 13.8758 20.2152 13.633C19.9655 13.3902 19.7703 13.1095 19.6299 12.7909C19.505 12.4723 19.4191 12.1536 19.3723 11.835C19.3411 11.5012 19.3255 11.2508 19.3255 11.0839C19.3255 10.8108 19.3645 10.5073 19.4425 10.1735C19.5362 9.82456 19.6533 9.50593 19.7938 9.21764C19.9499 8.92935 20.1216 8.68658 20.3089 8.48933C20.4962 8.29208 20.6913 8.19346 20.8942 8.19346C20.9411 8.19346 21.0113 8.20863 21.105 8.23898C21.2142 8.26932 21.3235 8.31484 21.4328 8.37553C21.5421 8.43623 21.6357 8.51209 21.7138 8.60313C21.8074 8.69417 21.8699 8.80038 21.9011 8.92176C22.0728 8.93694 22.2445 8.99763 22.4162 9.10384C22.5879 9.21005 22.6816 9.2935 22.6972 9.3542C22.8221 9.7487 22.9001 10.1432 22.9313 10.5377C22.9781 10.9322 23.0016 11.2584 23.0016 11.5164ZM21.9479 11.1067C21.9479 10.8791 21.9245 10.6439 21.8777 10.4011C21.8308 10.1432 21.7372 9.88525 21.5967 9.62731C21.5655 9.64249 21.5264 9.65007 21.4796 9.65007C21.4172 9.65007 21.3625 9.64249 21.3157 9.62731C21.2845 9.61214 21.2533 9.60455 21.2221 9.60455C21.0347 9.60455 20.8864 9.65766 20.7772 9.76387C20.6679 9.85491 20.5821 9.98388 20.5196 10.1508C20.4728 10.3025 20.4416 10.4694 20.426 10.6515C20.4103 10.8336 20.4025 11.0081 20.4025 11.175C20.4025 11.3419 20.4103 11.5315 20.426 11.744C20.4416 11.9412 20.4728 12.1309 20.5196 12.3129C20.5821 12.495 20.6601 12.6543 20.7538 12.7909C20.8474 12.9123 20.9723 12.973 21.1284 12.973C21.2845 12.973 21.4172 12.8971 21.5264 12.7454C21.6357 12.5785 21.7216 12.3888 21.784 12.1764C21.8464 11.964 21.8855 11.7591 21.9011 11.5619C21.9323 11.3495 21.9479 11.1977 21.9479 11.1067Z" fill="white"/>
<path d="M33.0762 12.6543C33.0762 12.7909 32.9826 12.935 32.7953 13.0868C32.608 13.2385 32.3894 13.3826 32.1397 13.5192C31.8899 13.6406 31.6323 13.7468 31.367 13.8378C31.1172 13.9289 30.9299 13.9744 30.805 13.9744C30.6645 13.9744 30.5084 13.9365 30.3367 13.8606C30.1806 13.7847 30.0245 13.6937 29.8684 13.5875C29.728 13.4813 29.6031 13.3826 29.4938 13.2916C29.3845 13.2006 29.3143 13.1399 29.2831 13.1095C29.2363 13.1551 29.166 13.2461 29.0724 13.3826C28.9787 13.5192 28.8616 13.6709 28.7211 13.8378C28.5963 13.9896 28.4558 14.1261 28.2997 14.2475C28.1592 14.3689 28.0109 14.4296 27.8548 14.4296C27.4489 14.4296 27.0977 14.2172 26.8011 13.7923C26.5045 13.3675 26.2548 12.8819 26.0519 12.3357C25.8645 11.7895 25.7163 11.266 25.607 10.7653C25.5133 10.2494 25.4665 9.90043 25.4665 9.71835C25.4665 9.61214 25.5211 9.52869 25.6304 9.46799C25.7553 9.39213 25.8489 9.3542 25.9114 9.3542C26.1299 9.3542 26.2782 9.43006 26.3563 9.58179C26.4343 9.71835 26.4733 9.87008 26.4733 10.037C26.4733 10.1735 26.5124 10.4163 26.5904 10.7653C26.6841 11.1143 26.7933 11.4708 26.9182 11.835C27.0431 12.1991 27.1758 12.5254 27.3163 12.8137C27.4567 13.0868 27.5816 13.2233 27.6909 13.2233C27.8938 13.2233 28.0655 13.1019 28.206 12.8592C28.3621 12.6012 28.487 12.3129 28.5806 11.9943C28.6743 11.6605 28.7445 11.3495 28.7914 11.0612C28.8382 10.7577 28.8616 10.5605 28.8616 10.4694C28.8616 10.4542 28.8616 10.4087 28.8616 10.3329C28.8772 10.2418 28.8928 10.1508 28.9084 10.0597C28.9241 9.96871 28.9319 9.88525 28.9319 9.80939C28.9475 9.73352 28.9553 9.68042 28.9553 9.65007C28.9553 9.54386 28.9319 9.47558 28.885 9.44524C28.8382 9.39972 28.8148 9.31626 28.8148 9.19488C28.8148 9.10384 28.8616 9.02039 28.9553 8.94452C29.0489 8.85349 29.2519 8.80797 29.5641 8.80797C29.6889 8.80797 29.7826 8.8459 29.845 8.92176C29.9231 8.98246 29.9777 9.05832 30.0089 9.14936C30.0402 9.2404 30.0558 9.33144 30.0558 9.42248C30.0714 9.49834 30.0792 9.55145 30.0792 9.58179C30.0792 9.59697 30.0714 9.70318 30.0558 9.90043C30.0402 10.0977 30.0245 10.3177 30.0089 10.5605C30.0089 10.7881 30.0011 11.0081 29.9855 11.2205C29.9699 11.4329 29.9621 11.5619 29.9621 11.6074C29.9621 11.6529 29.9855 11.744 30.0323 11.8805C30.0792 12.0171 30.1338 12.1612 30.1963 12.3129C30.2743 12.4495 30.3602 12.5785 30.4538 12.6999C30.5475 12.8061 30.6489 12.8592 30.7582 12.8592C30.9455 12.8592 31.1172 12.8364 31.2733 12.7909C31.445 12.7302 31.6011 12.6695 31.7416 12.6088C31.8977 12.533 32.0382 12.4723 32.1631 12.4267C32.288 12.3661 32.405 12.3357 32.5143 12.3357C32.6548 12.3357 32.7797 12.3661 32.8889 12.4267C33.0138 12.4874 33.0762 12.5633 33.0762 12.6543Z" fill="white"/>
<path d="M40.221 6.14509C40.0181 6.37269 39.7293 6.60029 39.3547 6.82788C38.98 7.0403 38.6054 7.23755 38.2308 7.41963C37.8561 7.60171 37.5283 7.76102 37.2473 7.89758C36.9664 8.01897 36.8259 8.10242 36.8259 8.14794C36.8259 8.19346 36.8571 8.33001 36.9195 8.55761C36.982 8.78521 37.0522 9.05832 37.1303 9.37696C37.2239 9.68042 37.3176 9.99905 37.4112 10.3329C37.5049 10.6667 37.583 10.9625 37.6454 11.2205C37.6766 11.3722 37.7156 11.5695 37.7625 11.8122C37.8093 12.055 37.8483 12.2978 37.8795 12.5405C37.9264 12.7833 37.9654 13.0033 37.9966 13.2006C38.0278 13.3826 38.0434 13.4813 38.0434 13.4964C38.0434 13.724 38.0044 13.9592 37.9264 14.202C37.8483 14.4448 37.7234 14.5661 37.5517 14.5661C37.4581 14.5661 37.3722 14.5282 37.2942 14.4523C37.2161 14.3765 37.1459 14.293 37.0834 14.202C37.021 14.0958 36.9742 13.9972 36.943 13.9061C36.9117 13.8151 36.8961 13.7468 36.8961 13.7013C36.8961 13.6709 36.8961 13.6254 36.8961 13.5647C36.9117 13.504 36.9195 13.4358 36.9195 13.3599C36.9195 13.0716 36.8727 12.6543 36.779 12.1081C36.7478 11.9412 36.6854 11.6833 36.5917 11.3343C36.4981 10.9853 36.4044 10.6287 36.3108 10.2646C36.2015 9.83974 36.0766 9.37696 35.9361 8.87625C35.8737 8.66382 35.8347 8.55761 35.8191 8.55761C35.7098 8.55761 35.5225 8.62589 35.2571 8.76245C35.0073 8.88383 34.7186 9.04315 34.3908 9.2404C34.063 9.42248 33.7195 9.62731 33.3605 9.85491C33.0015 10.0673 32.6659 10.2722 32.3537 10.4694C32.0415 10.6515 31.7761 10.8108 31.5576 10.9474C31.3234 11.0688 31.183 11.1294 31.1361 11.1294C30.9332 11.1294 30.7693 11.0612 30.6444 10.9246C30.5195 10.7881 30.4571 10.6363 30.4571 10.4694C30.4571 10.3784 30.5898 10.2494 30.8552 10.0825C31.1049 9.90043 31.4249 9.70318 31.8152 9.49075C32.1898 9.27833 32.6034 9.05832 33.0561 8.83073C33.4932 8.60313 33.8991 8.39829 34.2737 8.21622C34.6639 8.03414 34.9839 7.88241 35.2337 7.76102C35.4991 7.63964 35.6317 7.57895 35.6317 7.57895C35.4912 6.88099 35.3742 6.25889 35.2805 5.71266C35.2025 5.2423 35.1244 4.80986 35.0464 4.41536C34.9839 4.02086 34.9527 3.80844 34.9527 3.77809C34.9527 3.58084 34.9917 3.4367 35.0698 3.34566C35.1634 3.23945 35.2649 3.18634 35.3742 3.18634C35.5459 3.18634 35.6551 3.30014 35.702 3.52774C35.8737 4.34708 36.0298 5.07539 36.1703 5.71266C36.3264 6.34993 36.4747 6.86581 36.6151 7.26031C36.7556 7.22997 36.9976 7.14652 37.341 7.00996C37.6844 6.85823 38.0434 6.69891 38.4181 6.53201C38.7927 6.3651 39.1283 6.22096 39.4249 6.09957C39.7371 5.96302 39.9166 5.89474 39.9634 5.89474C40.0571 5.89474 40.1117 5.92508 40.1273 5.98578C40.1586 6.04647 40.1898 6.09957 40.221 6.14509Z" fill="white"/>
<path d="M61.5845 14.293C61.5845 14.4144 61.5454 14.5206 61.4674 14.6117C61.3893 14.7027 61.2957 14.7786 61.1864 14.8393C61.0771 14.8848 60.9601 14.9227 60.8352 14.9531C60.7259 14.9834 60.6323 14.9986 60.5542 14.9986C60.2264 14.9986 59.9454 14.8317 59.7113 14.4979C59.4771 14.1489 59.282 13.7696 59.1259 13.3599C58.9698 12.935 58.8527 12.5405 58.7747 12.1764C58.7123 11.8122 58.681 11.615 58.681 11.5846C58.5874 11.7515 58.4859 12.0322 58.3767 12.4267C58.283 12.8212 58.1659 13.2233 58.0254 13.633C57.8849 14.0275 57.7054 14.3841 57.4869 14.7027C57.284 15.0062 57.0186 15.1579 56.6908 15.1579C56.5347 15.1579 56.3864 15.0669 56.2459 14.8848C56.1054 14.7027 55.9728 14.4675 55.8479 14.1792C55.723 13.8909 55.5981 13.5647 55.4732 13.2006C55.364 12.8364 55.2469 12.4798 55.122 12.1309C55.0128 11.7819 54.9035 11.4557 54.7942 11.1522C54.685 10.8336 54.5757 10.5832 54.4664 10.4011C54.3728 10.6287 54.2869 10.9398 54.2089 11.3343C54.1464 11.7288 54.0918 12.146 54.045 12.5861C53.9981 13.0109 53.9591 13.4358 53.9279 13.8606C53.8967 14.2854 53.881 14.6572 53.881 14.9758C53.881 15.1882 53.8186 15.34 53.6937 15.431C53.5845 15.522 53.4674 15.5676 53.3425 15.5676C53.1708 15.5676 52.9991 15.4614 52.8274 15.2489C52.6557 15.0213 52.484 14.733 52.3123 14.3841C52.1406 14.0351 51.9767 13.6406 51.8206 13.2006C51.6801 12.7606 51.5474 12.3205 51.4225 11.8805C51.3132 11.4405 51.2274 11.0232 51.165 10.6287C51.1025 10.2191 51.0713 9.87767 51.0713 9.60455C51.0713 9.4073 51.0791 9.22523 51.0947 9.05832C51.1103 8.92177 51.1181 8.79279 51.1181 8.67141C51.1337 8.55002 51.1415 8.48175 51.1415 8.46657C51.1415 8.42105 51.1259 8.39071 51.0947 8.37553C51.0791 8.36036 51.0713 8.32243 51.0713 8.26174C51.0713 8.21622 51.1259 8.14794 51.2352 8.0569C51.3601 7.95069 51.485 7.89758 51.6098 7.89758C51.8284 7.89758 51.9689 7.9431 52.0313 8.03414C52.1093 8.12518 52.1484 8.23139 52.1484 8.35277C52.1484 8.39829 52.1406 8.46657 52.125 8.55761C52.125 8.64865 52.125 8.85349 52.125 9.17212C52.125 9.38454 52.164 9.70318 52.242 10.128C52.3201 10.5529 52.4137 10.9853 52.523 11.4253C52.6323 11.8653 52.7415 12.275 52.8508 12.6543C52.9757 13.0185 53.0771 13.2461 53.1552 13.3371C53.1864 13.2764 53.202 13.2082 53.202 13.1323C53.2176 13.0413 53.2332 12.973 53.2489 12.9275L53.5064 11.0612C53.5689 10.5908 53.6937 10.0977 53.881 9.58179C54.084 9.05074 54.2947 8.64106 54.5132 8.35277C54.5913 8.23139 54.6771 8.1707 54.7708 8.1707C54.8645 8.1707 54.9503 8.23898 55.0284 8.37553C55.2937 8.80038 55.4889 9.22523 55.6137 9.65007C55.7542 10.0597 55.8713 10.4694 55.9649 10.8791C56.0742 11.2736 56.1913 11.6757 56.3162 12.0853C56.4567 12.4798 56.6674 12.8819 56.9484 13.2916C57.0732 13.0944 57.2293 12.7757 57.4167 12.3357C57.604 11.8805 57.7913 11.4253 57.9786 10.9701C58.1815 10.5149 58.3689 10.1204 58.5406 9.78663C58.7123 9.43765 58.8449 9.26316 58.9386 9.26316C58.9854 9.26316 59.0635 9.27074 59.1727 9.28592C59.282 9.30109 59.3601 9.30868 59.4069 9.30868C59.5474 9.30868 59.6645 9.468 59.7581 9.78663C59.8518 10.0901 59.9298 10.4542 59.9923 10.8791C60.0703 11.2888 60.1406 11.706 60.203 12.1309C60.281 12.5405 60.3669 12.8516 60.4606 13.064C60.523 13.2157 60.6167 13.3599 60.7415 13.4964C60.8664 13.633 60.9913 13.762 61.1162 13.8834C61.2723 14.0199 61.4284 14.1565 61.5845 14.293Z" fill="white"/>
<path d="M69.9766 14.0427C69.9922 14.073 70 14.1185 70 14.1792C70 14.2703 69.9298 14.4068 69.7893 14.5889C69.7424 14.6496 69.641 14.7482 69.4849 14.8848C69.3288 15.0213 69.118 15.1579 68.8527 15.2945C68.5873 15.431 68.2595 15.5524 67.8693 15.6586C67.4946 15.7648 67.0498 15.8179 66.5346 15.8179C66.1756 15.8179 65.8244 15.7421 65.481 15.5903C65.1376 15.4234 64.8332 15.1882 64.5678 14.8848C64.3024 14.5661 64.0839 14.1792 63.9122 13.724C63.7405 13.2537 63.6546 12.7074 63.6546 12.0853C63.6546 11.4936 63.7327 10.9398 63.8888 10.4239C64.0449 9.90801 64.24 9.45282 64.4741 9.05832C64.7239 8.66382 64.9971 8.35277 65.2937 8.12518C65.5902 7.89758 65.879 7.78378 66.16 7.78378C66.4098 7.78378 66.6595 7.83689 66.9093 7.9431C67.1746 8.03414 67.4088 8.15552 67.6117 8.30726C67.8302 8.45899 68.0019 8.63348 68.1268 8.83073C68.2517 9.0128 68.3141 9.20247 68.3141 9.39972C68.3141 9.62731 68.2049 9.86249 67.9863 10.1053C67.7834 10.348 67.5337 10.5756 67.2371 10.7881C66.9405 10.9853 66.6439 11.1522 66.3473 11.2888C66.0507 11.4101 65.8166 11.4708 65.6449 11.4708C65.5512 11.4708 65.4654 11.4329 65.3873 11.357C65.3249 11.266 65.2937 11.1598 65.2937 11.0384C65.2937 10.826 65.3873 10.6591 65.5746 10.5377C65.7776 10.4163 65.9961 10.3101 66.2302 10.2191C66.4644 10.1129 66.6751 9.99147 66.8624 9.85491C67.0654 9.71835 67.1668 9.52869 67.1668 9.28592C67.1668 9.25557 67.1278 9.17971 67.0498 9.05832C66.9717 8.93694 66.761 8.87625 66.4176 8.87625C66.2615 8.87625 66.082 8.96728 65.879 9.14936C65.6761 9.31626 65.481 9.55145 65.2937 9.85491C65.1063 10.1432 64.9502 10.4922 64.8254 10.9018C64.7005 11.2963 64.638 11.7288 64.638 12.1991C64.638 12.5936 64.7083 12.9502 64.8488 13.2688C65.0049 13.5875 65.2 13.8606 65.4341 14.0882C65.6683 14.3006 65.9415 14.4675 66.2537 14.5889C66.5659 14.7103 66.8859 14.771 67.2137 14.771C67.4478 14.771 67.6976 14.7255 67.9629 14.6344C68.2439 14.5282 68.5015 14.422 68.7356 14.3158C68.9854 14.1944 69.1961 14.0882 69.3678 13.9972C69.5551 13.8909 69.6722 13.8378 69.719 13.8378C69.7658 13.8378 69.8127 13.8606 69.8595 13.9061C69.9219 13.9516 69.961 13.9972 69.9766 14.0427Z" fill="white"/>
</svg>
