<svg width="20" height="20" viewBox="0 0 20 20" fill="none" xmlns="http://www.w3.org/2000/svg">
<path fill-rule="evenodd" clip-rule="evenodd" d="M10 20C15.5228 20 20 15.5228 20 10C20 4.47715 15.5228 0 10 0C4.47715 0 0 4.47715 0 10C0 15.5228 4.47715 20 10 20ZM5.12891 6.67489C4.68908 6.23506 4.68908 5.52194 5.12891 5.08211C5.56874 4.64228 6.28186 4.64228 6.72169 5.08211L10.1289 8.48933L13.5361 5.08212C13.976 4.64228 14.6891 4.64228 15.1289 5.08212C15.5687 5.52195 15.5687 6.23506 15.1289 6.6749L11.7217 10.0821L15.2108 13.5712C15.6506 14.011 15.6506 14.7241 15.2108 15.164C14.7709 15.6038 14.0578 15.6038 13.618 15.164L10.1289 11.6749L6.67482 15.129C6.23498 15.5688 5.52187 15.5688 5.08204 15.129C4.6422 14.6892 4.6422 13.976 5.08204 13.5362L8.53613 10.0821L5.12891 6.67489Z" fill="white"/>
</svg>
