<?xml version="1.0" encoding="UTF-8" standalone="no"?>
<!DOCTYPE svg PUBLIC "-//W3C//DTD SVG 1.1//EN" "http://www.w3.org/Graphics/SVG/1.1/DTD/svg11.dtd">
<svg width="100%" height="100%" viewBox="0 0 153 107" version="1.1" xmlns="http://www.w3.org/2000/svg" xmlns:xlink="http://www.w3.org/1999/xlink" xml:space="preserve" xmlns:serif="http://www.serif.com/" style="fill-rule:evenodd;clip-rule:evenodd;stroke-linejoin:round;stroke-miterlimit:2;">
    <g transform="matrix(0.135879,0,0,0.157353,-1.77636e-15,-1.92439e-15)">
        <rect x="0" y="0" width="1126" height="680" style="fill:rgb(255,154,0);"/>
    </g>
    <g transform="matrix(0.143622,0,0,0.143622,-5.2369,1.11649)">
        <path d="M463.113,128.064C463.751,124.473 464.664,120.717 465.852,116.796C468.416,108.332 471.686,99.805 475.662,91.213C479.637,82.621 483.933,74.414 488.549,66.592C493.166,58.77 497.526,52.166 501.629,46.78C502.655,45.498 504.065,44.985 505.861,45.241C507.656,45.498 509.451,46.203 511.247,47.357C513.042,48.511 514.516,49.922 515.671,51.589C516.825,53.256 517.402,54.73 517.402,56.013C517.402,57.552 516.889,58.962 515.863,60.244C515.094,61.527 513.619,63.771 511.439,66.977C509.259,70.183 506.951,73.645 504.514,77.364C502.078,81.082 499.77,84.609 497.59,87.943C495.41,91.277 493.935,93.457 493.166,94.483C488.806,103.203 484.83,112.179 481.24,121.412C477.649,130.645 475.854,137.698 475.854,142.571C475.854,151.547 480.086,156.035 488.549,156.035C493.935,156.035 500.026,153.791 506.822,149.303C513.619,144.815 519.582,139.621 524.711,133.722C518.043,134.235 512.465,133.081 507.977,130.26C503.488,127.439 501.116,121.925 500.86,113.718C500.347,109.102 501.244,104.677 503.552,100.446C505.861,96.214 508.874,92.623 512.593,89.674C516.312,86.725 520.415,84.609 524.903,83.327C529.392,82.044 533.495,81.98 537.214,83.134C540.933,84.288 543.946,86.917 546.254,91.021C548.563,95.124 549.46,101.023 548.947,108.717C548.691,112.307 547.921,115.898 546.639,119.488C552.538,116.667 558.18,113.269 563.566,109.294C568.952,105.319 573.568,101.151 577.415,96.791L582.416,97.945C581.39,100.51 579.531,103.267 576.838,106.216C574.145,109.166 570.939,112.051 567.221,114.872C563.502,117.693 559.462,120.386 555.102,122.951C550.743,125.515 546.254,127.695 541.638,129.491C538.56,134.107 534.842,138.275 530.482,141.994C526.122,145.712 521.377,148.982 516.248,151.803C511.118,154.625 505.797,156.933 500.283,158.728C494.768,160.523 489.447,161.677 484.317,162.19C469.442,163.729 462.005,156.292 462.005,139.878C462.005,139.646 462.006,139.413 462.009,139.179C449.379,153.75 436.426,161.036 423.15,161.036C408.531,161.036 401.222,151.803 401.222,133.338C401.222,123.079 402.761,113.461 405.838,104.485C399.683,106.024 393.4,107.819 386.988,109.871C380.576,111.923 373.908,114.359 366.983,117.18C366.471,119.232 365.829,121.22 365.06,123.143L351.382,132.103C346.598,136.68 341.028,141.066 334.669,145.263C321.076,154.24 308.637,158.728 297.353,158.728C282.339,158.728 274.301,149.981 273.238,132.489C266.562,139.152 258.828,145.462 250.034,151.419C240.801,157.317 231.056,160.267 220.797,160.267C201.818,160.267 192.329,150.136 192.329,129.875C192.329,129.084 192.357,128.287 192.412,127.486C190.255,129.298 187.855,130.992 185.212,132.568C177.903,136.928 170.786,139.108 163.861,139.108C158.732,139.108 153.987,137.826 149.627,135.261C137.83,153.983 125.647,163.344 113.081,163.344C104.104,163.344 99.616,158.087 99.616,147.572C99.616,132.953 106.028,115.77 118.851,96.022C118.338,93.201 118.082,90.379 118.082,87.558C118.082,78.325 121.159,69.349 127.314,60.629C133.47,51.909 141.036,47.549 150.012,47.549C155.911,47.549 160.655,51.012 164.246,57.936C167.067,63.835 168.478,69.99 168.478,76.402C168.478,90.251 163.092,107.819 152.32,129.106C156.167,131.414 160.527,132.568 165.4,132.568C173.863,132.568 181.814,129.234 189.251,122.566C191.202,120.817 192.88,119.297 194.283,118.007C197.248,108.733 203.585,98.84 213.295,88.328C227.273,73.196 240.417,65.63 252.727,65.63C260.934,65.63 265.038,68.836 265.038,75.248C265.038,77.812 263.178,82.237 259.459,88.52C255.741,94.803 252.727,97.945 250.419,97.945C249.393,97.945 248.88,97.304 248.88,96.022C248.88,94.996 249.329,93.329 250.227,91.021C251.124,88.712 251.573,86.917 251.573,85.635C251.573,80.249 248.239,77.556 241.571,77.556C232.338,77.556 224.003,83.583 216.565,95.637C209.641,106.665 206.178,117.052 206.178,126.798C206.178,142.699 213.103,150.649 226.952,150.649C241.83,150.649 257.268,141.97 273.264,124.613C274.229,112.294 279.951,98.916 290.428,84.481C302.738,67.554 315.433,59.09 328.513,59.09C331.078,59.09 333.322,60.244 335.246,62.553C337.169,64.861 338.131,67.297 338.131,69.862C338.131,77.812 332.104,87.43 320.05,98.715C309.278,108.717 299.404,115.385 290.428,118.719C288.633,125.131 287.735,130.517 287.735,134.877C287.735,145.392 292.48,150.649 301.969,150.649C310.945,150.649 321.076,146.931 332.36,139.493C341.035,133.786 348.592,127.368 355.032,120.238L366.983,117.18C366.471,119.232 365.829,121.22 365.06,123.143C364.291,125.067 363.649,127.054 363.136,129.106C361.085,141.16 358.777,149.367 356.212,153.727C353.647,158.087 350.698,160.267 347.364,160.267C345.056,160.267 343.901,157.959 343.901,153.342C343.901,152.316 344.158,151.29 344.671,150.265C347.492,143.596 350.313,135.71 353.134,126.605C355.955,117.501 358.777,106.793 361.598,94.483C362.111,92.431 362.624,89.931 363.136,86.981C363.649,84.032 364.419,80.505 365.445,76.402C366.214,74.607 368.009,72.811 370.83,71.016C373.652,69.221 376.216,68.323 378.525,68.323C380.32,68.323 381.217,69.093 381.217,70.631C381.217,71.914 380.192,75.825 378.14,82.365C376.088,88.905 373.139,98.33 369.292,110.64C372.882,109.358 377.242,107.883 382.372,106.216C387.501,104.549 393.528,102.69 400.453,100.638C402.248,100.382 404.812,99.612 408.147,98.33C409.429,95.509 410.839,92.688 412.378,89.866C413.148,89.097 413.917,87.815 414.686,86.019C415.456,84.224 416.289,82.301 417.187,80.249C418.085,78.197 418.982,76.21 419.88,74.286C420.778,72.363 421.611,71.016 422.38,70.247C424.176,68.451 426.228,67.554 428.536,67.554C434.434,67.554 437.384,70.503 437.384,76.402C437.384,77.684 436.871,79.223 435.845,81.018C421.483,104.613 414.302,123.335 414.302,137.185C414.302,146.931 418.918,151.803 428.151,151.803C435.332,151.803 443.026,148.085 451.233,140.647C455.02,137.377 458.979,133.183 463.113,128.064ZM144.241,131.03C135.778,125.387 129.366,118.847 125.006,111.41C117.312,127.567 113.465,139.236 113.465,146.418C113.465,151.547 115.389,154.112 119.236,154.112C122.826,154.112 127.571,151.034 133.47,144.879C138.599,140.006 142.19,135.389 144.241,131.03ZM533.944,120.643C536.765,115 537.983,110.512 537.599,107.178C537.214,103.844 535.867,101.343 533.559,99.676C531.251,98.009 528.43,97.304 525.096,97.56C521.762,97.817 518.684,98.779 515.863,100.446C513.042,102.113 510.862,104.421 509.323,107.37C507.784,110.32 507.784,113.846 509.323,117.95C510.605,122.053 513.234,124.618 517.209,125.644C521.185,126.67 525.865,126.541 531.251,125.259C531.764,124.49 532.213,123.72 532.597,122.951C532.982,122.181 533.431,121.412 533.944,120.643ZM156.937,86.019C156.937,80.377 156.039,74.607 154.244,68.708C151.679,60.501 148.345,56.397 144.241,56.397C138.343,56.397 133.726,59.988 130.392,67.169C127.827,72.811 126.673,78.967 126.93,85.635C131.033,80.762 135.137,78.325 139.24,78.325C143.087,78.325 145.908,79.608 147.704,82.172L147.704,84.096C147.96,84.865 148.088,85.507 148.088,86.019C148.088,86.789 146.806,87.174 144.241,87.174C139.625,87.174 134.752,92.046 129.623,101.792C132.957,111.538 138.856,119.488 147.319,125.644C153.731,109.486 156.937,96.278 156.937,86.019ZM326.59,74.478C326.59,71.401 325.051,69.862 321.973,69.862C318.126,69.862 312.484,75.761 305.047,87.558C298.635,97.56 294.66,105.383 293.121,111.025C299.789,108.204 306.714,103.203 313.895,96.022C322.358,87.815 326.59,80.634 326.59,74.478Z" style="fill-rule:nonzero;"/>
    </g>
    <g transform="matrix(0.89692,0.202674,-0.202674,0.89692,-174.462,-69.9994)">
        <path d="M264.806,100.92C265.743,100.382 266.422,100.429 267.013,100.17C267.605,99.905 267.087,99.774 267.226,99.397C267.36,99.024 269.513,97.61 273.034,97.572C276.557,97.535 279.338,99.333 279.377,99.209C279.415,99.082 278.585,97.882 278.108,96.942C277.637,96.002 277.641,94.368 277.769,92.753C277.899,91.136 276.903,90.788 277.102,90.556C277.302,90.325 279.474,90.689 281.49,92.338C283.506,93.988 283.789,94.745 284.646,95.264C285.502,95.784 285.548,95.038 285.956,94.862C286.365,94.689 286.503,95.43 287.253,96.633C288,97.835 288.171,99.941 288.365,100.289C288.556,100.634 289.35,100.1 290.837,100.377C292.329,100.654 293.348,101.044 294.329,101.643C295.31,102.24 294.385,102.302 294.266,102.573C294.15,102.846 295.114,103.588 296.997,104.974C298.886,106.358 299.384,107.503 299.812,108.177C300.237,108.848 299.83,109.024 299.184,108.706C298.538,108.391 296.499,108.437 295.601,108.869C294.704,109.305 292.125,109.113 291.985,109.241C291.842,109.368 293.011,110.892 293.759,112.114C294.508,113.338 294.851,115.813 294.775,116.186C294.704,116.559 294.454,116.503 294.107,117.668C293.764,118.835 294.437,122.188 294.437,122.188C294.437,122.188 293.396,121.716 292.551,120.784C291.706,119.851 290.355,119.283 290.153,119.517C289.953,119.747 289.883,120.389 288.998,119.521C288.117,118.649 287.33,117.655 287,117.623C286.67,117.587 286.21,118.2 285.546,117.178C284.885,116.161 284.941,113.079 284.638,113.312C284.335,113.547 283.873,115.128 282.876,116.619C281.88,118.11 280.042,119.804 279.515,120.188C278.987,120.572 278.542,119.941 278.023,119.788C277.505,119.634 277.187,120.138 276.339,120.942C275.49,121.746 275.068,122.251 274.263,122.043C273.454,121.834 272.458,122.539 271.463,123.118C270.465,123.699 268.979,125.429 268.716,125.557C268.45,125.688 268.55,125.541 268.489,124.634C268.424,123.725 268.53,122.791 269.14,121.537C269.75,120.285 270.514,119.419 269.724,119.105C268.935,118.791 268.445,118.039 269.096,116.803C269.748,115.57 270.246,113.844 269.702,113.504C269.16,113.165 269.141,112.379 270.843,110.149C272.545,107.92 275.244,106.991 275.215,106.58C275.184,106.17 271.253,106.379 270.984,106.26C270.711,106.141 270.847,105.703 269.991,105.229C269.137,104.752 268.236,105.061 267.997,104.59C267.763,104.12 267.642,103.297 266.129,102.938C264.618,102.578 263.45,102.936 263.197,102.693C262.944,102.45 263.871,101.459 264.806,100.92M262.096,103.236C262.308,103.476 264.196,103.106 264.981,103.191C265.766,103.278 267.004,104.241 267.099,104.88C267.197,105.518 268.502,104.972 269.381,105.55C270.26,106.13 270.025,106.715 270.296,106.792C270.564,106.869 272.417,106.827 273.056,106.812C273.696,106.798 273.859,106.816 273.009,107.392C272.155,107.97 269.894,110.048 268.94,111.66C267.988,113.272 269.098,113.207 269.196,113.888C269.293,114.566 268.177,117.134 267.952,118.112C267.724,119.09 268.883,119.27 268.89,119.601C268.898,119.93 268.172,121.538 267.958,123.051C267.744,124.566 267.756,126.923 268.046,126.958C268.333,126.994 269.873,124.786 271.537,123.674C273.202,122.563 273.883,122.588 274.632,122.943C275.382,123.299 276.722,121.492 277.777,120.764C278.832,120.038 279.015,121.853 279.683,121.258C280.349,120.666 282.13,119.158 282.762,117.965C283.395,116.772 284.329,114.374 284.473,114.37C284.62,114.368 284.777,116.886 285.44,117.947C286.103,119.007 286.443,118.481 286.79,118.413C287.139,118.34 289.203,120.301 289.651,121.016C290.099,121.729 290.189,120.257 290.705,120.246C291.22,120.234 292.728,121.399 293.678,122.351C294.625,123.3 295.255,123.783 295.398,123.739C295.541,123.694 295.068,120.872 294.964,119.965C294.861,119.059 294.83,117.673 295.296,117.311C295.762,116.948 295.643,115.319 295.047,113.554C294.452,111.789 292.772,109.471 292.772,109.471C292.772,109.471 295.102,109.563 296.907,109.109C298.71,108.656 299.718,109.583 300.588,109.749C301.456,109.916 300.232,106.822 299.222,105.874C298.212,104.924 295.194,102.655 295.437,102.384C295.677,102.108 296.648,102.128 295.791,101.63C294.934,101.131 293.97,100.367 292.359,100.134C290.744,99.903 289.223,99.979 289.223,99.979C289.223,99.979 292.261,96.685 293.99,95.675C295.718,94.665 298.71,93.936 299.223,93.883C299.737,93.83 297.702,93.048 296.205,93.456C294.71,93.86 292.401,95.629 291.459,96.744C290.515,97.86 288.893,99.987 288.744,99.803C288.596,99.62 288.49,97.68 287.762,96.454C287.035,95.231 286.376,94.337 285.995,93.911C285.617,93.485 285.542,94.77 284.916,94.493C284.295,94.219 282.452,92.068 280.548,90.766C278.644,89.466 276.071,89.608 275.912,89.817C275.753,90.028 277.173,90.967 277.132,91.837C277.088,92.707 277.235,96.484 277.661,97.158C278.089,97.831 278.681,98.417 277.535,97.925C276.39,97.436 273.93,96.086 270.747,96.651C267.566,97.22 267.029,98.078 266.622,98.315C266.218,98.553 266.785,99.118 266.582,99.247C266.379,99.375 264.682,99.992 263.716,100.966C262.748,101.94 261.884,102.992 262.096,103.236" style="fill-rule:nonzero;"/>
    </g>
    <g transform="matrix(0.143622,0,0,0.152067,-5.2369,3.13368)">
        <path d="M169.934,439.155C151.616,439.155 134.963,435.955 119.976,429.555C104.988,423.156 92.737,413.918 83.221,401.843L121.76,355.474C135.082,373.104 149.475,381.919 164.938,381.919C175.168,381.919 182.959,378.779 188.312,372.5C193.665,366.221 196.341,357.044 196.341,344.969L196.341,235.93L109.984,235.93L109.984,180.504L266.283,180.504L266.283,340.622C266.283,373.466 258.135,398.1 241.839,414.522C225.543,430.944 201.575,439.155 169.934,439.155ZM800.481,377.209L800.481,434.084L576.739,434.084L576.739,389.164L702.705,237.379L579.95,237.379L579.95,180.504L795.128,180.504L795.128,225.424L669.162,377.209L800.481,377.209ZM1042.78,377.209L1042.78,434.084L819.037,434.084L819.037,389.164L945.003,237.379L822.248,237.379L822.248,180.504L1037.43,180.504L1037.43,225.424L911.46,377.209L1042.78,377.209ZM476.108,384.817L370.482,384.817L350.855,434.084L278.772,434.084L389.038,180.504L458.623,180.504L569.245,434.084L495.735,434.084L476.108,384.817ZM455.411,331.927L423.295,250.782L391.179,331.927L455.411,331.927Z" style="fill:white;fill-rule:nonzero;"/>
    </g>
    <g transform="matrix(0.134326,-2.02111e-37,0,0.134326,3.49551,15.9838)">
        <path d="M655.149,460.248C650.183,467.173 645.144,475.572 640.032,485.446C634.92,495.32 630.903,504.745 627.982,513.722C635.285,502.181 644.195,491.152 654.711,480.637C668.733,466.532 681.148,459.479 691.956,459.479C700.72,459.479 705.102,464.993 705.102,476.021C705.102,491.922 699.405,510.003 688.013,530.264C680.418,544.113 670.485,556.167 658.216,566.426C643.61,578.48 628.712,584.507 613.522,584.507C601.837,584.507 595.995,582.583 595.995,578.736C595.995,577.197 596.871,576.428 598.624,576.428C599.5,576.428 601.618,576.877 604.977,577.774C608.337,578.672 611.185,579.121 613.522,579.121C626.667,579.121 639.667,572.581 652.52,559.501C662.16,549.499 670.047,537.829 676.182,524.493C681.732,512.952 684.507,500.257 684.507,486.408C684.507,477.944 682.316,473.713 677.935,473.713C668.295,473.713 655.441,485.382 639.375,508.72C624.184,530.52 616.589,546.806 616.589,557.578C616.589,560.399 617.685,562.579 619.876,564.117C622.067,565.656 623.162,566.939 623.162,567.964C623.162,568.99 622.432,569.503 620.971,569.503C610.163,569.503 604.758,562.579 604.758,548.729C604.758,538.984 607.46,526.353 612.865,510.836C618.269,495.32 626.521,477.56 637.622,457.555C646.97,441.398 663.182,417.161 686.26,384.847C721.899,334.835 750.965,309.83 773.458,309.83C786.603,309.83 793.176,315.087 793.176,325.603C793.176,344.068 774.772,369.843 737.965,402.928C714.303,423.958 686.698,443.065 655.149,460.248ZM963.536,536.282C967.14,526.865 973.013,516.652 981.155,505.643C980.571,502.822 980.279,500.001 980.279,497.179C980.279,487.947 983.784,478.97 990.795,470.25C997.806,461.53 1006.42,457.17 1016.65,457.17C1023.37,457.17 1028.77,460.633 1032.86,467.557C1036.07,473.456 1037.68,479.611 1037.68,486.023C1037.68,499.872 1031.55,517.44 1019.28,538.727C1023.66,541.035 1028.62,542.189 1034.17,542.189C1043.82,542.189 1052.87,538.855 1061.34,532.187C1069.81,525.519 1073.76,522.185 1073.17,522.185C1075.22,522.185 1076.24,523.083 1076.24,524.878C1076.24,525.391 1075.95,525.904 1075.36,526.417C1071.28,532.572 1065.07,537.829 1056.74,542.189C1048.42,546.549 1040.31,548.729 1032.42,548.729C1026.58,548.729 1021.18,547.447 1016.21,544.882C1002.77,563.604 988.897,572.966 974.583,572.966C964.358,572.966 959.246,567.708 959.246,557.193C959.246,554.86 959.432,552.461 959.805,549.997C945.798,563.77 931.444,570.657 916.743,570.657C900.092,570.657 891.767,561.425 891.767,542.959C891.767,532.7 893.519,523.083 897.025,514.106C890.014,515.645 882.857,517.44 875.554,519.492C868.251,521.544 860.656,523.98 852.769,526.801C852.184,528.853 851.454,530.841 850.578,532.764L832.143,549.045C828.931,552.178 825.582,555.15 822.096,557.962C808.074,569.247 794.929,574.889 782.66,574.889C766.301,574.889 758.122,565.913 758.122,547.96C758.122,543.856 760.312,535.778 764.694,523.724C754.47,536.804 747.897,544.882 744.976,547.96C735.336,557.962 726.719,562.963 719.123,562.963C709.484,562.963 704.664,555.782 704.664,541.42C704.664,533.213 707.731,523.339 713.865,511.798C720.584,498.462 727.887,491.794 735.774,491.794C740.156,491.794 742.347,492.819 742.347,494.871C742.347,495.128 738.623,500.962 731.173,512.375C723.724,523.788 720,532.572 720,538.727C720,546.934 722.775,551.038 728.325,551.038C737.673,551.038 754.47,532.315 778.716,494.871C780.761,491.281 783.828,486.28 787.918,479.868C789.963,477.816 792.154,476.79 794.491,476.79C797.12,476.79 799.53,477.752 801.721,479.675C803.911,481.599 805.007,483.843 805.007,486.408C805.007,486.151 799.822,494.743 789.451,512.183C779.081,529.623 773.896,543.087 773.896,552.576C773.896,561.553 778.716,566.041 788.356,566.041C796.535,566.041 805.883,561.937 816.4,553.73C822.908,548.731 830.171,541.742 838.19,532.763L852.769,526.801C852.184,528.853 851.454,530.841 850.578,532.764C849.701,534.688 848.971,536.675 848.387,538.727C846.05,550.781 843.421,558.988 840.499,563.348C837.578,567.708 834.219,569.888 830.421,569.888C827.792,569.888 826.478,567.58 826.478,562.963C826.478,561.937 826.77,560.912 827.354,559.886C830.567,553.218 833.781,545.331 836.994,536.227C840.207,527.122 843.421,516.414 846.634,504.104C847.218,502.052 847.802,499.552 848.387,496.602C848.971,493.653 849.847,490.127 851.016,486.023C851.892,484.228 853.937,482.432 857.15,480.637C860.364,478.842 863.285,477.944 865.914,477.944C867.959,477.944 868.981,478.714 868.981,480.253C868.981,481.535 867.813,485.446 865.476,491.986C863.139,498.526 859.779,507.951 855.398,520.261C859.487,518.979 864.453,517.504 870.296,515.837C876.138,514.17 883.003,512.311 890.89,510.259C892.935,510.003 895.856,509.233 899.654,507.951C901.114,505.13 902.721,502.309 904.474,499.488C905.35,498.718 906.227,497.436 907.103,495.641C907.979,493.845 908.929,491.922 909.951,489.87C910.974,487.818 911.996,485.831 913.018,483.907C914.041,481.984 914.99,480.637 915.867,479.868C917.911,478.073 920.248,477.175 922.877,477.175C929.596,477.175 932.956,480.124 932.956,486.023C932.956,487.305 932.371,488.844 931.203,490.639C914.844,514.234 906.665,532.957 906.665,546.806C906.665,556.552 911.923,561.425 922.439,561.425C930.619,561.425 939.382,557.706 948.73,550.268C953.431,546.704 958.367,542.041 963.536,536.282ZM1010.08,540.651C1000.44,535.008 993.132,528.468 988.166,521.031C979.403,537.188 975.021,548.858 975.021,556.039C975.021,561.168 977.212,563.733 981.594,563.733C985.683,563.733 991.088,560.655 997.806,554.5C1003.65,549.627 1007.74,545.011 1010.08,540.651ZM1024.54,495.641C1024.54,489.998 1023.51,484.228 1021.47,478.329C1018.55,470.122 1014.75,466.019 1010.08,466.019C1003.36,466.019 998.098,469.609 994.301,476.79C991.38,482.432 990.065,488.588 990.357,495.256C995.031,490.383 999.705,487.947 1004.38,487.947C1008.76,487.947 1011.97,489.229 1014.02,491.794L1014.02,493.717C1014.31,494.486 1014.46,495.128 1014.46,495.641C1014.46,496.41 1013,496.795 1010.08,496.795C1004.82,496.795 999.267,501.668 993.424,511.413C997.222,521.159 1003.94,529.11 1013.58,535.265C1020.88,519.107 1024.54,505.899 1024.54,495.641ZM784.851,332.527C784.851,327.141 782.368,324.32 777.401,324.064C769.806,324.064 757.975,329.706 741.909,340.991C713.573,360.739 689.181,391.002 668.733,431.78C665.519,438.705 663.182,444.091 661.722,447.938C682.755,437.166 707,419.854 734.46,396.003C767.469,368.048 784.266,346.889 784.851,332.527Z" style="fill-rule:nonzero;"/>
    </g>
</svg>
