<?xml version="1.0" encoding="UTF-8" standalone="no"?>
<!DOCTYPE svg PUBLIC "-//W3C//DTD SVG 1.1//EN" "http://www.w3.org/Graphics/SVG/1.1/DTD/svg11.dtd">
<svg width="100%" height="100%" viewBox="0 0 153 153" version="1.1" xmlns="http://www.w3.org/2000/svg" xmlns:xlink="http://www.w3.org/1999/xlink" xml:space="preserve" xmlns:serif="http://www.serif.com/" style="fill-rule:evenodd;clip-rule:evenodd;stroke-linejoin:round;stroke-miterlimit:2;">
    <g transform="matrix(0.993506,0,0,1.11679,0,4.00228e-14)">
        <rect x="0" y="-0" width="154" height="137" style="fill:white;"/>
    </g>
    <g transform="matrix(1.18364,0,0,1.18364,-9.90569,-10.3161)">
        <path d="M76.185,114.181L76.59,113.938C76.875,114.463 77.204,114.725 77.577,114.725C77.737,114.725 77.887,114.688 78.028,114.614C78.168,114.539 78.275,114.439 78.348,114.314C78.422,114.189 78.458,114.056 78.458,113.916C78.458,113.756 78.404,113.599 78.296,113.446C78.147,113.235 77.875,112.98 77.48,112.682C77.083,112.382 76.836,112.165 76.739,112.031C76.57,111.806 76.486,111.563 76.486,111.302C76.486,111.095 76.536,110.906 76.635,110.736C76.734,110.565 76.874,110.431 77.054,110.332C77.235,110.234 77.431,110.185 77.642,110.185C77.867,110.185 78.077,110.241 78.272,110.352C78.467,110.463 78.674,110.668 78.892,110.965L78.504,111.26C78.324,111.023 78.172,110.866 78.045,110.791C77.919,110.715 77.781,110.677 77.633,110.677C77.44,110.677 77.283,110.736 77.161,110.852C77.039,110.969 76.978,111.112 76.978,111.283C76.978,111.386 77,111.487 77.043,111.584C77.086,111.681 77.165,111.787 77.28,111.901C77.342,111.962 77.547,112.12 77.895,112.377C78.307,112.682 78.59,112.953 78.743,113.19C78.897,113.428 78.973,113.666 78.973,113.906C78.973,114.251 78.842,114.551 78.58,114.806C78.317,115.061 77.998,115.188 77.623,115.188C77.333,115.188 77.071,115.111 76.836,114.957C76.601,114.802 76.384,114.544 76.185,114.181ZM84.417,111.189L84.041,111.477C83.834,111.207 83.585,111.003 83.295,110.863C83.004,110.724 82.685,110.655 82.338,110.655C81.958,110.655 81.606,110.746 81.282,110.928C80.958,111.111 80.707,111.356 80.529,111.663C80.351,111.971 80.262,112.317 80.262,112.701C80.262,113.282 80.461,113.767 80.86,114.155C81.258,114.544 81.76,114.738 82.367,114.738C83.034,114.738 83.592,114.477 84.041,113.955L84.417,114.24C84.179,114.542 83.883,114.775 83.528,114.941C83.173,115.106 82.776,115.188 82.338,115.188C81.505,115.188 80.847,114.911 80.366,114.356C79.962,113.888 79.76,113.322 79.76,112.659C79.76,111.962 80.005,111.375 80.494,110.899C80.983,110.423 81.595,110.185 82.331,110.185C82.776,110.185 83.178,110.273 83.536,110.449C83.895,110.625 84.188,110.872 84.417,111.189ZM61.694,110.185C62.415,110.185 63.019,110.426 63.505,110.907C63.991,111.389 64.234,111.981 64.234,112.685C64.234,113.382 63.992,113.974 63.507,114.46C63.022,114.945 62.431,115.188 61.733,115.188C61.026,115.188 60.43,114.947 59.944,114.463C59.458,113.979 59.215,113.394 59.215,112.708C59.215,112.25 59.326,111.826 59.547,111.435C59.768,111.044 60.07,110.738 60.453,110.517C60.835,110.296 61.249,110.185 61.694,110.185ZM87.641,110.185C88.362,110.185 88.966,110.426 89.452,110.907C89.938,111.389 90.181,111.981 90.181,112.685C90.181,113.382 89.939,113.974 89.454,114.46C88.969,114.945 88.377,115.188 87.68,115.188C86.973,115.188 86.377,114.947 85.891,114.463C85.405,113.979 85.162,113.394 85.162,112.708C85.162,112.25 85.272,111.826 85.494,111.435C85.715,111.044 86.017,110.738 86.4,110.517C86.782,110.296 87.196,110.185 87.641,110.185ZM39.777,110.305L40.253,110.305L40.253,114.609L42.086,114.609L42.086,115.069L39.777,115.069L39.777,110.305ZM75.11,110.305L75.586,110.305L75.586,115.069L75.11,115.069L75.11,110.305ZM65.19,110.305L67.576,110.305L67.576,110.771L65.666,110.771L65.666,112.264L67.576,112.264L67.576,112.73L65.666,112.73L65.666,115.069L65.19,115.069L65.19,110.305ZM95.797,110.305L98.527,110.305L98.527,110.771L96.273,110.771L96.273,112.264L98.507,112.264L98.507,112.73L96.273,112.73L96.273,114.602L98.507,114.602L98.507,115.069L95.797,115.069L95.797,110.305ZM99.375,110.305L100.324,110.305C100.853,110.305 101.211,110.326 101.399,110.37C101.682,110.435 101.912,110.573 102.089,110.786C102.266,110.999 102.354,111.261 102.354,111.573C102.354,111.832 102.293,112.06 102.171,112.257C102.049,112.454 101.875,112.602 101.648,112.703C101.422,112.803 101.109,112.855 100.709,112.857L102.422,115.069L101.833,115.069L100.12,112.857L99.851,112.857L99.851,115.069L99.375,115.069L99.375,110.305ZM102.999,110.305L103.547,110.305L104.765,112.269L105.965,110.305L106.516,110.305L105.007,112.792L105.007,115.069L104.537,115.069L104.537,112.792L102.999,110.305ZM47.75,115.069L47.75,110.305L47.854,110.305L51.024,113.956L51.024,110.305L51.494,110.305L51.494,115.069L51.387,115.069L48.242,111.461L48.242,115.069L47.75,115.069ZM70.243,115.069L70.243,110.305L71.23,110.305C71.943,110.305 72.46,110.362 72.781,110.476C73.243,110.638 73.605,110.919 73.865,111.318C74.125,111.718 74.255,112.194 74.255,112.747C74.255,113.224 74.152,113.644 73.946,114.006C73.74,114.369 73.472,114.637 73.143,114.809C72.813,114.982 72.352,115.069 71.758,115.069L70.243,115.069ZM52.653,115.069L52.653,110.305L53.641,110.305C54.353,110.305 54.87,110.362 55.192,110.476C55.654,110.638 56.015,110.919 56.275,111.318C56.535,111.718 56.665,112.194 56.665,112.747C56.665,113.224 56.562,113.644 56.356,114.006C56.15,114.369 55.882,114.637 55.553,114.809C55.224,114.982 54.762,115.069 54.168,115.069L52.653,115.069ZM90.774,110.305L91.292,110.305L92.871,113.985L94.475,110.305L94.994,110.305L92.921,115.069L92.817,115.069L90.774,110.305ZM44.787,110.305L47.008,115.069L46.494,115.069L45.745,113.501L43.693,113.501L42.951,115.069L42.42,115.069L44.67,110.305L44.787,110.305ZM61.715,110.648C61.362,110.648 61.028,110.74 60.713,110.924C60.397,111.107 60.15,111.355 59.973,111.666C59.796,111.977 59.707,112.324 59.707,112.706C59.707,113.272 59.903,113.75 60.296,114.14C60.688,114.53 61.161,114.725 61.715,114.725C62.085,114.725 62.427,114.636 62.741,114.456C63.056,114.277 63.302,114.032 63.478,113.721C63.654,113.409 63.742,113.064 63.742,112.683C63.742,112.305 63.654,111.963 63.478,111.658C63.302,111.352 63.053,111.107 62.733,110.924C62.413,110.74 62.074,110.648 61.715,110.648ZM87.662,110.648C87.309,110.648 86.975,110.74 86.66,110.924C86.344,111.107 86.097,111.355 85.92,111.666C85.743,111.977 85.654,112.324 85.654,112.706C85.654,113.272 85.85,113.75 86.243,114.14C86.635,114.53 87.108,114.725 87.662,114.725C88.032,114.725 88.374,114.636 88.688,114.456C89.003,114.277 89.248,114.032 89.425,113.721C89.601,113.409 89.689,113.064 89.689,112.683C89.689,112.305 89.601,111.963 89.425,111.658C89.248,111.352 89,111.107 88.68,110.924C88.36,110.74 88.021,110.648 87.662,110.648ZM70.699,114.618L71.25,114.618C71.908,114.618 72.365,114.577 72.62,114.495C72.978,114.379 73.26,114.169 73.465,113.866C73.67,113.563 73.772,113.193 73.772,112.755C73.772,112.295 73.661,111.903 73.439,111.577C73.216,111.251 72.907,111.028 72.509,110.907C72.212,110.816 71.72,110.771 71.036,110.771L70.699,110.771L70.699,114.618ZM53.109,114.618L53.66,114.618C54.319,114.618 54.775,114.577 55.03,114.495C55.388,114.379 55.67,114.169 55.875,113.866C56.08,113.563 56.183,113.193 56.183,112.755C56.183,112.295 56.072,111.903 55.849,111.577C55.627,111.251 55.317,111.028 54.92,110.907C54.622,110.816 54.131,110.771 53.446,110.771L53.109,110.771L53.109,114.618ZM44.727,111.317L43.91,113.041L45.539,113.041L44.727,111.317ZM99.851,110.771L99.851,112.39L100.672,112.397C100.99,112.397 101.225,112.367 101.377,112.306C101.53,112.246 101.649,112.149 101.734,112.016C101.819,111.884 101.862,111.735 101.862,111.571C101.862,111.411 101.819,111.266 101.732,111.135C101.646,111.005 101.532,110.911 101.392,110.855C101.251,110.799 101.018,110.771 100.691,110.771L99.851,110.771Z" style="fill:rgb(0,77,159);fill-rule:nonzero;"/>
    </g>
    <g transform="matrix(1.18364,0,0,1.18364,-9.90569,-10.3161)">
        <path d="M76.519,124.135C75.192,124.135 74.22,125.165 74.22,126.743C74.22,128.247 75.133,129.27 76.452,129.27C77.72,129.27 78.759,128.357 78.759,126.654C78.759,125.173 77.883,124.135 76.519,124.135ZM42.244,128.519C41.986,128.645 41.588,128.726 41.19,128.726C39.989,128.726 39.289,127.952 39.289,126.728C39.289,125.423 40.063,124.679 41.227,124.679C41.64,124.679 41.986,124.767 42.222,124.885L42.384,124.363C42.214,124.274 41.817,124.142 41.205,124.142C39.665,124.142 38.612,125.188 38.612,126.75C38.612,128.387 39.657,129.27 41.057,129.27C41.662,129.27 42.141,129.152 42.369,129.035L42.244,128.519ZM104.39,128.946C104.655,129.123 105.177,129.27 105.657,129.27C106.829,129.27 107.388,128.6 107.388,127.834C107.388,127.104 106.969,126.699 106.129,126.374C105.443,126.109 105.141,125.88 105.141,125.416C105.141,125.077 105.399,124.672 106.077,124.672C106.527,124.672 106.858,124.812 107.013,124.908L107.189,124.385C106.976,124.26 106.601,124.142 106.099,124.142C105.133,124.142 104.493,124.716 104.493,125.49C104.493,126.183 104.993,126.61 105.804,126.905C106.475,127.156 106.741,127.428 106.741,127.885C106.741,128.387 106.357,128.733 105.701,128.733C105.259,128.733 104.846,128.593 104.559,128.409L104.39,128.946ZM59.673,129.174C59.997,129.211 60.372,129.233 60.837,129.233C61.802,129.233 62.569,128.983 63.041,128.519C63.497,128.062 63.755,127.399 63.755,126.588C63.755,125.785 63.497,125.21 63.048,124.804C62.613,124.407 61.957,124.186 61.036,124.186C60.527,124.186 60.063,124.23 59.673,124.297L59.673,129.174ZM45.774,127.627L46.305,129.189L46.99,129.189L45.295,124.223L44.529,124.223L42.834,129.189L43.497,129.189L44.013,127.627L45.774,127.627ZM101.965,129.189L102.613,129.189L102.613,124.767L104.131,124.767L104.131,124.223L100.455,124.223L100.455,124.767L101.965,124.767L101.965,129.189ZM68.988,129.189L69.628,129.189L69.628,127.037L70.233,127.037C70.815,127.059 71.088,127.317 71.235,128.003C71.368,128.622 71.479,129.042 71.56,129.189L72.222,129.189C72.119,128.997 72.001,128.518 71.839,127.826C71.721,127.31 71.493,126.956 71.117,126.824L71.117,126.802C71.633,126.625 72.045,126.19 72.045,125.542C72.045,125.151 71.898,124.812 71.655,124.591C71.353,124.319 70.904,124.186 70.218,124.186C69.783,124.186 69.312,124.23 68.988,124.289L68.988,129.189ZM96.776,129.189L96.776,127.067C96.776,126.241 96.769,125.644 96.732,125.018L96.754,125.011C96.998,125.549 97.329,126.116 97.676,126.669L99.253,129.189L99.901,129.189L99.901,124.223L99.298,124.223L99.298,126.3C99.298,127.075 99.312,127.679 99.371,128.342L99.349,128.35C99.121,127.841 98.826,127.318 98.465,126.736L96.88,124.223L96.173,124.223L96.173,129.189L96.776,129.189ZM90.233,129.189L92.009,124.223L91.323,124.223L90.483,126.677C90.255,127.326 90.056,127.952 89.916,128.527L89.901,128.527C89.761,127.945 89.577,127.34 89.371,126.67L88.597,124.223L87.897,124.223L89.526,129.189L90.233,129.189ZM79.585,129.189L80.232,129.189L80.232,126.941L82.104,126.941L82.104,126.412L80.232,126.412L80.232,124.76L82.259,124.76L82.259,124.223L79.585,124.223L79.585,129.189ZM55.428,129.189L55.428,127.067C55.428,126.241 55.42,125.644 55.383,125.018L55.405,125.011C55.649,125.549 55.98,126.116 56.327,126.669L57.905,129.189L58.552,129.189L58.552,124.223L57.949,124.223L57.949,126.3C57.949,127.075 57.963,127.679 58.022,128.342L58,128.35C57.772,127.841 57.477,127.318 57.116,126.736L55.531,124.223L54.824,124.223L54.824,129.189L55.428,129.189ZM67.042,127.627L67.572,129.189L68.257,129.189L66.563,124.223L65.797,124.223L64.102,129.189L64.765,129.189L65.281,127.627L67.042,127.627ZM53.762,126.331L51.839,126.331L51.839,124.76L53.88,124.76L53.88,124.223L51.191,124.223L51.191,129.189L53.991,129.189L53.991,128.652L51.839,128.652L51.839,126.86L53.762,126.86L53.762,126.331ZM95.111,126.331L93.188,126.331L93.188,124.76L95.229,124.76L95.229,124.223L92.54,124.223L92.54,129.189L95.339,129.189L95.339,128.652L93.188,128.652L93.188,126.86L95.111,126.86L95.111,126.331ZM87.307,126.331L85.384,126.331L85.384,124.76L87.425,124.76L87.425,124.223L84.736,124.223L84.736,129.189L87.535,129.189L87.535,128.652L85.384,128.652L85.384,126.86L87.307,126.86L87.307,126.331ZM47.713,129.189L50.483,129.189L50.483,128.652L48.36,128.652L48.36,124.223L47.713,124.223L47.713,129.189ZM76.497,124.657C77.566,124.657 78.082,125.689 78.082,126.684C78.082,127.812 77.507,128.748 76.489,128.748C75.472,128.748 74.897,127.797 74.897,126.728C74.897,125.645 75.428,124.657 76.497,124.657ZM60.313,124.76C60.483,124.723 60.734,124.694 61.065,124.694C62.422,124.694 63.085,125.438 63.078,126.61C63.078,127.952 62.341,128.718 60.962,128.718C60.711,128.718 60.476,128.711 60.313,128.689L60.313,124.76ZM44.146,127.127L44.632,125.69C44.735,125.387 44.809,125.077 44.883,124.79L44.897,124.79C44.971,125.077 45.045,125.372 45.155,125.696L45.649,127.127L44.146,127.127ZM65.414,127.127L65.9,125.69C66.003,125.387 66.077,125.077 66.15,124.79L66.165,124.79C66.239,125.077 66.312,125.372 66.423,125.696L66.916,127.127L65.414,127.127ZM69.628,124.738C69.739,124.709 69.953,124.686 70.262,124.686C70.941,124.686 71.405,124.967 71.405,125.608C71.405,126.176 70.97,126.552 70.284,126.552L69.628,126.552L69.628,124.738ZM55.462,99.066L55.462,103.942C55.462,106.521 56.738,107.477 58.433,107.477C60.227,107.477 61.565,106.447 61.565,103.905L61.565,99.066L60.485,99.066L60.485,103.979C60.485,105.796 59.687,106.607 58.47,106.607C57.364,106.607 56.541,105.821 56.541,103.979L56.541,99.066L55.462,99.066ZM48.817,107.318C49.173,107.367 49.737,107.416 50.474,107.416C51.826,107.416 52.76,107.171 53.324,106.644C53.754,106.251 54.036,105.698 54.036,104.985C54.036,103.756 53.116,103.106 52.33,102.922L52.33,102.885C53.189,102.578 53.729,101.878 53.729,101.067C53.729,100.416 53.459,99.924 53.03,99.605C52.526,99.188 51.838,99.004 50.769,99.004C50.032,99.004 49.283,99.078 48.817,99.188L48.817,107.318ZM89.446,99.066L89.446,107.342L90.526,107.342L90.526,99.066L89.446,99.066ZM63.421,107.342L64.488,107.342L64.488,103.756L65.495,103.756C66.466,103.793 66.921,104.223 67.167,105.365C67.388,106.397 67.572,107.097 67.707,107.342L68.811,107.342C68.639,107.023 68.443,106.225 68.173,105.07C67.977,104.21 67.596,103.621 66.97,103.4L66.97,103.364C67.829,103.069 68.516,102.345 68.516,101.263C68.516,100.612 68.271,100.047 67.866,99.679C67.363,99.225 66.614,99.004 65.471,99.004C64.746,99.004 63.96,99.078 63.421,99.176L63.421,107.342ZM84.927,107.342L86.006,107.342L86.006,99.973L88.536,99.973L88.536,99.066L82.409,99.066L82.409,99.973L84.927,99.973L84.927,107.342ZM97.146,104.739L98.03,107.342L99.172,107.342L96.348,99.066L95.071,99.066L92.247,107.342L93.352,107.342L94.211,104.739L97.146,104.739ZM73.552,107.342L73.552,103.818L76.315,99.066L75.112,99.066L73.92,101.35C73.601,101.976 73.307,102.516 73.086,103.057L73.061,103.057C72.804,102.48 72.546,101.976 72.239,101.35L71.072,99.066L69.844,99.066L72.473,103.83L72.473,107.342L73.552,107.342ZM81.548,104.739L82.432,107.342L83.574,107.342L80.75,99.066L79.473,99.066L76.649,107.342L77.754,107.342L78.613,104.739L81.548,104.739ZM49.884,103.375L50.769,103.375C51.936,103.375 52.907,103.854 52.907,104.973C52.907,106.177 51.887,106.582 50.781,106.582C50.4,106.582 50.105,106.57 49.884,106.533L49.884,103.375ZM94.433,103.905L95.243,101.51C95.415,101.005 95.538,100.489 95.66,100.01L95.685,100.01C95.808,100.489 95.931,100.981 96.115,101.521L96.937,103.905L94.433,103.905ZM78.834,103.905L79.645,101.51C79.817,101.005 79.939,100.489 80.062,100.01L80.087,100.01C80.21,100.489 80.332,100.981 80.517,101.521L81.339,103.905L78.834,103.905ZM64.488,99.924C64.672,99.875 65.028,99.838 65.545,99.838C66.675,99.838 67.449,100.305 67.449,101.374C67.449,102.32 66.724,102.947 65.581,102.947L64.488,102.947L64.488,99.924ZM49.884,99.899C50.056,99.863 50.339,99.826 50.831,99.826C51.912,99.826 52.637,100.219 52.637,101.177C52.637,101.976 51.973,102.578 50.855,102.578L49.884,102.578L49.884,99.899Z" style="fill-rule:nonzero;"/>
    </g>
    <g transform="matrix(1.14155,0,0,1.14155,-6.83297,-0.968785)">
        <g transform="matrix(46.897,0,0,-46.897,70.2236,14.7846)">
            <path d="M0.927,0.073C0.91,0.052 0.921,0.019 0.898,0.001C0.903,-0.016 0.887,-0.02 0.88,-0.03C0.859,-0.042 0.845,-0.063 0.822,-0.073C0.81,-0.076 0.799,-0.081 0.787,-0.086C0.778,-0.081 0.767,-0.085 0.762,-0.094C0.75,-0.097 0.738,-0.099 0.725,-0.102C0.717,-0.114 0.702,-0.118 0.689,-0.12C0.684,-0.131 0.672,-0.131 0.66,-0.13C0.651,-0.129 0.641,-0.129 0.634,-0.134C0.624,-0.14 0.613,-0.134 0.602,-0.134C0.593,-0.134 0.584,-0.136 0.575,-0.137C0.562,-0.139 0.549,-0.141 0.536,-0.139C0.495,-0.14 0.451,-0.143 0.414,-0.124C0.4,-0.104 0.378,-0.094 0.359,-0.08C0.35,-0.081 0.339,-0.08 0.336,-0.07C0.32,-0.072 0.304,-0.077 0.292,-0.064C0.281,-0.067 0.27,-0.066 0.259,-0.064C0.247,-0.063 0.236,-0.061 0.224,-0.064C0.202,-0.058 0.2,-0.034 0.191,-0.016C0.175,-0.016 0.175,0 0.173,0.012C0.166,0.016 0.16,0.021 0.159,0.03C0.144,0.027 0.134,0.036 0.123,0.043C0.116,0.045 0.105,0.043 0.105,0.053C0.102,0.048 0.092,0.046 0.095,0.039C0.099,0.031 0.091,0.026 0.084,0.026C0.088,0.037 0.087,0.059 0.07,0.054C0.069,0.046 0.074,0.031 0.061,0.036C0.073,0.057 0.046,0.065 0.029,0.067C0.034,0.054 0.026,0.041 0.024,0.027C0.019,0.025 0.019,0.03 0.02,0.036C0.02,0.04 0.02,0.045 0.015,0.044C0.001,0.046 -0.006,0.069 -0.021,0.057C-0.023,0.049 -0.012,0.038 -0.022,0.032C-0.028,0.028 -0.032,0.021 -0.028,0.014C-0.022,0.003 -0.038,-0.001 -0.044,-0.009C-0.038,-0.008 -0.035,-0.011 -0.035,-0.014C-0.034,-0.018 -0.037,-0.021 -0.043,-0.019C-0.049,-0.019 -0.049,-0.023 -0.048,-0.028C-0.048,-0.033 -0.048,-0.037 -0.053,-0.037C-0.068,-0.037 -0.066,-0.058 -0.062,-0.069C-0.068,-0.068 -0.076,-0.063 -0.077,-0.072C-0.082,-0.076 -0.097,-0.085 -0.084,-0.088C-0.091,-0.094 -0.101,-0.096 -0.111,-0.097C-0.11,-0.11 -0.126,-0.111 -0.12,-0.125C-0.137,-0.132 -0.155,-0.14 -0.168,-0.152C-0.177,-0.144 -0.191,-0.147 -0.195,-0.159C-0.2,-0.159 -0.205,-0.158 -0.211,-0.158C-0.224,-0.156 -0.238,-0.155 -0.24,-0.17C-0.256,-0.159 -0.273,-0.171 -0.289,-0.174C-0.289,-0.176 -0.29,-0.181 -0.29,-0.184C-0.304,-0.177 -0.311,-0.191 -0.318,-0.199C-0.347,-0.186 -0.34,-0.207 -0.333,-0.216C-0.341,-0.218 -0.348,-0.221 -0.355,-0.221C-0.359,-0.231 -0.373,-0.225 -0.379,-0.233C-0.38,-0.239 -0.38,-0.244 -0.379,-0.249C-0.397,-0.244 -0.404,-0.266 -0.411,-0.278C-0.428,-0.272 -0.427,-0.3 -0.42,-0.309C-0.422,-0.309 -0.427,-0.309 -0.429,-0.309C-0.423,-0.318 -0.429,-0.32 -0.437,-0.319C-0.432,-0.327 -0.449,-0.342 -0.438,-0.342C-0.447,-0.348 -0.444,-0.362 -0.433,-0.363C-0.432,-0.37 -0.44,-0.387 -0.43,-0.387C-0.432,-0.396 -0.427,-0.403 -0.42,-0.409C-0.416,-0.415 -0.414,-0.425 -0.407,-0.427C-0.404,-0.433 -0.402,-0.441 -0.395,-0.443C-0.385,-0.446 -0.383,-0.458 -0.371,-0.455C-0.369,-0.474 -0.338,-0.472 -0.325,-0.473C-0.325,-0.475 -0.325,-0.479 -0.325,-0.481C-0.294,-0.486 -0.264,-0.501 -0.232,-0.501C-0.231,-0.503 -0.229,-0.506 -0.229,-0.508C-0.216,-0.504 -0.2,-0.506 -0.191,-0.516C-0.16,-0.531 -0.127,-0.539 -0.096,-0.552C-0.094,-0.558 -0.09,-0.557 -0.086,-0.556C-0.082,-0.556 -0.078,-0.555 -0.076,-0.559C-0.055,-0.581 -0.024,-0.587 0.003,-0.599C0.026,-0.613 0.049,-0.63 0.078,-0.625C0.094,-0.621 0.116,-0.628 0.126,-0.612C0.13,-0.616 0.132,-0.613 0.133,-0.61C0.134,-0.607 0.136,-0.605 0.138,-0.605C0.155,-0.604 0.167,-0.594 0.179,-0.584C0.187,-0.582 0.197,-0.57 0.203,-0.561C0.217,-0.552 0.235,-0.547 0.243,-0.532C0.258,-0.528 0.272,-0.512 0.283,-0.5C0.291,-0.493 0.301,-0.485 0.301,-0.473C0.303,-0.471 0.306,-0.467 0.308,-0.465C0.31,-0.451 0.332,-0.449 0.323,-0.432C0.329,-0.424 0.342,-0.409 0.327,-0.402C0.335,-0.39 0.334,-0.375 0.323,-0.365C0.323,-0.363 0.323,-0.359 0.323,-0.357C0.313,-0.354 0.314,-0.341 0.31,-0.333C0.306,-0.321 0.293,-0.314 0.29,-0.302C0.288,-0.293 0.275,-0.299 0.274,-0.291C0.276,-0.28 0.261,-0.284 0.258,-0.275C0.248,-0.27 0.232,-0.273 0.227,-0.261C0.212,-0.263 0.189,-0.264 0.18,-0.251C0.181,-0.262 0.168,-0.262 0.168,-0.251C0.161,-0.25 0.153,-0.251 0.145,-0.252C0.139,-0.253 0.132,-0.254 0.126,-0.253C0.12,-0.247 0.113,-0.246 0.106,-0.25C0.091,-0.247 0.076,-0.247 0.062,-0.246C0.062,-0.262 0.054,-0.248 0.047,-0.247C0.041,-0.256 0.034,-0.25 0.027,-0.245C0.02,-0.239 0.014,-0.234 0.014,-0.245L-0.006,-0.245C-0.007,-0.229 -0.032,-0.239 -0.016,-0.25C-0.023,-0.25 -0.031,-0.25 -0.032,-0.258C-0.045,-0.255 -0.054,-0.259 -0.058,-0.269C-0.064,-0.275 -0.075,-0.288 -0.081,-0.294C-0.09,-0.296 -0.097,-0.3 -0.103,-0.307C-0.112,-0.305 -0.103,-0.322 -0.112,-0.324C-0.118,-0.329 -0.133,-0.33 -0.129,-0.342C-0.142,-0.346 -0.145,-0.355 -0.14,-0.367C-0.142,-0.369 -0.146,-0.372 -0.148,-0.373C-0.144,-0.382 -0.14,-0.391 -0.134,-0.4C-0.138,-0.413 -0.124,-0.427 -0.112,-0.427C-0.114,-0.436 -0.107,-0.437 -0.1,-0.439C-0.093,-0.446 -0.088,-0.456 -0.076,-0.456C-0.077,-0.464 -0.069,-0.464 -0.063,-0.466C-0.051,-0.477 -0.04,-0.48 -0.025,-0.486C0.016,-0.508 0.064,-0.512 0.109,-0.51C0.11,-0.512 0.111,-0.516 0.112,-0.518C0.121,-0.522 0.126,-0.517 0.13,-0.512C0.135,-0.507 0.14,-0.503 0.151,-0.508L0.153,-0.503C0.162,-0.503 0.174,-0.492 0.175,-0.482C0.189,-0.484 0.189,-0.463 0.182,-0.455C0.197,-0.452 0.189,-0.436 0.182,-0.428C0.169,-0.428 0.157,-0.427 0.147,-0.419C0.137,-0.424 0.126,-0.422 0.116,-0.419C0.104,-0.416 0.092,-0.412 0.083,-0.422C0.101,-0.421 0.113,-0.435 0.126,-0.445C0.115,-0.449 0.103,-0.445 0.092,-0.45C0.074,-0.448 0.059,-0.436 0.043,-0.428C0.035,-0.418 0.024,-0.408 0.014,-0.401C0.03,-0.388 0.001,-0.383 0.009,-0.369C0.003,-0.359 0.016,-0.361 0.013,-0.352C0.021,-0.346 0.024,-0.337 0.03,-0.33C0.037,-0.336 0.042,-0.324 0.048,-0.32C0.059,-0.321 0.08,-0.332 0.08,-0.314C0.092,-0.327 0.11,-0.322 0.126,-0.326C0.16,-0.334 0.198,-0.341 0.224,-0.364C0.228,-0.369 0.228,-0.381 0.236,-0.376C0.238,-0.378 0.243,-0.382 0.245,-0.383C0.241,-0.395 0.249,-0.407 0.252,-0.418C0.238,-0.421 0.255,-0.449 0.237,-0.454C0.242,-0.467 0.241,-0.48 0.228,-0.487C0.226,-0.487 0.223,-0.487 0.221,-0.487C0.222,-0.503 0.202,-0.505 0.2,-0.52C0.188,-0.514 0.183,-0.522 0.177,-0.53C0.171,-0.537 0.166,-0.543 0.157,-0.542C0.15,-0.551 0.133,-0.546 0.128,-0.56C0.126,-0.558 0.122,-0.556 0.12,-0.555C0.121,-0.565 0.118,-0.574 0.114,-0.56C0.106,-0.556 0.103,-0.561 0.1,-0.566C0.097,-0.572 0.094,-0.578 0.08,-0.568C0.078,-0.556 0.067,-0.557 0.056,-0.557C0.052,-0.557 0.048,-0.558 0.044,-0.557C0.043,-0.551 0.04,-0.552 0.037,-0.553C0.035,-0.553 0.032,-0.554 0.03,-0.553C-0.008,-0.539 -0.052,-0.533 -0.085,-0.51C-0.084,-0.503 -0.093,-0.501 -0.098,-0.499C-0.121,-0.492 -0.134,-0.467 -0.158,-0.462C-0.164,-0.448 -0.182,-0.441 -0.194,-0.433C-0.193,-0.426 -0.203,-0.423 -0.207,-0.418C-0.213,-0.415 -0.214,-0.405 -0.221,-0.405C-0.219,-0.392 -0.226,-0.38 -0.24,-0.379C-0.234,-0.368 -0.247,-0.371 -0.247,-0.365C-0.231,-0.365 -0.248,-0.357 -0.25,-0.35C-0.248,-0.339 -0.236,-0.343 -0.231,-0.335C-0.229,-0.33 -0.222,-0.323 -0.231,-0.319C-0.218,-0.314 -0.21,-0.301 -0.205,-0.292C-0.21,-0.284 -0.197,-0.287 -0.192,-0.285C-0.183,-0.288 -0.174,-0.28 -0.174,-0.27C-0.164,-0.269 -0.157,-0.258 -0.147,-0.262C-0.141,-0.263 -0.138,-0.255 -0.134,-0.253C-0.13,-0.253 -0.127,-0.252 -0.124,-0.25C-0.121,-0.248 -0.117,-0.246 -0.113,-0.248C-0.106,-0.251 -0.106,-0.241 -0.102,-0.238C-0.088,-0.241 -0.079,-0.238 -0.075,-0.228C-0.068,-0.229 -0.06,-0.228 -0.061,-0.219C-0.051,-0.223 -0.041,-0.222 -0.032,-0.217C-0.032,-0.21 -0.026,-0.211 -0.022,-0.212C-0.017,-0.213 -0.013,-0.214 -0.018,-0.204C-0.011,-0.2 -0.006,-0.2 -0.007,-0.209C-0.005,-0.197 0.027,-0.207 0.018,-0.197C0.017,-0.187 0.022,-0.188 0.027,-0.189C0.031,-0.19 0.035,-0.191 0.035,-0.186C0.065,-0.182 0.095,-0.185 0.125,-0.182L0.123,-0.179C0.135,-0.187 0.148,-0.186 0.162,-0.185C0.174,-0.185 0.186,-0.184 0.197,-0.19C0.218,-0.186 0.239,-0.194 0.258,-0.203C0.264,-0.217 0.282,-0.214 0.29,-0.225C0.298,-0.228 0.302,-0.236 0.31,-0.238C0.306,-0.253 0.318,-0.261 0.329,-0.268C0.332,-0.274 0.331,-0.284 0.337,-0.287C0.341,-0.294 0.339,-0.307 0.347,-0.309C0.348,-0.322 0.36,-0.328 0.362,-0.34C0.359,-0.355 0.36,-0.371 0.361,-0.386C0.36,-0.4 0.36,-0.413 0.361,-0.427C0.349,-0.43 0.358,-0.453 0.356,-0.463C0.342,-0.464 0.361,-0.494 0.342,-0.493C0.331,-0.496 0.329,-0.52 0.319,-0.53C0.317,-0.529 0.314,-0.529 0.312,-0.529C0.297,-0.543 0.274,-0.55 0.27,-0.573C0.251,-0.574 0.232,-0.587 0.222,-0.603C0.217,-0.604 0.212,-0.605 0.207,-0.606C0.195,-0.625 0.168,-0.631 0.156,-0.65C0.146,-0.653 0.134,-0.648 0.129,-0.659C0.114,-0.679 0.088,-0.68 0.071,-0.696C0.053,-0.704 0.033,-0.708 0.019,-0.721C-0.019,-0.737 -0.059,-0.75 -0.101,-0.745C-0.102,-0.743 -0.103,-0.739 -0.104,-0.737C-0.144,-0.742 -0.155,-0.696 -0.186,-0.679C-0.196,-0.674 -0.2,-0.662 -0.205,-0.652C-0.23,-0.63 -0.247,-0.602 -0.262,-0.573C-0.236,-0.576 -0.211,-0.58 -0.186,-0.588C-0.171,-0.602 -0.147,-0.594 -0.13,-0.605C-0.121,-0.612 -0.11,-0.617 -0.1,-0.624C-0.101,-0.645 -0.074,-0.655 -0.08,-0.677C-0.093,-0.678 -0.107,-0.68 -0.12,-0.681C-0.131,-0.668 -0.136,-0.649 -0.157,-0.649C-0.163,-0.633 -0.149,-0.636 -0.138,-0.64C-0.139,-0.63 -0.153,-0.63 -0.154,-0.62C-0.157,-0.61 -0.165,-0.605 -0.174,-0.604C-0.171,-0.62 -0.19,-0.629 -0.183,-0.644C-0.169,-0.65 -0.159,-0.662 -0.165,-0.68C-0.153,-0.69 -0.14,-0.696 -0.128,-0.706C-0.118,-0.708 -0.106,-0.711 -0.101,-0.722C-0.095,-0.723 -0.089,-0.722 -0.083,-0.721C-0.076,-0.72 -0.069,-0.719 -0.062,-0.722C-0.055,-0.724 -0.052,-0.72 -0.048,-0.715C-0.044,-0.712 -0.04,-0.708 -0.035,-0.709C-0.021,-0.709 0.005,-0.69 -0.015,-0.68C-0.022,-0.66 -0.027,-0.637 -0.047,-0.626C-0.055,-0.605 -0.073,-0.587 -0.096,-0.585C-0.105,-0.574 -0.119,-0.57 -0.133,-0.566C-0.136,-0.557 -0.147,-0.56 -0.154,-0.556C-0.18,-0.548 -0.201,-0.53 -0.228,-0.526C-0.23,-0.518 -0.237,-0.518 -0.243,-0.518C-0.25,-0.518 -0.257,-0.518 -0.259,-0.511C-0.271,-0.507 -0.284,-0.504 -0.297,-0.509C-0.297,-0.507 -0.299,-0.503 -0.299,-0.501C-0.319,-0.5 -0.342,-0.496 -0.36,-0.506C-0.36,-0.515 -0.365,-0.524 -0.367,-0.509C-0.377,-0.511 -0.367,-0.528 -0.378,-0.529C-0.372,-0.541 -0.363,-0.553 -0.36,-0.566C-0.352,-0.572 -0.344,-0.578 -0.336,-0.584C-0.333,-0.598 -0.317,-0.602 -0.314,-0.616C-0.304,-0.621 -0.296,-0.629 -0.287,-0.634C-0.265,-0.65 -0.252,-0.675 -0.228,-0.689C-0.218,-0.692 -0.224,-0.707 -0.214,-0.711C-0.204,-0.727 -0.201,-0.747 -0.186,-0.76C-0.185,-0.783 -0.16,-0.792 -0.151,-0.811C-0.15,-0.816 -0.147,-0.815 -0.144,-0.815C-0.142,-0.815 -0.139,-0.815 -0.139,-0.818C-0.138,-0.827 -0.13,-0.819 -0.126,-0.817C-0.112,-0.804 -0.09,-0.813 -0.076,-0.799C-0.054,-0.783 -0.026,-0.775 -0.005,-0.756C0.025,-0.75 0.052,-0.733 0.08,-0.723C0.093,-0.709 0.113,-0.707 0.129,-0.696C0.145,-0.692 0.157,-0.677 0.174,-0.677C0.18,-0.677 0.18,-0.669 0.183,-0.665C0.211,-0.647 0.242,-0.635 0.27,-0.619C0.279,-0.602 0.302,-0.6 0.311,-0.585C0.324,-0.571 0.343,-0.559 0.351,-0.542C0.362,-0.543 0.361,-0.529 0.37,-0.528C0.38,-0.528 0.382,-0.517 0.383,-0.509C0.398,-0.509 0.402,-0.489 0.411,-0.481C0.412,-0.479 0.415,-0.476 0.416,-0.474C0.43,-0.481 0.431,-0.457 0.439,-0.449L0.441,-0.449C0.447,-0.437 0.462,-0.431 0.465,-0.419C0.471,-0.408 0.484,-0.399 0.491,-0.391C0.497,-0.383 0.508,-0.377 0.509,-0.367C0.516,-0.366 0.518,-0.364 0.517,-0.36C0.519,-0.357 0.523,-0.351 0.524,-0.348C0.532,-0.35 0.539,-0.335 0.541,-0.327C0.551,-0.322 0.559,-0.313 0.56,-0.301C0.578,-0.299 0.591,-0.287 0.597,-0.27C0.606,-0.274 0.615,-0.273 0.624,-0.27C0.634,-0.272 0.645,-0.271 0.655,-0.268C0.666,-0.267 0.676,-0.269 0.687,-0.27C0.702,-0.272 0.717,-0.274 0.731,-0.27C0.733,-0.274 0.735,-0.278 0.738,-0.282C0.753,-0.296 0.758,-0.329 0.783,-0.332C0.782,-0.33 0.782,-0.326 0.782,-0.324C0.77,-0.325 0.774,-0.312 0.773,-0.305C0.782,-0.303 0.783,-0.314 0.791,-0.315C0.815,-0.331 0.848,-0.325 0.874,-0.315C0.894,-0.31 0.919,-0.302 0.924,-0.279C0.948,-0.282 0.954,-0.253 0.968,-0.241C0.96,-0.227 0.995,-0.195 0.969,-0.19C0.97,-0.184 0.972,-0.178 0.973,-0.172C0.964,-0.143 0.975,-0.113 0.971,-0.084C0.986,-0.072 0.963,-0.042 0.986,-0.036C0.984,-0.035 0.981,-0.032 0.979,-0.031C0.977,-0.024 0.98,-0.014 0.97,-0.013C0.975,-0.003 0.97,0.006 0.967,0.016C0.97,0.043 0.949,0.067 0.945,0.094C0.944,0.094 0.943,0.095 0.942,0.095C0.932,0.095 0.933,0.079 0.927,0.073ZM0.663,-0.297C0.662,-0.297 0.66,-0.299 0.658,-0.303C0.641,-0.305 0.628,-0.312 0.612,-0.316C0.606,-0.33 0.58,-0.326 0.583,-0.342C0.575,-0.348 0.563,-0.353 0.564,-0.364C0.558,-0.365 0.553,-0.372 0.551,-0.377C0.542,-0.376 0.55,-0.39 0.543,-0.392C0.539,-0.4 0.518,-0.397 0.521,-0.405C0.519,-0.417 0.51,-0.426 0.505,-0.437C0.493,-0.449 0.476,-0.46 0.47,-0.478C0.466,-0.49 0.445,-0.492 0.444,-0.5C0.439,-0.508 0.43,-0.513 0.431,-0.524C0.42,-0.524 0.409,-0.537 0.401,-0.546C0.39,-0.56 0.367,-0.561 0.359,-0.579C0.349,-0.586 0.334,-0.597 0.323,-0.609C0.315,-0.606 0.312,-0.616 0.308,-0.621C0.295,-0.631 0.278,-0.631 0.265,-0.641C0.252,-0.654 0.229,-0.651 0.219,-0.668C0.197,-0.675 0.177,-0.688 0.153,-0.693C0.143,-0.709 0.124,-0.713 0.109,-0.725C0.09,-0.719 0.085,-0.739 0.07,-0.741C0.056,-0.745 0.044,-0.753 0.029,-0.755C0.018,-0.757 0.013,-0.771 0.002,-0.773C-0.017,-0.777 -0.031,-0.79 -0.044,-0.804C-0.025,-0.804 -0.045,-0.812 -0.052,-0.815C-0.053,-0.82 -0.053,-0.826 -0.053,-0.831C-0.054,-0.833 -0.056,-0.835 -0.057,-0.836C-0.033,-0.843 -0.009,-0.838 0.015,-0.836L0.015,-0.831L0.019,-0.83C0.022,-0.83 0.026,-0.831 0.03,-0.831C0.04,-0.833 0.05,-0.834 0.053,-0.826C0.059,-0.827 0.065,-0.831 0.071,-0.829C0.097,-0.821 0.124,-0.824 0.15,-0.82C0.165,-0.814 0.181,-0.81 0.197,-0.809C0.205,-0.813 0.213,-0.809 0.22,-0.806C0.227,-0.802 0.235,-0.799 0.243,-0.803C0.263,-0.8 0.284,-0.797 0.305,-0.797C0.318,-0.789 0.336,-0.79 0.324,-0.764C0.313,-0.765 0.304,-0.761 0.3,-0.751C0.281,-0.743 0.26,-0.728 0.239,-0.736C0.238,-0.734 0.237,-0.73 0.237,-0.729C0.199,-0.738 0.149,-0.727 0.122,-0.762C0.109,-0.762 0.102,-0.77 0.097,-0.781C0.104,-0.788 0.114,-0.786 0.124,-0.784C0.129,-0.784 0.134,-0.783 0.139,-0.783C0.157,-0.779 0.13,-0.777 0.138,-0.764C0.161,-0.757 0.197,-0.754 0.209,-0.778C0.21,-0.783 0.205,-0.782 0.199,-0.782C0.191,-0.781 0.182,-0.781 0.182,-0.79C0.165,-0.792 0.147,-0.794 0.13,-0.793C0.1,-0.806 0.064,-0.802 0.034,-0.794C0.031,-0.784 0.044,-0.781 0.05,-0.775C0.051,-0.769 0.052,-0.761 0.061,-0.763C0.077,-0.77 0.086,-0.757 0.098,-0.752C0.104,-0.753 0.111,-0.756 0.113,-0.747C0.144,-0.737 0.171,-0.719 0.2,-0.703C0.207,-0.699 0.218,-0.702 0.221,-0.693C0.23,-0.689 0.243,-0.691 0.247,-0.682C0.256,-0.681 0.264,-0.673 0.274,-0.676C0.291,-0.658 0.317,-0.655 0.334,-0.637C0.34,-0.628 0.36,-0.638 0.357,-0.621C0.376,-0.62 0.394,-0.616 0.413,-0.615C0.414,-0.616 0.416,-0.62 0.416,-0.621C0.435,-0.624 0.452,-0.632 0.466,-0.645C0.457,-0.653 0.453,-0.665 0.451,-0.677C0.456,-0.676 0.461,-0.675 0.465,-0.673C0.463,-0.689 0.448,-0.698 0.434,-0.701C0.433,-0.704 0.432,-0.708 0.431,-0.71C0.406,-0.706 0.369,-0.712 0.354,-0.686C0.369,-0.675 0.408,-0.66 0.407,-0.691C0.432,-0.701 0.447,-0.68 0.44,-0.66C0.425,-0.659 0.415,-0.647 0.414,-0.632C0.404,-0.63 0.395,-0.635 0.386,-0.639C0.359,-0.638 0.336,-0.656 0.311,-0.664C0.31,-0.663 0.307,-0.661 0.306,-0.659C0.299,-0.67 0.291,-0.682 0.288,-0.695C0.318,-0.707 0.324,-0.745 0.356,-0.753C0.362,-0.75 0.368,-0.751 0.374,-0.752C0.38,-0.753 0.386,-0.754 0.393,-0.751C0.416,-0.743 0.444,-0.74 0.461,-0.721C0.482,-0.708 0.502,-0.688 0.516,-0.667C0.522,-0.664 0.525,-0.655 0.524,-0.638L0.527,-0.641C0.525,-0.622 0.537,-0.605 0.537,-0.587C0.539,-0.58 0.54,-0.572 0.54,-0.564C0.549,-0.56 0.544,-0.553 0.539,-0.549C0.541,-0.543 0.544,-0.538 0.546,-0.532C0.534,-0.521 0.539,-0.507 0.546,-0.495C0.552,-0.481 0.564,-0.469 0.566,-0.454C0.572,-0.455 0.574,-0.451 0.577,-0.446C0.58,-0.441 0.582,-0.437 0.587,-0.437C0.596,-0.437 0.604,-0.437 0.602,-0.426C0.615,-0.429 0.629,-0.433 0.641,-0.427C0.679,-0.401 0.723,-0.434 0.762,-0.438C0.767,-0.454 0.789,-0.445 0.8,-0.44C0.807,-0.413 0.759,-0.43 0.764,-0.405C0.764,-0.399 0.765,-0.393 0.764,-0.387C0.761,-0.379 0.755,-0.372 0.759,-0.363C0.753,-0.349 0.739,-0.339 0.731,-0.325C0.718,-0.322 0.702,-0.319 0.695,-0.307C0.69,-0.309 0.685,-0.308 0.68,-0.308C0.675,-0.307 0.67,-0.306 0.665,-0.308C0.665,-0.302 0.664,-0.297 0.663,-0.297L0.663,-0.297ZM0.814,-0.409C0.811,-0.401 0.813,-0.379 0.806,-0.379C0.795,-0.385 0.801,-0.412 0.814,-0.409Z" style="fill:url(#_Radial1);fill-rule:nonzero;"/>
        </g>
        <g transform="matrix(33.1999,0,0,-33.1999,36.9986,59.7912)">
            <path d="M0.11,0.636C0.105,0.636 0.099,0.639 0.093,0.641C0.081,0.646 0.07,0.651 0.068,0.638C0.06,0.631 0.038,0.604 0.039,0.63C0.03,0.606 -0.002,0.619 -0.011,0.598C-0.02,0.583 -0.047,0.591 -0.044,0.569C-0.086,0.567 -0.089,0.514 -0.125,0.506C-0.134,0.497 -0.128,0.471 -0.145,0.48C-0.15,0.471 -0.15,0.452 -0.164,0.462C-0.163,0.447 -0.172,0.437 -0.184,0.431C-0.195,0.429 -0.177,0.412 -0.19,0.412C-0.201,0.411 -0.189,0.399 -0.191,0.393C-0.191,0.382 -0.212,0.385 -0.207,0.372C-0.214,0.351 -0.222,0.327 -0.216,0.303C-0.217,0.299 -0.221,0.295 -0.224,0.292L-0.224,0.282C-0.224,0.282 -0.224,0.282 -0.224,0.282C-0.205,0.269 -0.236,0.234 -0.21,0.231C-0.215,0.215 -0.213,0.206 -0.201,0.195L-0.203,0.19C-0.184,0.189 -0.196,0.165 -0.181,0.159C-0.172,0.143 -0.164,0.126 -0.148,0.115C-0.145,0.098 -0.132,0.08 -0.114,0.078C-0.103,0.053 -0.085,0.025 -0.055,0.022C-0.046,0.006 -0.025,-0.025 -0.006,-0.004C-0.005,-0.009 -0.004,-0.018 -0.003,-0.022C0.013,-0.024 0.024,-0.041 0.041,-0.037C0.042,-0.048 0.055,-0.049 0.063,-0.052C0.065,-0.064 0.076,-0.063 0.086,-0.062C0.095,-0.072 0.107,-0.08 0.11,-0.061C0.115,-0.085 0.14,-0.077 0.157,-0.081C0.168,-0.087 0.181,-0.092 0.19,-0.08C0.193,-0.095 0.207,-0.084 0.209,-0.074C0.215,-0.083 0.225,-0.094 0.233,-0.081C0.247,-0.095 0.252,-0.127 0.278,-0.127C0.277,-0.124 0.276,-0.118 0.275,-0.115C0.277,-0.105 0.286,-0.101 0.292,-0.094C0.298,-0.092 0.304,-0.09 0.31,-0.087C0.308,-0.097 0.312,-0.102 0.321,-0.103C0.321,-0.119 0.311,-0.143 0.328,-0.153C0.328,-0.148 0.329,-0.138 0.33,-0.133C0.352,-0.141 0.326,-0.162 0.33,-0.178C0.349,-0.184 0.355,-0.169 0.366,-0.158C0.358,-0.191 0.402,-0.171 0.405,-0.197C0.41,-0.205 0.38,-0.206 0.4,-0.21C0.416,-0.212 0.392,-0.223 0.387,-0.225C0.39,-0.238 0.406,-0.239 0.409,-0.225C0.414,-0.208 0.439,-0.21 0.445,-0.196C0.455,-0.193 0.464,-0.192 0.474,-0.19C0.473,-0.182 0.475,-0.174 0.477,-0.166C0.5,-0.158 0.522,-0.139 0.521,-0.112C0.53,-0.125 0.534,-0.118 0.538,-0.11C0.542,-0.105 0.546,-0.099 0.553,-0.101C0.566,-0.103 0.569,-0.123 0.584,-0.12C0.591,-0.109 0.594,-0.096 0.602,-0.086C0.611,-0.09 0.618,-0.088 0.622,-0.081L0.623,-0.088L0.628,-0.087C0.635,-0.067 0.648,-0.052 0.66,-0.035C0.663,-0.036 0.67,-0.037 0.674,-0.037C0.672,-0.012 0.693,0.004 0.711,0.017C0.716,0.033 0.719,0.048 0.717,0.063C0.725,0.072 0.735,0.08 0.739,0.092C0.733,0.111 0.735,0.131 0.739,0.15L0.735,0.147C0.734,0.155 0.747,0.177 0.733,0.174C0.733,0.182 0.731,0.188 0.726,0.194C0.736,0.207 0.732,0.225 0.713,0.226C0.714,0.244 0.712,0.277 0.696,0.282C0.708,0.299 0.69,0.296 0.677,0.298C0.67,0.313 0.663,0.334 0.649,0.341C0.649,0.345 0.649,0.354 0.649,0.359C0.617,0.36 0.618,0.405 0.586,0.406C0.578,0.416 0.57,0.441 0.561,0.441C0.548,0.442 0.541,0.449 0.533,0.458C0.531,0.465 0.514,0.478 0.51,0.479C0.503,0.489 0.492,0.487 0.481,0.487C0.486,0.493 0.489,0.5 0.49,0.507C0.478,0.499 0.466,0.506 0.456,0.513C0.458,0.514 0.462,0.518 0.463,0.52C0.455,0.518 0.45,0.522 0.445,0.526C0.441,0.53 0.436,0.533 0.429,0.533C0.431,0.548 0.404,0.553 0.392,0.555C0.398,0.57 0.391,0.57 0.38,0.569C0.374,0.569 0.367,0.568 0.362,0.572C0.367,0.59 0.357,0.589 0.345,0.588C0.342,0.588 0.339,0.588 0.336,0.588C0.321,0.591 0.307,0.622 0.296,0.598C0.303,0.625 0.263,0.608 0.263,0.629C0.258,0.627 0.253,0.624 0.248,0.622C0.247,0.625 0.246,0.632 0.246,0.635C0.233,0.629 0.222,0.635 0.21,0.64C0.197,0.646 0.184,0.652 0.169,0.643L0.169,0.65C0.149,0.646 0.126,0.636 0.112,0.656C0.111,0.651 0.11,0.641 0.11,0.636Z" style="fill:url(#_Radial2);fill-rule:nonzero;"/>
        </g>
        <g transform="matrix(21.5925,0,0,-21.5925,85.6924,61.2694)">
            <path d="M-0.252,0.298C-0.264,0.298 -0.276,0.298 -0.281,0.285C-0.289,0.286 -0.305,0.288 -0.313,0.288C-0.32,0.288 -0.334,0.287 -0.34,0.287C-0.358,0.29 -0.374,0.284 -0.389,0.276C-0.398,0.277 -0.416,0.28 -0.425,0.281C-0.423,0.299 -0.471,0.279 -0.488,0.276C-0.502,0.278 -0.516,0.279 -0.529,0.278C-0.555,0.273 -0.579,0.258 -0.606,0.265C-0.608,0.245 -0.63,0.25 -0.645,0.245C-0.647,0.229 -0.657,0.232 -0.668,0.236C-0.704,0.222 -0.732,0.189 -0.772,0.185C-0.793,0.154 -0.85,0.158 -0.836,0.111C-0.852,0.108 -0.876,0.116 -0.879,0.093C-0.911,0.04 -0.95,-0.021 -0.935,-0.086L-0.935,-0.095C-0.929,-0.116 -0.935,-0.158 -0.905,-0.157C-0.894,-0.156 -0.894,-0.166 -0.895,-0.176C-0.895,-0.188 -0.897,-0.199 -0.884,-0.195C-0.874,-0.214 -0.884,-0.252 -0.854,-0.247C-0.847,-0.26 -0.838,-0.272 -0.831,-0.286C-0.833,-0.296 -0.826,-0.314 -0.814,-0.316C-0.813,-0.326 -0.807,-0.333 -0.794,-0.337C-0.798,-0.352 -0.8,-0.371 -0.778,-0.362C-0.777,-0.368 -0.775,-0.379 -0.775,-0.385C-0.774,-0.395 -0.768,-0.402 -0.755,-0.406C-0.761,-0.419 -0.749,-0.43 -0.737,-0.433C-0.732,-0.442 -0.725,-0.448 -0.715,-0.451C-0.722,-0.469 -0.716,-0.476 -0.697,-0.473C-0.701,-0.489 -0.695,-0.496 -0.677,-0.494C-0.682,-0.512 -0.664,-0.525 -0.648,-0.522C-0.648,-0.534 -0.624,-0.57 -0.618,-0.549C-0.615,-0.552 -0.609,-0.558 -0.606,-0.56C-0.607,-0.571 -0.598,-0.575 -0.579,-0.571C-0.579,-0.576 -0.579,-0.585 -0.579,-0.59L-0.569,-0.591C-0.574,-0.621 -0.53,-0.609 -0.511,-0.619C-0.511,-0.623 -0.51,-0.632 -0.509,-0.637C-0.5,-0.635 -0.492,-0.64 -0.485,-0.645C-0.474,-0.652 -0.465,-0.659 -0.453,-0.649C-0.456,-0.68 -0.428,-0.673 -0.409,-0.676L-0.412,-0.686C-0.373,-0.697 -0.323,-0.699 -0.296,-0.727C-0.293,-0.723 -0.286,-0.714 -0.283,-0.71C-0.277,-0.725 -0.24,-0.751 -0.242,-0.72C-0.205,-0.734 -0.164,-0.74 -0.126,-0.729C-0.096,-0.74 -0.078,-0.724 -0.059,-0.709C-0.045,-0.697 -0.031,-0.684 -0.01,-0.685C0.088,-0.61 0.201,-0.534 0.228,-0.411C0.26,-0.362 0.233,-0.302 0.234,-0.249C0.224,-0.23 0.215,-0.21 0.204,-0.192C0.197,-0.177 0.207,-0.148 0.18,-0.156C0.185,-0.129 0.169,-0.104 0.143,-0.095C0.142,-0.067 0.134,-0.031 0.099,-0.031L0.093,-0.027C0.087,-0.014 0.073,-0.006 0.063,0.003C0.064,0.019 0.057,0.025 0.041,0.021C0.035,0.037 0.005,0.084 0.011,0.04C-0,0.066 -0.032,0.067 -0.057,0.072C-0.051,0.097 -0.083,0.091 -0.098,0.1C-0.11,0.147 -0.081,0.225 -0.145,0.241L-0.15,0.252C-0.144,0.264 -0.186,0.267 -0.198,0.271C-0.196,0.286 -0.228,0.294 -0.242,0.298C-0.245,0.298 -0.249,0.298 -0.252,0.298Z" style="fill:url(#_Radial3);fill-rule:nonzero;"/>
        </g>
        <g transform="matrix(14.5469,0,0,-16.2995,55.2397,67.0321)">
            <path d="M0.294,0.229C0.258,0.226 0.227,0.209 0.195,0.196C0.174,0.2 0.15,0.2 0.135,0.184C0.098,0.154 0.055,0.132 0.015,0.105C-0.008,0.114 -0.025,0.097 -0.033,0.08C-0.043,0.072 -0.059,0.074 -0.073,0.075C-0.092,0.078 -0.109,0.08 -0.1,0.058C-0.101,0.051 -0.102,0.036 -0.103,0.029C-0.138,0.036 -0.169,0.027 -0.173,-0.008L-0.185,-0.011C-0.177,-0.043 -0.222,-0.044 -0.216,-0.071C-0.247,-0.072 -0.229,-0.11 -0.235,-0.128C-0.259,-0.135 -0.28,-0.169 -0.272,-0.191C-0.311,-0.214 -0.292,-0.252 -0.307,-0.285L-0.319,-0.282C-0.285,-0.325 -0.368,-0.366 -0.336,-0.403L-0.348,-0.401C-0.354,-0.465 -0.364,-0.529 -0.346,-0.593C-0.293,-0.599 -0.375,-0.656 -0.321,-0.676C-0.299,-0.755 -0.22,-0.807 -0.174,-0.872C-0.122,-0.898 -0.083,-0.971 -0.016,-0.956C-0.004,-0.974 0.011,-0.981 0.029,-0.983L0.07,-0.983C0.07,-0.983 0.071,-0.983 0.071,-0.983C0.086,-0.983 0.1,-0.982 0.114,-0.983C0.155,-0.95 0.223,-0.973 0.253,-0.924C0.298,-0.896 0.384,-0.873 0.399,-0.82C0.438,-0.808 0.454,-0.772 0.484,-0.75C0.522,-0.75 0.526,-0.688 0.544,-0.661C0.589,-0.673 0.571,-0.612 0.585,-0.587C0.59,-0.58 0.598,-0.567 0.603,-0.56C0.62,-0.552 0.623,-0.532 0.631,-0.518L0.644,-0.52C0.64,-0.516 0.636,-0.512 0.633,-0.508C0.637,-0.492 0.636,-0.477 0.632,-0.465C0.652,-0.456 0.685,-0.456 0.669,-0.431C0.675,-0.411 0.682,-0.392 0.69,-0.372C0.703,-0.373 0.706,-0.356 0.711,-0.339C0.717,-0.321 0.725,-0.303 0.751,-0.305C0.795,-0.313 0.873,-0.267 0.865,-0.218C0.838,-0.227 0.794,-0.224 0.787,-0.256C0.772,-0.251 0.758,-0.244 0.744,-0.237C0.75,-0.201 0.75,-0.165 0.746,-0.13C0.748,-0.091 0.75,-0.052 0.746,-0.013C0.753,0.036 0.701,0.073 0.687,0.119C0.669,0.155 0.665,0.218 0.718,0.228L0.717,0.24C0.656,0.237 0.596,0.223 0.534,0.228C0.521,0.252 0.489,0.251 0.459,0.25C0.446,0.249 0.434,0.249 0.423,0.25C0.411,0.249 0.397,0.251 0.383,0.253C0.371,0.254 0.358,0.255 0.347,0.255C0.324,0.255 0.304,0.25 0.294,0.229Z" style="fill:url(#_Radial4);fill-rule:nonzero;"/>
        </g>
    </g>
    <defs>
        <radialGradient id="_Radial1" cx="0" cy="0" r="1" gradientUnits="userSpaceOnUse" gradientTransform="matrix(1,0,0,-1,0,-0.748723)"><stop offset="0" style="stop-color:rgb(94,198,242);stop-opacity:1"/><stop offset="0.72" style="stop-color:rgb(0,83,164);stop-opacity:1"/><stop offset="1" style="stop-color:rgb(63,65,151);stop-opacity:1"/></radialGradient>
        <radialGradient id="_Radial2" cx="0" cy="0" r="1" gradientUnits="userSpaceOnUse" gradientTransform="matrix(1,0,0,-1,0,0.416837)"><stop offset="0" style="stop-color:rgb(200,211,0);stop-opacity:1"/><stop offset="0.65" style="stop-color:rgb(82,172,36);stop-opacity:1"/><stop offset="1" style="stop-color:rgb(0,162,46);stop-opacity:1"/></radialGradient>
        <radialGradient id="_Radial3" cx="0" cy="0" r="1" gradientUnits="userSpaceOnUse" gradientTransform="matrix(1,0,0,-1,0,-0.452579)"><stop offset="0" style="stop-color:rgb(231,63,147);stop-opacity:1"/><stop offset="0.64" style="stop-color:rgb(229,0,121);stop-opacity:1"/><stop offset="1" style="stop-color:rgb(230,0,4);stop-opacity:1"/></radialGradient>
        <radialGradient id="_Radial4" cx="0" cy="0" r="1" gradientUnits="userSpaceOnUse" gradientTransform="matrix(1,0,0,-1,0,-0.727991)"><stop offset="0" style="stop-color:rgb(255,215,0);stop-opacity:1"/><stop offset="0.72" style="stop-color:rgb(237,110,0);stop-opacity:1"/><stop offset="1" style="stop-color:rgb(237,110,0);stop-opacity:1"/></radialGradient>
    </defs>
</svg>
