<?xml version="1.0" encoding="UTF-8" standalone="no"?>
<!DOCTYPE svg PUBLIC "-//W3C//DTD SVG 1.1//EN" "http://www.w3.org/Graphics/SVG/1.1/DTD/svg11.dtd">
<svg width="100%" height="100%" viewBox="0 0 173 96" version="1.1" xmlns="http://www.w3.org/2000/svg" xmlns:xlink="http://www.w3.org/1999/xlink" xml:space="preserve" xmlns:serif="http://www.serif.com/" style="fill-rule:evenodd;clip-rule:evenodd;stroke-linejoin:round;stroke-miterlimit:2;">
    <g transform="matrix(1.12338,0,0,1.18519,-1.01568e-14,-8.10463e-15)">
        <rect x="0" y="0" width="154" height="81" style="fill:rgb(0,151,255);"/>
    </g>
    <g transform="matrix(1.13072,0,0,1.13072,-1.56082,0.509804)">
        <g>
            <g transform="matrix(0.856882,0,0,1.09259,6.44257,-33.7628)">
                <path d="M12.293,30.489L12.293,53.68C12.293,56.454 12.155,59.969 11.707,61.905L11.741,61.905L18.642,44.972L23.749,44.972L23.749,68.258L19.332,68.258L19.332,59.453C19.332,55.905 19.435,53.454 19.918,51.358L19.884,51.358L12.983,68.258L7.876,68.258L7.876,30.489L12.293,30.489ZM33.699,53.479L39.748,53.479L39.748,44.794L44.327,44.794L44.327,67.349L39.748,67.349L39.748,56.915L33.699,56.915L33.699,67.349L29.12,67.349L29.12,44.794L33.699,44.794L33.699,53.479ZM47.669,44.794L55.757,44.794C59.801,44.794 63.243,46.731 63.243,54.978L63.243,56.103C63.243,61.164 62.174,67.349 56.024,67.349L47.669,67.349L47.669,44.794ZM70.663,44.794L70.663,53.229C70.663,55.916 70.53,59.321 70.095,61.195L70.128,61.195L76.813,44.794L81.759,44.794L81.759,67.349L77.481,67.349L77.481,58.821C77.481,55.385 77.582,53.01 78.049,50.98L78.016,50.98L71.332,67.349L66.386,67.349L66.386,44.794L70.663,44.794ZM52.248,64.007L55.122,64.007C58.096,64.007 58.564,60.445 58.564,56.04C58.564,50.511 57.762,48.137 55.256,48.137L52.248,48.137L52.248,64.007Z" style="fill-rule:nonzero;"/>
            </g>
            <g transform="matrix(0.834971,0,0,0.998041,6.44751,-23.2797)">
                <path d="M44.818,70.049L44.818,94.335L39.888,94.335L39.888,73.749L34.634,73.749L34.634,83.067C34.634,91.173 33.194,94.773 29.056,94.773C27.905,94.773 27.005,94.705 26.069,94.47L26.069,91.073C26.393,91.173 27.076,91.241 27.652,91.241C29.164,91.241 29.776,90.501 29.776,81.688L29.776,70.049L44.818,70.049ZM97.894,77.954L97.894,77.416C97.894,74.355 97.066,73.312 94.979,73.312C92.892,73.312 91.992,74.355 91.992,77.416L91.992,87.002C91.992,90.164 92.856,91.207 94.943,91.207C96.922,91.207 97.894,90.131 97.894,87.002L97.894,85.691L102.824,85.691L102.824,86.733C102.824,91.14 101.132,94.907 94.979,94.907C88.501,94.907 86.954,91.106 86.954,86.801L86.954,77.954C86.954,72.269 89.689,69.612 95.05,69.612C100.089,69.612 102.824,72.269 102.824,76.743L102.824,77.954L97.894,77.954ZM78.786,77.954L78.786,77.416C78.786,74.355 77.958,73.312 75.871,73.312C73.784,73.312 72.884,74.355 72.884,77.416L72.884,87.002C72.884,90.164 73.748,91.207 75.835,91.207C77.814,91.207 78.786,90.131 78.786,87.002L78.786,85.691L83.716,85.691L83.716,86.733C83.716,91.14 82.025,94.907 75.871,94.907C69.394,94.907 67.846,91.106 67.846,86.801L67.846,77.954C67.846,72.269 70.581,69.612 75.943,69.612C80.981,69.612 83.716,72.269 83.716,76.743L83.716,77.954L78.786,77.954ZM13.007,80.578L18.981,70.049L24.558,70.049L17.973,80.578L24.774,94.336L19.268,94.336L14.95,84.648L13.007,87.036L13.007,94.336L8.077,94.336L8.077,70.049L13.007,70.049L13.007,80.578ZM131.323,80.578L137.296,70.049L142.874,70.049L136.288,80.578L143.09,94.336L137.584,94.336L133.266,84.648L131.323,87.036L131.323,94.336L126.392,94.336L126.392,70.049L131.323,70.049L131.323,80.578ZM110.848,70.049L110.848,79.131C110.848,82.024 110.703,85.691 110.236,87.709L110.272,87.709L117.469,70.049L122.795,70.049L122.795,107.942L118.188,107.942L118.188,85.152C118.188,81.452 118.296,78.896 118.8,76.709L118.764,76.709L111.567,94.335L106.242,94.335L106.242,70.049L110.848,70.049ZM53.597,70.049L60.218,70.049L65.976,94.335L60.65,94.335L59.427,88.012L53.849,88.012L52.302,94.335L47.012,94.335L53.597,70.049ZM150.647,70.049L157.268,70.049L163.026,94.335L157.7,94.335L156.476,88.012L150.898,88.012L149.351,94.335L144.061,94.335L150.647,70.049ZM58.815,84.412L56.836,73.11L54.461,84.412L58.815,84.412ZM155.864,84.412L153.885,73.11L151.51,84.412L155.864,84.412Z" style="fill:white;fill-rule:nonzero;"/>
            </g>
            <g transform="matrix(0.961764,0,0,0.961551,2.99012,2.03246)">
                <rect x="80.656" y="13.849" width="3.026" height="25.467" style="fill:white;"/>
            </g>
            <g transform="matrix(0.961764,0,0,0.660201,20.8263,13.8802)">
                <rect x="80.656" y="13.849" width="3.026" height="25.467" style="fill:white;"/>
            </g>
            <g transform="matrix(0.961764,0,0,0.712358,38.6626,11.8297)">
                <rect x="80.656" y="13.849" width="3.026" height="25.467" style="fill:white;"/>
            </g>
            <g transform="matrix(0.961764,0,0,0.712358,7.44917,11.8297)">
                <rect x="80.656" y="13.849" width="3.026" height="25.467" style="fill:white;"/>
            </g>
        </g>
        <g>
            <g transform="matrix(0.961764,0,0,0.776105,25.2854,9.3234)">
                <rect x="80.656" y="13.849" width="3.026" height="25.467" style="fill:white;"/>
            </g>
            <g transform="matrix(0.961764,0,0,0.660201,43.1216,13.8802)">
                <rect x="80.656" y="13.849" width="3.026" height="25.467" style="fill:white;"/>
            </g>
            <g transform="matrix(0.961764,0,0,0.526911,11.9082,19.1206)">
                <rect x="80.656" y="13.849" width="3.026" height="25.467" style="fill:white;"/>
            </g>
            <g transform="matrix(0.961764,0,0,0.712358,29.7445,11.8297)">
                <rect x="80.656" y="13.849" width="3.026" height="25.467" style="fill:white;"/>
            </g>
            <g transform="matrix(0.961764,0,0,0.567478,47.5807,17.5257)">
                <rect x="80.656" y="13.849" width="3.026" height="25.467" style="fill:white;"/>
            </g>
            <g transform="matrix(0.961764,0,0,0.356179,16.3673,25.8331)">
                <rect x="80.656" y="13.849" width="3.026" height="25.467" style="fill:white;"/>
            </g>
            <g transform="matrix(0.961764,0,0,0.935473,34.2035,3.05775)">
                <rect x="80.656" y="13.849" width="3.026" height="25.467" style="fill:white;"/>
            </g>
            <g transform="matrix(0.961764,0,0,0.467736,52.0397,21.4471)">
                <rect x="80.656" y="13.849" width="3.026" height="25.467" style="fill:white;"/>
            </g>
            <g transform="matrix(0.961764,0,0,0.3301,56.4988,26.8583)">
                <rect x="80.656" y="13.849" width="3.026" height="25.467" style="fill:white;"/>
            </g>
            <g transform="matrix(0.861351,0,0,0.861351,6.78155,-24.971)">
                <path d="M22.858,39.744C22.858,40.11 22.768,40.426 22.589,40.693C22.41,40.959 22.153,41.165 21.817,41.31C21.48,41.455 21.08,41.532 20.614,41.54L20.614,41.964L20.322,41.964L20.322,41.54C19.856,41.532 19.455,41.455 19.119,41.31C18.783,41.165 18.525,40.959 18.346,40.693C18.167,40.426 18.078,40.11 18.078,39.744C18.078,39.374 18.167,39.055 18.346,38.789C18.525,38.522 18.783,38.316 19.119,38.171C19.455,38.026 19.856,37.949 20.322,37.941L20.322,37.524L20.614,37.524L20.614,37.941C21.318,37.961 21.868,38.128 22.264,38.443C22.66,38.757 22.858,39.191 22.858,39.744ZM73.266,37.655L73.266,41.832L72.962,41.832L72.962,37.929L70.802,37.929L70.748,39.463C70.724,40.036 70.675,40.497 70.602,40.845C70.528,41.193 70.42,41.45 70.277,41.617C70.133,41.785 69.944,41.868 69.71,41.868C69.602,41.868 69.503,41.856 69.411,41.832L69.447,41.552C69.515,41.568 69.58,41.576 69.644,41.576C69.827,41.576 69.975,41.505 70.089,41.364C70.202,41.223 70.289,40.999 70.348,40.693C70.408,40.386 70.448,39.978 70.468,39.469L70.527,37.655L73.266,37.655ZM35.563,41.862C35.153,41.862 34.784,41.771 34.456,41.588C34.128,41.405 33.869,41.152 33.68,40.83C33.491,40.508 33.397,40.145 33.397,39.744C33.397,39.342 33.491,38.98 33.68,38.658C33.869,38.335 34.128,38.083 34.456,37.9C34.784,37.717 35.153,37.625 35.563,37.625C35.865,37.625 36.144,37.674 36.398,37.771C36.653,37.869 36.87,38.013 37.049,38.204L36.858,38.401C36.524,38.071 36.096,37.906 35.575,37.906C35.225,37.906 34.907,37.985 34.62,38.144C34.334,38.303 34.109,38.523 33.946,38.804C33.783,39.084 33.701,39.398 33.701,39.744C33.701,40.09 33.783,40.403 33.946,40.684C34.109,40.964 34.334,41.184 34.62,41.343C34.907,41.502 35.225,41.582 35.575,41.582C36.092,41.582 36.52,41.415 36.858,41.08L37.049,41.277C36.87,41.468 36.652,41.614 36.395,41.713C36.139,41.812 35.861,41.862 35.563,41.862ZM29.798,41.558L29.798,41.832L26.916,41.832L26.916,37.655L29.709,37.655L29.709,37.929L27.22,37.929L27.22,39.577L29.446,39.577L29.446,39.845L27.22,39.845L27.22,41.558L29.798,41.558ZM79.431,39.183C79.924,39.183 80.299,39.292 80.556,39.511C80.812,39.73 80.941,40.054 80.941,40.484C80.941,40.925 80.805,41.26 80.532,41.489C80.259,41.718 79.867,41.832 79.353,41.832L77.754,41.832L77.754,37.655L78.058,37.655L78.058,39.183L79.431,39.183ZM57.637,39.684C57.948,39.736 58.181,39.849 58.338,40.024C58.496,40.199 58.574,40.432 58.574,40.722C58.574,41.08 58.449,41.355 58.198,41.546C57.948,41.737 57.576,41.832 57.082,41.832L55.286,41.832L55.286,37.655L56.969,37.655C57.406,37.655 57.748,37.746 57.992,37.929C58.237,38.113 58.359,38.375 58.359,38.717C58.359,38.96 58.296,39.163 58.168,39.326C58.041,39.489 57.864,39.608 57.637,39.684ZM43.583,37.929L42.08,37.929L42.08,41.832L41.775,41.832L41.775,37.929L40.271,37.929L40.271,37.655L43.583,37.655L43.583,37.929ZM47.379,37.655L47.683,37.655L47.683,41.319L50.53,37.655L50.798,37.655L50.798,41.832L50.494,41.832L50.494,38.174L47.647,41.832L47.379,41.832L47.379,37.655ZM65.389,40.657L62.966,40.657L62.435,41.832L62.107,41.832L64.029,37.655L64.333,37.655L66.254,41.832L65.926,41.832L65.389,40.657ZM79.359,41.576C79.777,41.576 80.093,41.484 80.308,41.301C80.523,41.118 80.63,40.848 80.63,40.49C80.63,39.789 80.207,39.439 79.359,39.439L78.058,39.439L78.058,41.576L79.359,41.576ZM57.088,41.576C57.876,41.576 58.27,41.285 58.27,40.704C58.27,40.406 58.17,40.187 57.971,40.048C57.772,39.909 57.478,39.839 57.088,39.839L55.59,39.839L55.59,41.576L57.088,41.576ZM20.614,41.289C21.227,41.269 21.704,41.125 22.046,40.857C22.388,40.588 22.56,40.215 22.56,39.738C22.56,39.264 22.388,38.893 22.046,38.625C21.704,38.356 21.227,38.212 20.614,38.192L20.614,41.289ZM18.376,39.744C18.376,40.221 18.547,40.593 18.889,40.86C19.232,41.126 19.709,41.269 20.322,41.289L20.322,38.192C19.705,38.212 19.227,38.356 18.886,38.625C18.546,38.893 18.376,39.266 18.376,39.744ZM65.276,40.4L64.178,37.989L63.086,40.4L65.276,40.4ZM55.59,39.588L56.963,39.588C57.313,39.588 57.582,39.517 57.769,39.374C57.955,39.23 58.049,39.024 58.049,38.753C58.049,38.479 57.955,38.27 57.769,38.126C57.582,37.983 57.313,37.912 56.963,37.912L55.59,37.912L55.59,39.588Z" style="fill:white;fill-rule:nonzero;"/>
            </g>
        </g>
    </g>
</svg>
