<svg width="30" height="30" viewBox="0 0 30 30" fill="none" xmlns="http://www.w3.org/2000/svg">
<path fill-rule="evenodd" clip-rule="evenodd" d="M15 30C23.2843 30 30 23.2843 30 15C30 6.71573 23.2843 0 15 0C6.71573 0 0 6.71573 0 15C0 23.2843 6.71573 30 15 30ZM19.7143 10.6294C20.0125 10.4297 20.3715 10.3125 20.7569 10.3125C21.7909 10.3125 22.6319 11.1534 22.6319 12.1875V20.1562C22.6319 23.5163 19.8981 26.25 16.5381 26.25C14.5994 26.25 12.7759 25.4953 11.4062 24.1247L5.34435 18.0628C5.00588 17.7244 4.81934 17.2753 4.81934 16.7963C4.81934 15.8035 5.62187 15 6.60998 15C7.04402 15 7.47904 15.1022 7.86716 15.2963L10.4443 16.5853V5.62501C10.4443 4.59094 11.2853 3.75 12.3194 3.75C13.3534 3.75 14.1944 4.59094 14.1944 5.62501V8.68972C14.47 8.5294 14.7906 8.43751 15.1319 8.43751C15.9484 8.43751 16.645 8.96253 16.9018 9.69189C17.2 9.4922 17.559 9.375 17.9444 9.375C18.7609 9.375 19.4575 9.90001 19.7143 10.6294ZM16.5371 25.3125C19.3806 25.3125 21.6943 22.9997 21.6943 20.1562V12.1875C21.6943 11.671 21.2744 11.25 20.7569 11.25C20.2393 11.25 19.8194 11.6709 19.8194 12.1875V14.5313C19.8194 14.79 19.6094 15 19.3506 15C19.0919 15 18.8818 14.79 18.8818 14.5313V11.25C18.8818 10.7335 18.4619 10.3125 17.9444 10.3125C17.4268 10.3125 17.0069 10.7334 17.0069 11.25V14.5313C17.0069 14.79 16.7969 15 16.5381 15C16.2794 15 16.0693 14.79 16.0693 14.5313V10.3125C16.0693 9.796 15.6494 9.37504 15.1319 9.37504C14.6144 9.37504 14.1944 9.79595 14.1944 10.3125V14.5313C14.1944 14.79 13.9844 15 13.7256 15C13.4669 15 13.2568 14.79 13.2568 14.5313V5.62501C13.2568 5.10848 12.8369 4.68753 12.3194 4.68753C11.8019 4.68753 11.3819 5.10844 11.3819 5.62501V17.3438C11.3819 17.506 11.2975 17.6569 11.1597 17.7422C11.0228 17.8275 10.8494 17.835 10.7041 17.7628L7.4481 16.1353C7.18843 16.006 6.89966 15.9375 6.60998 15.9375C6.13937 15.9375 5.75687 16.32 5.75687 16.7906C5.75687 17.0241 5.84594 17.2388 6.00718 17.3991L12.07 23.4609C13.2625 24.6553 14.8487 25.3125 16.5371 25.3125Z" fill="white"/>
</svg>
