<svg width="149" height="123" viewBox="0 0 149 123" fill="none" xmlns="http://www.w3.org/2000/svg">
<path fill-rule="evenodd" clip-rule="evenodd" d="M114.008 37.0773H115.532L118.556 57.7037L126.088 57.614L122.419 35.5476C124.548 33.925 125.949 31.1678 125.949 28.0421V9.03516C125.949 4.04825 122.382 0 117.989 0H106.111V57.5943H113.573V37.064C113.718 37.0729 113.863 37.0773 114.008 37.0773ZM11.8775 0.000808716H0V57.5955H7.46201V37.0652C7.60643 37.0741 7.75154 37.0785 7.89737 37.0785H11.8775C16.2707 37.0785 19.8375 33.0299 19.8375 28.043V9.03596C19.8375 4.04945 16.2707 0.000808716 11.8775 0.000808716ZM84.0978 8.46953V0H66.6502V8.46953H71.643V57.5947H79.105V8.46953H84.0978ZM86.7556 0V57.5947H103.437V49.1247H94.2176V33.0319H103.437V24.5624H94.2176V8.46953H103.437V0H86.7556ZM46.733 27.5173L54.9903 35.5835C54.9903 35.5835 56.6133 36.8924 56.6133 39.2684V47.3128C56.6133 48.4178 55.823 49.3145 54.8498 49.3145H53.9677C52.9945 49.3145 52.2042 48.4178 52.2042 47.3128V39.077H44.7863V48.786C44.7863 53.6474 48.2635 57.5947 52.5467 57.5947H56.4269C60.7102 57.5947 64.1874 53.6474 64.1874 48.786V35.982C64.1874 32.3019 60.9207 29.4084 60.9207 29.4084L53.5779 22.2409C53.5779 22.2409 52.2042 21.3644 52.2042 18.6848V9.93549C52.2042 8.83047 52.9945 7.93338 53.9677 7.93338H54.8498C55.823 7.93338 56.6133 8.83047 56.6133 9.93549V17.8265H64.1874V8.80826C64.1874 3.9469 60.7102 0 56.4269 0H52.5467C48.2635 0 44.7863 3.9469 44.7863 8.80826V23.5482C44.7863 26.0622 46.733 27.5173 46.733 27.5173ZM130.708 27.5173L138.966 35.5835C138.966 35.5835 140.589 36.8924 140.589 39.2684V47.3128C140.589 48.4178 139.799 49.3145 138.825 49.3145H137.944C136.97 49.3145 136.18 48.4178 136.18 47.3128V39.077H128.762V48.786C128.762 53.6474 132.239 57.5947 136.523 57.5947H140.402C144.686 57.5947 148.163 53.6474 148.163 48.786V35.982C148.163 32.3019 144.896 29.4084 144.896 29.4084L137.553 22.2409C137.553 22.2409 136.18 21.3644 136.18 18.6848V9.93549C136.18 8.83047 136.97 7.93338 137.944 7.93338H138.825C139.799 7.93338 140.589 8.83047 140.589 9.93549V18.5601H148.163V8.80826C148.163 3.9469 144.686 0 140.402 0H136.523C132.239 0 128.762 3.9469 128.762 8.80826V23.5482C128.762 26.0622 130.708 27.5173 130.708 27.5173ZM34.1533 0C38.4365 0 41.9138 3.9469 41.9138 8.80826V48.786C41.9138 53.6474 38.4365 57.5943 34.1533 57.5943H30.2731C25.9902 57.5943 22.5127 53.6474 22.5127 48.786V8.80826C22.5127 3.9469 25.9902 0 30.2731 0H34.1533ZM32.5762 7.93338C33.5497 7.93338 34.3397 8.83047 34.3397 9.93549V47.3128C34.3397 48.4178 33.5497 49.3145 32.5762 49.3145H31.6941C30.7209 49.3145 29.9306 48.4178 29.9306 47.3128V9.93549C29.9306 8.83047 30.7209 7.93338 31.6941 7.93338H32.5762ZM7.45526 28.6494V8.42957H10.3908C11.5019 8.42957 12.4043 9.45383 12.4043 10.7151V26.3638C12.4043 27.6255 11.5019 28.6494 10.3908 28.6494H7.45526ZM113.566 28.6486V8.42876H116.502C117.613 8.42876 118.515 9.45262 118.515 10.7139V26.363C118.515 27.6243 117.613 28.6486 116.502 28.6486H113.566ZM8.36911 71.1432H4.18474V118.05H8.36911C9.29347 118.05 10.0429 117.21 10.0429 116.173V73.0195C10.0429 71.9833 9.29347 71.1432 8.36911 71.1432ZM0 66.4524V122.74H8.36911C11.6045 122.74 14.2276 119.8 14.2276 116.173V73.0195C14.2276 69.3927 11.6045 66.4524 8.36911 66.4524H0ZM28.4613 66.4524H42.6889V71.1432H32.646V92.7202H42.6889V97.4107H32.646V118.05H42.6889V122.74H32.646H28.4613V66.4524ZM89.5685 74.8234H85.3842V122.74H89.5685V74.8234ZM89.5685 66.4524H85.3842V70.6379H89.5685V66.4524ZM136.446 86.5553L143.978 122.74H148.163V66.4524H143.978V102.637L136.446 66.4524H132.262V122.74H136.446V86.5553ZM62.7811 71.1432H65.2921C66.2164 71.1432 66.9658 71.9833 66.9658 73.0195V82.4008H71.1502V73.0195C71.1502 69.3927 68.5275 66.4524 65.2921 66.4524H62.7811C59.5457 66.4524 56.923 69.3927 56.923 73.0195V86.2394L56.9227 87.2622L56.9226 88.5208C56.9226 89.8055 58.492 91.4127 58.492 91.4127L65.1765 97.8317C65.1765 97.8317 66.9658 99.2798 66.9658 100.159V116.173C66.9658 117.21 66.2164 118.05 65.2921 118.05H62.7811C61.8567 118.05 61.1073 117.21 61.1073 116.173V106.792H56.923V116.173C56.923 119.8 59.5457 122.74 62.7811 122.74H65.2921C68.5275 122.74 71.1502 119.8 71.1502 116.173V98.2244C71.1502 97.1201 68.7857 95.1289 68.7857 95.1289L62.6687 89.2254C62.6687 89.2254 61.1073 87.8805 61.1073 86.6364V73.0195C61.1073 71.9833 61.8567 71.1432 62.7811 71.1432ZM118.028 98.3492V93.6583H110.496V98.3492H113.843V116.173C113.843 117.21 113.094 118.05 112.17 118.05H109.659C108.735 118.05 107.985 117.21 107.985 116.173V73.0195C107.985 71.9833 108.735 71.1432 109.659 71.1432H112.17C113.094 71.1432 113.843 71.9833 113.843 73.0195V84.277H118.028V73.0195C118.028 69.3927 115.405 66.4524 112.17 66.4524H109.659C106.424 66.4524 103.801 69.3927 103.801 73.0195V116.173C103.801 119.8 106.424 122.74 109.659 122.74H112.17C115.405 122.74 118.028 119.8 118.028 116.173V98.3492Z" fill="white"/>
</svg>
