<svg width="58" height="22" viewBox="0 0 58 22" fill="none" xmlns="http://www.w3.org/2000/svg">
<path d="M8.83119 10.7421C8.83119 11.1308 8.71884 11.5046 8.49412 11.8634C8.28439 12.2222 8.02223 12.5586 7.70763 12.8726C7.39303 13.1716 7.04848 13.4557 6.67396 13.7248C6.29943 13.9789 5.95488 14.2032 5.64028 14.3976C5.34066 14.6069 5.09348 14.7788 4.89873 14.9134C4.70398 15.0479 4.6066 15.1526 4.6066 15.2273C4.6066 15.4217 4.62907 15.6983 4.67402 16.0571C4.71896 16.401 4.77139 16.7822 4.83131 17.2008C4.90622 17.6045 4.97363 18.0231 5.03356 18.4567C5.10846 18.8902 5.16089 19.2864 5.19085 19.6453C5.19085 19.6602 5.19834 19.7275 5.21333 19.8471C5.24329 19.9667 5.27325 20.1013 5.30321 20.2508C5.34815 20.4003 5.37811 20.5348 5.39309 20.6544C5.42306 20.789 5.43804 20.8712 5.43804 20.9011C5.43804 21.0058 5.43055 21.1179 5.41557 21.2375C5.41557 21.3721 5.3931 21.4917 5.34815 21.5963C5.31819 21.7159 5.26576 21.8131 5.19085 21.8879C5.11595 21.9626 5.01857 22 4.89873 22C4.73394 22 4.61409 21.9252 4.53919 21.7757C4.46428 21.6412 4.42683 21.5066 4.42683 21.3721C4.42683 21.3422 4.42683 21.3123 4.42683 21.2824C4.44181 21.2525 4.4493 21.2151 4.4493 21.1702C4.4493 21.0058 4.38938 20.5647 4.26953 19.8471C4.14969 19.1295 4.01486 18.2698 3.86505 17.2681C3.71524 16.2813 3.58042 15.2198 3.46057 14.0836C3.34072 12.9324 3.2808 11.8485 3.2808 10.8318C3.2808 10.7571 3.28829 10.6748 3.30327 10.5851C3.31825 10.4805 3.32574 10.3908 3.32574 10.316C3.17593 10.331 2.95122 10.3982 2.65161 10.5178C2.36697 10.6374 2.08233 10.787 1.7977 10.9664C1.51306 11.1308 1.25839 11.3102 1.03368 11.5046C0.823945 11.684 0.719079 11.8485 0.719079 11.998H0.561781C0.516838 11.998 0.464405 11.9681 0.404482 11.9083C0.329578 11.8485 0.269655 11.7812 0.224712 11.7064C0.164789 11.6317 0.112356 11.5569 0.0674137 11.4822C0.0224712 11.4074 0 11.3551 0 11.3252C0 11.0112 0.18726 10.7197 0.561781 10.4506C0.936301 10.1665 1.40071 9.91981 1.955 9.7105C2.52427 9.48624 3.14597 9.3143 3.82011 9.1947C4.49425 9.06014 5.13093 8.99286 5.73016 8.99286C6.31442 8.99286 6.80129 9.06014 7.19079 9.1947C7.59528 9.32926 7.91736 9.49371 8.15706 9.68807C8.39675 9.86748 8.56903 10.0544 8.67389 10.2487C8.77876 10.4431 8.83119 10.6075 8.83119 10.7421ZM7.7301 10.6748C7.7301 10.5253 7.54284 10.3758 7.16832 10.2263C6.7938 10.0618 6.35187 9.97961 5.84252 9.97961C5.3931 9.97961 5.06352 9.99456 4.85379 10.0245C4.64405 10.0544 4.50174 10.0843 4.42683 10.1142C4.39687 10.3534 4.3744 10.6374 4.35942 10.9664C4.34444 11.2953 4.33695 11.6317 4.33695 11.9755C4.33695 12.3344 4.34444 12.6857 4.35942 13.0296C4.38938 13.3585 4.41934 13.6351 4.4493 13.8593C4.65904 13.7248 4.94367 13.5454 5.30321 13.3211C5.67773 13.0819 6.04476 12.8203 6.4043 12.5362C6.76384 12.2372 7.07095 11.9307 7.32562 11.6167C7.59528 11.2878 7.7301 10.9738 7.7301 10.6748Z" fill="#00C2FF"/>
<path d="M14.1109 12.3792C14.1109 12.7081 14.0659 13.0221 13.9761 13.3211C13.8862 13.6201 13.7663 13.8818 13.6165 14.106C13.4667 14.3303 13.2869 14.5097 13.0772 14.6442C12.8825 14.7638 12.6652 14.8236 12.4255 14.8236C12.0061 14.8236 11.6765 14.704 11.4368 14.4648C11.1971 14.2256 11.0098 13.949 10.875 13.6351C10.7552 13.3211 10.6728 13.0071 10.6278 12.6932C10.5979 12.3643 10.5829 12.1176 10.5829 11.9531C10.5829 11.684 10.6203 11.385 10.6953 11.0561C10.7851 10.7122 10.8975 10.3982 11.0323 10.1142C11.1821 9.83011 11.3469 9.59089 11.5267 9.39653C11.7065 9.20217 11.8937 9.10499 12.0885 9.10499C12.1334 9.10499 12.2008 9.11995 12.2907 9.14985C12.3956 9.17975 12.5004 9.2246 12.6053 9.2844C12.7102 9.34421 12.8001 9.41896 12.875 9.50866C12.9648 9.59837 13.0248 9.70302 13.0547 9.82263C13.2195 9.83758 13.3843 9.89738 13.5491 10.002C13.7139 10.1067 13.8038 10.1889 13.8188 10.2487C13.9386 10.6374 14.0135 11.0262 14.0435 11.4149C14.0884 11.8036 14.1109 12.125 14.1109 12.3792ZM13.0997 11.9755C13.0997 11.7513 13.0772 11.5195 13.0323 11.2803C12.9873 11.0262 12.8974 10.772 12.7626 10.5178C12.7326 10.5328 12.6952 10.5403 12.6502 10.5403C12.5903 10.5403 12.5379 10.5328 12.493 10.5178C12.463 10.5029 12.433 10.4954 12.4031 10.4954C12.2233 10.4954 12.081 10.5477 11.9761 10.6524C11.8712 10.7421 11.7889 10.8692 11.7289 11.0336C11.684 11.1831 11.654 11.3476 11.639 11.527C11.6241 11.7064 11.6166 11.8784 11.6166 12.0428C11.6166 12.2073 11.6241 12.3942 11.639 12.6035C11.654 12.7978 11.684 12.9847 11.7289 13.1641C11.7889 13.3435 11.8638 13.5005 11.9536 13.6351C12.0435 13.7547 12.1634 13.8145 12.3132 13.8145C12.463 13.8145 12.5903 13.7397 12.6952 13.5902C12.8001 13.4258 12.8825 13.2389 12.9424 13.0296C13.0023 12.8203 13.0398 12.6184 13.0547 12.4241C13.0847 12.2147 13.0997 12.0652 13.0997 11.9755Z" fill="#00C2FF"/>
<path d="M21.6898 10.3833C21.6898 10.4879 21.6449 10.5776 21.555 10.6524C21.4651 10.7122 21.3603 10.7645 21.2404 10.8094C21.1206 10.8542 21.0007 10.8916 20.8809 10.9215C20.761 10.9365 20.6636 10.9439 20.5887 10.9439C20.364 10.9439 20.2142 10.929 20.1393 10.8991C20.0644 10.8692 20.0045 10.8542 19.9595 10.8542C19.585 10.8542 19.2854 10.8841 19.0607 10.9439C18.836 11.0037 18.6562 11.1009 18.5214 11.2355C18.4015 11.37 18.3191 11.542 18.2742 11.7513C18.2442 11.9456 18.2293 12.1848 18.2293 12.4689C18.2293 12.9473 18.2442 13.3286 18.2742 13.6126C18.3191 13.8967 18.3566 14.1284 18.3866 14.3078C18.4315 14.4873 18.469 14.6293 18.4989 14.7339C18.5439 14.8236 18.5663 14.9134 18.5663 15.0031C18.5663 15.1227 18.4989 15.2497 18.3641 15.3843C18.2442 15.5189 18.1319 15.5861 18.027 15.5861C17.8472 15.5861 17.6825 15.4292 17.5327 15.1152C17.3978 14.7863 17.278 14.405 17.1731 13.9715C17.0832 13.5229 17.0083 13.0819 16.9484 12.6483C16.8885 12.2147 16.8585 11.8858 16.8585 11.6616C16.8585 11.4074 16.881 11.1682 16.9259 10.9439C16.9709 10.7047 17.0308 10.5029 17.1057 10.3384C17.1806 10.159 17.263 10.017 17.3529 9.91233C17.4428 9.80768 17.5327 9.75535 17.6225 9.75535C17.6974 9.75535 17.7574 9.78525 17.8023 9.84505C17.8472 9.88991 17.8847 9.94971 17.9147 10.0245C17.9446 10.0843 17.9746 10.1441 18.0045 10.2039C18.0495 10.2487 18.1019 10.2712 18.1618 10.2712C18.2967 10.2712 18.5139 10.2039 18.8135 10.0693C19.1131 9.93476 19.4802 9.86748 19.9146 9.86748C20.3191 9.86748 20.6187 9.88243 20.8134 9.91233C21.0232 9.92728 21.2254 9.97214 21.4202 10.0469C21.4651 10.0618 21.5175 10.0992 21.5775 10.159C21.6524 10.2039 21.6898 10.2786 21.6898 10.3833Z" fill="#00C2FF"/>
<path d="M29.4515 7.08665C29.2568 7.31091 28.9796 7.53517 28.6201 7.75943C28.2606 7.96874 27.901 8.1631 27.5415 8.34251C27.1819 8.52192 26.8673 8.6789 26.5977 8.81345C26.328 8.93306 26.1932 9.01529 26.1932 9.06014C26.1932 9.10499 26.2232 9.23955 26.2831 9.46381C26.343 9.68807 26.4104 9.95719 26.4853 10.2712C26.5752 10.5702 26.6651 10.8841 26.755 11.213C26.8449 11.542 26.9198 11.8335 26.9797 12.0877C27.0097 12.2372 27.0471 12.4315 27.0921 12.6707C27.137 12.91 27.1744 13.1492 27.2044 13.3884C27.2494 13.6276 27.2868 13.8444 27.3168 14.0387C27.3467 14.2181 27.3617 14.3153 27.3617 14.3303C27.3617 14.5545 27.3243 14.7863 27.2493 15.0255C27.1744 15.2647 27.0546 15.3843 26.8898 15.3843C26.7999 15.3843 26.7175 15.3469 26.6426 15.2722C26.5677 15.1974 26.5003 15.1152 26.4404 15.0255C26.3805 14.9208 26.3355 14.8236 26.3056 14.7339C26.2756 14.6442 26.2606 14.577 26.2606 14.5321C26.2606 14.5022 26.2606 14.4574 26.2606 14.3976C26.2756 14.3378 26.2831 14.2705 26.2831 14.1957C26.2831 13.9117 26.2381 13.5005 26.1483 12.9623C26.1183 12.7978 26.0584 12.5437 25.9685 12.1998C25.8786 11.8559 25.7887 11.5046 25.6988 11.1458C25.594 10.7271 25.4741 10.2712 25.3393 9.77778C25.2794 9.56847 25.2419 9.46381 25.2269 9.46381C25.1221 9.46381 24.9423 9.53109 24.6876 9.66565C24.4479 9.78525 24.1708 9.94223 23.8562 10.1366C23.5416 10.316 23.212 10.5178 22.8675 10.7421C22.5229 10.9514 22.2008 11.1532 21.9012 11.3476C21.6016 11.527 21.3469 11.684 21.1372 11.8186C20.9125 11.9382 20.7776 11.998 20.7327 11.998C20.5379 11.998 20.3806 11.9307 20.2608 11.7961C20.141 11.6616 20.081 11.5121 20.081 11.3476C20.081 11.2579 20.2084 11.1308 20.463 10.9664C20.7027 10.787 21.0098 10.5926 21.3844 10.3833C21.7439 10.174 22.1409 9.95719 22.5753 9.73293C22.9948 9.50866 23.3843 9.30683 23.7438 9.12742C24.1184 8.94801 24.4255 8.7985 24.6652 8.6789C24.9198 8.55929 25.0472 8.49949 25.0472 8.49949C24.9123 7.81176 24.8 7.19878 24.7101 6.66055C24.6352 6.19708 24.5603 5.77098 24.4854 5.38226C24.4255 4.99354 24.3955 4.78423 24.3955 4.75433C24.3955 4.55997 24.433 4.41794 24.5079 4.32824C24.5977 4.22358 24.6951 4.17125 24.8 4.17125C24.9648 4.17125 25.0696 4.28338 25.1146 4.50764C25.2794 5.31498 25.4292 6.03262 25.564 6.66055C25.7138 7.28848 25.8561 7.79681 25.991 8.18552C26.1258 8.15562 26.358 8.07339 26.6876 7.93884C27.0171 7.78933 27.3617 7.63235 27.7212 7.46789C28.0808 7.30343 28.4029 7.1614 28.6875 7.04179C28.9871 6.90724 29.1594 6.83996 29.2043 6.83996C29.2942 6.83996 29.3467 6.86986 29.3616 6.92966C29.3916 6.98947 29.4216 7.04179 29.4515 7.08665Z" fill="#00C2FF"/>
<path d="M38.0206 1.14373C38.0356 1.17363 38.0431 1.22596 38.0431 1.30071C38.0431 1.37547 38.0431 1.4577 38.0431 1.5474C38.0431 1.65205 38.0056 1.70438 37.9307 1.70438C37.9008 1.70438 37.8633 1.69691 37.8184 1.68196C37.7734 1.66701 37.736 1.65206 37.706 1.6371C37.4364 1.5175 37.1068 1.36799 36.7173 1.18858C36.3428 0.994223 35.9158 0.897043 35.4364 0.897043C34.8971 0.897043 34.4627 1.09888 34.1331 1.50255C33.8035 1.90622 33.5488 2.37717 33.3691 2.91539C33.2043 3.43867 33.0919 3.95447 33.032 4.46279C32.9871 4.97112 32.9646 5.33741 32.9646 5.56167C32.9646 5.72613 32.9871 5.98777 33.032 6.34658C33.0919 6.69045 33.1668 7.04927 33.2567 7.42304C33.3466 7.79681 33.4515 8.14067 33.5713 8.45464C33.6912 8.75365 33.811 8.94054 33.9309 9.01529C34.0207 9.01529 34.178 9.00782 34.4028 8.99286C34.6424 8.97791 34.8372 8.97044 34.987 8.97044C35.2417 8.97044 35.4814 8.99286 35.7061 9.03772C35.9308 9.08257 36.163 9.10499 36.4027 9.10499C36.4626 9.10499 36.5525 9.10499 36.6723 9.10499C36.7922 9.10499 36.912 9.11247 37.0319 9.12742C37.1667 9.14237 37.2791 9.17227 37.369 9.21712C37.4588 9.24703 37.5038 9.29188 37.5038 9.35168C37.5038 9.42644 37.4513 9.49371 37.3465 9.55352C37.2416 9.61332 37.1218 9.66565 36.9869 9.7105C36.8521 9.7404 36.7173 9.76283 36.5825 9.77778C36.4476 9.79273 36.3428 9.8002 36.2679 9.8002C36.193 9.8002 36.0956 9.8002 35.9757 9.8002C35.8559 9.78525 35.7211 9.7703 35.5713 9.75535C35.4364 9.7404 35.3016 9.73293 35.1668 9.73293C35.0469 9.71798 34.9421 9.7105 34.8522 9.7105C34.6125 9.7105 34.4627 9.7404 34.4028 9.8002C34.3578 9.84506 34.3353 9.94224 34.3353 10.0917C34.3353 10.316 34.4327 10.6225 34.6275 11.0112C34.8372 11.385 35.0619 11.7887 35.3016 12.2222C35.5413 12.6558 35.7585 13.1043 35.9533 13.5678C36.163 14.0313 36.2679 14.4574 36.2679 14.8461C36.2679 14.9208 36.2454 15.0629 36.2005 15.2722C36.1705 15.4665 36.1181 15.6684 36.0432 15.8777C35.9832 16.087 35.8933 16.2739 35.7735 16.4383C35.6536 16.6028 35.5188 16.685 35.369 16.685C35.2492 16.685 35.1368 16.6551 35.0319 16.5953C34.9421 16.5206 34.8971 16.401 34.8971 16.2365C34.8971 15.9973 34.957 15.773 35.0769 15.5637C35.2117 15.3544 35.2791 15.1301 35.2791 14.8909C35.2791 14.7713 35.2192 14.5695 35.0994 14.2854C34.9945 14.0014 34.8597 13.6874 34.6949 13.3435C34.5301 12.9847 34.3503 12.6109 34.1556 12.2222C33.9608 11.8335 33.7736 11.4822 33.5938 11.1682C33.429 10.8393 33.2867 10.5702 33.1668 10.3609C33.047 10.1515 32.9796 10.0394 32.9646 10.0245C32.665 10.1291 32.3579 10.2338 32.0433 10.3384C31.7287 10.4431 31.444 10.6001 31.1894 10.8094C31.0845 10.914 30.9871 10.9664 30.8972 10.9664C30.7474 10.9664 30.6051 10.9066 30.4703 10.787C30.3504 10.6673 30.2905 10.5328 30.2905 10.3833C30.2905 10.2188 30.3355 10.0917 30.4253 10.002C30.5302 9.89738 30.6276 9.82263 30.7175 9.77778C30.8523 9.70302 31.062 9.62079 31.3467 9.53109C31.6313 9.44139 31.9159 9.36663 32.2006 9.30683C32.3054 9.27693 32.4028 9.2545 32.4927 9.23955C32.5826 9.20965 32.6275 9.15732 32.6275 9.08257C32.5826 8.93306 32.5152 8.7387 32.4253 8.49949C32.3504 8.24533 32.268 7.94631 32.1781 7.60245C32.1032 7.25858 32.0358 6.87734 31.9759 6.45872C31.9159 6.02514 31.886 5.56167 31.886 5.0683C31.886 4.53007 31.9459 3.96194 32.0657 3.36391C32.2006 2.76588 32.4028 2.22018 32.6725 1.72681C32.9571 1.21848 33.3092 0.807339 33.7286 0.493373C34.1481 0.164458 34.6499 0 35.2342 0C35.5038 0 35.8035 0.0299011 36.133 0.0897032C36.4626 0.134556 36.7622 0.20931 37.0319 0.313965C37.3165 0.403669 37.5487 0.523275 37.7285 0.672782C37.9232 0.807339 38.0206 0.964322 38.0206 1.14373Z" fill="#00C2FF"/>
<path d="M43.4727 12.3792C43.4727 12.7081 43.4278 13.0221 43.3379 13.3211C43.248 13.6201 43.1281 13.8818 42.9783 14.106C42.8285 14.3303 42.6488 14.5097 42.439 14.6442C42.2443 14.7638 42.0271 14.8236 41.7874 14.8236C41.3679 14.8236 41.0383 14.704 40.7986 14.4648C40.5589 14.2256 40.3717 13.949 40.2368 13.6351C40.117 13.3211 40.0346 13.0071 39.9897 12.6932C39.9597 12.3643 39.9447 12.1176 39.9447 11.9531C39.9447 11.684 39.9822 11.385 40.0571 11.0561C40.147 10.7122 40.2593 10.3982 40.3941 10.1142C40.5439 9.83011 40.7087 9.59089 40.8885 9.39653C41.0683 9.20217 41.2555 9.10499 41.4503 9.10499C41.4952 9.10499 41.5626 9.11995 41.6525 9.14985C41.7574 9.17975 41.8623 9.2246 41.9671 9.2844C42.072 9.34421 42.1619 9.41896 42.2368 9.50866C42.3267 9.59837 42.3866 9.70302 42.4166 9.82263C42.5813 9.83758 42.7461 9.89738 42.9109 10.002C43.0757 10.1067 43.1656 10.1889 43.1806 10.2487C43.3004 10.6374 43.3753 11.0262 43.4053 11.4149C43.4502 11.8036 43.4727 12.125 43.4727 12.3792ZM42.4615 11.9755C42.4615 11.7513 42.439 11.5195 42.3941 11.2803C42.3491 11.0262 42.2593 10.772 42.1244 10.5178C42.0945 10.5328 42.057 10.5403 42.0121 10.5403C41.9521 10.5403 41.8997 10.5328 41.8548 10.5178C41.8248 10.5029 41.7948 10.4954 41.7649 10.4954C41.5851 10.4954 41.4428 10.5477 41.3379 10.6524C41.2331 10.7421 41.1507 10.8692 41.0907 11.0336C41.0458 11.1831 41.0158 11.3476 41.0009 11.527C40.9859 11.7064 40.9784 11.8784 40.9784 12.0428C40.9784 12.2073 40.9859 12.3942 41.0009 12.6035C41.0158 12.7978 41.0458 12.9847 41.0907 13.1641C41.1507 13.3435 41.2256 13.5005 41.3155 13.6351C41.4053 13.7547 41.5252 13.8145 41.675 13.8145C41.8248 13.8145 41.9521 13.7397 42.057 13.5902C42.1619 13.4258 42.2443 13.2389 42.3042 13.0296C42.3641 12.8203 42.4016 12.6184 42.4166 12.4241C42.4465 12.2147 42.4615 12.0652 42.4615 11.9755Z" fill="#00C2FF"/>
<path d="M48.7371 16.5729C48.7371 16.6925 48.6922 16.7822 48.6023 16.842C48.5124 16.9018 48.4075 16.9317 48.2877 16.9317C48.1529 16.9317 48.0105 16.8046 47.8607 16.5505C47.7259 16.2963 47.5911 15.9749 47.4563 15.5861C47.3214 15.1974 47.1941 14.7788 47.0742 14.3303C46.9544 13.8668 46.8495 13.4407 46.7596 13.052C46.6698 12.6483 46.5949 12.3119 46.5349 12.0428C46.49 11.7737 46.4675 11.6242 46.4675 11.5943C46.4675 11.5345 46.4376 11.3775 46.3776 11.1233C46.3327 10.8692 46.2653 10.473 46.1754 9.93476C46.1005 9.39653 46.0106 8.70132 45.9057 7.84913C45.8159 6.98199 45.7185 5.91301 45.6136 4.6422C45.6136 4.50764 45.6361 4.33571 45.681 4.1264C45.726 3.91709 45.8308 3.81244 45.9956 3.81244C46.2054 3.81244 46.3627 3.95447 46.4675 4.23853C46.5874 4.5226 46.6773 4.87394 46.7372 5.29256C46.8121 5.71118 46.8645 6.15223 46.8945 6.6157C46.9244 7.06422 46.9619 7.46041 47.0068 7.80428C47.0667 8.2827 47.1192 8.71628 47.1641 9.10499C47.2241 9.49371 47.2765 9.88243 47.3214 10.2712C47.3813 10.6449 47.4488 11.0411 47.5237 11.4597C47.6136 11.8784 47.7184 12.3418 47.8383 12.8502L48.7371 16.5729Z" fill="#00C2FF"/>
<path d="M51.8143 6.90724C51.8143 6.93714 51.7618 6.99694 51.657 7.08665C51.5521 7.17635 51.4248 7.27353 51.275 7.37819C51.1401 7.46789 50.9978 7.55012 50.848 7.62487C50.6982 7.69963 50.5783 7.737 50.4885 7.737C50.4285 7.737 50.3461 7.737 50.2413 7.737C50.1514 7.72205 50.054 7.69215 49.9492 7.6473C49.8593 7.60245 49.7769 7.54264 49.702 7.46789C49.6271 7.37818 49.5896 7.26605 49.5896 7.1315C49.5896 6.92219 49.6645 6.72783 49.8143 6.54842C49.9641 6.35406 50.1589 6.25688 50.3986 6.25688C50.4435 6.25688 50.5409 6.27931 50.6907 6.32416C50.8555 6.35406 51.0203 6.39891 51.1851 6.45872C51.3499 6.51852 51.4922 6.5858 51.612 6.66055C51.7469 6.7353 51.8143 6.81753 51.8143 6.90724ZM52.5558 15.2946C52.5558 15.3993 52.4734 15.489 52.3086 15.5637C52.1588 15.6385 52.0465 15.6758 51.9716 15.6758C51.8218 15.6758 51.6869 15.5787 51.5671 15.3843C51.4472 15.1899 51.3424 14.9657 51.2525 14.7115C51.1626 14.4574 51.0877 14.2181 51.0278 13.9939C50.9678 13.7547 50.9229 13.5902 50.8929 13.5005C50.848 13.351 50.7881 13.1716 50.7132 12.9623C50.6383 12.753 50.5634 12.5511 50.4885 12.3568C50.4285 12.1624 50.3761 11.9905 50.3312 11.841C50.2862 11.6915 50.2638 11.6092 50.2638 11.5943C50.2638 11.385 50.3012 11.1906 50.3761 11.0112C50.466 10.8318 50.5709 10.7421 50.6907 10.7421C50.8255 10.7421 50.9679 10.8468 51.1177 11.0561C51.2675 11.2654 51.4098 11.5345 51.5446 11.8634C51.6944 12.1774 51.8292 12.5287 51.9491 12.9174C52.0689 13.2912 52.1738 13.65 52.2637 13.9939C52.3536 14.3228 52.421 14.6143 52.4659 14.8685C52.5259 15.1077 52.5558 15.2497 52.5558 15.2946Z" fill="#00C2FF"/>
<path d="M58 12.3792C58 12.7081 57.9551 13.0221 57.8652 13.3211C57.7753 13.6201 57.6554 13.8818 57.5056 14.106C57.3558 14.3303 57.1761 14.5097 56.9663 14.6442C56.7716 14.7638 56.5544 14.8236 56.3147 14.8236C55.8952 14.8236 55.5656 14.704 55.3259 14.4648C55.0862 14.2256 54.899 13.949 54.7641 13.6351C54.6443 13.3211 54.5619 13.0071 54.517 12.6932C54.487 12.3643 54.472 12.1176 54.472 11.9531C54.472 11.684 54.5095 11.385 54.5844 11.0561C54.6743 10.7122 54.7866 10.3982 54.9214 10.1142C55.0712 9.83011 55.236 9.59089 55.4158 9.39653C55.5956 9.20217 55.7828 9.10499 55.9776 9.10499C56.0225 9.10499 56.0899 9.11995 56.1798 9.14985C56.2847 9.17975 56.3896 9.2246 56.4944 9.2844C56.5993 9.34421 56.6892 9.41896 56.7641 9.50866C56.854 9.59837 56.9139 9.70302 56.9439 9.82263C57.1086 9.83758 57.2734 9.89738 57.4382 10.002C57.603 10.1067 57.6929 10.1889 57.7079 10.2487C57.8277 10.6374 57.9026 11.0262 57.9326 11.4149C57.9775 11.8036 58 12.125 58 12.3792ZM56.9888 11.9755C56.9888 11.7513 56.9663 11.5195 56.9214 11.2803C56.8764 11.0262 56.7866 10.772 56.6517 10.5178C56.6218 10.5328 56.5843 10.5403 56.5394 10.5403C56.4794 10.5403 56.427 10.5328 56.3821 10.5178C56.3521 10.5029 56.3221 10.4954 56.2922 10.4954C56.1124 10.4954 55.9701 10.5477 55.8652 10.6524C55.7604 10.7421 55.678 10.8692 55.618 11.0336C55.5731 11.1831 55.5431 11.3476 55.5282 11.527C55.5132 11.7064 55.5057 11.8784 55.5057 12.0428C55.5057 12.2073 55.5132 12.3942 55.5282 12.6035C55.5431 12.7978 55.5731 12.9847 55.618 13.1641C55.678 13.3435 55.7529 13.5005 55.8428 13.6351C55.9326 13.7547 56.0525 13.8145 56.2023 13.8145C56.3521 13.8145 56.4794 13.7397 56.5843 13.5902C56.6892 13.4258 56.7716 13.2389 56.8315 13.0296C56.8914 12.8203 56.9289 12.6184 56.9439 12.4241C56.9738 12.2147 56.9888 12.0652 56.9888 11.9755Z" fill="#00C2FF"/>
</svg>
