<?xml version="1.0" encoding="UTF-8" standalone="no"?>
<!DOCTYPE svg PUBLIC "-//W3C//DTD SVG 1.1//EN" "http://www.w3.org/Graphics/SVG/1.1/DTD/svg11.dtd">
<svg width="100%" height="100%" viewBox="0 0 116 290" version="1.1" xmlns="http://www.w3.org/2000/svg" xmlns:xlink="http://www.w3.org/1999/xlink" xml:space="preserve" xmlns:serif="http://www.serif.com/" style="fill-rule:evenodd;clip-rule:evenodd;stroke-linejoin:round;stroke-miterlimit:2;">
    <g transform="matrix(1,0,0,1.00387,0,0)">
        <rect x="0" y="0" width="116" height="288.883" style="fill:rgb(255,0,0);"/>
    </g>
    <path d="M52.86,274.333C52.468,274.333 52.095,274.258 51.742,274.108C51.389,273.958 51.101,273.742 50.877,273.458L51.398,273.075C51.538,273.292 51.738,273.47 51.999,273.608C52.259,273.747 52.549,273.817 52.869,273.817C53.255,273.817 53.596,273.7 53.89,273.467C54.184,273.233 54.331,272.928 54.331,272.55C54.331,272.139 54.171,271.838 53.852,271.646C53.533,271.454 53.14,271.358 52.675,271.358L52.331,271.358L52.331,270.842L52.675,270.842C53.118,270.842 53.474,270.75 53.743,270.567C54.012,270.383 54.146,270.095 54.146,269.7C54.146,269.406 54.017,269.156 53.76,268.95C53.502,268.745 53.202,268.642 52.86,268.642C52.289,268.642 51.86,268.839 51.574,269.233L51.112,268.858C51.269,268.647 51.496,268.474 51.793,268.338C52.09,268.202 52.437,268.133 52.835,268.133C53.407,268.133 53.863,268.272 54.205,268.55C54.547,268.828 54.718,269.22 54.718,269.725C54.718,270.064 54.618,270.353 54.419,270.592C54.22,270.831 53.961,270.992 53.642,271.075L53.642,271.092C54.017,271.164 54.328,271.331 54.575,271.592C54.821,271.853 54.945,272.172 54.945,272.55C54.945,273.095 54.743,273.528 54.34,273.85C53.936,274.172 53.443,274.333 52.86,274.333ZM42.245,274.25C42.054,274.25 41.877,274.233 41.715,274.2L41.807,273.633C41.931,273.678 42.074,273.7 42.236,273.7C42.427,273.7 42.588,273.647 42.719,273.542C42.851,273.436 42.981,273.27 43.11,273.042L43.505,272.317L41.194,268.283L41.9,268.283L43.841,271.708L45.733,268.283L46.397,268.283L43.631,273.242C43.441,273.575 43.242,273.827 43.035,273.996C42.827,274.165 42.564,274.25 42.245,274.25ZM65.199,274.183L65.199,268.283L65.804,268.283L65.804,274.183L65.199,274.183ZM81.068,274.183L81.068,268.283L81.673,268.283L81.673,273.25L81.69,273.25L84.968,268.283L85.649,268.283L85.649,274.183L85.044,274.183L85.044,269.167L85.027,269.167L81.749,274.183L81.068,274.183ZM30.309,274.183L30.309,268.283L31.234,268.283L33.251,273.167L33.259,273.167L35.251,268.283L36.176,268.283L36.176,274.183L35.571,274.183L35.571,269.058L35.554,269.058L33.402,274.183L33.083,274.183L30.931,269.058L30.914,269.058L30.914,274.183L30.309,274.183ZM71.587,274.183L71.587,268.283L72.192,268.283L72.192,270.933L72.201,270.933L75.033,268.283L75.899,268.283L72.898,270.958L76.067,274.183L75.176,274.183L72.201,271.042L72.192,271.042L72.192,274.183L71.587,274.183ZM60.509,274.183L60.509,268.283L61.114,268.283L61.114,270.842L62.156,270.842C62.812,270.842 63.333,270.985 63.72,271.271C64.106,271.557 64.3,271.972 64.3,272.517C64.3,273.061 64.111,273.475 63.732,273.758C63.354,274.042 62.834,274.183 62.173,274.183L60.509,274.183ZM61.114,273.667L62.106,273.667C63.159,273.667 63.686,273.286 63.686,272.525C63.686,272.147 63.55,271.858 63.278,271.658C63.007,271.458 62.616,271.358 62.106,271.358L61.114,271.358L61.114,273.667ZM84.871,260.954C84.283,261.54 83.543,261.833 82.652,261.833C81.761,261.833 81.022,261.54 80.433,260.954C79.845,260.368 79.551,259.628 79.551,258.733C79.551,257.839 79.845,257.099 80.433,256.513C81.022,255.927 81.761,255.633 82.652,255.633C83.543,255.633 84.283,255.927 84.871,256.513C85.46,257.099 85.754,257.839 85.754,258.733C85.754,259.628 85.46,260.368 84.871,260.954ZM60.555,261.683L60.555,255.783L62.236,255.783C62.858,255.783 63.348,255.917 63.707,256.183C64.066,256.45 64.245,256.842 64.245,257.358C64.245,257.875 64.063,258.268 63.699,258.538C63.334,258.807 62.841,258.942 62.219,258.942L61.16,258.942L61.16,261.683L60.555,261.683ZM91.217,261.683L91.217,255.783L91.822,255.783L91.822,260.75L91.839,260.75L95.117,255.783L95.798,255.783L95.798,261.683L95.193,261.683L95.193,256.667L95.176,256.667L91.898,261.683L91.217,261.683ZM20.16,261.683L20.16,255.783L20.765,255.783L20.765,258.433L20.773,258.433L23.606,255.783L24.472,255.783L21.471,258.458L24.64,261.683L23.749,261.683L20.773,258.542L20.765,258.542L20.765,261.683L20.16,261.683ZM39.727,261.683L39.727,255.783L40.652,255.783L42.669,260.667L42.677,260.667L44.669,255.783L45.594,255.783L45.594,261.683L44.989,261.683L44.989,256.558L44.972,256.558L42.82,261.683L42.501,261.683L40.349,256.558L40.332,256.558L40.332,261.683L39.727,261.683ZM69.633,261.683L69.633,255.783L70.238,255.783L70.238,258.342L73.482,258.342L73.482,255.783L74.088,255.783L74.088,261.683L73.482,261.683L73.482,258.892L70.238,258.892L70.238,261.683L69.633,261.683ZM51.377,261.683L51.377,255.783L55.067,255.783L55.067,256.317L51.982,256.317L51.982,258.35L54.865,258.35L54.865,258.875L51.982,258.875L51.982,261.15L55.167,261.15L55.167,261.683L51.377,261.683ZM28.935,261.683L31.507,255.783L32.095,255.783L34.65,261.683L33.978,261.683L33.322,260.133L30.246,260.133L29.599,261.683L28.935,261.683ZM80.866,260.554C81.317,261.052 81.913,261.3 82.652,261.3C83.392,261.3 83.987,261.052 84.438,260.554C84.89,260.057 85.115,259.45 85.115,258.733C85.115,258.017 84.89,257.408 84.438,256.908C83.987,256.408 83.392,256.158 82.652,256.158C81.913,256.158 81.317,256.408 80.866,256.908C80.415,257.408 80.19,258.017 80.19,258.733C80.19,259.45 80.415,260.057 80.866,260.554ZM30.473,259.583L33.095,259.583L31.784,256.45L30.473,259.583ZM61.16,258.433L62.186,258.433C62.656,258.433 63.016,258.342 63.266,258.158C63.515,257.975 63.64,257.708 63.64,257.358C63.64,256.653 63.155,256.3 62.186,256.3L61.16,256.3L61.16,258.433ZM94.348,254.929C94.127,255.121 93.845,255.217 93.503,255.217C93.162,255.217 92.88,255.121 92.659,254.929C92.437,254.738 92.31,254.478 92.276,254.15L92.663,254.075C92.702,254.286 92.799,254.454 92.953,254.579C93.107,254.704 93.291,254.767 93.503,254.767C93.716,254.767 93.9,254.704 94.054,254.579C94.208,254.454 94.305,254.286 94.344,254.075L94.731,254.15C94.697,254.478 94.57,254.738 94.348,254.929ZM18.672,249.342L18.672,248.633C17.82,248.622 17.14,248.386 16.63,247.925C16.12,247.464 15.865,246.87 15.865,246.142C15.865,245.397 16.124,244.803 16.642,244.358C17.161,243.914 17.837,243.681 18.672,243.658L18.672,243.133L19.277,243.133L19.277,243.658C20.112,243.681 20.789,243.914 21.307,244.358C21.826,244.803 22.085,245.397 22.085,246.142C22.085,246.87 21.83,247.464 21.32,247.925C20.81,248.386 20.129,248.622 19.277,248.633L19.277,249.342L18.672,249.342ZM39.458,249.333C38.562,249.333 37.821,249.04 37.235,248.454C36.649,247.868 36.357,247.128 36.357,246.233C36.357,245.339 36.651,244.599 37.239,244.013C37.828,243.427 38.567,243.133 39.458,243.133C39.895,243.133 40.306,243.218 40.69,243.388C41.073,243.557 41.369,243.783 41.576,244.067L41.072,244.433C40.932,244.222 40.718,244.04 40.429,243.888C40.14,243.735 39.82,243.658 39.467,243.658C38.721,243.658 38.123,243.908 37.672,244.408C37.221,244.908 36.995,245.517 36.995,246.233C36.995,246.95 37.222,247.558 37.676,248.058C38.13,248.558 38.727,248.808 39.467,248.808C40.24,248.808 40.823,248.517 41.215,247.933L41.686,248.233C41.473,248.556 41.174,248.82 40.79,249.025C40.407,249.231 39.962,249.333 39.458,249.333ZM85.712,249.242C85.51,249.242 85.32,249.217 85.14,249.167L85.25,248.625C85.395,248.67 85.516,248.692 85.611,248.692C85.953,248.692 86.223,248.558 86.422,248.292C86.621,248.025 86.767,247.593 86.859,246.996C86.952,246.399 86.998,245.586 86.998,244.558L86.998,243.283L90.562,243.283L90.562,249.183L89.956,249.183L89.956,243.808L87.586,243.808L87.586,244.858C87.586,246.364 87.446,247.471 87.166,248.179C86.886,248.888 86.401,249.242 85.712,249.242ZM55.924,249.183L55.924,243.283L56.529,243.283L56.529,248.25L56.546,248.25L59.824,243.283L60.505,243.283L60.505,249.183L59.9,249.183L59.9,244.167L59.883,244.167L56.605,249.183L55.924,249.183ZM75.13,249.183L77.702,243.283L78.29,243.283L80.845,249.183L80.173,249.183L79.517,247.633L76.441,247.633L75.794,249.183L75.13,249.183ZM66.287,249.183L66.287,243.283L68.061,243.283C68.308,243.283 68.537,243.307 68.75,243.354C68.963,243.402 69.165,243.479 69.355,243.588C69.546,243.696 69.697,243.853 69.809,244.058C69.921,244.264 69.977,244.508 69.977,244.792C69.977,245.103 69.881,245.374 69.687,245.604C69.494,245.835 69.241,245.986 68.927,246.058L68.927,246.075C69.325,246.12 69.648,246.272 69.898,246.533C70.147,246.795 70.272,247.133 70.272,247.55C70.272,248.045 70.073,248.44 69.675,248.738C69.277,249.035 68.736,249.183 68.053,249.183L66.287,249.183ZM96.344,249.183L96.344,243.283L96.95,243.283L96.95,245.842L97.992,245.842C98.647,245.842 99.169,245.985 99.555,246.271C99.942,246.557 100.135,246.972 100.135,247.517C100.135,248.061 99.946,248.475 99.568,248.758C99.19,249.042 98.67,249.183 98.009,249.183L96.344,249.183ZM27.498,249.183L27.498,243.283L31.187,243.283L31.187,243.817L28.103,243.817L28.103,245.85L30.986,245.85L30.986,246.375L28.103,246.375L28.103,248.65L31.288,248.65L31.288,249.183L27.498,249.183ZM48.233,249.183L48.233,243.817L46.241,243.817L46.241,243.283L50.83,243.283L50.83,243.817L48.838,243.817L48.838,249.183L48.233,249.183ZM96.95,248.667L97.941,248.667C98.995,248.667 99.522,248.286 99.522,247.525C99.522,247.147 99.386,246.858 99.114,246.658C98.842,246.458 98.451,246.358 97.941,246.358L96.95,246.358L96.95,248.667ZM66.893,248.667L68.019,248.667C68.495,248.667 68.888,248.572 69.196,248.383C69.504,248.195 69.658,247.906 69.658,247.517C69.658,247.133 69.526,246.845 69.263,246.65C69,246.456 68.621,246.358 68.128,246.358L66.893,246.358L66.893,248.667ZM19.277,248.108C19.978,248.07 20.514,247.878 20.887,247.533C21.26,247.189 21.446,246.728 21.446,246.15C21.446,245.589 21.255,245.127 20.874,244.763C20.493,244.399 19.961,244.206 19.277,244.183L19.277,248.108ZM18.672,248.108L18.672,244.183C17.989,244.206 17.456,244.399 17.075,244.763C16.694,245.127 16.504,245.589 16.504,246.15C16.504,246.728 16.69,247.189 17.063,247.533C17.435,247.878 17.972,248.07 18.672,248.108ZM76.668,247.083L79.29,247.083L77.979,243.95L76.668,247.083ZM66.893,245.867L68.111,245.867C68.453,245.867 68.749,245.783 68.998,245.617C69.248,245.45 69.372,245.189 69.372,244.833C69.372,244.478 69.241,244.217 68.977,244.05C68.714,243.883 68.369,243.8 67.943,243.8L66.893,243.8L66.893,245.867ZM16.666,222.745L16.666,216.455C16.666,212.849 16.825,210.416 17.142,209.157C17.59,207.353 18.51,205.879 19.903,204.734C21.296,203.589 23.046,203.017 25.154,203.017C27.275,203.017 29.026,203.575 30.404,204.691C31.783,205.808 32.71,207.346 33.186,209.307C33.533,210.738 33.706,213.414 33.706,217.335L33.706,219.589L48.516,219.589L48.516,222.745L16.666,222.745ZM58,221.475L67.204,222.618C67.204,222.618 82.906,223.578 92.595,217.643C103.199,211.142 104.889,202.54 105.501,194.62C106.116,186.701 99.855,173.235 99.772,170.819C99.693,168.403 101.406,166.575 101.406,166.575L100.941,165.125C100.941,165.125 99.235,165.796 97.247,165.78C92.561,165.737 89.245,157.165 88.63,150.463C88.042,144.088 90.06,137.831 93.252,136.672C95.456,135.869 96.373,137.172 96.373,137.172L97.136,135.92C97.136,135.92 96.47,136.497 95.922,132.821C95.377,129.148 98.632,122.691 98.947,117.186C99.261,111.68 99.11,105.496 91.96,98.012C84.812,90.534 69.009,90.345 69.009,90.345L66.636,44.144L68.245,44.153L68.077,41.06C67.94,41.147 67.789,41.223 67.623,41.287C65.736,42.018 64.691,40.891 64.481,40.618C64.27,40.346 64.272,40.016 64.272,40.016L64.277,39.225L60.681,39.205L60.947,44.112L59.338,44.103L61.711,90.304C61.711,90.304 77.514,90.493 84.662,97.97C91.812,105.454 91.963,111.639 91.649,117.145C91.334,122.649 88.079,129.107 88.624,132.78C89.172,136.455 89.838,135.878 89.838,135.878L89.075,137.131C89.075,137.131 88.158,135.828 85.954,136.63C82.762,137.79 80.744,144.047 81.331,150.422C81.947,157.124 85.263,165.696 89.949,165.739C91.937,165.755 93.643,165.083 93.643,165.083L94.108,166.534C94.108,166.534 92.395,168.361 92.474,170.777C92.557,173.194 98.818,186.659 98.203,194.578C97.591,202.499 95.901,211.101 85.297,217.601C79.018,221.447 63.42,221.283 58,221.475ZM19.784,219.589L30.588,219.589L30.653,214.244C30.653,212.083 30.455,210.502 30.059,209.5C29.663,208.498 29.022,207.711 28.136,207.139C27.25,206.566 26.259,206.28 25.164,206.28C24.098,206.28 23.123,206.566 22.236,207.139C21.35,207.711 20.72,208.466 20.346,209.403C19.971,210.341 19.784,211.876 19.784,214.008L19.784,219.589ZM16.666,197.157L16.666,194.001L48.516,194.001L48.516,197.157L16.666,197.157ZM19.741,187.99L16.666,187.99L16.666,171.332L45.398,184.524L45.398,171.997L48.516,171.997L48.516,189.407L19.741,176.1L19.741,187.99ZM19.741,166.888L16.666,166.888L16.666,150.23L45.398,163.422L45.398,150.895L48.516,150.895L48.516,168.305L19.741,154.998L19.741,166.888ZM16.666,145.013L16.666,141.858L48.516,141.858L48.516,145.013L16.666,145.013ZM22.577,105.214L24.504,107.704C22.7,109.078 21.332,110.727 20.401,112.652C19.47,114.577 19.004,116.691 19.004,118.996C19.004,121.514 19.614,123.847 20.834,125.994C22.054,128.14 23.692,129.804 25.749,130.985C27.806,132.165 30.119,132.756 32.688,132.756C36.571,132.756 39.812,131.436 42.41,128.795C45.008,126.155 46.308,122.824 46.308,118.802C46.308,114.38 44.561,110.681 41.068,107.704L42.973,105.214C44.994,106.788 46.557,108.752 47.661,111.106C48.765,113.461 49.317,116.09 49.317,118.996C49.317,124.52 47.462,128.877 43.753,132.069C40.62,134.745 36.838,136.083 32.407,136.083C27.745,136.083 23.822,134.462 20.639,131.221C17.456,127.979 15.865,123.919 15.865,119.038C15.865,116.09 16.453,113.428 17.63,111.053C18.806,108.677 20.455,106.731 22.577,105.214ZM16.666,85.979L48.516,71.253L48.516,74.662L38.036,79.628L38.036,93.232L48.516,98.151L48.516,101.672L16.666,86.752L16.666,85.979ZM23.433,86.378L34.962,91.789L34.962,80.993L23.433,86.378ZM19.784,69.493L16.666,69.493L16.666,52.191L19.784,52.191L19.784,59.232L48.516,59.232L48.516,62.452L19.784,62.452L19.784,69.493ZM15.865,32.602C15.865,27.819 17.474,23.817 20.693,20.594C23.912,17.372 27.874,15.761 32.58,15.761C37.243,15.761 41.198,17.369 44.445,20.584C47.693,23.799 49.317,27.719 49.317,32.344C49.317,37.027 47.7,40.979 44.467,44.202C41.234,47.424 37.322,49.035 32.732,49.035C29.672,49.035 26.835,48.301 24.223,46.833C21.61,45.365 19.564,43.364 18.084,40.829C16.605,38.295 15.865,35.552 15.865,32.602ZM18.961,32.462C18.961,34.799 19.575,37.014 20.803,39.106C22.031,41.199 23.685,42.833 25.765,44.009C27.845,45.184 30.164,45.772 32.721,45.772C36.506,45.772 39.702,44.471 42.31,41.869C44.917,39.268 46.221,36.132 46.221,32.462C46.221,30.011 45.621,27.743 44.422,25.657C43.223,23.572 41.584,21.945 39.504,20.777C37.423,19.608 35.112,19.024 32.569,19.024C30.041,19.024 27.755,19.608 25.711,20.777C23.667,21.945 22.031,23.59 20.803,25.711C19.575,27.833 18.961,30.083 18.961,32.462ZM69.3,37.133C69.37,37.522 69.379,37.878 69.371,38.128C69.377,38.406 69.36,38.815 69.261,39.254L71.575,39.267L71.57,40.058C71.57,40.058 71.569,40.387 71.779,40.659C71.989,40.933 73.034,42.06 74.921,41.329C76.534,40.708 76.684,38.937 76.669,38.17C76.693,37.401 76.563,35.629 74.957,34.987C73.079,34.237 72.021,35.352 71.808,35.623C71.594,35.894 71.593,36.219 71.593,36.219L71.587,37.146L69.3,37.133ZM67.748,34.983L67.643,33.052C65.773,33.762 64.738,32.643 64.529,32.373C64.318,32.099 64.32,31.772 64.32,31.772L64.325,30.981L60.233,30.958L60.566,37.083L64.289,37.104L64.295,36.178C64.295,36.178 64.296,35.853 64.51,35.582C64.723,35.31 65.781,34.196 67.659,34.945C67.689,34.957 67.719,34.97 67.748,34.983ZM69.348,28.888C69.418,29.277 69.427,29.633 69.419,29.882C69.424,30.16 69.408,30.57 69.308,31.009L71.623,31.022L71.618,31.813C71.618,31.813 71.616,32.141 71.827,32.414C72.037,32.686 73.081,33.815 74.968,33.083C76.581,32.463 76.732,30.692 76.717,29.924C76.741,29.157 76.61,27.385 75.005,26.742C73.127,25.993 72.069,27.107 71.856,27.376C71.642,27.647 71.64,27.975 71.64,27.975L71.635,28.901L69.348,28.888ZM66.011,15.669L58.713,15.627L58.698,18.204L60.34,18.213L60.33,19.887L62.472,19.899L62.455,22.863C62.455,22.863 62.392,23.311 61.442,24.015C60.489,24.719 60.368,24.331 60.368,24.331L60.607,26.202L59.977,26.199L60.119,28.836L64.337,28.86L64.342,27.933C64.342,27.933 64.344,27.606 64.558,27.334C64.755,27.086 65.673,26.116 67.293,26.561L67.275,26.24L67.905,26.244L67.666,24.373C67.666,24.373 67.787,24.76 68.74,24.056C69.69,23.353 69.753,22.904 69.753,22.904L69.77,19.941L67.628,19.928L67.638,18.255L65.996,18.245L66.011,15.669Z" style="fill:white;fill-rule:nonzero;"/>
</svg>
